<?xml version="1.0" encoding="UTF-8"?>
<svg width="132px" height="49px" viewBox="0 0 132 49" version="1.1" xmlns="http://www.w3.org/2000/svg" xmlns:xlink="http://www.w3.org/1999/xlink">
    <!-- Generator: Sketch 59.1 (86144) - https://sketch.com -->
    <title>active</title>
    <desc>Created with Sketch.</desc>
    <defs>
        <polygon id="path-1" points="0 0.485265 131.345391 0.485265 131.345391 48.45 0 48.45"></polygon>
    </defs>
    <g id="TELLALL-WEBSITE" stroke="none" stroke-width="1" fill="none" fill-rule="evenodd" opacity="0.600000024">
        <g id="Tellall-2" transform="translate(-997.000000, -1124.000000)">
            <g id="KLIENTET" transform="translate(0.000000, 768.000000)">
                <g id="clients" transform="translate(202.000000, 193.000000)">
                    <g transform="translate(23.000000, 36.000000)" id="active">
                        <g transform="translate(772.000000, 127.000000)">
                            <g id="Group-3" transform="translate(0.000000, 0.152235)">
                                <mask id="mask-2" fill="white">
                                    <use xlink:href="#path-1"></use>
                                </mask>
                                <g id="Clip-2"></g>
                                <path d="M115.312912,48.4501275 C112.28415,48.4501275 109.673587,47.8330275 107.331412,46.5631275 C104.680687,45.12684 102.58905,43.1792775 101.111325,40.8014025 C101.083912,40.8702525 100.693125,41.8328775 100.693125,41.8328775 C99.1318875,45.6821025 95.7671625,48.0740025 91.9128375,48.0740025 C90.9935625,48.0740025 90.0589875,47.9388525 89.13525,47.6736525 C86.6572875,46.9622025 84.6861375,45.321915 83.5042125,43.0135275 C82.078125,46.06779 79.0391625,48.0357525 75.4028625,48.0357525 C75.200775,48.0357525 74.9974125,48.030015 74.7959625,48.0179025 C72.166275,47.861715 69.853425,46.525515 68.3470125,44.53524 C68.119425,44.842515 67.8701625,45.135765 67.601775,45.41244 C65.949375,47.1164775 63.6983625,48.0548775 61.2631125,48.0548775 C60.410775,48.0548775 59.5527,47.935665 58.7112,47.701065 C57.1601625,47.2682025 55.8099375,46.44519 54.7516875,45.3365775 C53.2510125,46.548465 51.5629125,47.2121025 49.9130625,47.73294 C48.4602,48.1913025 46.9104375,48.3914775 45.549375,48.3914775 C45.43845,48.3914775 45.3281625,48.3341025 45.220425,48.3341025 L45.1758,48.3341025 C41.3259375,48.3341025 37.8439125,47.21784 35.0363625,45.0318525 C33.9322125,46.293465 32.4251625,47.2503525 30.6363375,47.711265 C29.7757125,47.9337525 28.91445,48.05934 28.0755,48.05934 C24.47235,48.05934 21.39705,46.0148775 19.850475,42.5787525 C19.8026625,42.47229 19.756125,42.3696525 19.7121375,42.2651025 C19.3360125,42.2651025 18.9637125,42.267015 18.5946,42.267015 C18.1846875,42.267015 17.7779625,42.267015 17.37315,42.267015 C15.9687375,45.84594 12.77805,48.0638025 9.015525,48.0638025 C7.7673,48.0638025 6.511425,47.8253775 5.2836,47.3549025 C1.6326375,45.956865 -0.4570875,42.3097275 0.0847875,38.28009 C0.3385125,36.39054 0.9027,34.7183775 1.3648875,33.47334 L2.25165,31.082715 C4.183275,25.880715 6.179925,20.5021275 8.176575,15.1471275 C8.525925,14.21064 9.099675,12.804315 10.0438125,11.4101025 C11.993925,8.5298775 14.9665875,6.8774775 18.1968,6.8774775 C18.236325,6.8774775 18.2752125,6.8787525 18.3141,6.8787525 C22.2328125,6.8953275 25.45665,8.698815 27.390825,11.9570775 C28.3968,13.6515525 29.0119875,15.3396525 29.5545,16.8288525 C29.6329125,17.044965 29.7119625,17.261715 29.79165,17.47719 C29.79165,17.47719 31.2483375,21.410565 31.3108125,21.578865 C34.3963125,16.77339 39.2413125,14.1309525 44.9922,14.1309525 C45.3288,14.1309525 45.67305,14.1398775 46.01475,14.1577275 C47.7940125,14.247615 50.045025,14.4917775 52.3240875,15.5130525 C52.5255375,13.42524 53.411025,11.6651025 54.8638875,10.1937525 C56.537325,8.4992775 58.7934375,7.72854 61.2172125,7.72854 L61.247175,7.72854 C62.1900375,7.72854 63.10485,7.7049525 63.9686625,7.9765275 C64.998225,6.32859 66.8170125,5.197665 68.8557375,5.197665 C69.0132,5.197665 69.1713,5.1562275 69.3287625,5.1562275 C69.345975,5.1065025 69.3619125,5.03574 69.3784875,4.9853775 C69.437775,4.8068775 69.4977,4.6156275 69.5582625,4.4384025 C70.35705,2.076465 72.5532375,0.485265 75.0216375,0.485265 C77.500875,0.485265 79.6977,2.0771025 80.4913875,4.44924 C80.5494,4.62264 80.696025,5.0657025 80.7132375,5.11479 C80.8522125,5.1154275 80.991825,5.11479 81.1314375,5.11479 C83.6036625,5.11479 85.7992125,6.68814 86.5935375,9.0296775 L86.65665,9.2158275 C87.280125,11.05374 86.938425,13.02489 85.8221625,14.517915 C88.159875,14.6027025 90.281475,15.59019 91.8204,17.2394025 C93.4262625,15.512415 95.65815,14.5415025 98.2075125,14.5415025 C98.479725,14.5415025 98.7595875,14.5529775 99.03945,14.57529 C101.380987,14.76399 103.534462,15.9287025 105.035137,17.6767275 C107.958712,15.321165 111.47835,14.1296775 115.526475,14.1296775 C115.69605,14.1296775 115.865625,14.1309525 116.037112,14.135415 C120.13305,14.2367775 123.981,15.99564 126.873337,19.0881525 C129.714675,22.127115 131.303325,26.133165 131.345391,30.368715 C131.351775,31.04829 131.300137,31.7157525 131.190487,32.3545275 C131.051512,33.1654275 130.824562,33.91704 130.51155,34.6036275 C131.108887,36.2509275 131.175187,38.0792775 130.683037,39.9063525 C130.134787,41.9438025 128.913337,43.6574025 127.053112,44.99679 C124.285087,46.9889775 121.046587,48.096315 117.15465,48.3800025 C116.508225,48.4271775 115.906425,48.4501275 115.312912,48.4501275" id="Fill-1" fill="#40A593" mask="url(#mask-2)"></path>
                            </g>
                            <path d="M128.525926,30.548745 C128.49042,27.02082 127.172708,23.689245 124.813958,21.1666575 C122.442458,18.6306825 119.30022,17.1886575 115.96737,17.1070575 C115.81947,17.1032325 115.672845,17.10132 115.52622,17.10132 C111.506783,17.10132 108.122295,18.4968075 105.468383,21.2495325 C105.038708,21.695145 104.642183,22.15797 104.27817,22.6367325 C104.25012,22.4569575 104.213145,22.27527 104.166608,22.0897575 C103.537395,19.6137075 101.33547,17.7420075 98.81352,17.5380075 C98.6088825,17.5214325 98.40552,17.513145 98.2072575,17.513145 C95.609445,17.513145 93.56817,18.925845 92.6100075,21.38787 C92.34162,22.07637 92.0885325,22.768695 91.8437325,23.4565575 C91.554945,22.6520325 91.243845,21.8424075 90.8874825,21.037245 C89.90382,18.8117325 87.888045,17.48382 85.4942325,17.48382 C84.9906075,17.48382 84.4755075,17.54502 83.9655075,17.6655075 C83.2107075,17.8427325 82.5145575,18.1691325 81.9025575,18.6090075 C81.9063825,18.3030075 81.8630325,17.9931825 81.7674075,17.69037 C81.63417,17.26707 81.50922,16.8584325 81.3874575,16.462545 C81.2421075,15.9901575 81.1005825,15.5298825 80.957145,15.0759825 C81.3313575,14.8005825 81.6998325,14.524545 82.06257,14.25297 C82.35837,14.0317575 82.65417,13.810545 82.951245,13.58997 C83.98017,12.82752 84.39837,11.487495 83.9871825,10.27497 L83.922795,10.087545 C83.517345,8.891595 82.395345,8.08707 81.1311825,8.08707 C80.75952,8.08707 80.3878575,8.0838825 80.0155575,8.08197 C79.63497,8.080695 79.253745,8.07687 78.8731575,8.07687 C78.807495,8.07687 78.74247,8.0736825 78.6793575,8.0736825 C78.5289075,7.624245 78.3759075,7.162695 78.218445,6.6966825 C78.08712,6.3103575 77.9538825,5.920845 77.8174575,5.512845 C77.4158325,4.3124325 76.2925575,3.490695 75.0264825,3.490695 L75.0213825,3.490695 C73.7578575,3.490695 72.633945,4.30542 72.228495,5.5032825 C72.0914325,5.910645 71.9550075,6.3626325 71.82177,6.74832 C71.659845,7.2168825 71.50302,7.88052 71.35002,8.154645 L71.11032,8.154645 C70.7284575,8.154645 70.3472325,8.118945 69.9660075,8.1208575 C69.5962575,8.124045 69.22587,8.1068325 68.8554825,8.1068325 C67.4848575,8.1068325 66.29592,9.042045 65.98482,10.3763325 L65.9446575,10.5433575 C65.6781825,11.6870325 66.1167825,12.8766075 67.0590075,13.5765825 C67.345245,13.78887 67.6302075,14.0037075 67.913895,14.2204575 C68.291295,14.5073325 68.673795,14.7980325 69.0684075,15.088095 C68.918595,15.5541075 68.77452,16.0245825 68.627895,16.508445 C68.5112325,16.888395 68.3926575,17.2791825 68.2651575,17.6846325 C68.232645,17.785995 68.20842,17.8886325 68.18802,17.99127 C67.9068825,17.9192325 67.6161825,17.86377 67.31337,17.8261575 C67.312095,17.602395 67.3089075,16.554345 67.3089075,16.554345 C67.296795,13.040445 64.6913325,10.3495575 61.2475575,10.3495575 L61.2169575,10.3495575 C59.55372,10.3495575 58.009695,10.9972575 56.8704825,12.15177 C55.74912,13.2871575 55.1199075,14.8337325 55.1007825,16.495695 C55.095045,17.0101575 55.09377,17.528445 55.095045,18.03462 C54.225495,18.27687 53.4789825,18.678495 52.87272,19.21782 C52.634295,19.03932 52.38057,18.8729325 52.111545,18.7173825 C49.9714575,17.4844575 47.7567825,17.22117 45.871695,17.1249075 C45.5765325,17.110245 45.2807325,17.1032325 44.9925825,17.1032325 C40.0659825,17.1032325 36.09882,19.3204575 33.5201325,23.515845 C32.29422,25.5093075 31.6152825,27.738645 31.46547,30.270795 C30.4639575,27.5607825 29.46117,24.85587 28.4800575,22.2070575 L27.147045,18.60837 C27.065445,18.387795 26.98512,18.1665825 26.904795,17.9460075 C26.379495,16.505895 25.8369825,15.0160575 24.9661575,13.5485325 C23.53497,11.138145 21.2265825,9.85932 18.28962,9.8510325 C18.2583825,9.8497575 18.2277825,9.8497575 18.1971825,9.8497575 C15.916845,9.8497575 13.7958825,11.0508075 12.37872,13.1430825 C11.604795,14.2867575 11.117745,15.4839825 10.8187575,16.2846825 C8.8386825,21.5937825 6.8343825,26.9934075 4.895745,32.216445 L4.008345,34.60707 C3.59652,35.715045 3.09672,37.1946825 2.87997,38.808195 C2.51022,41.5577325 3.8496075,43.938795 6.2925075,44.8740075 C7.19712,45.2208075 8.11257,45.3967575 9.01527,45.3967575 C11.660895,45.3967575 13.81692,43.8629325 14.784645,41.29572 C14.998845,40.72707 15.192645,40.1590575 15.3743325,39.59487 C16.4211075,39.598695 17.49912,39.601245 18.5949825,39.601245 C19.6009575,39.601245 20.6260575,39.59997 21.692595,39.596145 C21.89022,40.236195 22.1203575,40.9100325 22.421895,41.5794075 C23.515845,44.0108325 25.5768825,45.4044075 28.0758825,45.4044075 C28.6764075,45.4044075 29.3011575,45.32217 29.93292,45.15897 C32.38347,44.52657 33.95427,42.7167075 34.2060825,40.3477575 C36.51957,43.4982825 40.2419325,45.74292 45.1761825,45.74292 L45.2628825,45.74292 C45.356595,45.74292 45.4528575,45.762045 45.5497575,45.762045 C46.61502,45.762045 47.89512,45.5574075 49.0649325,45.188295 C50.854395,44.6241075 52.8861075,43.8578325 54.3370575,41.8560825 C54.7144575,41.3358825 54.9936825,40.7723325 55.1772825,40.18392 C55.54002,42.56562 57.175845,44.4966075 59.4689325,45.13602 C60.0630825,45.30177 60.666795,45.38592 61.2628575,45.38592 C64.7079075,45.38592 67.3076325,42.7052325 67.3114575,39.1505325 L67.312095,37.2622575 C67.3152825,34.6918575 67.4058075,32.0538825 67.3943325,29.424195 C68.13702,29.34132 68.9651325,29.141145 69.51402,28.8408825 L69.51402,31.46292 C69.51402,32.2043325 69.42477,32.9451075 69.4241325,33.68652 C69.420945,35.52252 69.37377,37.420995 69.38652,39.295245 C69.410745,42.5076075 71.8581075,45.16917 74.9869575,45.35532 C75.1323075,45.3636075 75.26937,45.3687075 75.413445,45.3687075 C78.6258075,45.3687075 81.0661575,43.2560325 81.4945575,40.1093325 C81.6552075,38.92932 81.6271575,37.790745 81.6042075,36.78477 C81.59592,36.4054575 81.5863575,36.049095 81.5876325,35.7003825 C81.5940075,34.0964325 81.5965575,32.5052325 81.5978325,30.9306075 C83.1023325,34.71927 84.4449075,38.07507 85.738395,41.27532 C86.5167825,43.2012075 87.9996075,44.5654575 89.91402,45.11562 C90.5840325,45.308145 91.256595,45.40632 91.9125825,45.40632 C94.63662,45.40632 96.94182,43.73097 98.0797575,40.924695 L98.4150825,40.1004075 C99.34647,37.8015825 100.311008,35.4249825 101.23602,33.0700575 C101.290845,32.9298075 101.347583,32.7882825 101.40432,32.6467575 C101.440658,33.1376325 101.497395,33.6336075 101.577083,34.1359575 C102.28407,38.6099325 104.739083,42.1021575 108.675645,44.2365075 C110.59452,45.2769075 112.765208,45.782445 115.312658,45.782445 C115.83732,45.782445 116.37282,45.762045 116.949758,45.71997 C120.306833,45.47517 123.072945,44.5399575 125.40492,42.8607825 C126.725183,41.9096325 127.58517,40.720695 127.960658,39.3252075 C128.42157,37.612245 128.183783,35.9592075 127.313595,34.61727 C127.86312,33.93642 128.23287,33.070695 128.41137,32.0309325 C128.491695,31.558545 128.530583,31.06002 128.525926,30.548745 M54.2937075,35.0310075 C53.1627825,33.5048325 51.74052,32.7309075 50.063895,32.7309075 C49.35117,32.7309075 48.615495,32.87562 47.81607,33.172695 C46.82157,33.542445 46.0087575,33.736245 45.257145,33.78087 C45.193395,33.784695 45.132195,33.787245 45.073545,33.787245 C44.492145,33.787245 44.3040825,33.6412575 44.063745,33.2294325 C43.7188575,32.639745 43.6028325,31.912995 43.68762,30.8732325 C43.762845,29.952045 44.0172075,29.100345 45.3623325,29.100345 C45.53127,29.100345 45.713595,29.11437 45.902295,29.141145 C46.17387,29.18067 46.53852,29.314545 46.9599075,29.470095 C47.355795,29.615445 47.8052325,29.7805575 48.30822,29.913795 C48.83097,30.05277 49.3594575,30.122895 49.87902,30.122895 C51.361845,30.122895 52.685295,29.5689075 53.6715075,28.5960825 C54.10182,28.852995 54.5780325,29.06082 55.09887,29.21127 C55.09887,30.533445 55.0982325,31.85562 55.097595,33.177795 C55.097595,33.7534575 55.0969575,34.32912 55.09632,34.90542 C55.0956825,35.4402825 55.095045,35.982795 55.0944075,36.5278575 C54.906345,36.0038325 54.6392325,35.4989325 54.2937075,35.0310075" id="Fill-4" fill="#FFFFFF"></path>
                            <path d="M18.2634825,12.798705 C20.2690575,12.79998 21.5542575,13.576455 22.43082,15.0535425 C23.28507,16.49238 23.80527,18.0740175 24.382845,19.63143 C26.430495,25.1604675 28.4800575,30.6888675 30.520695,36.220455 C30.9114825,37.281255 31.2391575,38.36373 31.290795,39.5054925 C31.35582,40.9602675 30.6182325,41.9381925 29.1966075,42.304755 C27.32682,42.786705 25.89627,42.1166925 25.109595,40.3699425 C24.63657,39.318705 24.3630825,38.196705 24.02967,37.0982925 C23.923845,36.7502175 23.7689325,36.6405675 23.40747,36.64248 C20.1619575,36.6558675 16.916445,36.6584175 13.670295,36.638655 C13.2922575,36.63738 13.1647575,36.76998 13.0627575,37.1021175 C12.73827,38.1603675 12.415695,39.2211675 12.0261825,40.2564675 C11.1400575,42.60693 9.03312,42.7669425 7.346295,42.121155 C6.1662825,41.6691675 5.6193075,40.552905 5.8016325,39.2007675 C5.9673825,37.9678425 6.341595,36.79293 6.772545,35.63268 C9.0388575,29.5260675 11.3045325,23.41818 13.581045,17.314755 C13.90872,16.4369175 14.29122,15.5775675 14.820345,14.79663 C15.707745,13.484655 16.92282,12.77448 18.2634825,12.798705 M18.6651075,20.0540925 C17.5176075,23.508705 16.44087,26.78163 15.33672,30.0449925 C15.1920075,30.47403 15.2838075,30.549255 15.69882,30.5447925 C17.6183325,30.5294925 19.5384825,30.5282175 21.457995,30.5460675 C21.8666325,30.5498925 21.90807,30.4517175 21.78822,30.080055 C21.14562,28.07703 20.5278825,26.06508 19.9031325,24.0550425 C19.507245,22.78068 19.1139075,21.504405 18.6651075,20.0540925" id="Fill-6" fill="#22376E"></path>
                            <path d="M117.206096,33.5339025 C115.390496,33.5339025 113.574896,33.558765 111.760571,33.51924 C111.147296,33.5058525 111.081634,33.727065 111.229534,34.224315 C111.573784,35.38074 112.354721,36.13044 113.454409,36.52314 C115.717534,37.3321275 117.901609,36.9904275 120.025121,35.9844525 C120.544684,35.73774 121.073171,35.51079 121.596559,35.2717275 C122.614646,34.8076275 123.560696,34.930665 124.383709,35.685465 C125.240509,36.4727775 125.406896,37.47174 125.114284,38.5586775 C124.893709,39.3785025 124.354384,39.984765 123.682459,40.46799 C121.609309,41.961015 119.238446,42.59724 116.734984,42.7789275 C114.431696,42.9472275 112.160284,42.771915 110.080759,41.644815 C106.903459,39.92229 105.048334,37.2186525 104.488609,33.676065 C103.866409,29.7420525 104.771659,26.2192275 107.590684,23.2956525 C109.859546,20.943915 112.642871,19.97364 115.894759,20.053965 C121.084646,20.1821025 125.519734,24.75489 125.577746,30.5784525 C125.580934,30.896565 125.559259,31.2197775 125.505709,31.53279 C125.290871,32.78739 124.738796,33.30504 123.479096,33.4497525 C121.968221,33.622515 120.450334,33.500115 118.935634,33.53199 C118.359334,33.5441025 117.782396,33.5339025 117.206096,33.5339025 M115.182671,29.1287775 C116.335271,29.1287775 117.487871,29.1007275 118.639196,29.139615 C119.233984,29.160015 119.280521,28.9209525 119.119871,28.45749 C118.732909,27.34059 118.016359,26.48379 117.004646,25.90494 C114.778496,24.6305775 111.663671,26.1325275 111.198934,28.6595775 C111.126259,29.058015 111.233996,29.1377025 111.598009,29.1338775 C112.792684,29.119215 113.987996,29.1275025 115.182671,29.1287775" id="Fill-8" fill="#22376E"></path>
                            <path d="M45.314265,42.8222138 C38.635815,42.8923387 34.874565,37.8784012 34.4493525,32.9403262 C34.209015,30.1499887 34.543065,27.4801388 36.03099,25.0601887 C38.2463025,21.4557637 41.5192275,19.8569138 45.722265,20.0704762 C47.443515,20.1571763 49.12014,20.3968762 50.63994,21.2728013 C52.2279525,22.1876137 52.839315,23.7137887 52.2968025,25.3387763 C51.81294,26.7884513 50.544315,27.4559138 49.0621275,27.0638512 C48.1377525,26.8190512 47.28669,26.3626013 46.3221525,26.2229887 C43.1996775,25.7741888 41.00604,27.4839638 40.7491275,30.6332137 C40.6331025,32.0580262 40.7771775,33.4484138 41.517315,34.7164012 C42.3938775,36.2177138 43.72944,36.8278012 45.434115,36.7238888 C46.6166775,36.6518512 47.73804,36.3471263 48.8428275,35.9359387 C50.2376775,35.4176512 51.10149,35.6745637 51.9232275,36.7850887 C52.65954,37.7795888 52.6856775,39.1145138 51.9500025,40.1294137 C51.018615,41.4133387 49.6052775,41.9341763 48.177915,42.3842512 C47.1381525,42.7119263 46.05759,42.8598262 45.314265,42.8222138" id="Fill-10" fill="#22376E"></path>
                            <path d="M91.8324487,32.37786 C92.4316987,30.6763725 92.9888737,29.0928225 93.5492363,27.50991 C94.1465738,25.823085 94.7088488,24.12351 95.3565488,22.4577225 C95.9302987,20.9850975 97.0357238,20.3526975 98.5759238,20.47701 C99.8547487,20.5796475 100.985036,21.5435475 101.309524,22.816635 C101.505236,23.586735 101.384111,24.341535 101.157161,25.0842225 C100.432961,27.4506225 99.3938362,29.69526 98.4917737,31.99281 C97.4647613,34.6084725 96.4045987,37.2120225 95.3482612,39.81621 C94.4755237,41.969685 92.7708487,42.8691975 90.7282988,42.2826975 C89.6145862,41.962035 88.8859237,41.1976725 88.4715488,40.1712975 C86.5335487,35.375385 84.6204113,30.568635 82.7193863,25.75806 C82.4541862,25.0880475 82.2673988,24.38361 82.2692967,23.6434725 C82.2731362,22.168935 83.2644487,20.8588725 84.6408112,20.5350225 C86.1727238,20.1741975 87.5458988,20.7696225 88.1916862,22.2294975 C89.0950237,24.2733225 89.7133987,26.4280725 90.4745738,28.528635 C90.9233738,29.7660225 91.3511362,31.0116975 91.8324487,32.37786" id="Fill-12" fill="#22376E"></path>
                            <path d="M58.0462237,33.1778588 C58.0468612,31.2557963 58.0468612,29.3343713 58.0468612,27.4123088 C58.0462237,26.5280963 58.0462237,26.5300088 57.1906987,26.5236338 C56.9356987,26.5223588 56.6749613,26.5319213 56.4237862,26.4923963 C54.7943363,26.2303838 53.9694113,25.2231338 54.0140362,23.5681838 C54.0605738,21.8443838 54.9084487,20.9200088 56.6010112,20.7466088 C56.7705862,20.7293963 56.9401613,20.7070838 57.1097363,20.6898713 C58.0468612,20.5936088 58.0468612,20.5936088 58.0468612,19.6112213 C58.0468612,18.5854838 58.0366613,17.5610213 58.0487738,16.5359213 C58.0704487,14.6788838 59.4315112,13.3127213 61.2330862,13.3216028 C63.0410362,13.3299338 64.3542863,14.6941838 64.3600237,16.5767213 C64.3644862,17.7720338 64.3753237,18.9686213 64.3549237,20.1632963 C64.3479113,20.5496213 64.4594738,20.6936963 64.8598238,20.6758463 C65.5413113,20.6446088 66.2221612,20.6707463 66.9049237,20.7466088 C68.5413863,20.9295713 69.4523737,21.9514838 69.4410059,23.6300213 C69.4300612,25.3206713 68.4667988,26.3929463 66.8220488,26.5083338 C66.2476612,26.5484963 65.6662613,26.5586963 65.0937862,26.5147088 C64.5295988,26.4713588 64.3408987,26.6211713 64.3459988,27.2325338 C64.3778738,31.2041588 64.3663988,35.1764213 64.3625737,39.1474088 C64.3606612,41.4608963 62.4647363,42.9124838 60.2608988,42.2972963 C58.9489237,41.9313713 58.0570612,40.7003588 58.0481362,39.1996838 C58.0366613,37.1921963 58.0455862,35.1853463 58.0462237,33.1778588" id="Fill-14" fill="#22376E"></path>
                            <path d="M72.2878463,31.46394 C72.2884837,28.9247775 72.2878463,26.385615 72.2884837,23.845815 C72.2897588,21.854265 73.5724087,20.472165 75.4205213,20.467054 C77.3126213,20.4626025 78.6296962,21.81984 78.6379838,23.84199 C78.6539212,27.78939 78.6526462,31.7374275 78.6386212,35.685465 C78.6335213,37.0274025 78.7495462,38.375715 78.5678587,39.7112775 C78.3268837,41.4822525 76.9811213,42.5226525 75.1406588,42.412365 C73.5520087,42.318015 72.3037838,40.969065 72.2923088,39.2739525 C72.2731838,36.6704025 72.2865713,34.0668525 72.2878463,31.46394" id="Fill-16" fill="#22376E"></path>
                            <polygon id="Fill-18" fill="#D42727" points="75.0053175 6.51862875 76.518105 11.1730162 81.411555 11.1730162 77.4520425 13.9786537 78.96483 18.5973412 75.0053175 15.7037287 71.0464425 18.5712037 72.5585925 13.9831162 68.59908 11.1730162 73.4931675 11.1730162"></polygon>
                        </g>
                    </g>
                </g>
            </g>
        </g>
    </g>
</svg>