<?xml version="1.0" encoding="UTF-8"?>
<svg width="153px" height="40px" viewBox="0 0 153 40" version="1.1" xmlns="http://www.w3.org/2000/svg" xmlns:xlink="http://www.w3.org/1999/xlink">
    <!-- Generator: Sketch 59.1 (86144) - https://sketch.com -->
    <title>artizan</title>
    <desc>Created with Sketch.</desc>
    <defs>
        <polygon id="path-1" points="0.43012125 0.3112275 4.69754625 0.3112275 4.69754625 5.1 0.43012125 5.1"></polygon>
        <polygon id="path-3" points="0.042791271 0.369940038 8.100075 0.369940038 8.100075 4.7546383 0.042791271 4.7546383"></polygon>
        <polygon id="path-5" points="0 0.298027625 144.068163 0.298027625 144.068163 26.87649 0 26.87649"></polygon>
    </defs>
    <g id="TELLALL-WEBSITE" stroke="none" stroke-width="1" fill="none" fill-rule="evenodd" opacity="0.600000024">
        <g id="Tellall-2" transform="translate(-986.000000, -1014.000000)">
            <g id="KLIENTET" transform="translate(0.000000, 768.000000)">
                <g id="clients" transform="translate(202.000000, 193.000000)">
                    <g transform="translate(23.000000, 36.000000)" id="artizan">
                        <g transform="translate(761.000000, 17.000000)">
                            <path d="M65.265975,36.7145812 C64.98165,36.8599312 64.6150875,36.9326062 64.1662875,36.9326062 C63.871125,36.9326062 63.613575,36.8835188 63.3949125,36.7859812 C63.6939,35.9610562 64.2160125,35.5485937 64.959975,35.5485937 C65.4483,35.5485937 65.6924625,35.7258187 65.6924625,36.0789937 C65.6924625,36.3575812 65.5503,36.5692313 65.265975,36.7145812 M66.09345,35.1520687 C65.8206,34.9569937 65.4553125,34.8588187 64.9988625,34.8588187 C64.2402375,34.8588187 63.6103875,35.1278437 63.1105875,35.6652562 C62.6107875,36.2026687 62.36025,36.8631187 62.36025,37.6478812 C62.36025,38.9808937 62.955675,39.6477187 64.14525,39.6477187 C64.4990625,39.6477187 64.90515,39.5712187 65.3647875,39.4194937 L65.45085,38.5830937 C65.1066,38.8329937 64.7642625,38.9585812 64.42575,38.9585812 C64.04325,38.9585812 63.7455375,38.8559437 63.53325,38.6525812 C63.320325,38.4479437 63.2138625,38.1566062 63.2138625,37.7772937 C63.2138625,37.6510687 63.22725,37.5184687 63.2533875,37.3807687 C63.5377125,37.5356812 63.886425,37.6134562 64.3001625,37.6134562 C64.9179,37.6134562 65.439375,37.4681062 65.8645875,37.1780438 C66.2898,36.8879812 66.502725,36.4914562 66.502725,35.9884687 C66.502725,35.6263687 66.3663,35.3477812 66.09345,35.1520687" id="Fill-1" fill="#3C3D3C"></path>
                            <path d="M73.308165,38.3288587 C72.9658275,38.7598087 72.5514525,38.9752837 72.06249,38.9752837 C71.936265,38.9752837 71.81004,38.9408587 71.68509,38.8720087 C71.56014,38.8031587 71.46324,38.7196462 71.39439,38.6221087 C71.32554,38.5245712 71.293665,38.4595462 71.2994025,38.4283087 L71.7303525,36.1823962 C71.9687775,35.7597337 72.252465,35.5487212 72.5795025,35.5487212 C73.4069775,35.5487212 73.8213525,36.0172837 73.8213525,36.9537712 C73.8213525,37.4395462 73.649865,37.8979087 73.308165,38.3288587 M72.9977025,34.8589462 C72.4456275,34.8589462 72.06249,35.0501962 71.847015,35.4326962 L72.23079,33.0535462 L71.4371025,33.0535462 L70.610265,37.7729587 C70.480215,38.4856837 70.322115,39.1104337 70.1353275,39.6478462 L70.674015,39.6478462 L71.110065,39.1174462 C71.293665,39.4712587 71.620065,39.6478462 72.0886275,39.6478462 C72.8294025,39.6478462 73.45224,39.3692588 73.95459,38.8114462 C74.4575775,38.2542712 74.7087525,37.6116713 74.7087525,36.8849212 C74.7087525,36.2671837 74.5468275,35.7750337 74.2242525,35.4084712 C73.90104,35.0425462 73.491765,34.8589462 72.9977025,34.8589462" id="Fill-3" fill="#3C3D3C"></path>
                            <path d="M78.6441037,36.7145812 C78.3597788,36.8599312 77.9932163,36.9326062 77.5444163,36.9326062 C77.2492538,36.9326062 76.9910663,36.8835188 76.7730413,36.7859812 C77.0720288,35.9610562 77.5935038,35.5485937 78.3381038,35.5485937 C78.8257913,35.5485937 79.0705913,35.7258187 79.0705913,36.0789937 C79.0705913,36.3575812 78.9277912,36.5692313 78.6441037,36.7145812 M79.4715788,35.1520687 C79.1980913,34.9569937 78.8334413,34.8588187 78.3763538,34.8588187 C77.6183663,34.8588187 76.9885163,35.1278437 76.4887163,35.6652562 C75.9889163,36.2026687 75.7383788,36.8631187 75.7383788,37.6478812 C75.7383788,38.9815312 76.3331663,39.6477187 77.5227413,39.6477187 C77.8765538,39.6477187 78.2832788,39.5712187 78.7429163,39.4194937 L78.8289788,38.5830937 C78.4840913,38.8329937 78.1423913,38.9585812 77.8032412,38.9585812 C77.4213788,38.9585812 77.1236662,38.8559437 76.9107413,38.6519437 C76.6984537,38.4479437 76.5919913,38.1566062 76.5919913,37.7772937 C76.5919913,37.6510687 76.6053788,37.5184687 76.6308788,37.3807687 C76.9152038,37.5356812 77.2645538,37.6134562 77.6782913,37.6134562 C78.2960288,37.6134562 78.8175038,37.4681062 79.2427163,37.1780438 C79.6679288,36.8879812 79.8802163,36.4914562 79.8802163,35.9884687 C79.8802163,35.6263687 79.7444288,35.3477812 79.4715788,35.1520687" id="Fill-5" fill="#3C3D3C"></path>
                            <path d="M77.742615,34.1262675 C77.8376025,34.0319175 77.885415,33.91653 77.885415,33.78138 C77.885415,33.6468675 77.83824,33.5321175 77.745165,33.4390425 C77.6514525,33.34533 77.53734,33.2987925 77.40219,33.2987925 C77.26704,33.2987925 77.15229,33.34533 77.05794,33.4390425 C76.962315,33.5321175 76.91514,33.6468675 76.91514,33.78138 C76.91514,33.91653 76.962315,34.0319175 77.05794,34.1262675 C77.15229,34.221255 77.26704,34.26843 77.40219,34.26843 C77.53479,34.26843 77.648265,34.221255 77.742615,34.1262675" id="Fill-7" fill="#3C3D3C"></path>
                            <path d="M79.4366438,33.2988563 C79.3014937,33.2988563 79.1873812,33.3453937 79.0943062,33.4391063 C79.0005937,33.5321813 78.9540562,33.6462937 78.9540562,33.7814438 C78.9540562,33.9165937 79.0005937,34.0313437 79.0943062,34.1263312 C79.1873812,34.2213188 79.3014937,34.2684937 79.4366438,34.2684937 C79.5717937,34.2684937 79.6871812,34.2213188 79.7815313,34.1263312 C79.8758812,34.0313437 79.9243312,33.9165937 79.9243312,33.7814438 C79.9243312,33.6462937 79.8758812,33.5321813 79.7815313,33.4391063 C79.6871812,33.3453937 79.5717937,33.2988563 79.4366438,33.2988563" id="Fill-9" fill="#3C3D3C"></path>
                            <path d="M82.2680362,35.6823413 L82.3974487,34.9453913 L81.5788987,34.9453913 L80.7641737,39.5615288 L81.5833612,39.5615288 L82.0525612,36.9152663 C82.1188612,36.5416912 82.2839738,36.2203913 82.5485362,35.9520038 C82.8124612,35.6829788 83.0904112,35.5491038 83.3804737,35.5491038 C83.6099737,35.5491038 83.8114237,35.6179538 83.9835487,35.7556538 L84.2168737,34.9192538 C84.0039488,34.8790913 83.8477613,34.8593288 83.7463987,34.8593288 C83.1579862,34.8593288 82.6645613,35.1334538 82.2680362,35.6823413" id="Fill-11" fill="#3C3D3C"></path>
                            <path d="M87.767685,36.7145812 C87.48336,36.8599312 87.1167975,36.9326062 86.668635,36.9326062 C86.372835,36.9326062 86.115285,36.8835188 85.8966225,36.7859812 C86.19561,35.9610562 86.7177225,35.5485937 87.4623225,35.5485937 C87.95001,35.5485937 88.1941725,35.7258187 88.1941725,36.0789937 C88.1941725,36.3575812 88.05201,36.5692313 87.767685,36.7145812 M88.59516,35.1520687 C88.32231,34.9569937 87.95766,34.8588187 87.5005725,34.8588187 C86.7419475,34.8588187 86.112735,35.1278437 85.6122975,35.6652562 C85.1124975,36.2026687 84.8625975,36.8631187 84.8625975,37.6478812 C84.8625975,38.9815312 85.457385,39.6477187 86.64696,39.6477187 C87.0007725,39.6477187 87.4074975,39.5712187 87.8664975,39.4194937 L87.9531975,38.5830937 C87.60831,38.8329937 87.26661,38.9585812 86.92746,38.9585812 C86.54496,38.9585812 86.2472475,38.8559437 86.03496,38.6519437 C85.822035,38.4479437 85.71621,38.1566062 85.71621,37.7772937 C85.71621,37.6510687 85.72896,37.5184687 85.7550975,37.3807687 C86.0394225,37.5356812 86.3887725,37.6134562 86.8018725,37.6134562 C87.4202475,37.6134562 87.941085,37.4681062 88.366935,37.1780438 C88.7921475,36.8879812 89.004435,36.4914562 89.004435,35.9884687 C89.004435,35.6263687 88.8686475,35.3477812 88.59516,35.1520687" id="Fill-13" fill="#3C3D3C"></path>
                            <path d="M88.5608625,33.2988563 C88.4257125,33.2988563 88.3116,33.3453937 88.218525,33.4391063 C88.1248125,33.5321813 88.078275,33.6462937 88.078275,33.7814438 C88.078275,33.9165937 88.1248125,34.0313437 88.218525,34.1263312 C88.3116,34.2213188 88.4257125,34.2684937 88.5608625,34.2684937 C88.6960125,34.2684937 88.8114,34.2213188 88.90575,34.1263312 C89.0001,34.0313437 89.0479125,33.9165937 89.0479125,33.7814438 C89.0479125,33.6462937 89.0001,33.5321813 88.90575,33.4391063 C88.8114,33.3453937 88.6960125,33.2988563 88.5608625,33.2988563" id="Fill-15" fill="#3C3D3C"></path>
                            <path d="M86.8668337,34.1262675 C86.9618212,34.0319175 87.0096337,33.91653 87.0096337,33.78138 C87.0096337,33.6468675 86.9624587,33.5321175 86.8693837,33.4390425 C86.7756712,33.34533 86.6615587,33.2987925 86.5264088,33.2987925 C86.3912587,33.2987925 86.2765088,33.34533 86.1815213,33.4390425 C86.0865338,33.5321175 86.0393587,33.6468675 86.0393587,33.78138 C86.0393587,33.91653 86.0865338,34.0319175 86.1815213,34.1262675 C86.2765088,34.221255 86.3912587,34.26843 86.5264088,34.26843 C86.6590087,34.26843 86.7724837,34.221255 86.8668337,34.1262675" id="Fill-17" fill="#3C3D3C"></path>
                            <path d="M98.2926825,34.8593288 C98.02812,34.8593288 97.7610075,34.9173412 97.4907075,35.0333663 C97.2204075,35.1500288 97.0227825,35.2972913 96.8965575,35.4757913 C96.7040325,35.0646038 96.2781825,34.8593288 95.62092,34.8593288 C95.33277,34.8593288 95.0567325,34.9135163 94.790895,35.0225288 C94.5250575,35.1321788 94.334445,35.2800788 94.2190575,35.4668663 C94.2114075,35.2858163 94.1808075,35.0850038 94.12917,34.8631538 L93.3316575,35.0142413 C93.3890325,35.2125038 93.4183575,35.4713288 93.4183575,35.7900787 C93.4183575,35.9622038 93.4094325,36.0979912 93.39222,36.1955288 L92.7974325,39.5615288 L93.633195,39.5615288 L94.2369075,36.1566412 C94.3401825,36.0042788 94.492545,35.8646662 94.6933575,35.7384413 C94.8948075,35.6122163 95.0771325,35.5491038 95.24097,35.5491038 C95.78412,35.5491038 96.055695,35.7486413 96.055695,36.1477163 C96.055695,36.1878788 96.0512325,36.2325037 96.042945,36.2815913 L95.4609075,39.5615288 L96.3011325,39.5615288 L96.904845,36.1477163 C97.00302,35.9813288 97.147095,35.8398038 97.338345,35.7231413 C97.5289575,35.6071163 97.718295,35.5491038 97.9050825,35.5491038 C98.41317,35.5491038 98.6675325,35.8015538 98.6675325,36.3070912 C98.6675325,36.4135538 98.6573325,36.5244788 98.63757,36.6392288 L98.11992,39.5615288 L98.9607825,39.5615288 L99.5077575,36.4753913 C99.533895,36.3287663 99.5472825,36.1897912 99.5472825,36.0571913 C99.5472825,35.2584038 99.1290825,34.8593288 98.2926825,34.8593288" id="Fill-19" fill="#3C3D3C"></path>
                            <path d="M103.555181,36.7145812 C103.270856,36.8599312 102.904294,36.9326062 102.456131,36.9326062 C102.160331,36.9326062 101.902781,36.8835188 101.684119,36.7859812 C101.983106,35.9610562 102.505219,35.5485937 103.249181,35.5485937 C103.737506,35.5485937 103.981669,35.7258187 103.981669,36.0789937 C103.981669,36.3575812 103.839506,36.5692313 103.555181,36.7145812 M104.382656,35.1520687 C104.109806,34.9569937 103.745156,34.8588187 103.288069,34.8588187 C102.529444,34.8588187 101.899594,35.1278437 101.399794,35.6652562 C100.899994,36.2026687 100.650094,36.8631187 100.650094,37.6478812 C100.650094,38.9808937 101.244881,39.6477187 102.434456,39.6477187 C102.788269,39.6477187 103.194994,39.5712187 103.653994,39.4194937 L103.740694,38.5830937 C103.395806,38.8329937 103.054106,38.9585812 102.714956,38.9585812 C102.332456,38.9585812 102.034744,38.8559437 101.822456,38.6525812 C101.609531,38.4479437 101.503706,38.1566062 101.503706,37.7772937 C101.503706,37.6510687 101.516456,37.5184687 101.542594,37.3807687 C101.826919,37.5356812 102.176269,37.6134562 102.589369,37.6134562 C103.207744,37.6134562 103.728581,37.4681062 104.153794,37.1780438 C104.579006,36.8879812 104.791931,36.4914562 104.791931,35.9884687 C104.791931,35.6263687 104.656144,35.3477812 104.382656,35.1520687" id="Fill-21" fill="#3C3D3C"></path>
                            <path d="M114.080115,34.8593288 C113.815553,34.8593288 113.54844,34.9173412 113.27814,35.0333663 C113.00784,35.1500288 112.810215,35.2972913 112.683352,35.4757913 C112.490828,35.0646038 112.065615,34.8593288 111.407715,34.8593288 C111.120203,34.8593288 110.843528,34.9135163 110.57769,35.0225288 C110.31249,35.1321788 110.121877,35.2800788 110.00649,35.4668663 C109.998203,35.2858163 109.96824,35.0850038 109.916602,34.8631538 L109.11909,35.0142413 C109.176465,35.2125038 109.205153,35.4713288 109.205153,35.7900787 C109.205153,35.9622038 109.196865,36.0979912 109.179652,36.1955288 L108.584227,39.5615288 L109.420628,39.5615288 L110.02434,36.1566412 C110.127615,36.0042788 110.279978,35.8646662 110.48079,35.7384413 C110.68224,35.6122163 110.864565,35.5491038 111.028402,35.5491038 C111.570915,35.5491038 111.843128,35.7486413 111.843128,36.1477163 C111.843128,36.1878788 111.838665,36.2325037 111.830378,36.2815913 L111.24834,39.5615288 L112.088565,39.5615288 L112.692278,36.1477163 C112.789815,35.9813288 112.93389,35.8398038 113.12514,35.7231413 C113.31639,35.6071163 113.505727,35.5491038 113.692515,35.5491038 C114.200603,35.5491038 114.454965,35.8015538 114.454965,36.3070912 C114.454965,36.4135538 114.444765,36.5244788 114.425003,36.6392288 L113.907353,39.5615288 L114.748215,39.5615288 L115.29519,36.4753913 C115.321328,36.3287663 115.334715,36.1897912 115.334715,36.0571913 C115.334715,35.2584038 114.916515,34.8593288 114.080115,34.8593288" id="Fill-23" fill="#3C3D3C"></path>
                            <path d="M119.342614,36.7145812 C119.058289,36.8599312 118.691726,36.9326062 118.242926,36.9326062 C117.947764,36.9326062 117.690214,36.8835188 117.471551,36.7859812 C117.770539,35.9610562 118.292651,35.5485937 119.036614,35.5485937 C119.524939,35.5485937 119.769101,35.7258187 119.769101,36.0789937 C119.769101,36.3575812 119.626939,36.5692313 119.342614,36.7145812 M120.170089,35.1520687 C119.897239,34.9569937 119.531951,34.8588187 119.074864,34.8588187 C118.316876,34.8588187 117.687026,35.1278437 117.187226,35.6652562 C116.687426,36.2026687 116.436889,36.8631187 116.436889,37.6478812 C116.436889,38.9808937 117.032314,39.6477187 118.221889,39.6477187 C118.575064,39.6477187 118.982426,39.5712187 119.441426,39.4194937 L119.528126,38.5830937 C119.183239,38.8329937 118.840901,38.9585812 118.502389,38.9585812 C118.119889,38.9585812 117.822176,38.8559437 117.609889,38.6525812 C117.396964,38.4479437 117.290501,38.1566062 117.290501,37.7772937 C117.290501,37.6510687 117.303889,37.5184687 117.330026,37.3807687 C117.613714,37.5356812 117.963064,37.6134562 118.376801,37.6134562 C118.994539,37.6134562 119.516014,37.4681062 119.941226,37.1780438 C120.366439,36.8879812 120.579364,36.4914562 120.579364,35.9884687 C120.579364,35.6263687 120.443576,35.3477812 120.170089,35.1520687" id="Fill-25" fill="#3C3D3C"></path>
                            <path d="M122.967184,35.6823413 L123.095959,34.9453913 L122.277409,34.9453913 L121.463321,39.5615288 L122.281871,39.5615288 L122.751709,36.9152663 C122.818009,36.5416912 122.982484,36.2203913 123.247046,35.9520038 C123.511609,35.6829788 123.788921,35.5491038 124.078984,35.5491038 C124.308484,35.5491038 124.509934,35.6179538 124.682059,35.7556538 L124.915384,34.9192538 C124.702459,34.8790913 124.546271,34.8593288 124.445546,34.8593288 C123.856496,34.8593288 123.363709,35.1334538 122.967184,35.6823413" id="Fill-27" fill="#3C3D3C"></path>
                            <g id="Group-31" transform="translate(124.950000, 34.547846)">
                                <mask id="mask-2" fill="white">
                                    <use xlink:href="#path-1"></use>
                                </mask>
                                <g id="Clip-30"></g>
                                <path d="M3.43465875,2.8586775 C3.33712125,3.318315 3.16308375,3.695715 2.91318375,3.99024 C2.66328375,4.284765 2.39617125,4.4320275 2.11184625,4.4320275 C1.56487125,4.4320275 1.29265875,4.1260275 1.29265875,3.5140275 C1.29265875,2.7898275 1.46478375,2.186115 1.80967125,1.7035275 C2.15455875,1.22094 2.55363375,0.9793275 3.00817125,0.9793275 C3.45314625,0.9793275 3.71452125,1.041165 3.79293375,1.16484 L3.43465875,2.8586775 Z M4.69754625,0.6860775 C4.37560875,0.4361775 3.84457125,0.3112275 3.10252125,0.3112275 C2.31839625,0.3112275 1.67643375,0.638265 1.17854625,1.2917025 C0.68002125,1.9457775 0.43012125,2.69484 0.43012125,3.5395275 C0.43012125,4.042515 0.55698375,4.4282025 0.81198375,4.6972275 C1.06634625,4.965615 1.42015875,5.1001275 1.87469625,5.1001275 C2.17304625,5.1001275 2.45609625,5.0491275 2.72384625,4.9471275 C2.99095875,4.8451275 3.19177125,4.71189 3.32692125,4.5480525 C3.37855875,4.766715 3.42700875,4.9216275 3.47354625,5.0134275 L4.30994625,5.0134275 C4.16842125,4.631565 4.09829625,4.2165525 4.09829625,3.76839 C4.09829625,3.61284 4.11040875,3.4808775 4.13335875,3.371865 L4.69754625,0.6860775 Z" id="Fill-29" fill="#3C3D3C" mask="url(#mask-2)"></path>
                            </g>
                            <path d="M134.4054,35.2901513 L133.853962,34.7948138 C133.604062,35.1448013 132.938513,35.8262888 131.858587,36.8373638 L132.448913,33.0531638 L131.6514,33.0531638 L130.561275,39.5614013 L131.379825,39.5614013 L131.682,37.8031763 L132.004575,37.5226763 L133.41855,39.5614013 L134.384363,39.5614013 L132.642713,37.0745138 C133.355437,36.3994013 133.942575,35.8046138 134.4054,35.2901513" id="Fill-32" fill="#3C3D3C"></path>
                            <path d="M78.8570287,6.5472525 C79.8069038,7.5634275 80.3602537,7.969515 80.6554163,8.13399 C80.6413913,8.2073025 80.6248162,8.27934 80.6069662,8.35074 C80.2786538,8.3692275 79.7004412,8.22069 78.8385413,7.3785525 C77.3824913,5.957565 77.0484412,6.5153775 77.0484412,6.5153775 C77.0484412,6.5153775 77.6661788,5.2722525 78.8570287,6.5472525 M80.4393038,5.04849 C80.4488663,5.05869 80.4584287,5.0669775 80.4679913,5.0771775 C82.3148288,7.0534275 82.8688163,7.03494 82.8688163,7.03494 C82.8688163,7.03494 82.1975288,7.607415 80.6968538,6.2680275 C80.6158913,6.1953525 80.5323788,6.1188525 80.4463162,6.03534 C78.7690537,4.396965 78.3846413,5.04084 78.3846413,5.04084 C78.3846413,5.04084 79.0858913,3.629415 80.4393038,5.04849 M82.1713913,3.80154 C83.7747038,5.5170525 84.2560163,5.5004775 84.2560163,5.5004775 C84.2560163,5.5004775 83.6089538,6.054465 82.1535412,4.6334775 C80.6981288,3.2118525 80.3634412,3.7703025 80.3634412,3.7703025 C80.3634412,3.7703025 80.9811787,2.5271775 82.1713913,3.80154 M76.5052913,9.9349275 C76.7953538,10.159965 77.1396038,10.318065 77.5246537,10.40859 C77.5456913,10.4130525 77.5673663,10.4181525 77.5877663,10.422615 C77.6088038,10.4270775 77.6298412,10.4309025 77.6508788,10.4347275 C79.1120288,10.718415 81.0997538,10.0968525 82.8133537,8.67714 C85.2447788,6.6632775 86.2035788,3.8085525 84.9547162,2.300865 C83.8665038,0.9869775 81.4599412,1.130415 79.2497288,2.522715 C78.9246038,2.72799 78.6033038,2.9594025 78.2909288,3.21759 C76.6366163,4.5888525 75.6644288,6.3483525 75.6051413,7.808865 C75.5598788,6.3738525 76.3293412,4.585665 77.7751913,3.09009 C78.0563288,2.7987525 78.3495788,2.532915 78.6504788,2.293215 C76.9579163,0.3035775 74.7049913,-0.55386 73.2731663,0.37434 C71.6309663,1.438965 71.6915288,4.4498775 73.4089538,7.0993275 C74.2753163,8.4342525 75.3954037,9.41919 76.5052913,9.9349275" id="Fill-34" fill="#3C3D3C"></path>
                            <path d="M143.200286,28.0065225 C141.774836,27.100635 141.598249,27.6112725 141.598249,27.6112725 C141.598249,27.6112725 141.887036,26.4956475 143.072786,27.3282225 C144.669086,28.4476725 145.056686,28.3520475 145.056686,28.3520475 C145.056686,28.3520475 144.625736,28.91241 143.200286,28.0065225 M142.265074,29.1922725 C141.028324,28.406235 140.875961,28.849935 140.875961,28.849935 C140.875961,28.849935 141.126499,27.8815725 142.154786,28.60386 C143.540074,29.57541 143.876674,29.492535 143.876674,29.492535 C143.876674,29.492535 143.503099,29.9789475 142.265074,29.1922725 M144.085774,26.1756225 C145.470424,27.14781 145.807024,27.0642975 145.807024,27.0642975 C145.807024,27.0642975 145.432811,27.5513475 144.196061,26.7646725 C142.958036,25.978635 142.805674,26.4216975 142.805674,26.4216975 C142.805674,26.4216975 143.056211,25.4539725 144.085774,26.1756225 M145.824874,24.70491 C144.721361,23.826435 142.678174,24.5589225 141.262286,26.3400975 C139.845761,28.1212725 139.593949,30.27666 140.697461,31.15386 C141.802249,32.0316975 143.844799,31.2998475 145.260686,29.5186725 C146.676574,27.738135 146.929661,25.5827475 145.824874,24.70491" id="Fill-36" fill="#3C3D3C"></path>
                            <g id="Group-40" transform="translate(144.712500, 28.172846)">
                                <mask id="mask-4" fill="white">
                                    <use xlink:href="#path-3"></use>
                                </mask>
                                <g id="Clip-39"></g>
                                <path d="M5.518965,2.13996 C5.057415,1.1295225 4.6628025,1.368585 4.6628025,1.368585 C4.6628025,1.368585 5.46159,0.8133225 5.802015,1.700085 C6.261015,2.8928475 6.572115,2.9680725 6.572115,2.9680725 C6.572115,2.9680725 5.980515,3.1503975 5.518965,2.13996 M3.9755775,2.5906725 C3.44454,1.42596 2.9887275,1.7019975 2.9887275,1.7019975 C2.9887275,1.7019975 3.909915,1.0619475 4.3019775,2.08386 C4.830465,3.45831 5.1893775,3.54501 5.1893775,3.54501 C5.1893775,3.54501 4.506615,3.755385 3.9755775,2.5906725 M2.51379,3.0267225 C2.0528775,2.016285 1.6576275,2.2553475 1.6576275,2.2553475 C1.6576275,2.2553475 2.456415,1.7007225 2.79684,2.5868475 C3.25584,3.7802475 3.56694,3.854835 3.56694,3.854835 C3.56694,3.854835 2.97534,4.0377975 2.51379,3.0267225 M8.06259,1.383885 C7.76169,0.3632475 5.7299775,0.062985 3.5255025,0.7138725 C1.3210275,1.36476 -0.221085,2.7194475 0.0804525,3.740085 C0.3813525,4.76136 2.413065,5.0616225 4.6169025,4.410735 C6.8213775,3.7598475 8.3641275,2.40516 8.06259,1.383885" id="Fill-38" fill="#3C3D3C" mask="url(#mask-4)"></path>
                            </g>
                            <g id="Group-43" transform="translate(0.000000, 3.310346)">
                                <mask id="mask-6" fill="white">
                                    <use xlink:href="#path-5"></use>
                                </mask>
                                <g id="Clip-42"></g>
                                <path d="M99.4257113,25.05069 C97.1644988,25.05069 98.0691113,22.11819 100.976111,18.093015 C103.883749,14.06784 107.695361,11.3846025 109.374536,11.3348775 C111.183761,11.3348775 110.537974,14.06784 107.630336,18.093015 C104.723974,22.11819 101.105524,25.05069 99.4257113,25.05069 M10.4785238,25.138665 C6.71217375,25.138665 8.21922375,20.2560525 13.0603988,13.55274 C17.9015738,6.8494275 24.2491612,2.3805525 27.0465113,2.2976775 C30.0586987,2.2976775 28.9832362,6.8494275 24.1420613,13.55274 C19.3002488,20.2560525 13.2752363,25.138665 10.4785238,25.138665 M143.991424,16.9997025 C144.250249,16.652265 143.797624,16.40364 143.475049,16.80144 C141.536411,19.4349525 138.434974,22.0691025 136.174399,23.361315 C133.589974,24.802065 130.424149,26.0942775 132.620336,23.062965 L137.595386,16.155015 C140.567411,11.980665 138.693799,10.19184 136.820186,10.19184 C134.429561,10.19184 130.941161,12.03039 128.356736,14.018115 C130.036549,11.4343275 127.570061,10.397115 125.621224,10.8070275 C123.334511,11.2877025 120.033536,14.395515 117.997361,16.5190275 C115.323049,19.0728525 112.558849,22.244415 110.527774,23.94399 C109.444024,24.8511525 107.782699,25.235565 109.051961,23.062965 L118.096811,10.4895525 C112.864849,10.19184 113.121761,10.7879025 111.183761,13.2231525 C111.442586,11.53314 110.796161,10.4398275 109.116349,10.19184 C103.948136,9.49569 97.5291488,14.8130775 95.1385238,18.14274 C94.3818113,19.1939775 93.8813738,20.2815525 93.6556988,21.30219 C93.2935988,21.59034 92.9321363,21.8638275 92.5776863,22.11819 C90.6396863,23.6093025 88.5722738,23.361315 86.1166238,22.91379 C83.5972238,22.41654 81.7879988,21.7707525 80.2375988,22.61544 C82.6926113,19.8327525 93.1590863,16.40364 97.4226863,10.9868025 C97.6815113,10.4895525 97.3582988,10.29129 96.8412863,10.7879025 C95.0970863,12.279015 87.7970738,10.7879025 85.5352238,10.7879025 C83.0158238,10.7879025 83.1452363,10.9868025 81.7236113,13.5712275 C81.5298113,13.96839 80.0437988,16.50309 79.6561988,16.9997025 C79.6077488,17.05899 79.5803363,17.1144525 79.5663113,17.1654525 C77.5683863,19.67529 74.7072863,22.12839 72.5499863,23.361315 C69.9011738,24.802065 66.7353488,26.0942775 68.9321738,23.062965 L75.6546113,14.479665 C77.7220238,11.5975275 74.7621113,10.603665 72.8884988,10.603665 L66.1698863,20.0176275 C64.2127613,21.7694775 61.9075613,23.295015 59.4997238,24.2060025 C58.0787362,24.75234 56.7214988,25.100415 55.6881113,24.802065 C54.5896988,24.5043525 55.1067113,23.01324 56.7214988,20.826615 L63.5051363,11.2354275 L68.6089613,11.2354275 C69.5135738,11.2354275 69.8367863,10.4895525 69.0609488,10.4895525 L64.0865363,10.4895525 C65.8670738,8.02179 67.8726488,5.4239775 69.8756738,2.749665 C70.7018738,1.6461525 66.2546738,1.6958775 65.3213738,2.749665 C63.0588863,5.3015775 60.9487613,7.9140525 59.0470988,10.4895525 L55.7524988,10.4895525 C54.7834988,10.4895525 54.6540863,11.2354275 55.4292863,11.2354275 L58.5307238,11.2354275 L53.5556738,18.1433775 C53.2369238,18.5807025 52.9564238,18.9989025 52.7103488,19.4005275 C51.0356363,21.07524 49.1409863,22.565715 47.6766488,23.4601275 C45.1566113,25.000965 42.5721863,26.0942775 44.8333988,23.062965 L47.4178238,19.6835775 C50.1316613,15.90639 47.2240238,14.26674 45.9324488,13.5215025 L43.3288988,12.0080775 C42.7360238,11.27049 45.4339238,10.84209 44.5975238,10.0930275 C43.5335363,8.7632025 40.9879988,9.06219 41.8620113,11.93094 C40.9599488,13.3634025 40.0049738,14.744865 38.9919863,16.0676775 C36.8729363,18.6036525 35.0452238,20.339565 32.4257363,22.32474 C28.4241488,25.357965 22.8511238,26.87649 26.5090988,21.8281275 L41.5713113,0.8913525 C32.8764488,0.291465 33.2869988,1.3873275 30.0586988,5.442465 C30.4896488,2.6291775 29.4141863,0.8084775 26.6161988,0.39474 C15.0449363,-0.72216 6.36919875,8.09064 2.38864875,13.635615 C-2.02221375,19.75944 -0.28056375,26.6285025 7.25086125,26.87649 C11.2314113,26.87649 15.4274363,24.8078025 19.4079863,21.1664025 C18.1170488,25.138665 20.3763488,26.87649 22.8511238,26.87649 C27.9485738,26.87649 31.7990738,25.1342025 36.9698363,19.3661025 C39.2418863,17.07174 41.0485613,14.749965 42.6372113,12.42819 L43.7356238,13.0242525 C45.8674238,14.26674 45.5442113,15.3103275 44.5752113,16.7510775 L41.8275862,20.18019 C38.6623988,24.3054525 40.6992112,26.0942775 42.5721863,26.0942775 C44.8984238,26.0942775 47.4178238,24.65289 50.3898488,22.2680025 C50.8890113,21.869565 51.3786113,21.4520025 51.8599238,21.0121275 C49.6681988,26.10384 54.3589238,27.3157275 59.9517113,24.802065 C61.9094738,23.9216775 63.6141487,22.85769 65.1320363,21.650265 C63.5140613,24.743415 65.0510738,26.0942775 66.7353488,26.0942775 C70.3397738,26.0942775 75.9249113,22.56954 80.0374238,17.3401275 C80.0845988,17.30379 80.1304988,17.25789 80.1732113,17.1986025 L82.0461863,14.86344 C82.6926113,14.117565 83.0158238,13.819215 85.2126488,13.96839 C87.7970738,14.117565 90.9628988,14.8130775 92.5776863,14.018115 C90.3808613,16.9997025 79.5918113,20.229915 75.3275738,25.5970275 C75.0693863,26.0942775 75.5213738,26.2931775 76.0377488,25.7959275 C77.2655738,24.702615 80.9484113,25.3981275 83.9848238,25.7959275 C86.6342738,26.1937275 87.5382488,26.2434525 89.7350738,25.000965 C91.0470488,24.2391525 92.3201363,23.3160525 93.5243738,22.303065 C93.4440488,24.3896025 94.6909988,26.00184 97.4870738,26.0942775 C99.8776988,26.0942775 102.397736,24.85179 104.787724,22.665165 C104.012524,25.05069 105.371036,26.0279775 106.855136,26.0942775 C110.400274,26.253015 113.822374,21.930765 117.606574,17.75514 C119.399861,15.981615 120.302561,15.1229025 121.380574,14.041065 C123.300086,12.11454 124.633736,12.54549 124.120549,13.2575775 C123.426311,14.2214775 117.761486,21.9199275 117.761486,21.9199275 C115.694074,24.85179 118.019674,25.7959275 119.892649,25.7959275 L126.289324,16.9499775 C127.645924,15.3600525 129.390124,13.96839 130.941161,13.0242525 C134.106349,11.0862525 136.690774,10.4895525 134.687749,13.2728775 L129.257524,20.130465 C126.285499,24.3054525 128.486149,26.0942775 130.424149,26.0942775 C134.106349,26.0942775 139.791574,22.41654 143.991424,16.9997025" id="Fill-41" fill="#3C3D3C" mask="url(#mask-6)"></path>
                            </g>
                        </g>
                    </g>
                </g>
            </g>
        </g>
    </g>
</svg>