<?xml version="1.0" encoding="UTF-8"?>
<svg width="124px" height="71px" viewBox="0 0 124 71" version="1.1" xmlns="http://www.w3.org/2000/svg" xmlns:xlink="http://www.w3.org/1999/xlink">
    <!-- Generator: Sketch 59.1 (86144) - https://sketch.com -->
    <title>buffalo</title>
    <desc>Created with Sketch.</desc>
    <defs>
        <polygon id="path-1" points="0.63138 0 32.500005 0 32.500005 31.86837 0.63138 31.86837"></polygon>
        <polygon id="path-3" points="0 0.48634875 15.464985 0.48634875 15.464985 17.4272738 0 17.4272738"></polygon>
        <polygon id="path-5" points="0.43420125 0.1347675 4.62640125 0.1347675 4.62640125 5.1 0.43420125 5.1"></polygon>
        <polygon id="path-7" points="0.26233125 0.1347675 4.45453125 0.1347675 4.45453125 5.1 0.26233125 5.1"></polygon>
        <polygon id="path-9" points="0 70.7625 123.656513 70.7625 123.656513 0 0 0"></polygon>
    </defs>
    <g id="TELLALL-WEBSITE" stroke="none" stroke-width="1" fill="none" fill-rule="evenodd" opacity="0.600000024">
        <g id="Tellall-2" transform="translate(-225.000000, -997.000000)">
            <g id="KLIENTET" transform="translate(0.000000, 768.000000)">
                <g id="clients" transform="translate(202.000000, 193.000000)">
                    <g transform="translate(23.000000, 36.000000)" id="buffalo">
                        <g>
                            <g id="Group-3" transform="translate(45.262500, 0.000000)">
                                <mask id="mask-2" fill="white">
                                    <use xlink:href="#path-1"></use>
                                </mask>
                                <g id="Clip-2"></g>
                                <path d="M20.9759175,22.5742575 C20.073855,23.526045 18.7191675,24.10362 17.54298,24.63912 C16.9354425,24.915795 16.31898,25.1790825 15.733755,25.5016575 C15.211005,25.790445 14.64108,26.147445 14.354205,26.6925075 C14.127255,27.1221825 14.0692425,27.7622325 14.4249675,28.141545 C14.59773,28.3257825 14.8342425,28.44372 15.075855,28.516395 L15.075855,29.1328575 C15.0229425,29.128395 14.97003,29.11947 14.91903,29.107995 C14.629605,29.04552 14.3471925,28.9314075 14.10558,28.75992 C13.64913,28.4354325 13.43493,27.9394575 13.400505,27.394395 C13.3118925,26.0014575 14.4504675,25.0694325 15.52083,24.4038825 C16.63773,23.709645 17.855355,23.1645825 18.8900175,22.342845 C19.3375425,21.98712 19.75638,21.565095 20.0196675,21.05127 C20.313555,20.4794325 20.42448,19.6481325 20.318655,19.0195575 C20.117205,17.8223325 19.3120425,16.9068825 17.7654675,16.9068825 L16.8117675,16.9068825 L16.8117675,16.054545 L16.8117675,15.9557325 L16.8117675,15.9123825 L16.8117675,15.8142075 L16.8117675,14.9612325 L17.7654675,14.9612325 C19.3120425,14.9612325 20.117205,14.0457825 20.318655,12.849195 C20.42448,12.2199825 20.313555,11.3886825 20.0196675,10.816845 C19.75638,10.3036575 19.3375425,9.880995 18.8900175,9.52527 C17.855355,8.7035325 16.63773,8.1591075 15.52083,7.4642325 C14.4504675,6.7986825 13.3118925,5.8666575 13.400505,4.47372 C13.43493,3.9286575 13.64913,3.4326825 14.1049425,3.108195 C14.3471925,2.9367075 14.629605,2.822595 14.91903,2.76012 C14.97003,2.7492825 15.0229425,2.73972 15.075855,2.735895 L15.075855,3.3523575 C14.8342425,3.424395 14.59773,3.5423325 14.4249675,3.72657 C14.0692425,4.1058825 14.127255,4.7459325 14.354205,5.1756075 C14.64108,5.72067 15.211005,6.0783075 15.733755,6.367095 C16.31898,6.68967 16.9354425,6.95232 17.54298,7.228995 C18.7191675,7.764495 20.073855,8.34207 20.9759175,9.2938575 C21.8722425,10.2399075 22.43898,11.4957825 22.348455,12.793095 C22.264305,13.978845 21.754305,15.095745 20.61828,15.8499075 C20.5577175,15.8907075 20.5577175,15.978045 20.61828,16.0182075 C21.754305,16.77237 22.264305,17.88927 22.348455,19.0756575 C22.43898,20.3723325 21.8722425,21.6282075 20.9759175,22.5742575 L20.9759175,22.5742575 Z M13.224555,10.2093075 L14.910105,10.2093075 L14.910105,21.888945 L13.224555,21.888945 L13.224555,10.2093075 Z M16.5656925,-0.000255 C7.7656425,-0.000255 0.63138,7.1340075 0.63138,15.9340575 C0.63138,24.734745 7.7656425,31.86837 16.5656925,31.86837 C25.36638,31.86837 32.500005,24.7341075 32.500005,15.9340575 C32.500005,7.1340075 25.36638,-0.000255 16.5656925,-0.000255 L16.5656925,-0.000255 Z" id="Fill-1" fill="#C12830" mask="url(#mask-2)"></path>
                            </g>
                            <g id="Group-6" transform="translate(0.000000, 41.437500)">
                                <mask id="mask-4" fill="white">
                                    <use xlink:href="#path-3"></use>
                                </mask>
                                <g id="Clip-5"></g>
                                <path d="M9.1964475,15.1035863 L4.54971,15.1035863 L4.54971,9.85186125 L9.268485,9.85186125 C10.841835,9.85186125 12.8748225,10.6748738 12.8748225,12.5382863 C12.8748225,14.7166238 10.7455725,15.1035863 9.1964475,15.1035863 L9.1964475,15.1035863 Z M4.54971,2.78517375 L9.1964475,2.78517375 C11.132535,2.78517375 12.4387725,3.43924875 12.4387725,5.32624875 C12.4387725,6.53622375 11.25366,7.55303625 9.268485,7.55303625 L4.54971,7.55303625 L4.54971,2.78517375 Z M12.5598975,8.71456125 C14.1574725,7.98844875 14.932035,6.75424875 14.932035,5.30202375 C14.932035,1.81744875 12.39096,0.48634875 9.1964475,0.48634875 L0.0483225,0.48634875 L0.0483225,2.78517375 L2.03286,2.78517375 L2.03286,15.0793613 L-0.0001275,15.0793613 L-0.0001275,17.4272738 L9.1964475,17.4272738 C12.463635,17.4272738 15.464985,16.5793988 15.464985,12.6351863 C15.464985,11.2556363 14.544435,9.22201125 12.5598975,8.71456125 L12.5598975,8.71456125 Z" id="Fill-4" fill="#0A090A" mask="url(#mask-4)"></path>
                            </g>
                            <path d="M29.2615687,44.24709 L31.4399062,44.24709 L31.4399062,51.89454 C31.4399062,55.11264 29.3342437,56.904015 26.8173937,56.904015 C24.2999062,56.904015 22.1222063,55.2101775 22.1222063,51.9423525 L22.1222063,44.24709 L24.2999062,44.24709 L24.2999062,41.9234025 L17.7177187,41.9234025 L17.7177187,44.24709 L19.6053562,44.24709 L19.6053562,51.9423525 C19.6053562,57.000915 23.2595063,59.275515 26.8173937,59.275515 C30.5199937,59.275515 33.9083062,56.9288775 33.9083062,51.9423525 L33.9083062,44.24709 L35.8201688,44.24709 L35.8201688,41.9234025 L29.2615687,41.9234025 L29.2615687,44.24709 Z" id="Fill-7" fill="#0A090A"></path>
                            <polygon id="Fill-9" fill="#0A090A" points="38.9669325 44.2228013 40.9508325 44.2228013 40.9508325 56.5163512 38.9427075 56.5163512 38.9427075 58.8642638 45.815595 58.8642638 45.815595 56.5163512 43.51677 56.5163512 43.51677 51.3863888 50.2685325 51.3863888 50.2685325 49.0148888 43.51677 49.0148888 43.51677 44.1985763 49.88157 44.1985763 49.9778325 46.7881013 52.25307 46.7881013 52.25307 41.9239763 38.9669325 41.9239763"></polygon>
                            <polygon id="Fill-11" fill="#0A090A" points="55.2785813 44.2228013 57.2624812 44.2228013 57.2624812 56.5163512 55.2543563 56.5163512 55.2543563 58.8642638 62.1272437 58.8642638 62.1272437 56.5163512 59.8284187 56.5163512 59.8284187 51.3863888 66.5801813 51.3863888 66.5801813 49.0148888 59.8284187 49.0148888 59.8284187 44.1985763 66.1932187 44.1985763 66.2894812 46.7881013 68.5647187 46.7881013 68.5647187 41.9239763 55.2785813 41.9239763"></polygon>
                            <path d="M75.413955,51.7492538 C76.2611925,49.7889413 77.2531425,47.7075038 78.7053675,44.4160913 C80.0849175,47.6106038 80.9315175,49.7404912 81.778755,51.7492538 L75.413955,51.7492538 Z M80.1575925,41.9234662 L74.4213675,41.9234662 L74.4213675,44.2229287 L76.212105,44.2229287 L70.5734175,56.5171163 L69.000705,56.5171163 L69.000705,58.8643912 L75.268605,58.8643912 L75.268605,56.5171163 L73.3082925,56.5171163 C73.6958925,55.6214287 74.131305,54.7257412 74.4213675,54.0244912 L82.7955675,54.0244912 C83.13408,54.7506037 83.449005,55.6456538 83.8844175,56.5171163 L81.85143,56.5171163 L81.85143,58.8643912 L88.143555,58.8643912 L88.143555,56.5171163 L86.570205,56.5171163 L80.1575925,41.9234662 Z" id="Fill-13" fill="#0A090A"></path>
                            <polygon id="Fill-15" fill="#0A090A" points="101.817611 56.5410862 95.1378862 56.5410862 95.1378862 44.2711238 97.0746113 44.2711238 97.0746113 41.9238487 90.5644612 41.9238487 90.5644612 44.2711238 92.5974488 44.2711238 92.5974488 56.5653113 90.7098113 56.5653113 90.7098113 58.8647737 104.164886 58.8647737 104.164886 53.9515612 101.914511 53.9515612"></polygon>
                            <path d="M115.064734,56.8315313 C110.829184,56.8315313 108.917959,53.7096937 108.942184,50.4667313 C108.942184,46.8610313 111.071434,43.9323563 115.088959,43.9323563 C119.275421,44.0050313 121.138834,47.2722188 121.114609,50.4667313 C121.090384,53.5643438 119.324509,56.8315313 115.064734,56.8315313 M115.088959,41.6093063 C109.910546,41.6093063 106.376884,45.3119063 106.376884,50.4667313 C106.376884,54.9190313 109.159571,59.2272563 115.040509,59.2272563 C120.897221,59.2272563 123.631459,54.8712188 123.656474,50.4667313 C123.680546,45.9653438 120.824546,41.6577563 115.088959,41.6093063" id="Fill-17" fill="#0A090A"></path>
                            <polygon id="Fill-19" fill="#0A090A" points="82.8342638 36.9280162 79.8858263 36.9280162 78.1212263 40.1289037 80.2970138 40.1289037"></polygon>
                            <g id="Group-23" transform="translate(39.525000, 65.662500)">
                                <mask id="mask-6" fill="white">
                                    <use xlink:href="#path-5"></use>
                                </mask>
                                <g id="Clip-22"></g>
                                <polygon id="Fill-21" fill="#C12830" mask="url(#mask-6)" points="3.93152625 4.39773 3.95957625 3.64548 4.62640125 3.64548 4.62640125 5.100255 0.43420125 5.100255 0.43420125 4.411755 1.03026375 4.411755 1.03026375 0.808605 0.44822625 0.808605 0.44822625 0.1347675 4.52057625 0.1347675 4.52057625 1.5602175 3.85311375 1.5602175 3.82506375 0.8156175 1.76083875 0.8156175 1.76083875 2.2193925 3.86777625 2.2193925 3.86777625 2.9078925 1.76083875 2.9078925 1.76083875 4.39773"></polygon>
                            </g>
                            <path d="M51.1596938,68.6769187 C50.9110688,68.0878687 50.6630813,67.4637562 50.2589063,66.5272687 C49.8330563,67.4918062 49.5423563,68.1025312 49.2943688,68.6769187 L51.1596938,68.6769187 Z M49.5276938,66.4711687 L49.0030313,66.4711687 L49.0030313,65.7966937 L50.6847563,65.7966937 L52.5641063,70.0743187 L53.0250188,70.0743187 L53.0250188,70.7621812 L51.1813688,70.7621812 L51.1813688,70.0743187 L51.7767938,70.0743187 C51.6492938,69.8186812 51.5568563,69.5566687 51.4574063,69.3437437 L49.0030313,69.3437437 C48.9182438,69.5496562 48.7907438,69.8116687 48.6766313,70.0743187 L49.2516563,70.0743187 L49.2516563,70.7621812 L47.4143813,70.7621812 L47.4143813,70.0743187 L47.8752938,70.0743187 L49.5276938,66.4711687 Z" id="Fill-24" fill="#C12830"></path>
                            <polygon id="Fill-26" fill="#C12830" points="56.8483613 70.7625 56.8483613 70.08165 57.4724738 70.08165 57.4724738 66.4561875 56.4301613 66.4561875 56.4014738 67.2160875 55.7486738 67.2160875 55.7486738 65.7970125 59.9338613 65.7970125 59.9338613 67.2160875 59.2746863 67.2160875 59.2389863 66.4561875 58.2106988 66.4561875 58.2106988 70.08165 58.8277988 70.08165 58.8277988 70.7625"></polygon>
                            <g id="Group-30" transform="translate(63.112500, 65.662500)">
                                <mask id="mask-8" fill="white">
                                    <use xlink:href="#path-7"></use>
                                </mask>
                                <g id="Clip-29"></g>
                                <polygon id="Fill-28" fill="#C12830" mask="url(#mask-8)" points="3.75901875 4.39773 3.78770625 3.64548 4.45453125 3.64548 4.45453125 5.100255 0.26233125 5.100255 0.26233125 4.411755 0.85711875 4.411755 0.85711875 0.808605 0.27635625 0.808605 0.27635625 0.1347675 4.34806875 0.1347675 4.34806875 1.5602175 3.68124375 1.5602175 3.65255625 0.8156175 1.58833125 0.8156175 1.58833125 2.2193925 3.69463125 2.2193925 3.69463125 2.9078925 1.58833125 2.9078925 1.58833125 4.39773"></polygon>
                            </g>
                            <path d="M73.8937088,68.2442475 C74.5962338,68.2442475 74.8799213,67.8464475 74.8869338,67.321785 C74.8869338,66.740385 74.4610838,66.477735 73.9147463,66.477735 L72.4682588,66.477735 L72.4682588,68.2442475 L73.8937088,68.2442475 Z M73.3263338,68.8753725 L72.4682588,68.8753725 L72.4682588,70.0674975 L73.1063963,70.0674975 L73.1063963,70.7623725 L71.1416213,70.7623725 L71.1416213,70.0674975 L71.7230213,70.0674975 L71.7230213,66.477735 L71.1275963,66.477735 L71.1275963,65.7962475 L73.9147463,65.7962475 C74.8518713,65.7962475 75.6321713,66.222735 75.6391838,67.293735 C75.6391838,68.2722975 75.0437588,68.7338475 74.1423338,68.854335 L75.2413838,70.0674975 L75.8374463,70.0674975 L75.8374463,70.7623725 L74.3979713,70.7623725 L74.3979713,70.152285 L73.3263338,68.8753725 Z" id="Fill-31" fill="#C12830"></path>
                            <polygon id="Fill-33" fill="#C12830" points="82.299465 70.08828 82.299465 70.7621175 80.3136525 70.7621175 80.3136525 70.08828 80.9231025 70.08828 80.9231025 68.7335925 79.440915 66.4781175 78.9519525 66.4781175 78.9519525 65.79663 80.874015 65.79663 80.874015 66.4781175 80.33469 66.4781175 80.7178275 67.0735425 81.30624 68.01768 81.945015 67.044855 82.3205025 66.4781175 81.781815 66.4781175 81.781815 65.79663 83.696865 65.79663 83.696865 66.4781175 83.214915 66.4781175 81.682365 68.7335925 81.682365 70.08828"></polygon>
                            <mask id="mask-10" fill="white">
                                <use xlink:href="#path-9"></use>
                            </mask>
                            <g id="Clip-36"></g>
                            <polygon id="Fill-35" fill="#C12830" mask="url(#mask-10)" points="89.2136625 68.7205875 94.6222125 68.7205875 94.6222125 68.137275 89.2136625 68.137275"></polygon>
                            <polygon id="Fill-37" fill="#C12830" mask="url(#mask-10)" points="29.0343 68.7205875 34.44285 68.7205875 34.44285 68.137275 29.0343 68.137275"></polygon>
                        </g>
                    </g>
                </g>
            </g>
        </g>
    </g>
</svg>