<?xml version="1.0" encoding="UTF-8"?>
<svg width="102px" height="48px" viewBox="0 0 102 48" version="1.1" xmlns="http://www.w3.org/2000/svg" xmlns:xlink="http://www.w3.org/1999/xlink">
    <!-- Generator: Sketch 59.1 (86144) - https://sketch.com -->
    <title>ducato</title>
    <desc>Created with Sketch.</desc>
    <g id="TELLALL-WEBSITE" stroke="none" stroke-width="1" fill="none" fill-rule="evenodd" opacity="0.600000024">
        <g id="Tellall-2" transform="translate(-237.000000, -1239.000000)">
            <g id="KLIENTET" transform="translate(0.000000, 768.000000)">
                <g id="clients" transform="translate(202.000000, 193.000000)">
                    <g transform="translate(23.000000, 36.000000)" id="ducato">
                        <g transform="translate(12.000000, 242.000000)">
                            <polygon id="Fill-1" fill="#FFFFFF" points="0 47.3548387 101.101125 47.3548387 101.101125 0.63692625 0 0.63692625"></polygon>
                            <g id="Group-52" transform="translate(5.737500, 7.829839)">
                                <path d="M49.188735,31.7290763 C55.015485,31.6442888 60.842235,31.3784513 66.6696225,30.9672638 C72.85401,30.6026137 80.4064725,30.4840387 89.32191,30.5898637 L89.32191,28.8310012 L66.6696225,28.8310012 L49.188735,28.8310012 L49.188735,31.7290763 Z" id="Fill-2" fill="#E11E26"></path>
                                <path d="M22.65369,28.831065 L0.000765,28.831065 L0.000765,30.5899275 C8.915565,30.4841025 16.4693025,30.6026775 22.65369,30.9673275 C28.4810775,31.378515 34.30719,31.6443525 40.1345775,31.72914 L40.1345775,28.831065 L22.65369,28.831065 Z" id="Fill-4" fill="#009B50"></path>
                                <path d="M40.1345138,31.78575 C41.6428388,31.8087 43.1518013,31.817625 44.6614013,31.815075 C46.1703638,31.817625 47.6793262,31.8087 49.1889263,31.78575 L49.1889263,28.887675 L44.6614013,28.887675 L40.1345138,28.887675 L40.1345138,31.78575 Z" id="Fill-6" fill="#FFFFFF"></path>
                                <path d="M2.1923625,25.39086 C2.671125,25.71471 3.074025,25.8798225 3.400425,25.8798225 C4.275075,25.8798225 5.001825,24.92676 5.580675,23.0276475 C6.156975,21.1266225 6.445125,18.54921 6.445125,15.296685 C6.445125,12.019935 6.156975,9.436785 5.580675,7.5465975 C5.001825,5.65641 4.2616875,4.71291 3.35325,4.71291 C3.015375,4.71291 2.6271375,4.88121 2.1923625,5.219085 L2.1923625,25.39086 Z M0.0006375,27.1038225 L0.0006375,26.45676 L0.2875125,26.45676 C0.6151875,26.45676 0.845325,26.13546 0.98175,25.494135 C1.0627125,25.1109975 1.1067,24.2478225 1.1067,22.90461 L1.1067,7.58166 C1.1067,6.0981975 1.05315,5.1738225 0.947325,4.8002475 C0.799425,4.2876975 0.5833125,4.0301475 0.2875125,4.0301475 L0.0006375,4.0301475 L0.0006375,3.38436 L3.12885,3.38436 C4.275075,3.38436 5.149725,3.78471 5.7457875,4.59051 C6.3450375,5.3943975 6.827625,6.7356975 7.1916375,8.6124975 C7.5562875,10.4892975 7.737975,12.66126 7.737975,15.1200975 C7.737975,18.4236225 7.4134875,21.18081 6.7632375,23.3961225 C6.03585,25.86771 4.925325,27.1038225 3.433575,27.1038225 L0.0006375,27.1038225 Z" id="Fill-8" fill="#024726"></path>
                                <path d="M13.0887038,11.0815987 L13.0887038,20.7888113 C13.0887038,22.6445737 13.1027288,23.7780487 13.1326913,24.1924237 C13.1601037,24.6042487 13.2040913,24.8943113 13.2672038,25.0575113 C13.3309537,25.2213487 13.4036287,25.3029487 13.4852288,25.3029487 C13.6031663,25.3029487 13.7344913,25.2022238 13.8836663,25.0045987 L13.9601663,25.6185113 L12.4104038,27.5934862 L12.1560412,27.5934862 L12.1560412,24.2000738 C11.7104288,25.6930988 11.3693663,26.6308613 11.1341288,27.0152737 C10.9014412,27.4015987 10.6521788,27.5934862 10.3920787,27.5934862 C10.1020162,27.5934862 9.85020375,27.3352987 9.63727875,26.8163738 C9.42435375,26.2968113 9.27709125,25.6287113 9.19294125,24.8146238 C9.10942875,23.9960738 9.06926625,22.8421988 9.06926625,21.3485363 L9.06926625,14.1951487 C9.06926625,13.4358862 9.04057875,12.9124987 8.98702875,12.6211612 C8.93794125,12.3279112 8.85825375,12.1054237 8.75370375,11.9460488 C8.65106625,11.7911362 8.46172875,11.7152737 8.18887875,11.7292987 L8.18887875,11.0815987 L10.0076663,11.0815987 L10.0076663,21.8043488 C10.0076663,23.2973737 10.0930913,24.2778488 10.2607538,24.7425863 C10.4277788,25.2092363 10.6317788,25.4431988 10.8695663,25.4431988 C11.0308538,25.4431988 11.2163663,25.2850987 11.4203663,24.9720863 C11.6275537,24.6552488 11.8717163,24.0559988 12.1560412,23.1685988 L12.1560412,14.0874112 C12.1560412,13.1802488 12.1012163,12.5637863 11.9941163,12.2437613 C11.8857413,11.9243738 11.6613412,11.7509737 11.3221912,11.7292987 L11.3221912,11.0815987 L13.0887038,11.0815987 Z" id="Fill-10" fill="#024726"></path>
                                <path d="M18.7474725,21.0148687 C18.6072225,23.1275438 18.33246,24.7506188 17.925735,25.8891938 C17.517735,27.0239438 17.06766,27.5932313 16.571685,27.5932313 C15.9832725,27.5932313 15.46881,26.8307813 15.031485,25.3026937 C14.5935225,23.7746063 14.3742225,21.7103813 14.3742225,19.1081062 C14.3742225,16.5906188 14.6190225,14.5442437 15.10161,12.9702563 C15.5880225,11.3943562 16.17006,10.6076813 16.849635,10.6076813 C17.36091,10.6076813 17.7784725,11.0239687 18.1074225,11.8584563 C18.433185,12.6916687 18.601485,13.5586687 18.601485,14.4569062 C18.601485,14.8980562 18.55176,15.2582438 18.4605975,15.5310938 C18.366885,15.8064938 18.2374725,15.9416437 18.0729975,15.9416437 C17.849235,15.9416437 17.68221,15.7210688 17.5680975,15.2799188 C17.5043475,15.0332063 17.4622725,14.5684688 17.44251,13.8793312 C17.4189225,13.1908313 17.344335,12.6655313 17.211735,12.3047063 C17.0797725,11.9547188 16.89681,11.7781312 16.66221,11.7781312 C16.286085,11.7781312 15.9819975,12.2103562 15.750585,13.0728937 C15.444585,14.2191187 15.2934975,15.7274437 15.2934975,17.6048813 C15.2934975,19.5180188 15.44331,21.2067562 15.7499475,22.6704563 C16.0521225,24.1354312 16.4613975,24.8647312 16.98096,24.8647312 C17.3500725,24.8647312 17.68221,24.4745812 17.9760975,23.6917313 C18.183285,23.1568688 18.3866475,22.1834062 18.5817225,20.7713437 L18.7474725,21.0148687 Z" id="Fill-12" fill="#024726"></path>
                                <path d="M22.4271225,23.6566688 L22.4271225,17.5526062 C21.8571975,18.2525813 21.48936,18.7479187 21.32361,19.0405313 C21.02526,19.5511687 20.8116975,20.0885812 20.684835,20.6508562 C20.55606,21.2105812 20.4891225,21.8206688 20.4891225,22.4855813 C20.4891225,23.3251687 20.5719975,24.0238687 20.7351975,24.5765813 C20.8971225,25.1305688 21.0845475,25.4085187 21.2949225,25.4085187 C21.582435,25.4085187 21.9591975,24.8252063 22.4271225,23.6566688 M22.4271225,24.7939687 C21.89481,26.0676937 21.5613975,26.8008187 21.424335,26.9990813 C21.220335,27.2916938 21.0042225,27.4344938 20.7747225,27.4344938 C20.4151725,27.4344938 20.1219225,27.0596437 19.889235,26.3016563 C19.65591,25.5417562 19.539885,24.5453438 19.539885,23.3073188 C19.539885,22.5276562 19.5953475,21.8506312 19.7088225,21.2787937 C19.863735,20.4844687 20.1346725,19.7405062 20.516535,19.0405313 C20.9009475,18.3405562 21.536535,17.4875813 22.4271225,16.4867063 L22.4271225,15.8555813 C22.4271225,14.2573688 22.347435,13.1621438 22.18041,12.5667187 C22.015935,11.9719313 21.776235,11.6729437 21.4644975,11.6729437 C21.22671,11.6729437 21.039285,11.8724813 20.899035,12.2690063 C20.753685,12.6655313 20.684835,13.1207063 20.684835,13.6351688 L20.695035,14.6487937 C20.695035,15.1862063 20.649135,15.5999438 20.5630725,15.8912812 C20.475735,16.1813437 20.35716,16.3286063 20.21436,16.3286063 C20.0734725,16.3286063 19.9599975,16.1781563 19.87011,15.8721562 C19.782135,15.5680687 19.7381475,15.1562438 19.7381475,14.6309438 C19.7381475,13.6294313 19.904535,12.7088812 20.23731,11.8680188 C20.5681725,11.0265187 21.0360975,10.6076813 21.63471,10.6076813 C22.0968975,10.6076813 22.4730225,10.8492938 22.76691,11.3261438 C22.9906725,11.6869687 23.153235,12.2517938 23.2596975,13.0231687 C23.3285475,13.5242438 23.362335,14.5487063 23.362335,16.0997438 L23.362335,21.5420812 C23.362335,23.0688938 23.3718975,24.0047437 23.3910225,24.3483563 C23.4101475,24.6938812 23.44011,24.9252937 23.4828225,25.0394062 C23.5261725,25.1573437 23.5784475,25.2172687 23.6345475,25.2172687 C23.6931975,25.2172687 23.7480225,25.1732812 23.7926475,25.0929563 C23.8716975,24.9418687 24.025335,24.5160188 24.252285,23.8154062 L24.252285,24.7939687 C23.8283475,26.5451812 23.4267225,27.4191937 23.0403975,27.4191937 C22.8542475,27.4191937 22.70826,27.2190187 22.597335,26.8231312 C22.4883225,26.4278812 22.43031,25.7521312 22.4271225,24.7939687" id="Fill-14" fill="#024726"></path>
                                <path d="M26.142855,5.8154025 L26.142855,11.08179 L27.356655,11.08179 L27.356655,12.3051525 L26.142855,12.3051525 L26.142855,22.695765 C26.142855,23.7355275 26.191305,24.4342275 26.28693,24.794415 C26.3831925,25.1571525 26.50623,25.3382025 26.6598675,25.3382025 C26.7835425,25.3382025 26.9033925,25.2183525 27.020055,24.9786525 C27.1367175,24.73959 27.229155,24.39024 27.2922675,23.919765 L27.5141175,23.919765 C27.382155,25.06344 27.1940925,25.92279 26.9543925,26.50164 C26.7121425,27.07794 26.4622425,27.3654525 26.204055,27.3654525 C26.030655,27.3654525 25.86363,27.2175525 25.69533,26.9204775 C25.530855,26.6221275 25.4065425,26.1975525 25.326855,25.6416525 C25.2484425,25.0895775 25.2089175,24.23469 25.2089175,23.08209 L25.2089175,12.3051525 L24.388455,12.3051525 L24.388455,11.72949 C24.59373,11.470665 24.80793,11.03589 25.0240425,10.425165 C25.2433425,9.8138025 25.433955,9.0857775 25.6041675,8.24619 C25.6921425,7.803765 25.81263,6.992865 25.9688175,5.8154025 L26.142855,5.8154025 Z" id="Fill-16" fill="#024726"></path>
                                <path d="M30.2199862,11.7443438 C30.0204487,11.7443438 29.8202737,11.9292188 29.6169112,12.2970563 C29.4160987,12.6623438 29.2503487,13.3081313 29.1266737,14.2274063 C29.0029987,15.1517813 28.9398862,16.3356188 28.9398862,17.7795562 C28.9398862,20.1140812 29.0909737,22.1228438 29.3912362,23.8154063 C29.6921362,25.5073313 30.0861112,26.3539313 30.5776237,26.3539313 C30.9429112,26.3539313 31.2469987,25.8847313 31.4828737,24.9520688 C31.7219362,24.0194063 31.8385987,22.4154563 31.8385987,20.1427688 C31.8385987,17.2956938 31.6422487,15.0561563 31.2469987,13.4260688 C30.9773362,12.3047063 30.6349987,11.7443438 30.2199862,11.7443438 M30.3952987,10.6076813 C31.1819737,10.6076813 31.8124612,11.5288688 32.2867612,13.3712438 C32.6922112,14.9484187 32.8930237,16.7538188 32.8930237,18.7950937 C32.8930237,20.2294688 32.7827362,21.6816938 32.5583362,23.1524062 C32.3371237,24.6224812 32.0298487,25.7291812 31.6384237,26.4750563 C31.2482737,27.2190188 30.8128612,27.5932313 30.3328237,27.5932313 C29.5512487,27.5932313 28.9296862,26.6312438 28.4706862,24.7066313 C28.0811737,23.0873812 27.8873737,21.2673188 27.8873737,19.2515438 C27.8873737,17.7795562 28.0046737,16.3190438 28.2392737,14.8668187 C28.4776987,13.4152313 28.7875237,12.3429563 29.1712987,11.6493563 C29.5569862,10.9544813 29.9643487,10.6076813 30.3952987,10.6076813" id="Fill-18" fill="#024726"></path>
                                <path d="M40.2207675,24.079395 L40.2207675,15.8205825 C40.1978175,15.0275325 40.132155,14.30397 40.017405,13.652445 C39.905205,12.9990075 39.7553925,12.5068575 39.56733,12.175995 C39.38118,11.84067 39.1982175,11.6730075 39.0209925,11.6730075 C38.6869425,11.6730075 38.3936925,12.1383825 38.13168,13.055745 C37.7893425,14.2701825 37.615305,16.044345 37.615305,18.3718575 C37.615305,20.731245 37.7816925,22.53537 38.1157425,23.7893325 C38.44788,25.043295 38.8157175,25.670595 39.2249925,25.670595 C39.56733,25.670595 39.900105,25.13892 40.2207675,24.079395 L40.2207675,24.079395 Z M40.2207675,25.3027575 C39.9695925,26.1213075 39.721605,26.70462 39.479355,27.0609825 C39.23583,27.4167075 38.97828,27.593295 38.699055,27.593295 C38.13168,27.593295 37.6350675,26.863995 37.2143175,25.3983825 C36.7922925,23.9359575 36.580005,22.0566075 36.580005,19.7565075 C36.580005,17.4576825 36.8152425,15.35457 37.2818925,13.448445 C37.750455,11.5455075 38.35353,10.5905325 39.0872925,10.5905325 C39.5450175,10.5905325 39.92178,11.03997 40.2207675,11.9382075 L40.2207675,8.9814825 C40.2207675,7.1505825 40.208655,6.0260325 40.17933,5.6052825 C40.1519175,5.1845325 40.10793,4.8989325 40.0473675,4.7472075 C39.98553,4.59357 39.9096675,4.5202575 39.81978,4.5202575 C39.721605,4.5202575 39.59028,4.61397 39.4264425,4.80012 L39.35568,4.18812 L40.90098,2.22972 L41.154705,2.22972 L41.154705,20.75547 C41.154705,22.63227 41.16873,23.7778575 41.19933,24.1922325 C41.226105,24.604695 41.272005,24.8947575 41.33448,25.0579575 C41.39568,25.221795 41.4689925,25.3027575 41.5518675,25.3027575 C41.65323,25.3027575 41.789655,25.20267 41.96178,25.005045 L42.02298,25.6189575 L40.4795925,27.593295 L40.2207675,27.593295 L40.2207675,25.3027575 Z" id="Fill-20" fill="#024726"></path>
                                <path d="M43.6765913,2.229465 C43.8346913,2.229465 43.9704788,2.4009525 44.0820413,2.7452025 C44.1910538,3.0881775 44.2471538,3.5063775 44.2471538,3.9947025 C44.2471538,4.4868525 44.1910538,4.9050525 44.0820413,5.2544025 C43.9704788,5.6050275 43.8346913,5.77779 43.6765913,5.77779 C43.5172163,5.77779 43.3814288,5.6050275 43.2673163,5.2544025 C43.1557538,4.9050525 43.0977413,4.4868525 43.0977413,3.9947025 C43.0977413,3.5063775 43.1538413,3.0881775 43.2654038,2.7452025 C43.3756913,2.4009525 43.5140288,2.229465 43.6765913,2.229465 L43.6765913,2.229465 Z M44.1445163,10.6081275 L44.1445163,23.483715 C44.1445163,24.48714 44.1681038,25.1546025 44.2171913,25.4848275 C44.2650038,25.8188775 44.3344913,26.06814 44.4256538,26.22879 C44.5193663,26.3913525 44.6876663,26.4755025 44.9324663,26.4755025 L44.9324663,27.1040775 L42.4117913,27.1040775 L42.4117913,26.4755025 C42.6661538,26.4755025 42.8357288,26.400915 42.9224288,26.247915 C43.0104038,26.09619 43.0792538,25.84374 43.1302538,25.4937525 C43.1793413,25.1444025 43.2067538,24.4750275 43.2067538,23.483715 L43.2067538,17.3069775 C43.2067538,15.5678775 43.1908163,14.4446025 43.1557538,13.93269 C43.1296163,13.5584775 43.0856288,13.2971025 43.0295288,13.1543025 C42.9740663,13.005765 42.8937413,12.93564 42.7987538,12.93564 C42.6916538,12.93564 42.5660663,13.0229775 42.4117913,13.1963775 L42.3333788,12.567165 L43.8978038,10.6081275 L44.1445163,10.6081275 Z" id="Fill-22" fill="#024726"></path>
                                <path d="M52.8608625,27.1038225 L49.894575,7.144335 L49.894575,22.9944975 C49.894575,24.45246 49.945575,25.361535 50.04885,25.72236 C50.187825,26.21196 50.4090375,26.45676 50.7099375,26.45676 L50.9840625,26.45676 L50.9840625,27.1038225 L48.3078375,27.1038225 L48.3078375,26.45676 L48.58005,26.45676 C48.9039,26.45676 49.13595,26.154585 49.2717375,25.547685 C49.353975,25.1734725 49.39605,24.32241 49.39605,22.9944975 L49.39605,7.4930475 C49.39605,6.44436 49.3578,5.685735 49.2813,5.219085 C49.229025,4.88121 49.1314875,4.59816 48.991875,4.3718475 C48.8478,4.145535 48.6234,4.0301475 48.3078375,4.0301475 L48.3078375,3.38436 L50.483625,3.38436 L53.2701375,21.944535 L56.01075,3.38436 L58.1865375,3.38436 L58.1865375,4.0301475 L57.9207,4.0301475 C57.5911125,4.0301475 57.3577875,4.33296 57.223275,4.9392225 C57.139125,5.3140725 57.0989625,6.165135 57.0989625,7.4930475 L57.0989625,22.9944975 C57.0989625,24.45246 57.1525125,25.361535 57.2577,25.72236 C57.3960375,26.21196 57.615975,26.45676 57.9207,26.45676 L58.1865375,26.45676 L58.1865375,27.1038225 L54.9225375,27.1038225 L54.9225375,26.45676 L55.19475,26.45676 C55.522425,26.45676 55.7532,26.154585 55.8858,25.547685 C55.9693125,25.1734725 56.01075,24.32241 56.01075,22.9944975 L56.01075,7.144335 L53.048925,27.1038225 L52.8608625,27.1038225 Z" id="Fill-24" fill="#024726"></path>
                                <path d="M61.7298263,23.6566688 L61.7298263,17.5526062 C61.1592638,18.2525813 60.7920637,18.7479187 60.6263138,19.0405313 C60.3266888,19.5511687 60.1144013,20.0885812 59.9875387,20.6508562 C59.8600387,21.2105812 59.7924638,21.8206688 59.7924638,22.4855813 C59.7924638,23.3251687 59.8708763,24.0238687 60.0379013,24.5765813 C60.2004637,25.1305688 60.3859762,25.4085187 60.5976263,25.4085187 C60.8838638,25.4085187 61.2644513,24.8252063 61.7298263,23.6566688 M61.7298263,24.7939687 C61.1987888,26.0676937 60.8653763,26.8008187 60.7283138,26.9990813 C60.5243137,27.2916938 60.3062888,27.4344938 60.0767887,27.4344938 C59.7178762,27.4344938 59.4220762,27.0596437 59.1900263,26.3016563 C58.9586138,25.5417562 58.8413137,24.5453438 58.8413137,23.3073188 C58.8413137,22.5276562 58.8980513,21.8506312 59.0121637,21.2787937 C59.1664387,20.4844687 59.4361013,19.7405062 59.8198763,19.0405313 C60.2004637,18.3405562 60.8392387,17.4875813 61.7298263,16.4867063 L61.7298263,15.8555813 C61.7298263,14.2573688 61.6475887,13.1621438 61.4843888,12.5667187 C61.3192762,11.9719313 61.0808513,11.6729437 60.7678388,11.6729437 C60.5300512,11.6729437 60.3407137,11.8724813 60.2004637,12.2690063 C60.0583012,12.6655313 59.9875387,13.1207063 59.9875387,13.6351688 L59.9971013,14.6487937 C59.9971013,15.1862063 59.9524763,15.5999438 59.8651387,15.8912812 C59.7752512,16.1813437 59.6592262,16.3286063 59.5164263,16.3286063 C59.3768137,16.3286063 59.2614262,16.1781563 59.1734512,15.8721562 C59.0861137,15.5680687 59.0389387,15.1562438 59.0389387,14.6309438 C59.0389387,13.6294313 59.2066013,12.7088812 59.5381012,11.8680188 C59.8708763,11.0265187 60.3349762,10.6076813 60.9355013,10.6076813 C61.3970512,10.6076813 61.7750888,10.8492938 62.0715263,11.3261438 C62.2940138,11.6869687 62.4578512,12.2517938 62.5611263,13.0231687 C62.6306138,13.5242438 62.6637638,14.5487063 62.6637638,16.0997438 L62.6637638,21.5420812 C62.6637638,23.0688938 62.6746013,24.0047437 62.6937262,24.3483563 C62.7134888,24.6938812 62.7440887,24.9252937 62.7868013,25.0394062 C62.8307888,25.1573437 62.8786013,25.2172687 62.9353388,25.2172687 C62.9959013,25.2172687 63.0500888,25.1732812 63.0940763,25.0929563 C63.1737637,24.9418687 63.3267637,24.5160188 63.5537138,23.8154062 L63.5537138,24.7939687 C63.1310512,26.5451812 62.7275137,27.4191937 62.3418262,27.4191937 C62.1569512,27.4191937 62.0109638,27.2190187 61.8981262,26.8231312 C61.7903887,26.4278812 61.7342888,25.7521312 61.7298263,24.7939687" id="Fill-26" fill="#024726"></path>
                                <path d="M65.44932,14.00205 C66.0594075,11.7402 66.6395325,10.608 67.18842,10.608 C67.47147,10.608 67.71627,10.8273 67.92027,11.264625 C68.12427,11.70195 68.2868325,12.4204125 68.408595,13.42575 C68.490195,14.12445 68.5329075,15.196725 68.5329075,16.645125 L68.5329075,23.484225 C68.5329075,24.49785 68.559045,25.1857125 68.6106825,25.5478125 C68.653395,25.8385125 68.719695,26.0680125 68.8121325,26.2286625 C68.9039325,26.391225 69.0747825,26.475375 69.3246825,26.475375 L69.3246825,27.10395 L66.7581075,27.10395 L66.7581075,26.475375 L66.8677575,26.475375 C67.10937,26.475375 67.27767,26.363175 67.37457,26.133675 C67.4708325,25.906725 67.53777,25.5720375 67.5741075,25.1283375 C67.590045,24.95175 67.597695,24.4041375 67.597695,23.484225 L67.597695,16.9211625 C67.597695,15.464475 67.53777,14.4075 67.4121825,13.7476875 C67.2897825,13.08915 67.085145,12.7582875 66.7938075,12.7582875 C66.34437,12.7582875 65.896845,13.51755 65.44932,15.0328875 L65.44932,23.484225 C65.44932,24.5647875 65.473545,25.2392625 65.51562,25.493625 C65.5672575,25.83405 65.639295,26.0807625 65.7317325,26.2401375 C65.825445,26.396325 66.0135075,26.475375 66.294645,26.475375 L66.294645,27.10395 L63.73062,27.10395 L63.73062,26.475375 L63.841545,26.475375 C64.1061075,26.475375 64.28397,26.26755 64.37832,25.8538125 C64.471395,25.4388 64.5153825,24.65085 64.5153825,23.484225 L64.5153825,17.53635 C64.5153825,15.6117375 64.501995,14.4400125 64.4745825,14.0192625 C64.4439825,13.597875 64.40127,13.3141875 64.34517,13.1624625 C64.28397,13.0107375 64.21002,12.9355125 64.10802,12.9355125 C64.00347,12.9355125 63.8791575,13.02285 63.73062,13.19625 L63.6445575,12.5670375 L65.2064325,10.608 L65.44932,10.608 L65.44932,14.00205 Z" id="Fill-28" fill="#024726"></path>
                                <path d="M71.2453425,5.8154025 L71.2453425,11.08179 L72.455955,11.08179 L72.455955,12.3051525 L71.2453425,12.3051525 L71.2453425,22.695765 C71.2453425,23.7355275 71.293155,24.4342275 71.38623,24.794415 C71.4863175,25.1571525 71.609355,25.3382025 71.7604425,25.3382025 C71.8866675,25.3382025 72.007155,25.2183525 72.121905,24.9786525 C72.2385675,24.73959 72.331005,24.39024 72.392205,23.919765 L72.61278,23.919765 C72.4833675,25.06344 72.2946675,25.92279 72.053055,26.50164 C71.81208,27.07794 71.5628175,27.3654525 71.3078175,27.3654525 C71.13378,27.3654525 70.96293,27.2175525 70.7965425,26.9204775 C70.63143,26.6221275 70.5096675,26.1975525 70.428705,25.6416525 C70.35093,25.0895775 70.3107675,24.23469 70.3107675,23.08209 L70.3107675,12.3051525 L69.4909425,12.3051525 L69.4909425,11.72949 C69.696855,11.470665 69.9091425,11.03589 70.1246175,10.425165 C70.3426425,9.8138025 70.5377175,9.0857775 70.7047425,8.24619 C70.7939925,7.803765 70.91448,6.992865 71.071305,5.8154025 L71.2453425,5.8154025 Z" id="Fill-30" fill="#024726"></path>
                                <path d="M75.3227925,11.7443438 C75.12198,11.7443438 74.921805,11.9292188 74.7184425,12.2970563 C74.5169925,12.6623438 74.35188,13.3081313 74.22948,14.2274063 C74.1026175,15.1517813 74.04333,16.3356188 74.04333,17.7795562 C74.04333,20.1140812 74.19378,22.1228438 74.49213,23.8154063 C74.7923925,25.5073313 75.18828,26.3539313 75.6797925,26.3539313 C76.0457175,26.3539313 76.349805,25.8847313 76.5837675,24.9520688 C76.8221925,24.0194063 76.941405,22.4154563 76.941405,20.1427688 C76.941405,17.2956938 76.7431425,15.0561563 76.349805,13.4260688 C76.0788675,12.3047063 75.7384425,11.7443438 75.3227925,11.7443438 M75.4974675,10.6076813 C76.283505,10.6076813 76.913355,11.5288688 77.38893,13.3712438 C77.79438,14.9484187 77.99583,16.7538188 77.99583,18.7950937 C77.99583,20.2294688 77.88363,21.6816938 77.6611425,23.1524062 C77.4367425,24.6224812 77.1307425,25.7291812 76.739955,26.4750563 C76.3517175,27.2190188 75.913755,27.5932313 75.4349925,27.5932313 C74.6546925,27.5932313 74.0324925,26.6312438 73.5709425,24.7066313 C73.182705,23.0873812 72.9869925,21.2673188 72.9869925,19.2515438 C72.9869925,17.7795562 73.106205,16.3190438 73.3427175,14.8668187 C73.577955,13.4152313 73.8884175,12.3429563 74.276655,11.6493563 C74.6585175,10.9544813 75.0665175,10.6076813 75.4974675,10.6076813" id="Fill-32" fill="#024726"></path>
                                <path d="M78.4947375,11.0815987 L80.935725,11.0815987 L80.935725,11.7292987 L80.775075,11.7292987 C80.62845,11.7292987 80.5156125,11.8338487 80.4391125,12.0595237 C80.361975,12.2826487 80.3243625,12.5784487 80.3243625,12.9520237 C80.3243625,13.3593863 80.3638875,13.8432488 80.4416625,14.4042487 L81.6490875,23.2559362 L82.8603375,14.0714737 C82.9470375,13.4193112 82.988475,12.9239738 82.988475,12.5848237 C82.988475,12.4203488 82.975725,12.2883863 82.945125,12.1825612 C82.9024125,12.0078863 82.8501375,11.8873988 82.78575,11.8242862 C82.722,11.7605362 82.5925875,11.7292987 82.3924125,11.7292987 L82.3924125,11.0815987 L84.0888,11.0815987 L84.0888,11.7292987 C83.8918125,11.7732862 83.7566625,11.8975988 83.6827125,12.0913988 C83.5488375,12.4452113 83.42835,13.0272488 83.3238,13.8432488 L81.4827,27.5934862 L81.2512875,27.5934862 L79.39935,14.0714737 C79.3171125,13.4416237 79.2380625,12.9909112 79.1628375,12.7174238 C79.0876125,12.4432988 78.990075,12.2106112 78.8746875,12.0257363 C78.809025,11.9205488 78.68025,11.8204612 78.4947375,11.7292987 L78.4947375,11.0815987 Z" id="Fill-34" fill="#024726"></path>
                                <path d="M87.4963012,23.6566688 L87.4963012,17.5526062 C86.9270137,18.2525813 86.5617262,18.7479187 86.3934263,19.0405313 C86.0944387,19.5511687 85.8827887,20.0885812 85.7527387,20.6508562 C85.6252387,21.2105812 85.5614887,21.8206688 85.5614887,22.4855813 C85.5614887,23.3251687 85.6430887,24.0238687 85.8050138,24.5765813 C85.9669387,25.1305688 86.1556387,25.4085187 86.3647387,25.4085187 C86.6503387,25.4085187 87.0302887,24.8252063 87.4963012,23.6566688 M87.4963012,24.7939687 C86.9659013,26.0676937 86.6318512,26.8008187 86.4954262,26.9990813 C86.2933387,27.2916938 86.0753137,27.4344938 85.8451762,27.4344938 C85.4843512,27.4344938 85.1898262,27.0596437 84.9571387,26.3016563 C84.7250887,25.5417562 84.6116137,24.5453438 84.6116137,23.3073188 C84.6116137,22.5276562 84.6645262,21.8506312 84.7799137,21.2787937 C84.9348262,20.4844687 85.2038512,19.7405062 85.5863512,19.0405313 C85.9694887,18.3405562 86.6063513,17.4875813 87.4963012,16.4867063 L87.4963012,15.8555813 C87.4963012,14.2573688 87.4153387,13.1621438 87.2515013,12.5667187 C87.0863887,11.9719313 86.8492387,11.6729437 86.5336762,11.6729437 C86.2990762,11.6729437 86.1078262,11.8724813 85.9694887,12.2690063 C85.8247762,12.6655313 85.7527387,13.1207063 85.7527387,13.6351688 L85.7648512,14.6487937 C85.7648512,15.1862063 85.7202262,15.5999438 85.6322512,15.8912812 C85.5436387,16.1813437 85.4269762,16.3286063 85.2841762,16.3286063 C85.1452012,16.3286063 85.0304512,16.1781563 84.9418387,15.8721562 C84.8525887,15.5680687 84.8086012,15.1562438 84.8086012,14.6309438 C84.8086012,13.6294313 84.9743512,12.7088812 85.3052137,11.8680188 C85.6379887,11.0265187 86.1027262,10.6076813 86.7070763,10.6076813 C87.1648012,10.6076813 87.5422012,10.8492938 87.8380012,11.3261438 C88.0624012,11.6869687 88.2224138,12.2517938 88.3320638,13.0231687 C88.3970887,13.5242438 88.4334262,14.5487063 88.4334262,16.0997438 L88.4334262,21.5420812 C88.4334262,23.0688938 88.4410762,24.0047437 88.4621137,24.3483563 C88.4799637,24.6938812 88.5118387,24.9252937 88.5532762,25.0394062 C88.5979012,25.1573437 88.6489012,25.2172687 88.7030887,25.2172687 C88.7668387,25.2172687 88.8191137,25.1732812 88.8631012,25.0929563 C88.9427887,24.9418687 89.0938762,24.5160188 89.3214637,23.8154062 L89.3214637,24.7939687 C88.8988012,26.5451812 88.4959013,27.4191937 88.1089388,27.4191937 C87.9253387,27.4191937 87.7768012,27.2190187 87.6697012,26.8231312 C87.5587763,26.4278812 87.5001262,25.7521312 87.4963012,24.7939687" id="Fill-36" fill="#024726"></path>
                                <path d="M6.10827,9.86295375 L6.2045325,9.77242875 C6.20517,9.71186625 6.234495,9.63217875 6.29442,9.53336625 C6.351795,9.43455375 6.397695,9.38100375 6.42957,9.37271625 L6.471645,9.36315375 C6.4659075,9.33829125 6.46527,9.31151625 6.47037,9.28410375 C6.4748325,9.25669125 6.471645,9.22226625 6.461445,9.17955375 C6.456345,9.15851625 6.4901325,9.08775375 6.5628075,8.96917875 L6.58257,8.86207875 C6.5921325,8.76199125 6.6533325,8.66636625 6.7668075,8.57456625 C6.7910325,8.45981625 6.8165325,8.39925375 6.8407575,8.39287875 L6.88092,8.37247875 C6.882195,8.31510375 6.89877,8.26091625 6.93192,8.20736625 L6.94467,8.17039125 L6.92427,8.08496625 C6.9223575,8.07859125 6.9389325,8.04289125 6.9746325,7.97977875 C7.0103325,7.91666625 7.03392,7.85992875 7.0434825,7.81084125 C7.05432,7.76111625 7.0753575,7.71967875 7.106595,7.68461625 C7.1378325,7.65146625 7.1531325,7.60046625 7.15122,7.53352875 L7.234095,7.50229125 C7.2232575,7.45575375 7.218795,7.42451625 7.2232575,7.40857875 L7.221345,7.35247875 C7.22772,7.30530375 7.26342,7.17907875 7.325895,6.97189125 L7.3635075,6.75386625 C7.3584075,6.73219125 7.3673325,6.70286625 7.389645,6.66525375 C7.412595,6.62827875 7.4170575,6.58110375 7.40367,6.52372875 L7.40367,6.33821625 C7.38327,6.25597875 7.3596825,6.21900375 7.330995,6.22537875 C7.30167,6.25916625 7.2729825,6.28530375 7.24557,6.30315375 C7.2181575,6.32100375 7.2041325,6.39176625 7.2041325,6.51607875 C7.1034075,6.56644125 7.05432,6.63210375 7.05687,6.71242875 C7.05942,6.79339125 7.03137,6.86861625 6.9733575,6.93874125 L6.9516825,7.01141625 C6.9542325,7.05221625 6.930645,7.10130375 6.8802825,7.15931625 C6.82992,7.21605375 6.790395,7.30275375 6.762345,7.41941625 C6.6444075,7.70756625 6.578745,7.86247875 6.56472,7.88415375 L6.5271075,7.96129125 L6.44487,7.97021625 C6.47292,8.02312875 6.48822,8.05372875 6.489495,8.06074125 C6.494595,8.08241625 6.4888575,8.10536625 6.471645,8.12959125 C6.45507,8.15445375 6.4455075,8.18250375 6.4416825,8.21374125 C6.438495,8.24434125 6.42447,8.28259125 6.40152,8.32721625 C6.3792075,8.37247875 6.3639075,8.44005375 6.3575325,8.52994125 C6.3511575,8.61982875 6.339045,8.67465375 6.321195,8.69441625 L6.2440575,8.70079125 C6.2045325,8.74095375 6.188595,8.77537875 6.1956075,8.80342875 L6.229395,8.87419125 C6.23322,8.88821625 6.2274825,8.90797875 6.2121825,8.93156625 C6.1981575,8.95642875 6.188595,8.99914125 6.18477,9.06034125 C6.1803075,9.12154125 6.15672,9.21844125 6.1140075,9.35167875 C6.0706575,9.48364125 6.04452,9.62070375 6.0349575,9.75904125 C6.0260325,9.89929125 6.0056325,9.99172875 5.9750325,10.0363537 C5.984595,10.0420912 5.9954325,10.0427287 6.010095,10.0389038 C6.055995,10.0287037 6.089145,9.96941625 6.10827,9.86295375 L6.10827,9.86295375 Z M5.3694075,11.5376663 L5.3604825,11.5006913 C5.3477325,11.4516037 5.341995,11.4114413 5.341995,11.3808412 C5.30757,11.3292037 5.28462,11.2807538 5.273145,11.2342163 C5.27187,11.2272037 5.27697,11.1736537 5.28972,11.0722912 L5.2980075,10.8957037 C5.30757,10.8243038 5.3133075,10.7879663 5.316495,10.7835038 C5.280795,10.7318662 5.2623075,10.7025412 5.260395,10.6955287 C5.2406325,10.6139287 5.247645,10.5406163 5.280795,10.4755912 C5.313945,10.4118412 5.3349825,10.3276912 5.3439075,10.2237788 L5.3719575,9.87315375 L5.443995,9.40331625 C5.4446325,9.39184125 5.4548325,9.35932875 5.47332,9.30577875 C5.4930825,9.25222875 5.5083825,9.20696625 5.51922,9.16807875 C5.530695,9.12919125 5.545995,9.07436625 5.566395,9.00105375 L5.6167575,8.97746625 C5.6282325,8.95961625 5.6307825,8.94431625 5.6282325,8.93029125 C5.62632,8.92327875 5.612295,8.89586625 5.5861575,8.84996625 L5.6970825,8.49551625 L5.75382,8.23924125 C5.77422,8.17039125 5.8041825,8.12194125 5.8424325,8.09389125 C5.8819575,7.94471625 5.92467,7.84972875 5.97057,7.80829125 C5.97567,7.73561625 5.997345,7.65337875 6.0349575,7.56157875 L6.13377,7.52587875 C6.1395075,7.47232875 6.147795,7.43025375 6.160545,7.40092875 L6.145245,7.29191625 C6.1497075,7.31295375 6.1573575,7.30530375 6.1675575,7.26705375 C6.1764825,7.22880375 6.1879575,7.15931625 6.201345,7.05795375 L6.3052575,6.85841625 L6.3294825,6.77299125 C6.341595,6.74430375 6.35817,6.68947875 6.379845,6.60915375 C6.4276575,6.57409125 6.46272,6.52372875 6.4850325,6.45934125 L6.5742825,6.34140375 C6.558345,6.30379125 6.58002,6.20689125 6.6393075,6.04879125 C6.6928575,6.00990375 6.74067,5.96400375 6.7808325,5.91300375 L6.8509575,5.87347875 C6.820995,5.74916625 6.843945,5.65290375 6.92172,5.58596625 L6.97527,5.52731625 C7.024995,5.48524125 7.0536825,5.46292875 7.0613325,5.46101625 L7.0957575,5.44189125 C7.1352825,5.41639125 7.183095,5.39790375 7.2398325,5.38515375 C7.3711575,5.35200375 7.5024825,5.37240375 7.6325325,5.44380375 C7.7625825,5.51647875 7.8429075,5.61401625 7.87287,5.73832875 C7.88562,5.78805375 7.871595,5.84606625 7.830795,5.91236625 L7.8199575,5.96017875 C7.8174075,6.16800375 7.8059325,6.27382875 7.7842575,6.27956625 C7.7702325,6.28275375 7.75302,6.29805375 7.7332575,6.32610375 C7.7549325,6.44404125 7.7638575,6.51161625 7.7600325,6.52819125 C7.6988325,6.55432875 7.6860825,6.64166625 7.72242,6.79147875 C7.7205075,6.81442875 7.703295,6.85714125 7.6720575,6.91897875 C7.639545,6.98145375 7.6223325,7.06050375 7.619145,7.15740375 C7.616595,7.25430375 7.6006575,7.30530375 7.57197,7.31295375 L7.5139575,7.32697875 L7.5496575,7.40284125 C7.5611325,7.45320375 7.5496575,7.50802875 7.512045,7.56731625 C7.476345,7.62724125 7.45977,7.68461625 7.4616825,7.74007875 C7.4642325,7.79617875 7.4361825,7.87076625 7.3800825,7.96320375 L7.34757,8.06201625 C7.33482,8.10217875 7.315695,8.14680375 7.2895575,8.19397875 C7.26342,8.24115375 7.24812,8.30936625 7.24302,8.39734125 L7.1658825,8.68676625 C7.1123325,8.88375375 7.05942,8.98575375 7.00842,8.99021625 C7.0103325,9.13684125 7.00842,9.22226625 7.002045,9.24521625 C6.9975825,9.26880375 6.9771825,9.29494125 6.94212,9.32171625 C6.907695,9.34976625 6.884745,9.38801625 6.874545,9.43774125 C6.8637075,9.48746625 6.8484075,9.52571625 6.828645,9.55312875 L6.7808325,9.77370375 C6.7298325,9.81195375 6.69987,9.86805375 6.69222,9.94264125 C6.6380325,9.97005375 6.614445,10.0267912 6.6201825,10.1115787 C6.609345,10.1287913 6.5997825,10.1657663 6.5895825,10.2205913 L6.448695,10.4520037 C6.3690075,10.5431663 6.3358575,10.6330537 6.35052,10.7216663 C6.3639075,10.8102787 6.328845,10.8651038 6.24342,10.8855037 C6.1828575,10.9001663 6.08787,10.8957037 5.95782,10.8708413 L5.94762,10.8727538 C5.9482575,10.9256663 5.9367825,10.9868662 5.9125575,11.0563537 L5.9686575,11.1953288 C5.9724825,11.2125412 5.971845,11.3317538 5.9648325,11.5516912 C6.0056325,11.5982288 6.0298575,11.6320162 6.03432,11.6530537 L6.05217,11.7735412 L6.1140075,11.9099662 C6.160545,12.0234413 6.216645,12.0718913 6.28422,12.0559537 L6.4174575,12.0463912 C6.42447,12.0438412 6.46272,12.0068662 6.5309325,11.9341913 L6.70242,11.7786413 C6.708795,11.7767288 6.713895,11.7799162 6.7158075,11.7875662 C6.7540575,11.7933037 6.785295,11.7933037 6.805695,11.7882038 C6.841395,11.7792787 6.8522325,11.7467662 6.838845,11.6900287 L6.82227,11.6205412 C6.8343825,11.5797412 6.85542,11.5516912 6.88347,11.5370287 C6.9121575,11.5230037 6.9351075,11.5006913 6.95487,11.4700912 C6.9733575,11.4388537 6.9899325,11.4216413 7.0039575,11.4178162 L7.05687,11.4050662 C7.11042,11.3923163 7.121895,11.3241038 7.0919325,11.1991538 C7.1046825,11.1889537 7.1187075,11.1704663 7.134645,11.1436912 L7.1990325,11.1277538 C7.2270825,11.1213787 7.2500325,11.0793037 7.267245,11.0021662 C7.28382,10.9243912 7.2972075,10.8765788 7.3086825,10.8587287 C7.3698825,10.8364163 7.412595,10.8153787 7.4336325,10.7943412 C7.4973825,10.5610162 7.5598575,10.4367037 7.619145,10.4220413 L7.6516575,10.4143913 C7.698195,10.3429912 7.7192325,10.2849788 7.713495,10.2390788 C7.7077575,10.1938162 7.718595,10.1593913 7.7447325,10.1377162 C7.772145,10.1160412 7.795095,10.0924537 7.8148575,10.0644038 C7.83462,10.0369913 7.8480075,10.0229662 7.85502,10.0210537 C7.90857,10.0083038 7.9398075,10.0210537 7.94937,10.0599412 L7.96977,10.2129413 L8.04627,10.3640288 C8.04882,10.3786912 8.0405325,10.4099287 8.02077,10.4577412 C7.9997325,10.5061912 7.9959075,10.5546412 8.00802,10.6043662 C8.03352,10.7076413 8.02842,10.7669287 7.9946325,10.7828662 C7.9614825,10.7988038 7.937895,10.8294037 7.9245075,10.8759412 C7.91112,10.9231162 7.8824325,10.9690162 7.8365325,11.0155537 C7.792545,11.0620912 7.7625825,11.1213787 7.75047,11.1921412 L7.665045,11.2354912 L7.619145,11.2807538 C7.60257,11.4012412 7.5738825,11.4790162 7.532445,11.5159913 C7.49037,11.5516912 7.4489325,11.6415787 7.4081325,11.7824663 C7.397295,11.7856537 7.3928325,11.7901163 7.394745,11.7977662 L7.30677,11.8073287 C7.28892,11.8723538 7.264695,11.9137912 7.2360075,11.9322788 C7.2066825,11.9501287 7.18437,11.9775412 7.1709825,12.0132412 C7.1569575,12.0483037 7.1250825,12.0833662 7.0753575,12.1177912 C7.0243575,12.1522163 6.996945,12.1860037 6.989295,12.2172412 C6.981645,12.2497537 6.9644325,12.2707913 6.9363825,12.2809912 C6.9096075,12.2911912 6.88602,12.3109538 6.866895,12.3402788 C6.8471325,12.3696038 6.8292825,12.3861787 6.8114325,12.3900037 C6.8037825,12.3925538 6.7782825,12.3944663 6.7336575,12.3982912 L6.71262,12.4027538 C6.662895,12.4601287 6.61827,12.4939163 6.5793825,12.5034788 C6.5334825,12.5143162 6.50097,12.5296163 6.48312,12.5487413 C6.4582575,12.5404538 6.423195,12.5372663 6.3766575,12.5410912 C6.3307575,12.5449162 6.2759325,12.5398162 6.2121825,12.5245162 C6.1548075,12.5538413 6.119745,12.5704162 6.1050825,12.5729662 C6.04452,12.5876288 5.953995,12.5468287 5.83287,12.4499287 C5.711745,12.3536662 5.6371575,12.2478412 5.609745,12.1343663 C5.6091075,12.1318162 5.581695,12.1075913 5.528145,12.0667912 C5.4752325,12.0247162 5.4408075,11.9743537 5.426145,11.9137912 L5.413395,11.8602413 L5.4089325,11.7939412 L5.38407,11.6925787 L5.3872575,11.6581538 C5.438895,11.6383912 5.46312,11.6243662 5.461845,11.6173538 L5.3694075,11.5376663 Z" id="Fill-38" fill="#36AC77"></path>
                                <path d="M9.9961275,10.2975375 C9.991665,10.2159375 10.019715,10.14645 10.0828275,10.0871625 C10.14594,10.02915 10.17909,9.976875 10.182915,9.9297 C10.2383775,9.8640375 10.31424,9.752475 10.40859,9.5937375 C10.5035775,9.4343625 10.54884,9.3412875 10.5418275,9.3132375 C10.53864,9.3024 10.5303525,9.298575 10.5163275,9.3024 L10.50549,9.30495 L10.46979,9.3412875 L10.3709775,9.354675 L10.272165,9.3891 L10.1886525,9.3706125 L10.121715,9.398025 L10.0101525,9.4024875 C9.953415,9.415875 9.9068775,9.4394625 9.871815,9.4726125 C9.8367525,9.5057625 9.7640775,9.5503875 9.6557025,9.607125 C9.5473275,9.663225 9.4555275,9.737175 9.379665,9.828975 C9.3038025,9.920775 9.244515,9.971775 9.20244,9.981975 C9.1903275,10.0412625 9.1253025,10.1381625 9.007365,10.2714 C8.928315,10.321125 8.88879,10.39635 8.8868775,10.49835 C8.8129275,10.5958875 8.77659,10.6494375 8.7797775,10.660275 L8.7644775,10.759725 C8.742165,10.7909625 8.7109275,10.820925 8.6726775,10.846425 C8.63379,10.8732 8.61849,10.91655 8.6255025,10.976475 C8.6318775,11.037675 8.62104,11.0969625 8.591715,11.1543375 C8.5630275,11.21235 8.5515525,11.2550625 8.558565,11.28375 C8.6012775,11.458425 8.655465,11.5368375 8.72304,11.5209 C8.75109,11.5138875 8.8065525,11.4801 8.8881525,11.4208125 C8.969115,11.3621625 9.01629,11.3239125 9.02649,11.305425 C9.0373275,11.2882125 9.0628275,11.267175 9.101715,11.241675 L9.1903275,11.1645375 C9.201165,11.1466875 9.2145525,11.1339375 9.2311275,11.1262875 C9.24834,11.1186375 9.2630025,11.1027 9.27639,11.0791125 C9.2897775,11.0548875 9.315915,11.0262 9.356715,10.991775 C9.397515,10.95735 9.4249275,10.9171875 9.440865,10.8725625 C9.4925025,10.8222 9.5766525,10.74315 9.6939525,10.6354125 L9.785115,10.5232125 C9.8546025,10.4696625 9.8954025,10.42695 9.9068775,10.3982625 C9.91899,10.3689375 9.948315,10.33515 9.9961275,10.2975375 M11.76519,9.8685 L11.832765,9.772875 C11.88504,9.760125 11.9111775,9.7288875 11.91054,9.678525 C11.909265,9.627525 11.9379525,9.58035 11.99724,9.535725 C12.05589,9.4911 12.103065,9.418425 12.138765,9.3177 C12.174465,9.216975 12.2222775,9.1596 12.2822025,9.1449375 C12.3038775,9.1398375 12.332565,9.1513125 12.36954,9.1806375 C12.406515,9.2086875 12.426915,9.23355 12.4326525,9.255225 C12.46134,9.3718875 12.4543275,9.5019375 12.4135275,9.6434625 L12.4288275,9.7971 L12.4084275,9.8755125 C12.36189,9.91695 12.3344775,9.9558375 12.3268275,9.992175 C12.31854,10.027875 12.2860275,10.0776 12.22929,10.1394375 L12.1942275,10.226775 C12.12219,10.2707625 12.080115,10.32495 12.067365,10.387425 C12.054615,10.451175 12.0246525,10.491975 11.978115,10.5104625 C11.932215,10.5295875 11.8882275,10.5774 11.84679,10.6558125 C11.8155525,10.68195 11.776665,10.708725 11.730765,10.7348625 L11.733315,10.7909625 C11.7059025,10.83495 11.656815,10.877025 11.58669,10.9159125 C11.5146525,10.956075 11.463015,10.9905 11.4305025,11.0191875 C11.3973525,11.0472375 11.3744025,11.0638125 11.3603775,11.0676375 C11.2928025,11.083575 11.22714,11.0854875 11.164665,11.0721 C11.100915,11.05935 11.0378025,11.0574375 10.975965,11.06445 C10.94919,11.0485125 10.93134,11.0281125 10.9217775,11.0038875 C10.912215,10.9803 10.8860775,10.9516125 10.84464,10.9191 C10.802565,10.8853125 10.77324,10.833675 10.7560275,10.762275 L10.75284,10.6558125 C10.7496525,10.64115 10.7369025,10.6264875 10.713315,10.6086375 C10.690365,10.5920625 10.6769775,10.576125 10.6731525,10.5621 C10.669965,10.548075 10.67124,10.5366 10.6757025,10.5270375 C10.6820775,10.5181125 10.682715,10.507275 10.67889,10.49325 C10.675065,10.4754 10.667415,10.456275 10.654665,10.43715 C10.641915,10.4173875 10.634265,10.400175 10.6310775,10.38615 L10.5992025,10.117125 C10.59474,10.0960875 10.58454,10.0871625 10.570515,10.09035 C10.5558525,10.094175 10.534815,10.1177625 10.5061275,10.1623875 C10.4768025,10.2070125 10.437915,10.2357 10.38819,10.247175 C10.36524,10.275225 10.3531275,10.3255875 10.3518525,10.397625 C10.33209,10.4403375 10.30404,10.4805 10.26834,10.5193875 L10.2549525,10.5563625 C10.25304,10.5831375 10.231365,10.61055 10.18929,10.6366875 C10.1465775,10.6641 10.1198025,10.69215 10.1083275,10.7221125 L10.0675275,10.787775 L9.9642525,10.8024375 C9.9578775,10.8113625 9.9464025,10.846425 9.927915,10.9095375 C9.9094275,10.97265 9.8788275,11.0281125 9.8380275,11.07465 L9.51354,11.504325 C9.47784,11.542575 9.4236525,11.593575 9.3522525,11.65605 L9.328665,11.6949375 C9.0896025,11.953125 8.91174,12.095925 8.79444,12.123975 C8.6981775,12.146925 8.5796025,12.146925 8.4393525,12.1258875 C8.2978275,12.103575 8.2136775,12.0557625 8.18499,11.9843625 L8.0785275,11.77845 C8.0339025,11.736375 8.00139,11.67135 7.9803525,11.5827375 C7.969515,11.540025 7.96569,11.5100625 7.969515,11.494125 L7.9625025,11.4628875 L7.9089525,11.28885 C7.898115,11.246775 7.9268025,11.216175 7.9943775,11.200875 L7.949115,11.0587125 C7.9459275,11.0446875 7.9637775,10.981575 8.00139,10.8687375 C8.0402775,10.7559 8.068965,10.6896 8.0861775,10.670475 L8.1231525,10.5882375 C8.1091275,10.5461625 8.1231525,10.4951625 8.16459,10.433325 C8.2060275,10.3727625 8.237265,10.313475 8.2570275,10.2567375 C8.27679,10.198725 8.3246025,10.1292375 8.3985525,10.0463625 L8.5196775,9.8487375 C8.6140275,9.6931875 8.72559,9.5618625 8.85309,9.451575 C8.872215,9.4394625 8.9072775,9.3935625 8.95764,9.3132375 C9.007365,9.23355 9.071115,9.1678875 9.147615,9.117525 C9.224115,9.0671625 9.2961525,9.00915 9.36564,8.9434875 C9.4338525,8.877825 9.4912275,8.8389375 9.537765,8.8281 L9.5804775,8.8185375 C9.59514,8.8147125 9.678015,8.7471375 9.8316525,8.61645 L9.8635275,8.6081625 C9.8775525,8.604975 9.915165,8.61135 9.97509,8.6260125 L9.9859275,8.6241 L10.0611525,8.56035 C10.0726275,8.55015 10.08984,8.5418625 10.111515,8.5367625 C10.33209,8.4832125 10.49019,8.6068875 10.585815,8.90715 C10.6081275,8.969625 10.6336275,8.9970375 10.662315,8.990025 C10.698015,8.9817375 10.7330775,8.9046 10.7675025,8.7586125 C10.80129,8.6132625 10.9256025,8.51445 11.13789,8.4628125 C11.2915275,8.4252 11.391615,8.5048875 11.43879,8.7006 C11.49489,8.931375 11.4445275,9.1749 11.2889775,9.4305375 C11.281965,9.4624125 11.2787775,9.497475 11.2800525,9.53445 L11.25774,9.7709625 L11.2609275,9.7811625 C11.266665,9.803475 11.25774,9.8359875 11.2367025,9.8806125 C11.2163025,9.9252375 11.20929,9.9622125 11.2163025,9.9902625 L11.2583775,10.12095 L11.27304,10.275225 C11.289615,10.3428 11.3132025,10.3842375 11.343165,10.3995375 C11.4496275,10.344075 11.5210275,10.2765 11.55609,10.198725 C11.5911525,10.12095 11.618565,10.0744125 11.6383275,10.0629375 L11.68614,10.0285125 C11.705265,9.9673125 11.73204,9.9144 11.76519,9.8685" id="Fill-40" fill="#36AC77"></path>
                                <path d="M17.0945625,9.0607875 L17.2743375,8.98365 C17.36805,8.9383875 17.420325,8.9141625 17.4311625,8.91225 C17.438175,8.9103375 17.4553875,8.910975 17.4828,8.916075 C17.5102125,8.9205375 17.5408125,8.9243625 17.5726875,8.9281875 C17.606475,8.931375 17.64855,8.9626125 17.700825,9.0212625 C17.8544625,8.8975875 17.9449875,8.8134375 17.9724,8.76945 C17.999175,8.724825 18.024675,8.7006 18.050175,8.6935875 C18.0571875,8.6923125 18.0686625,8.69295 18.0846,8.696775 C18.08715,8.6770125 18.090975,8.6540625 18.096075,8.6260125 C18.1005375,8.5986 18.119025,8.5635375 18.1515375,8.5201875 C18.1846875,8.4762 18.2280375,8.3837625 18.284775,8.2422375 L18.412275,8.0019 L18.5334,7.6850625 C18.5620875,7.6021875 18.58185,7.50975 18.5895,7.4058375 L18.6048,7.3287 C18.608625,7.2828 18.6099,7.2566625 18.608625,7.2490125 C18.60225,7.2247875 18.5633625,7.171875 18.4906875,7.09155 L18.3721125,7.182075 L18.3695625,7.171875 C18.3192,7.1495625 18.279675,7.14255 18.2509875,7.1495625 C18.22995,7.1546625 18.213375,7.17315 18.2019,7.2031125 C18.1910625,7.2349875 18.16875,7.2573 18.1375125,7.2726 C18.1043625,7.2885375 18.0795,7.3114875 18.0610125,7.3420875 C18.0418875,7.3739625 18.011925,7.3956375 17.9724,7.409025 C17.9322375,7.4224125 17.89335,7.460025 17.856375,7.5218625 L17.7894375,7.5269625 L17.7588375,7.5626625 L17.690625,7.5613875 C17.637075,7.6659375 17.5969125,7.7309625 17.5714125,7.7577375 C17.5459125,7.783875 17.5153125,7.84125 17.48025,7.929225 L17.4056625,7.947075 C17.3776125,7.95345 17.3604,7.99935 17.3546625,8.0835 C17.323425,8.1134625 17.29665,8.156175 17.272425,8.211 L17.1519375,8.296425 C17.134725,8.349975 17.111775,8.393325 17.08245,8.426475 L16.938375,8.7433125 C16.928175,8.760525 16.91415,8.7739125 16.8969375,8.7815625 C16.8803625,8.7892125 16.8637875,8.7994125 16.8484875,8.81025 L16.900125,8.9103375 L16.8841875,8.9148 C16.810875,8.9817375 16.7770875,9.07545 16.7841,9.1984875 L16.7834625,9.3336375 C16.787925,9.3553125 16.7974875,9.364875 16.81215,9.36105 C16.8268125,9.3578625 16.84275,9.3400125 16.861875,9.31005 C16.881,9.2788125 16.9160625,9.2329125 16.968975,9.1704375 C17.0218875,9.1086 17.0639625,9.0722625 17.0945625,9.0607875 L17.0945625,9.0607875 Z M15.393075,13.2440625 C15.408375,13.2294 15.4651125,13.0681125 15.563925,12.7621125 L15.59325,12.6473625 C15.6111,12.5836125 15.630225,12.529425 15.64935,12.48735 L15.6499875,12.4420875 C15.663375,12.4204125 15.67485,12.389175 15.6844125,12.34965 L15.7902375,11.5056 C15.8042625,11.3812875 15.81255,11.29395 15.8131875,11.24295 C15.813825,11.1913125 15.8272125,11.0313 15.852075,10.7616375 C15.83295,10.7743875 15.81765,10.8049875 15.8068125,10.8547125 C15.795975,10.9044375 15.7838625,10.9312125 15.7692,10.9344 L15.6920625,10.9643625 C15.6856875,10.966275 15.6723,11.037675 15.653175,11.1772875 L15.63915,11.2091625 C15.586875,11.228925 15.5581875,11.2659 15.5530875,11.3200875 L15.507825,11.52855 L15.525675,11.6031375 C15.546075,11.6892 15.504,11.78355 15.3969,11.8887375 C15.382875,12.0003 15.3707625,12.0583125 15.359925,12.0615 L15.3070125,12.0736125 L15.351,12.164775 C15.3714,12.246375 15.36375,12.3222375 15.3306,12.393 C15.2968125,12.463125 15.280875,12.501375 15.2827875,12.509025 L15.3184875,12.6129375 L15.3312375,12.71175 C15.314025,12.825225 15.3223125,12.954 15.3580125,13.0999875 L15.393075,13.2440625 Z M15.9292125,9.9928125 L15.9687375,9.8984625 C15.9834,9.8640375 15.98595,9.83025 15.9783,9.79455 L16.0133625,9.385275 C16.02675,9.2392875 16.035675,9.158325 16.0388625,9.14175 L16.0344,9.0301875 L16.0694625,8.89185 L16.0567125,8.74905 C16.045875,8.64195 16.0605375,8.4762 16.1000625,8.2524375 L16.0911375,8.1695625 L16.1058,8.0420625 L16.1000625,8.021025 C16.091775,7.985325 16.076475,7.970025 16.0554375,7.9757625 L16.0133625,7.9859625 C15.948975,8.0012625 15.9164625,8.0242125 15.9164625,8.054175 L15.915825,8.2129125 C15.9279375,8.2651875 15.903075,8.3008875 15.8386875,8.31555 C15.831675,8.3174625 15.8119125,8.316825 15.7794,8.3136375 C15.7468875,8.3098125 15.7264875,8.309175 15.719475,8.3110875 C15.7086375,8.3589 15.6927,8.418825 15.6729375,8.4915 C15.640425,8.51445 15.5913375,8.5660875 15.5244,8.6464125 L15.4734,8.67 C15.4485375,8.7363 15.4039125,8.808975 15.3408,8.888025 L15.326775,8.9256375 C15.296175,9.0161625 15.23625,9.071625 15.1476375,9.0926625 C15.0303375,9.12135 14.9525625,9.0556875 14.913675,8.895675 C14.88945,8.796225 14.918775,8.709525 15.0022875,8.6343 C15.0864375,8.5597125 15.1368,8.497875 15.155925,8.4507 C15.173775,8.4028875 15.23625,8.3283 15.3439875,8.2269375 L15.3796875,8.1396 C15.3975375,8.0937 15.418575,8.0682 15.4396125,8.0624625 L15.5224875,8.0089125 C15.533325,7.9910625 15.5632875,7.9764 15.6130125,7.9642875 L15.5836875,7.89225 C15.579225,7.870575 15.6181125,7.837425 15.70035,7.79025 C15.7162875,7.7641125 15.75645,7.7131125 15.818925,7.6378875 C15.8814,7.5626625 15.977025,7.37715 16.104525,7.082625 C16.1102625,7.044375 16.1313,7.00995 16.167,6.980625 C16.2033375,6.9506625 16.232025,6.9187875 16.2537,6.8830875 L16.3608,6.8575875 C16.38885,6.850575 16.464075,6.8830875 16.5871125,6.955125 C16.7095125,7.026525 16.7892,7.13745 16.8255375,7.286625 L16.83765,8.0114625 L16.8599625,8.056725 L16.8599625,8.1019875 C16.86315,8.11665 16.872075,8.12175 16.8861,8.117925 C16.900125,8.1147375 16.9237125,8.0790375 16.956225,8.0114625 C16.9619625,7.93815 16.9925625,7.8763125 17.0493,7.824675 C17.1073125,7.7730375 17.1462,7.7233125 17.1685125,7.674225 C17.190825,7.6264125 17.2258875,7.5786 17.2730625,7.5333375 C17.3202375,7.488075 17.3801625,7.41794778 17.453475,7.3229625 C17.5267875,7.2286125 17.6001,7.16805 17.672775,7.1431875 L17.718675,7.0985625 L17.71995,7.0131375 C17.772225,6.947475 17.830875,6.8843625 17.8952625,6.8238 L17.9985375,6.6918375 C18.139425,6.6045 18.2478,6.5515875 18.3223875,6.534375 C18.3580875,6.5248125 18.386775,6.503775 18.4090875,6.468075 L18.5436,6.4916625 C18.55125,6.48975 18.5633625,6.475725 18.5786625,6.4495875 C18.5773875,6.4419375 18.583125,6.4368375 18.5977875,6.4330125 C18.743775,6.3973125 18.881475,6.4253625 19.0096125,6.513975 C19.139025,6.603225 19.2199875,6.7147875 19.2525,6.8499375 C19.253775,6.8575875 19.2531375,6.8748 19.2480375,6.9022125 C19.243575,6.929625 19.243575,6.952575 19.2474,6.9697875 L19.299675,7.0475625 L19.3028625,7.0577625 L19.2595125,7.3899 C19.2576,7.42815 19.26015,7.5333375 19.2678,7.7041875 C19.2263625,7.827225 19.1715375,7.9477125 19.1039625,8.0650125 C19.037025,8.1835875 18.99495,8.270925 18.9790125,8.3276625 C18.996225,8.3385 19.0108875,8.342325 19.021725,8.339775 C19.0529625,8.332125 19.0912125,8.288775 19.136475,8.2103625 L19.3494,7.9948875 L19.39785,8.005725 C19.43865,7.95855 19.4800875,7.905 19.521525,7.84635 C19.5636,7.786425 19.6037625,7.750725 19.6420125,7.7373375 C19.656675,7.7041875 19.684725,7.6602 19.7274375,7.6041 L19.7669625,7.5327 C19.788,7.5276 19.809675,7.508475 19.832625,7.4766 C19.8543,7.4453625 19.8829875,7.421775 19.91805,7.4052 C19.95375,7.3892625 19.985625,7.352925 20.0130375,7.29555 C20.0398125,7.2375375 20.0665875,7.2018375 20.09145,7.18845 C20.115675,7.1750625 20.1290625,7.156575 20.1316125,7.133625 C20.222775,6.983175 20.30055,6.8952 20.365575,6.868425 L20.424225,6.8308125 C20.4286875,6.8231625 20.4357,6.817425 20.442075,6.8155125 C20.4816,6.8053125 20.5204875,6.8359125 20.5600125,6.9054 L20.5166625,7.029075 L20.5294125,7.0819875 L20.5600125,7.1368125 C20.5689375,7.1725125 20.5581,7.222875 20.528775,7.2885375 C20.49945,7.3535625 20.4580125,7.3930875 20.4044625,7.4058375 C20.3509125,7.449825 20.322225,7.4887125 20.3184,7.5256875 C20.3139375,7.5626625 20.2731375,7.6238625 20.1966375,7.7105625 C20.1201375,7.7972625 20.07615,7.8661125 20.067225,7.9196625 C20.057025,7.972575 20.0328,8.0038125 19.9939125,8.013375 L19.89,8.0050875 C19.8339,8.1313125 19.7911875,8.194425 19.761225,8.1937875 L19.72935,8.2014375 L19.7108625,8.217375 L19.67835,8.36655 C19.641375,8.383125 19.6139625,8.4016125 19.5961125,8.4207375 L19.5400125,8.42265 C19.376175,8.6923125 19.2633375,8.834475 19.2034125,8.8485 L19.1046,8.8618875 C19.0975875,8.862525 19.0861125,8.8873875 19.0695375,8.9345625 C19.052325,8.982375 19.037025,9.0168 19.0236375,9.0391125 C19.01025,9.061425 18.993675,9.0939375 18.9739125,9.1360125 L18.8617125,9.163425 C18.8336625,9.1698 18.7877625,9.2125125 18.72465,9.2922 C18.725925,9.2992125 18.723375,9.303675 18.7163625,9.3055875 L18.6283875,9.2928375 L18.61755,9.2953875 C18.5824875,9.3043125 18.5429625,9.3438375 18.4996125,9.4139625 L18.3498,9.5185125 C18.35235,9.525525 18.3491625,9.5299875 18.34215,9.5319 L18.22485,9.5376375 C18.2038125,9.5427375 18.1757625,9.5682375 18.1426125,9.6141375 L18.1056375,9.650475 C18.0846,9.6562125 18.05145,9.683625 18.0074625,9.7314375 L17.8519125,9.8372625 C17.83215,9.834075 17.8149375,9.834075 17.80155,9.8379 L17.7078375,9.8716875 L17.6173125,9.87105 C17.5994625,9.8755125 17.5790625,9.90675 17.555475,9.9654 C17.558025,9.9724125 17.5510125,9.976875 17.5369875,9.9807 C17.529975,9.9826125 17.51085,9.9838875 17.4808875,9.9826125 L17.4171375,9.99855 L17.3023875,10.05975 C17.2743375,10.0680375 17.2156875,10.0514625 17.129625,10.0119375 C17.042925,9.97305 16.9836375,9.93225 16.951125,9.8920875 L16.877175,9.818775 C16.82235,9.80985 16.7834625,9.7964625 16.7605125,9.7798875 L16.7229,9.8117625 C16.7229,9.8270625 16.7133375,9.8532 16.69485,9.8920875 C16.675725,9.9297 16.668075,9.956475 16.6712625,9.9711375 C16.6827375,10.0164 16.680825,10.0820625 16.665525,10.16685 C16.6495875,10.2516375 16.63365,10.3995375 16.617075,10.61055 L16.5679875,10.71255 C16.5577875,10.7335875 16.555875,10.75335 16.5603375,10.7712 C16.56735,10.8024375 16.55205,10.8649125 16.5144375,10.9567125 C16.5322875,11.0466 16.520175,11.1441375 16.4774625,11.24805 L16.469175,11.3060625 L16.4876625,11.3812875 C16.492125,11.4029625 16.4774625,11.4985875 16.443675,11.6681625 L16.4596125,11.7829125 C16.4392125,11.7918375 16.4200875,11.87025 16.4022375,12.0200625 C16.3831125,12.1692375 16.3499625,12.29865 16.300875,12.4083 L16.295775,12.595725 L16.265175,12.705375 L16.2581625,12.81375 C16.2556125,12.8335125 16.2479625,12.8500875 16.2364875,12.8641125 L16.2390375,12.919575 L16.2122625,12.9495375 C16.232025,13.0005375 16.2199125,13.098075 16.175925,13.2402375 C16.1791125,13.2542625 16.167,13.284225 16.1395875,13.327575 C16.11345,13.3722 16.0854,13.434675 16.056075,13.5143625 C16.02675,13.595325 15.974475,13.6750125 15.89925,13.753425 L15.7048125,13.952325 C15.5346,13.9937625 15.3949875,13.931925 15.28725,13.766175 C15.2751375,13.7464125 15.22605,13.69605 15.140625,13.615725 C15.0552,13.5347625 14.9895375,13.40025 14.9436375,13.21155 L14.939175,12.9814125 C14.9232375,12.7786875 14.9296125,12.6473625 14.9563875,12.5874375 L14.985075,12.4287 C14.985075,12.3981 14.99145,12.3675 15.0022875,12.3362625 C15.0137625,12.3056625 15.0226875,12.2610375 15.0290625,12.200475 C15.0354375,12.1411875 15.0711375,12.0768 15.1368,12.00795 C15.15975,11.881725 15.1871625,11.772075 15.22095,11.6770875 L15.2611125,11.5151625 C15.250275,11.47245 15.275775,11.4169875 15.33825,11.3494125 C15.3541875,11.2741875 15.3822375,11.1951375 15.4224,11.111625 C15.461925,11.0281125 15.4893375,10.97775 15.504,10.9599 C15.518025,10.940775 15.5237625,10.8916875 15.5186625,10.812 C15.5142,10.7323125 15.5346,10.6774875 15.57795,10.6481625 C15.6213,10.6188375 15.6436125,10.588875 15.6436125,10.5589125 L15.67485,10.4556375 C15.7035375,10.418025 15.727125,10.3651125 15.7468875,10.2969 C15.7660125,10.2286875 15.7940625,10.1796 15.83295,10.15155 C15.85845,10.0552875 15.890325,10.002375 15.9292125,9.9928125 L15.9292125,9.9928125 Z" id="Fill-42" fill="#36AC77"></path>
                                <path d="M22.3031925,7.31206125 C22.29873,7.23109875 22.328055,7.16097375 22.39053,7.10232375 C22.4536425,7.04431125 22.4867925,6.99076125 22.4906175,6.94549875 C22.54608,6.87856125 22.6219425,6.76699875 22.7162925,6.60826125 C22.8119175,6.44952375 22.855905,6.35581125 22.84953,6.32776125 C22.84698,6.31692375 22.838055,6.31373625 22.82403,6.31692375 L22.8131925,6.31947375 L22.7774925,6.35644875 L22.6780425,6.36919875 L22.57923,6.40426125 L22.4957175,6.38513625 L22.4294175,6.41254875 L22.3172175,6.41764875 C22.2611175,6.43103625 22.21458,6.45398625 22.1795175,6.48777375 C22.144455,6.52028625 22.07178,6.56554875 21.963405,6.62164875 C21.85503,6.67838625 21.7625925,6.75233625 21.6873675,6.84349875 C21.6121425,6.93593625 21.552855,6.98629875 21.509505,6.99649875 C21.4973925,7.05642375 21.433005,7.15268625 21.3150675,7.28656125 C21.236655,7.33628625 21.1964925,7.41151125 21.1952175,7.51351125 C21.12063,7.61041125 21.0842925,7.66396125 21.0881175,7.67543625 L21.07218,7.77488625 C21.04923,7.80676125 21.01863,7.83544875 20.9797425,7.86222375 C20.9414925,7.88836125 20.925555,7.93171125 20.933205,7.99163625 C20.93958,8.05219875 20.9287425,8.11084875 20.8994175,8.16949875 C20.8700925,8.22687375 20.8586175,8.27022375 20.86563,8.29891125 C20.9083425,8.47294875 20.9631675,8.55199875 21.0307425,8.53478625 C21.05943,8.52841125 21.114255,8.49526125 21.195855,8.43597375 C21.2768175,8.37668625 21.323355,8.33843625 21.333555,8.32058625 C21.34503,8.30273625 21.37053,8.28169875 21.4094175,8.25747375 L21.4973925,8.17906125 C21.50823,8.16184875 21.522255,8.14909875 21.5394675,8.14081125 C21.5560425,8.13379875 21.570705,8.11722375 21.5840925,8.09363625 C21.5968425,8.06941125 21.624255,8.04072375 21.6644175,8.00629875 C21.70458,7.97187375 21.73263,7.93234875 21.7485675,7.88708625 C21.800205,7.83736125 21.8849925,7.75831125 22.0010175,7.65057375 L22.09218,7.53837375 C22.162305,7.48418625 22.203105,7.44211125 22.21458,7.41278625 C22.226055,7.38409875 22.2560175,7.35031125 22.3031925,7.31206125 M24.0728925,6.88366125 L24.13983,6.78803625 C24.19338,6.77528625 24.2195175,6.74341125 24.2182425,6.69304875 C24.217605,6.64268625 24.245655,6.59487375 24.3049425,6.55088625 C24.3635925,6.50626125 24.41013,6.43358625 24.4464675,6.33222375 C24.48153,6.23213625 24.5293425,6.17412375 24.589905,6.15946125 C24.6109425,6.15436125 24.6402675,6.16647375 24.6772425,6.19516125 C24.7142175,6.22321125 24.7346175,6.24871125 24.740355,6.26974875 C24.7690425,6.38641125 24.76203,6.51646125 24.7218675,6.65862375 L24.73653,6.81226125 L24.71613,6.89067375 C24.6695925,6.93211125 24.6428175,6.97099875 24.63453,7.00669875 C24.6262425,7.04239875 24.59373,7.09212375 24.5369925,7.15459875 L24.50193,7.24129875 C24.4298925,7.28592375 24.3878175,7.33947375 24.37443,7.40258625 C24.36168,7.46633625 24.332355,7.50713625 24.286455,7.52562375 C24.240555,7.54474875 24.19593,7.59256125 24.15513,7.67033625 C24.1238925,7.69711125 24.0843675,7.72388625 24.0384675,7.74938625 L24.0410175,7.80548625 C24.013605,7.84947375 23.9645175,7.89154875 23.893755,7.93107375 C23.822355,7.97059875 23.7707175,8.00502375 23.7375675,8.03434875 C23.705055,8.06239875 23.682105,8.07897375 23.6674425,8.08216125 C23.600505,8.09809875 23.5348425,8.10001125 23.47173,8.08726125 C23.40798,8.07451125 23.345505,8.07196125 23.2836675,8.07897375 C23.2568925,8.06303625 23.23968,8.04327375 23.22948,8.01904875 C23.2199175,7.99482375 23.19378,7.96613625 23.1523425,7.93298625 C23.1102675,7.90047375 23.0809425,7.84819875 23.06373,7.77679875 L23.059905,7.67033625 C23.0567175,7.65631125 23.0439675,7.64037375 23.02038,7.62379875 C22.99743,7.60658625 22.98468,7.59064875 22.980855,7.57726125 C22.9776675,7.56259875 22.9789425,7.55112375 22.983405,7.54219875 C22.98978,7.53327375 22.9904175,7.52243625 22.9865925,7.50777375 C22.9827675,7.48992375 22.97448,7.47143625 22.9623675,7.45167375 C22.9496175,7.43191125 22.9419675,7.41533625 22.93878,7.40131125 L22.9075425,7.13164875 C22.901805,7.11124875 22.8922425,7.10168625 22.8782175,7.10551125 C22.8641925,7.10869875 22.84188,7.13292375 22.8131925,7.17691125 C22.7851425,7.22153625 22.7456175,7.25022375 22.6958925,7.26233625 C22.6729425,7.29038625 22.6601925,7.34074875 22.6589175,7.41278625 C22.639155,7.45486125 22.611105,7.49566125 22.575405,7.53454875 L22.5620175,7.57088625 C22.5607425,7.59829875 22.539705,7.62507375 22.4969925,7.65184875 C22.45428,7.67926125 22.427505,7.70731125 22.4153925,7.73663625 L22.3758675,7.80293625 L22.2713175,7.81696125 C22.2662175,7.82524875 22.254105,7.86094875 22.2356175,7.92406125 C22.21713,7.98717375 22.1871675,8.04263625 22.14573,8.08981125 L21.820605,8.51884875 C21.7855425,8.55773625 21.7319925,8.60809875 21.6605925,8.66993625 L21.63573,8.71009875 C21.397305,8.96764875 21.2194425,9.11044875 21.1021425,9.13913625 C21.00588,9.16208625 20.8879425,9.16208625 20.747055,9.14041125 C20.60553,9.11809875 20.52138,9.07092375 20.4926925,8.99888625 L20.3855925,8.79297375 C20.3422425,8.75153625 20.30973,8.68587375 20.2874175,8.59726125 C20.2772175,8.55454875 20.2733925,8.52522375 20.277855,8.50928625 L20.270205,8.47677375 L20.216655,8.30337375 C20.2058175,8.26129875 20.234505,8.23133625 20.30208,8.21539875 L20.2568175,8.07387375 C20.25363,8.05984875 20.2708425,7.99609875 20.30973,7.88326125 C20.34798,7.77042375 20.3766675,7.70412375 20.39388,7.68499875 L20.4302175,7.60339875 C20.41683,7.56132375 20.4302175,7.50968625 20.471655,7.44848625 C20.5130925,7.38792375 20.5449675,7.32863625 20.56473,7.27126125 C20.5844925,7.21388625 20.6316675,7.14439875 20.7056175,7.06152375 L20.82738,6.86326125 C20.92173,6.70834875 21.032655,6.57638625 21.1607925,6.46673625 C21.1799175,6.45398625 21.21498,6.40808625 21.2653425,6.32839875 C21.315705,6.24871125 21.3788175,6.18304875 21.4553175,6.13204875 C21.5318175,6.08232375 21.6044925,6.02367375 21.6733425,5.95801125 C21.741555,5.89298625 21.7995675,5.85409875 21.8454675,5.84326125 L21.88818,5.83242375 C21.9028425,5.82923625 21.986355,5.76229875 22.1387175,5.63161125 L22.1705925,5.62268625 C22.1846175,5.62013625 22.2228675,5.62523625 22.2827925,5.64117375 L22.2929925,5.63862375 L22.3682175,5.57551125 C22.3809675,5.56467375 22.3975425,5.55638625 22.41858,5.55192375 C22.639155,5.49837375 22.7978925,5.62141125 22.8935175,5.92231125 C22.91583,5.98478625 22.94133,6.01219875 22.9700175,6.00518625 C23.0057175,5.99626125 23.04078,5.91912375 23.0745675,5.77377375 C23.1089925,5.62778625 23.2326675,5.52897375 23.44623,5.47733625 C23.59923,5.44036125 23.69868,5.52004875 23.7464925,5.71576125 C23.8025925,5.94589875 23.75223,6.18942375 23.5960425,6.44569875 C23.58903,6.47757375 23.58648,6.51263625 23.5883925,6.54961125 L23.56608,6.78612375 L23.5679925,6.79696125 C23.57373,6.81799875 23.5654425,6.85114875 23.5450425,6.89577375 C23.5233675,6.94039875 23.516355,6.97673625 23.5233675,7.00542375 L23.56608,7.13611125 L23.58138,7.29038625 C23.597955,7.35732375 23.620905,7.39939875 23.6508675,7.41469875 C23.75733,7.35859875 23.8280925,7.29102375 23.8637925,7.21324875 C23.898855,7.13483625 23.9262675,7.09021125 23.94603,7.07809875 L23.9938425,7.04367375 C24.0129675,6.98247375 24.0397425,6.92828625 24.0728925,6.88366125" id="Fill-44" fill="#36AC77"></path>
                                <path d="M25.2653363,5.35812375 L25.3080488,5.20639875 C25.3207988,5.16942375 25.3405613,5.12989875 25.3666987,5.08782375 C25.3921987,5.04574875 25.4074987,4.95012375 25.4132363,4.80031125 C25.4176987,4.65049875 25.4374613,4.54276125 25.4731613,4.47837375 C25.5075863,4.41334875 25.5719738,4.36936125 25.6644112,4.34704875 C25.7173238,4.33429875 25.7944612,4.34258625 25.8932737,4.37318625 C25.9939987,4.40378625 26.1163988,4.53766125 26.2630237,4.77672375 C26.4096488,5.01642375 26.4957112,5.18918625 26.5218488,5.29564875 C26.5320488,5.33836125 26.5575488,5.38999875 26.5983487,5.44928625 C26.6397863,5.50921125 26.6671987,5.55574875 26.6831363,5.58953625 C26.6697488,5.65647375 26.6633737,5.69408625 26.6652862,5.70109875 L26.7290363,5.91784875 L26.7079987,6.10846125 L26.7385988,6.23596125 C26.7130988,6.31819875 26.7028988,6.36728625 26.7067238,6.38513625 C26.7124613,6.40681125 26.7252113,6.42657375 26.7436988,6.44442375 C26.8935113,6.33222375 26.9808487,6.25062375 27.0050738,6.19707375 C27.0299362,6.14416125 27.0579862,6.10846125 27.0892237,6.08933625 C27.1198237,6.07084875 27.1644487,6.01092375 27.2230987,5.90956125 L27.3110738,5.83242375 C27.3365738,5.78142375 27.3569737,5.73552375 27.3741863,5.69599875 C27.3901238,5.65647375 27.4137112,5.62459875 27.4443112,5.60292375 C27.4742738,5.58061125 27.5080613,5.54618625 27.5463113,5.49901125 C27.5832863,5.45247375 27.6406613,5.39509875 27.7184362,5.32752375 L27.7560487,5.25038625 C27.7942987,5.17707375 27.8459363,5.11396125 27.9096862,5.06041125 C27.9740738,5.00749875 28.0097738,4.98008625 28.0174237,4.97817375 C28.0416488,4.97243625 28.0754363,4.99921125 28.1181487,5.05849875 C28.1608612,5.11778625 28.1889113,5.17898625 28.2048487,5.24337375 C28.2195113,5.30329875 28.1997488,5.37151125 28.1449238,5.44737375 C28.0894612,5.52196125 28.0524863,5.57742375 28.0346363,5.61184875 C28.0174237,5.64627375 27.9664238,5.68516125 27.8829112,5.72787375 C27.8765363,5.73297375 27.8357362,5.82031125 27.7598737,5.98861125 L27.6693488,6.07849875 L27.6330112,6.16073625 C27.6291863,6.17667375 27.5845613,6.20217375 27.4991362,6.23851125 C27.4953113,6.23914875 27.4921238,6.25891125 27.4882988,6.29779875 C27.4838362,6.33604875 27.4519613,6.36983625 27.3913988,6.40043625 C27.2925862,6.54769875 27.2428612,6.62993625 27.2428612,6.64523625 L27.1363988,6.69368625 C27.1306613,6.76636125 27.1230113,6.81162375 27.1121738,6.82883625 C27.0318488,6.87091125 26.9923238,6.91744875 26.9948738,6.97036125 C26.9853112,6.97992375 26.9693738,6.99203625 26.9464238,7.00478625 L26.9292113,7.02582375 C26.8629112,7.10997375 26.7927862,7.16798625 26.7181987,7.20113625 L26.6028112,7.26297375 L26.5760362,7.33692375 C26.5804988,7.35477375 26.5416113,7.38856125 26.4619238,7.43828625 C26.3815987,7.48737375 26.3261363,7.53901125 26.2936237,7.59128625 L26.2196737,7.68244875 C26.1202238,7.75193625 26.0602988,7.80867375 26.0405363,7.85138625 L25.9659487,7.86859875 C25.9162238,7.88071125 25.8473737,7.93617375 25.7581238,8.03434875 C25.6695112,8.13379875 25.5930113,8.19053625 25.5298988,8.20647375 C25.3233488,8.25619875 25.1760863,8.26512375 25.0874737,8.23133625 C24.9988613,8.19882375 24.9198112,8.14973625 24.8515988,8.08471125 C24.7840237,8.02096125 24.7228237,7.97059875 24.6711862,7.93489875 C24.6195487,7.89792375 24.5895862,7.86604875 24.5832112,7.83736125 C24.5768362,7.81249875 24.5876737,7.78381125 24.6150862,7.75066125 C24.6437737,7.71751125 24.6673612,7.65822375 24.6877613,7.57216125 C24.7075238,7.48609875 24.7961363,7.41342375 24.9504112,7.35286125 C24.9574238,7.35158625 24.9810113,7.33501125 25.0198988,7.30249875 C25.0594238,7.27062375 25.0925737,7.25086125 25.1212612,7.24384875 C25.1569612,7.23556125 25.2092363,7.25659875 25.2780863,7.30759875 C25.2793612,7.31524875 25.2876487,7.31652375 25.3016738,7.31333625 L25.3845487,7.28209875 C25.4298113,7.30058625 25.4604112,7.30823625 25.4744363,7.30568625 C25.5598613,7.28401125 25.6401862,7.21962375 25.7154113,7.11124875 L25.7332613,7.09531125 L25.7766112,7.08574875 C25.7868112,7.08256125 25.7976488,7.04813625 25.8078487,6.98119875 L25.8524737,6.77273625 L25.9812487,6.48841125 L25.9684988,6.43486125 C25.9653112,6.42402375 25.9684988,6.39023625 25.9767862,6.33094875 L25.9570238,6.25126125 C25.9493737,6.21874875 25.9659487,6.19324875 26.0067487,6.17412375 C26.0469113,6.15499875 26.0628487,6.12758625 26.0545612,6.09188625 L26.0335238,6.05172375 C25.9952738,6.01984875 25.9735987,5.99371125 25.9691362,5.97139875 L25.9959112,5.85218625 L25.9582988,5.74253625 L25.9691362,5.69472375 C25.9429988,5.64946125 25.9296113,5.62204875 25.9270612,5.61503625 L25.9162238,5.47606125 C25.9155863,5.47351125 25.8970988,5.44099875 25.8626737,5.38234875 C25.8269738,5.32306125 25.8046612,5.29501125 25.7938238,5.29756125 C25.7715112,5.30266125 25.7179613,5.37406125 25.6306238,5.51176125 C25.5439237,5.65009875 25.4948362,5.74444875 25.4852737,5.79544875 C25.4744363,5.84708625 25.4393738,5.89999875 25.3794488,5.95354875 C25.3188863,6.00837375 25.2819113,6.06128625 25.2678863,6.11356125 C25.2551362,6.16647375 25.2309112,6.19962375 25.1964863,6.21556125 L24.9089738,6.58977375 L24.5895862,6.97227375 C24.5685487,7.01116125 24.5551613,7.03156125 24.5475113,7.03347375 C24.4161862,7.06534875 24.3326737,7.00861125 24.2969737,6.86262375 C24.2861362,6.81608625 24.2925112,6.72619875 24.3167363,6.59296125 C24.3377738,6.57256125 24.3543487,6.55726125 24.3645488,6.54706125 C24.3753862,6.53686125 24.3798487,6.52984875 24.3792113,6.52666125 C24.3785738,6.52347375 24.3747488,6.52283625 24.3677363,6.52411125 L24.4047112,6.53749875 L24.4155487,6.53431125 C24.5251987,6.41446125 24.5985113,6.34178625 24.6335738,6.31819875 C24.6699113,6.29461125 24.6960487,6.24679875 24.7119862,6.17412375 L24.8974988,5.96056125 C24.9440362,5.90382375 25.0128863,5.80564875 25.1021363,5.66284875 C25.1920237,5.52068625 25.2468487,5.41932375 25.2653363,5.35812375" id="Fill-46" fill="#36AC77"></path>
                                <path d="M28.3407637,2.2076625 L28.4096137,2.1681375 L28.4504137,2.1012 L28.4612512,2.0992875 L28.5141637,2.10885 L28.5250012,2.1063 C28.6104262,2.0859 28.6818262,2.0508375 28.7404763,2.0011125 C28.7978512,1.95075 28.8475762,1.913775 28.8890137,1.8889125 C28.9310887,1.862775 28.9559512,1.8462 28.9648762,1.836 C28.9744387,1.8264375 28.9820887,1.8207 28.9897387,1.8187875 L29.0783513,1.809225 C29.1064012,1.8022125 29.1325387,1.7422875 29.1554887,1.62945 C29.1790762,1.515975 29.2154137,1.429275 29.2645012,1.3687125 C29.3135888,1.3075125 29.3531137,1.20615 29.3824387,1.06335 C29.3920012,1.0423125 29.4015637,1.0104375 29.4098512,0.969 C29.4187763,0.9275625 29.4289762,0.9058875 29.4391762,0.9027 C29.4920887,0.88995 29.5271512,0.845325 29.5430887,0.7707375 C29.6189512,0.6202875 29.6909887,0.5374125 29.7585637,0.5208375 C29.8471762,0.4991625 29.9294137,0.5692875 30.0065512,0.7312125 L30.1091887,0.92055 C30.1104638,0.924375 30.1072762,0.952425 30.1015387,1.0047 C30.0951637,1.056975 30.0989888,1.1067 30.1123763,1.1545125 C30.1257637,1.2016875 30.1315012,1.2342 30.1302262,1.2514125 C30.1289512,1.2692625 30.1308637,1.2883875 30.1359637,1.3100625 C30.1423387,1.337475 30.1761262,1.345125 30.2373262,1.329825 C30.2577262,1.3253625 30.2934262,1.301775 30.3437887,1.2590625 L30.3731137,1.2412125 C30.4139137,1.253325 30.4464262,1.2565125 30.4712887,1.250775 C30.4783012,1.2488625 30.5242012,1.2189 30.6102637,1.1608875 C30.6963262,1.1022375 30.7505137,1.06845 30.7747387,1.0588875 C30.7989637,1.049325 30.8378512,1.0244625 30.8920387,0.985575 L30.9557887,0.970275 L31.0029637,0.9747375 C31.0169887,0.97155 31.0431262,0.9486 31.0794637,0.9084375 C31.1164387,0.867 31.1967637,0.8281125 31.3191637,0.7911375 L31.3861012,0.7414125 L31.4077762,0.735675 C31.5250762,0.7069875 31.5958387,0.7452375 31.6213387,0.8472375 C31.6264387,0.8689125 31.6181512,0.91035 31.5977512,0.97155 C31.5767137,1.0333875 31.5639637,1.100325 31.5595012,1.173 L31.3886512,1.541475 C31.3325512,1.6683375 31.2637012,1.74165 31.1821012,1.7614125 C31.1680762,1.7646 31.1119762,1.727625 31.0138012,1.64985 C31.0125263,1.6428375 31.0042387,1.640925 30.9902137,1.6441125 C30.9545137,1.6530375 30.9188137,1.668975 30.8837512,1.6925625 C30.8474137,1.71615 30.8174512,1.73145 30.7932262,1.7371875 C30.7823887,1.740375 30.6944137,1.7894625 30.5299387,1.885725 L30.4069012,1.938 C30.3922387,1.9411875 30.3603637,1.9564875 30.3106387,1.9839 L30.0518137,2.102475 C29.9708512,2.1719625 29.9179387,2.2765125 29.8956262,2.4174 C29.8975387,2.42505 29.8841512,2.4448125 29.8541887,2.4786 L29.7203137,2.9739375 C29.6470012,3.0134625 29.6062012,3.07275 29.5991887,3.1498875 L29.5858012,3.1868625 C29.5481887,3.2034375 29.5175887,3.234675 29.4946388,3.2793 C29.4723262,3.3245625 29.4487387,3.3609 29.4257887,3.3895875 L29.3645887,3.5566125 C29.3365387,3.6159 29.3110387,3.6802875 29.2861762,3.7485 C29.2613137,3.816075 29.2472887,3.884925 29.2453762,3.95505 C29.2441012,4.025175 29.2396387,4.0666125 29.2307137,4.0806375 C29.2224262,4.09275 29.2224262,4.114425 29.2294387,4.142475 L29.2237012,4.1890125 C29.1911887,4.241925 29.1809887,4.2948375 29.1943762,4.3483875 L29.2364512,4.428075 C29.2275262,4.6110375 29.2249762,4.7079375 29.2275262,4.7181375 C29.2294387,4.7257875 29.2377263,4.744275 29.2530262,4.774875 L29.2606762,4.8061125 C29.2791637,4.884525 29.2740637,4.9897125 29.2453762,5.1204 L29.2772512,5.203275 L29.3033887,5.450625 C29.3110387,5.4831375 29.3365387,5.5392375 29.3779762,5.618925 C29.3671387,5.636775 29.3626762,5.6488875 29.3645887,5.6565375 C29.3888137,5.7559875 29.4678637,5.85225 29.6017387,5.9459625 C29.7356137,6.039675 29.8325137,6.2124375 29.8937137,6.4648875 C29.8994512,6.485925 29.9013637,6.5178 29.9007262,6.562425 C29.8994512,6.6045 29.9039137,6.6510375 29.9115637,6.700125 C29.9198512,6.7492125 29.9039137,6.8027625 29.8624762,6.8614125 C29.8229512,6.9207 29.7853387,6.9532125 29.7496387,6.9621375 C29.5603012,7.008675 29.3869012,6.9054 29.2275262,6.6548625 C29.0687887,6.40305 28.9795387,6.238575 28.9610512,6.1608 L28.9215262,5.9497875 L28.8635137,5.8516125 L28.7819137,5.374125 L28.7328262,5.2676625 L28.7449387,4.7793375 L28.7047762,4.614225 C28.7028637,4.6072125 28.7207137,4.57215 28.7589637,4.5103125 C28.7570512,4.5039375 28.7487637,4.502025 28.7347387,4.5052125 C28.7137012,4.5103125 28.6907512,4.5383625 28.6646138,4.59 C28.6397512,4.641 28.6053262,4.6926375 28.5607012,4.744275 L28.5364762,4.8297 C28.5275512,4.8239625 28.5116137,4.820775 28.4880262,4.8188625 C28.4720888,4.8303375 28.4338387,4.9285125 28.3726387,5.1121125 C28.3012387,5.1408 28.2527887,5.1975375 28.2279262,5.282325 C28.2037012,5.36775 28.1539762,5.4193875 28.0787512,5.437875 L28.0602637,5.4538125 C28.0704637,5.5596375 28.0341262,5.6233875 27.9480637,5.644425 L27.9295762,5.6603625 C27.9053512,5.7936 27.8645512,5.8656375 27.8065387,5.8758375 C27.7963387,5.991225 27.7268512,6.085575 27.5974387,6.1576125 C27.5866012,6.205425 27.5636512,6.24495 27.5279512,6.276825 C27.4916137,6.307425 27.4673887,6.3348375 27.4540012,6.3565125 C27.4399763,6.3781875 27.4259512,6.391575 27.4125637,6.3947625 C27.3660262,6.4062375 27.3303262,6.3616125 27.3061012,6.2621625 C27.2997262,6.2341125 27.3041887,6.200325 27.3188512,6.1608 C27.3328762,6.1219125 27.3392513,6.0951375 27.3360637,6.080475 C27.3341512,6.0734625 27.3112012,6.0568875 27.2665762,6.029475 C27.2404387,5.9191875 27.2519137,5.843325 27.3016387,5.8006125 C27.3520012,5.7585375 27.3845137,5.7075375 27.4004512,5.6476125 C27.4081012,5.5998 27.4361512,5.56155 27.4852387,5.5303125 C27.5343262,5.50035 27.5553637,5.4703875 27.5483512,5.4417 C27.5426137,5.4162 27.5764012,5.3556375 27.6503512,5.2587375 C27.7249387,5.1618375 27.7772137,5.0815125 27.8065387,5.0152125 C27.8358637,4.9501875 27.8645512,4.9144875 27.8926012,4.9068375 L27.9091762,4.879425 C27.8945137,4.790175 27.9174637,4.7372625 27.9780262,4.7219625 L28.0239262,4.677975 L28.0239262,4.6327125 L28.0507012,4.60275 L28.0940512,4.5931875 L28.1150887,4.5651375 C28.1010637,4.4746125 28.1259262,4.3955625 28.1903138,4.3267125 C28.2547013,4.2578625 28.3598887,4.0851 28.5077887,3.8065125 C28.6550512,3.5285625 28.7328262,3.3538875 28.7423887,3.2837625 C28.7519513,3.214275 28.7761762,3.1167375 28.8157012,2.992425 C28.8558637,2.8681125 28.8673387,2.7571875 28.8507637,2.65965 C28.8399262,2.6469 28.8265387,2.6360625 28.8086887,2.6245875 L28.6066012,2.79225 C28.6046887,2.780775 28.5645262,2.7744 28.4880262,2.7699375 C28.4427637,2.8152 28.4121637,2.8566375 28.3943137,2.8948875 C28.3771012,2.9325 28.3611637,2.9529 28.3471387,2.956725 L28.2700012,2.964375 L28.0417762,3.04725 C27.8365012,3.1161 27.6892387,3.1970625 27.5987137,3.290775 L27.3959887,3.4074375 L27.3475387,3.4189125 C27.3194887,3.425925 27.2806013,3.453975 27.2334262,3.5037 L27.1072012,3.522825 C27.0083888,3.6108 26.9325262,3.6611625 26.8796137,3.6739125 C26.8719637,3.675825 26.8496512,3.6771 26.8126762,3.6790125 L26.3052263,3.96015 C26.2657012,3.984375 26.1879262,4.081275 26.0699888,4.2489375 L26.0304637,4.269975 C25.9947637,4.2782625 25.9431262,4.2476625 25.8755513,4.1800875 C25.8079762,4.111875 25.7665387,4.045575 25.7518762,3.9811875 C25.6664512,3.6292875 25.9182638,3.351975 26.5085887,3.14925 L26.7068512,3.0109125 L26.7176887,3.007725 L26.7814387,3.0147375 L26.8024762,3.0096375 C26.8241512,3.0045375 26.8541137,2.9828625 26.8942762,2.94525 C26.9338012,2.907 27.0287887,2.849625 27.1792387,2.7712125 L27.3838763,2.6602875 L27.4552762,2.6539125 C27.4916137,2.645625 27.5279512,2.6220375 27.5655637,2.581875 C27.6025387,2.5429875 27.6650137,2.5060125 27.7529888,2.4715875 C27.8403263,2.4371625 27.9002512,2.408475 27.9321262,2.3861625 L28.0124512,2.3440875 C28.0264762,2.3402625 28.0532512,2.3211375 28.0915013,2.2854375 C28.1297512,2.2491 28.1845762,2.2229625 28.2553387,2.20575 C28.2661763,2.2032 28.2942262,2.2038375 28.3407637,2.2076625" id="Fill-48" fill="#36AC77"></path>
                                <path d="M32.9262375,4.735605 C32.921775,4.654005 32.9504625,4.5845175 33.013575,4.5258675 C33.0766875,4.4672175 33.1098375,4.4149425 33.1136625,4.3690425 C33.169125,4.3027425 33.24435,4.1905425 33.339975,4.0311675 C33.4349625,3.8730675 33.47895,3.779355 33.472575,3.7506675 C33.470025,3.7404675 33.4611,3.73728 33.447075,3.7404675 L33.436875,3.7430175 L33.4005375,3.7799925 L33.301725,3.7927425 L33.2029125,3.827805 L33.1194,3.80868 L33.0524625,3.835455 L32.9402625,3.840555 C32.8841625,3.85458 32.8382625,3.8781675 32.8025625,3.91068 C32.7668625,3.94383 32.6954625,3.988455 32.58645,4.0451925 C32.478075,4.1012925 32.386275,4.1752425 32.3104125,4.2670425 C32.23455,4.3588425 32.1752625,4.4098425 32.13255,4.42068 C32.121075,4.47933 32.05605,4.57623 31.9381125,4.710105 C31.8597,4.75983 31.8195375,4.8344175 31.8182625,4.9364175 C31.743675,5.033955 31.707975,5.087505 31.710525,5.0983425 L31.6945875,5.1977925 C31.672275,5.2296675 31.6423125,5.2589925 31.603425,5.28513 C31.5645375,5.311905 31.5486,5.355255 31.55625,5.41518 C31.562625,5.4757425 31.5517875,5.53503 31.5231,5.592405 C31.4931375,5.6504175 31.4823,5.6937675 31.4893125,5.7218175 C31.5313875,5.8964925 31.5862125,5.974905 31.654425,5.9589675 C31.6818375,5.951955 31.7373,5.9181675 31.8189,5.8595175 C31.9005,5.80023 31.9464,5.7613425 31.9572375,5.74413 C31.968075,5.7269175 31.993575,5.7052425 32.0324625,5.68038 L32.121075,5.6032425 C32.131275,5.584755 32.1453,5.5726425 32.1625125,5.564355 C32.1790875,5.556705 32.1943875,5.54013 32.2071375,5.51718 C32.220525,5.492955 32.2466625,5.4642675 32.2874625,5.4298425 C32.3289,5.3954175 32.3563125,5.3558925 32.3716125,5.31063 C32.42325,5.2602675 32.5080375,5.1812175 32.6247,5.0741175 L32.715225,4.96128 C32.7859875,4.90773 32.82615,4.865655 32.8382625,4.8369675 C32.8497375,4.8076425 32.8790625,4.7732175 32.9262375,4.735605 M34.696575,4.3065675 L34.762875,4.21158 C34.8157875,4.19883 34.841925,4.1663175 34.8412875,4.115955 C34.8400125,4.0655925 34.8693375,4.0184175 34.9279875,3.9737925 C34.9866375,3.9291675 35.0338125,3.85713 35.0695125,3.7557675 C35.104575,3.65568 35.153025,3.5976675 35.21295,3.583005 C35.234625,3.577905 35.2633125,3.58938 35.3002875,3.618705 C35.3372625,3.646755 35.3583,3.672255 35.3634,3.6932925 C35.3920875,3.8105925 35.3857125,3.940005 35.3449125,4.08153 L35.3602125,4.235805 L35.339175,4.3142175 C35.2926375,4.355655 35.265225,4.3945425 35.257575,4.4302425 C35.2492875,4.4659425 35.216775,4.51503 35.1600375,4.577505 L35.124975,4.66548 C35.0529375,4.70883 35.0108625,4.76238 34.9981125,4.82613 C34.984725,4.88988 34.9554,4.9300425 34.9095,4.94853 C34.8636,4.9682925 34.818975,5.016105 34.778175,5.09388 C34.7469375,5.1200175 34.7074125,5.146155 34.6615125,5.17293 L34.6640625,5.2283925 C34.6372875,5.2730175 34.5875625,5.314455 34.5168,5.35398 C34.4454,5.39478 34.3937625,5.4285675 34.36125,5.457255 C34.3281,5.485305 34.30515,5.50188 34.291125,5.505705 C34.2229125,5.5216425 34.158525,5.523555 34.094775,5.510805 C34.0316625,5.498055 33.96855,5.4948675 33.90735,5.5025175 C33.880575,5.48658 33.8620875,5.46618 33.852525,5.441955 C33.8429625,5.41773 33.816825,5.38968 33.776025,5.3571675 C33.7333125,5.32338 33.7039875,5.271105 33.6861375,5.2003425 L33.6835875,5.09388 C33.6804,5.079855 33.6670125,5.064555 33.643425,5.0473425 C33.620475,5.03013 33.607725,5.0141925 33.6039,5.0001675 C33.60135,4.9861425 33.6019875,4.9746675 33.6070875,4.9657425 C33.612825,4.957455 33.6134625,4.9453425 33.610275,4.9313175 C33.605175,4.91283 33.5981625,4.89498 33.5854125,4.8752175 C33.5726625,4.855455 33.5650125,4.8382425 33.561825,4.8242175 L33.52995,4.5551925 C33.52485,4.534155 33.5152875,4.52523 33.5012625,4.5284175 C33.4872375,4.5322425 33.4655625,4.55583 33.436875,4.6010925 C33.40755,4.64508 33.3686625,4.6737675 33.3189375,4.6852425 C33.2959875,4.71393 33.283875,4.763655 33.2819625,4.8356925 C33.2628375,4.878405 33.2347875,4.9185675 33.19845,4.957455 L33.1850625,4.9950675 C33.1837875,5.021205 33.16275,5.04798 33.1200375,5.0753925 C33.0779625,5.102805 33.05055,5.1302175 33.039075,5.16018 L32.9989125,5.2258425 L32.895,5.2398675 C32.8892625,5.2487925 32.87715,5.28513 32.8586625,5.347605 C32.8395375,5.4107175 32.809575,5.46618 32.7694125,5.513355 L32.4442875,5.9423925 C32.4085875,5.9806425 32.3550375,6.0316425 32.283,6.09348 L32.258775,6.1336425 C32.02035,6.3911925 31.843125,6.5339925 31.7251875,6.5620425 C31.628925,6.58563 31.5109875,6.58563 31.3701,6.563955 C31.2292125,6.5416425 31.1450625,6.4944675 31.1157375,6.42243 L31.0086375,6.217155 C30.96465,6.1744425 30.932775,6.1094175 30.9104625,6.020805 C30.9009,5.9780925 30.897075,5.9487675 30.9009,5.93283 L30.89325,5.9003175 L30.8397,5.7269175 C30.8288625,5.684205 30.85755,5.65488 30.9257625,5.6389425 L30.8798625,5.49678 C30.876675,5.4833925 30.8938875,5.4196425 30.932775,5.306805 C30.971025,5.194605 30.999075,5.128305 31.016925,5.1085425 L31.0532625,5.0269425 C31.039875,4.9848675 31.0532625,4.93323 31.0953375,4.87203 C31.1374125,4.8114675 31.1680125,4.7528175 31.187775,4.694805 C31.2075375,4.63743 31.2547125,4.567305 31.3299375,4.485705 L31.450425,4.2861675 C31.544775,4.1318925 31.6563375,3.99993 31.7838375,3.8896425 C31.8029625,3.87753 31.8386625,3.83163 31.8883875,3.751305 C31.93875,3.6716175 32.0025,3.6065925 32.0783625,3.55623 C32.1548625,3.50523 32.2269,3.447855 32.2963875,3.3809175 C32.3646,3.31653 32.4226125,3.2776425 32.4685125,3.266805 L32.5118625,3.2559675 C32.526525,3.25278 32.6087625,3.185205 32.7624,3.0545175 L32.794275,3.0468675 C32.8083,3.0430425 32.845275,3.04878 32.9058375,3.0647175 L32.916675,3.0621675 L32.9919,2.9984175 C33.0040125,2.9882175 33.0205875,2.9805675 33.0422625,2.97483 C33.2628375,2.92128 33.4209375,3.044955 33.5165625,3.3452175 C33.538875,3.4076925 33.564375,3.435105 33.5930625,3.42873 C33.6287625,3.419805 33.663825,3.3426675 33.69825,3.19668 C33.732675,3.0506925 33.85635,2.9525175 34.0686375,2.90088 C34.222275,2.8632675 34.3223625,2.9423175 34.3695375,3.1386675 C34.4256375,3.3694425 34.375275,3.6129675 34.219725,3.8692425 C34.2127125,3.9011175 34.209525,3.9355425 34.2108,3.9725175 L34.189125,4.20903 L34.191675,4.2198675 C34.1974125,4.240905 34.189125,4.274055 34.16745,4.3193175 C34.14705,4.3639425 34.1394,4.40028 34.14705,4.42833 L34.189125,4.559655 L34.204425,4.71393 C34.221,4.781505 34.2433125,4.822305 34.2739125,4.8382425 C34.380375,4.781505 34.4511375,4.7145675 34.4862,4.6367925 C34.5219,4.5590175 34.5493125,4.5131175 34.569075,4.501005 L34.617525,4.4672175 C34.6360125,4.40538 34.6627875,4.35183 34.696575,4.3065675" id="Fill-50" fill="#36AC77"></path>
                            </g>
                        </g>
                    </g>
                </g>
            </g>
        </g>
    </g>
</svg>