<?xml version="1.0" encoding="UTF-8"?>
<svg width="115px" height="33px" viewBox="0 0 115 33" version="1.1" xmlns="http://www.w3.org/2000/svg" xmlns:xlink="http://www.w3.org/1999/xlink">
    <!-- Generator: Sketch 59.1 (86144) - https://sketch.com -->
    <title>forma</title>
    <desc>Created with Sketch.</desc>
    <defs>
        <polygon id="path-1" points="0 0.1072275 15.87171 0.1072275 15.87171 21.8153775 0 21.8153775"></polygon>
        <polygon id="path-3" points="0.33334875 0.3091875 20.296725 0.3091875 20.296725 22.4526225 0.33334875 22.4526225"></polygon>
        <polygon id="path-5" points="0 0.364395 3.53920875 0.364395 3.53920875 6.219195 0 6.219195"></polygon>
        <polygon id="path-7" points="0 32.2031212 114.646725 32.2031212 114.646725 0.63730875 0 0.63730875"></polygon>
    </defs>
    <g id="TELLALL-WEBSITE" stroke="none" stroke-width="1" fill="none" fill-rule="evenodd" opacity="0.600000024">
        <g id="Tellall-2" transform="translate(-230.000000, -1132.000000)">
            <g id="KLIENTET" transform="translate(0.000000, 768.000000)">
                <g id="clients" transform="translate(202.000000, 193.000000)">
                    <g transform="translate(23.000000, 36.000000)" id="forma">
                        <g transform="translate(5.000000, 135.000000)">
                            <g id="Group-3" transform="translate(0.000000, 0.965621)">
                                <mask id="mask-2" fill="white">
                                    <use xlink:href="#path-1"></use>
                                </mask>
                                <g id="Clip-2"></g>
                                <path d="M-0.0001275,1.002915 L-0.0001275,21.8153775 L1.383885,21.8153775 L1.383885,11.6536275 L15.000885,11.6536275 L15.000885,10.2689775 L1.383885,10.2689775 L1.383885,1.4918775 L15.87171,1.4918775 L15.87171,0.1072275 L0.9242475,0.1072275 C0.40596,0.1072275 -0.0001275,0.500565 -0.0001275,1.002915" id="Fill-1" fill="#E2C675" mask="url(#mask-2)"></path>
                            </g>
                            <path d="M31.931865,21.8321438 C26.61129,21.8321438 22.2590775,17.3103562 22.2302449,11.7519937 C22.216365,9.09999375 23.2191525,6.62458125 25.05324,4.78029375 C26.87904,2.94556875 29.32194,1.93449375 31.931865,1.93449375 C34.5258525,1.93449375 36.9572775,2.94301875 38.7779775,4.77264375 C40.614615,6.61948125 41.6186775,9.09808125 41.6047975,11.7519937 C41.5753275,17.4047062 37.3270275,21.8321438 31.931865,21.8321438 M31.931865,0.66650625 C25.73154,0.66650625 20.875065,5.53636875 20.875065,11.7526312 C20.875065,17.9937562 25.834815,23.0714437 31.931865,23.0714437 C38.1162525,23.0714437 42.9599775,18.0995812 42.9599775,11.7526312 C42.9599775,5.53636875 38.1162525,0.66650625 31.931865,0.66650625" id="Fill-4" fill="#E2C675"></path>
                            <g id="Group-8" transform="translate(94.350000, 0.328121)">
                                <mask id="mask-4" fill="white">
                                    <use xlink:href="#path-3"></use>
                                </mask>
                                <g id="Clip-7"></g>
                                <path d="M11.2326863,0.932535 C11.0873362,0.55386 10.7500987,0.30906 10.3739737,0.30906 C10.0105987,0.30906 9.69822375,0.5340975 9.51653625,0.92871 L0.33334875,22.4526225 L1.88247375,22.4526225 L10.3726988,2.62191 L18.6907988,22.38441 L18.7194862,22.4526225 L20.2972987,22.4526225 L11.2326863,0.932535 Z" id="Fill-6" fill="#E2C675" mask="url(#mask-4)"></path>
                            </g>
                            <path d="M88.682115,0.6375 C88.363365,0.6375 88.093065,0.7898625 87.9190275,1.0690875 L79.53654,14.9627625 L71.6117775,1.8277125 L71.150865,1.064625 C70.9781025,0.789225 70.7078025,0.6375 70.390965,0.6375 C70.2794025,0.6375 70.1786775,0.664275 70.090065,0.7171875 C70.0027275,0.7701 69.937065,0.8434125 69.8828775,0.9466875 C69.73689,1.2284625 69.74709,1.5382875 69.91284,1.8200625 L79.53654,17.6874375 L88.22184,3.354525 L88.22184,22.7810625 L89.60649,22.7810625 L89.60649,1.53255 C89.60649,1.0308375 89.2004025,0.6375 88.682115,0.6375" id="Fill-9" fill="#E2C675"></path>
                            <path d="M64.4895,7.8622875 C64.4895,4.1826375 61.4601,1.0729125 57.8748,1.0729125 L49.0486125,1.0729125 C48.5296875,1.0729125 48.1242375,1.46625 48.1242375,1.9686 L48.1242375,2.459475 L57.8748,2.456925 C60.7097625,2.456925 63.1054875,4.9323375 63.1054875,7.8622875 C63.1054875,10.665375 60.8079375,12.860925 57.8748,12.860925 L48.9657375,12.860925 L48.9657375,14.2449375 L57.177375,14.2449375 L63.1003875,22.7810625 L64.6782,22.7810625 L58.7131125,14.1964875 C62.0721,13.8139875 64.4895,11.1785625 64.4895,7.8622875" id="Fill-11" fill="#E2C675"></path>
                            <g id="Group-15" transform="translate(0.000000, 25.828121)">
                                <mask id="mask-6" fill="white">
                                    <use xlink:href="#path-5"></use>
                                </mask>
                                <g id="Clip-14"></g>
                                <path d="M0.68002125,3.475395 L0.68002125,5.61102 L1.21998375,5.61102 C1.59037125,5.61102 1.85748375,5.5963575 2.02132125,5.5670325 C2.18579625,5.5377075 2.31712125,5.487345 2.41593375,5.4153075 C2.53578375,5.3298825 2.63013375,5.2113075 2.69962125,5.058945 C2.76910875,4.90722 2.80353375,4.73892 2.80353375,4.55532 C2.80353375,4.3417575 2.76209625,4.1568825 2.67985875,3.99942 C2.59698375,3.8419575 2.47713375,3.7195575 2.31967125,3.6315825 C2.22659625,3.5754825 2.11822125,3.53532 1.99582125,3.5117325 C1.87342125,3.4875075 1.68217125,3.475395 1.42398375,3.475395 L1.21998375,3.475395 L0.68002125,3.475395 Z M0.68002125,0.96747 L0.68002125,2.9277825 L1.21998375,2.9277825 C1.71595875,2.9277825 2.06467125,2.855745 2.26739625,2.71167 C2.47012125,2.567595 2.57148375,2.325345 2.57148375,1.983645 C2.57148375,1.60752 2.47777125,1.34487 2.28970875,1.1937825 C2.10164625,1.0433325 1.74528375,0.96747 1.21998375,0.96747 L0.68002125,0.96747 Z M-0.00019125,6.219195 L-0.00019125,0.364395 L1.21998375,0.364395 C1.64902125,0.364395 1.96585875,0.38607 2.16985875,0.4300575 C2.37385875,0.474045 2.54917125,0.54927 2.69579625,0.65637 C2.88258375,0.7947075 3.02665875,0.97257 3.12929625,1.1899575 C3.23193375,1.407345 3.28357125,1.6451325 3.28357125,1.9039575 C3.28357125,2.213145 3.20962125,2.47197 3.06172125,2.679795 C2.91318375,2.88762 2.69834625,3.03297 2.41593375,3.115845 C2.76209625,3.1687575 3.03622125,3.3243075 3.23767125,3.5818575 C3.43912125,3.83877 3.53920875,4.1632575 3.53920875,4.55532 C3.53920875,4.78992 3.49649625,5.01432 3.41170875,5.227245 C3.32628375,5.4408075 3.20770875,5.6231325 3.05534625,5.7748575 C2.89023375,5.9380575 2.68623375,6.05217 2.44398375,6.1191075 C2.20109625,6.1854075 1.79309625,6.219195 1.21998375,6.219195 L-0.00019125,6.219195 Z" id="Fill-13" fill="#E2C675" mask="url(#mask-6)"></path>
                            </g>
                            <mask id="mask-8" fill="white">
                                <use xlink:href="#path-7"></use>
                            </mask>
                            <g id="Clip-17"></g>
                            <polygon id="Fill-16" fill="#E2C675" mask="url(#mask-8)" points="12.802275 32.0469337 13.4977875 32.0469337 13.4977875 26.1921337 12.802275 26.1921337"></polygon>
                            <path d="M24.2205375,26.1922613 L24.9243375,26.1922613 L24.9243375,30.7593113 C24.9243375,31.2501863 24.8159625,31.6129238 24.598575,31.8494363 C24.3811875,32.0853113 24.0471375,32.2032488 23.596425,32.2032488 C23.356725,32.2032488 23.139975,32.1554363 22.9468125,32.0610863 C22.7530125,31.9667363 22.571325,31.8207487 22.4011125,31.6231238 L22.86075,31.1634863 C23.004825,31.3126613 23.1380625,31.4191238 23.2604625,31.4835112 C23.3835,31.5472613 23.511,31.5791363 23.644875,31.5791363 C23.85525,31.5791363 24.0037875,31.5007238 24.0904875,31.3432613 C24.1771875,31.1857988 24.2205375,30.8766112 24.2205375,30.4156988 L24.2205375,26.1922613 Z" id="Fill-18" fill="#E2C675" mask="url(#mask-8)"></path>
                            <path d="M37.3284938,31.5471975 C37.6485188,31.5471975 37.9532438,31.486635 38.2433063,31.36551 C38.5327313,31.2437475 38.7934688,31.06716 39.0255188,30.83511 C39.2550188,30.6062475 39.4296938,30.3461475 39.5495438,30.0554475 C39.6700313,29.7647475 39.7299563,29.456835 39.7299563,29.13171 C39.7299563,28.8033975 39.6693938,28.49166 39.5476313,28.19586 C39.4265063,27.90006 39.2524688,27.638685 39.0255188,27.411735 C38.7960188,27.182235 38.5365563,27.00756 38.2471313,26.88771 C37.9577063,26.76786 37.6510688,26.707935 37.3284938,26.707935 C37.0027313,26.707935 36.6948188,26.76786 36.4034813,26.88771 C36.1127813,27.00756 35.8552313,27.182235 35.6314688,27.411735 C35.4019688,27.643785 35.2272938,27.906435 35.1068063,28.2003225 C34.9869563,28.492935 34.9270313,28.8033975 34.9270313,29.13171 C34.9270313,29.456835 34.9863188,29.7634725 35.1048938,30.0516225 C35.2234688,30.339135 35.3994188,30.6011475 35.6314688,30.83511 C35.8660688,31.06971 36.1268063,31.2475725 36.4136813,31.3674225 C36.7005563,31.4872725 37.0059188,31.5471975 37.3284938,31.5471975 M40.4579813,29.13171 C40.4579813,29.5505475 40.3808438,29.9445225 40.2259313,30.3155475 C40.0710188,30.685935 39.8453438,31.0155225 39.5495438,31.3036725 C39.2537438,31.591185 38.9126813,31.813035 38.5269938,31.9692225 C38.1413063,32.12541 37.7415938,32.203185 37.3284938,32.203185 C36.9147563,32.203185 36.5169563,32.12541 36.1338188,31.9692225 C35.7506813,31.813035 35.4115313,31.591185 35.1150938,31.3036725 C34.8167438,31.0129725 34.5891563,30.68211 34.4329688,30.3117225 C34.2767813,29.9406975 34.1990063,29.54736 34.1990063,29.13171 C34.1990063,28.7128725 34.2767813,28.3176225 34.4329688,27.94596 C34.5891563,27.5742975 34.8167438,27.2427975 35.1150938,26.9520975 C35.4089813,26.6664975 35.7481313,26.44656 36.1319063,26.292285 C36.5163188,26.1373725 36.9147563,26.060235 37.3284938,26.060235 C37.7447813,26.060235 38.1451313,26.1373725 38.5308188,26.292285 C38.9165063,26.44656 39.2556563,26.6664975 39.5495438,26.9520975 C39.8453438,27.2402475 40.0710188,27.569835 40.2259313,27.942135 C40.3808438,28.3137975 40.4579813,28.7103225 40.4579813,29.13171" id="Fill-19" fill="#E2C675" mask="url(#mask-8)"></path>
                            <path d="M49.7607,26.1922613 L50.4645,26.1922613 L50.4645,29.8355738 C50.4645,30.4278113 50.590725,30.8619487 50.8425375,31.1392613 C51.09435,31.4165738 51.4896,31.5555487 52.0282875,31.5555487 C52.566975,31.5555487 52.962225,31.4165738 53.2140375,31.1392613 C53.46585,30.8619487 53.592075,30.4278113 53.592075,29.8355738 L53.592075,26.1922613 L54.3003375,26.1922613 L54.3003375,29.8355738 C54.3003375,30.6273488 54.1116375,31.2202238 53.7342375,31.6129238 C53.3568375,32.0068988 52.7881875,32.2032488 52.0282875,32.2032488 C51.2709375,32.2032488 50.7035625,32.0068988 50.3268,31.6129238 C49.9494,31.2202238 49.7607,30.6273488 49.7607,29.8355738 L49.7607,26.1922613 Z" id="Fill-20" fill="#E2C675" mask="url(#mask-8)"></path>
                            <polygon id="Fill-21" fill="#E2C675" mask="url(#mask-8)" points="64.89852 32.047125 64.89852 26.8559625 63.2429325 26.8559625 63.2429325 26.192325 67.24962 26.192325 67.24962 26.8559625 65.60232 26.8559625 65.60232 32.047125"></polygon>
                            <polygon id="Fill-22" fill="#E2C675" mask="url(#mask-8)" points="76.2166313 32.047125 76.2166313 26.192325 79.3040438 26.192325 79.3040438 26.8279125 76.9127813 26.8279125 76.9127813 28.507725 79.3040438 28.507725 79.3040438 29.155425 76.9127813 29.155425 76.9127813 31.399425 79.3040438 31.399425 79.3040438 32.047125"></polygon>
                            <path d="M89.354805,26.7799725 L89.354805,28.7396475 L89.88648,28.7396475 C90.4302675,28.7396475 90.79428,28.6695225 90.9785175,28.52991 C91.1621175,28.38966 91.254555,28.1454975 91.254555,27.7961475 C91.254555,27.4200225 91.160205,27.156735 90.97023,27.0056475 C90.78153,26.8551975 90.4200675,26.7799725 89.88648,26.7799725 L89.354805,26.7799725 Z M88.6745925,32.0469975 L88.6745925,26.1921975 L90.050955,26.1921975 C90.4430175,26.1921975 90.7298925,26.2138725 90.912855,26.2584975 C91.09518,26.3018475 91.25583,26.37771 91.394805,26.4841725 C91.568205,26.61996 91.7027175,26.802285 91.7983425,27.0298725 C91.894605,27.2580975 91.9424175,27.5105475 91.9424175,27.78786 C91.9424175,28.2678975 91.8085425,28.6325475 91.5407925,28.88181 C91.272405,29.1310725 90.8803425,29.255385 90.3626925,29.255385 L90.2390175,29.255385 L92.47473,32.0469975 L91.5905175,32.0469975 L89.4548925,29.255385 L89.354805,29.255385 L89.354805,32.0469975 L88.6745925,32.0469975 Z" id="Fill-23" fill="#E2C675" mask="url(#mask-8)"></path>
                            <polygon id="Fill-24" fill="#E2C675" mask="url(#mask-8)" points="101.257312 32.0469337 101.952825 32.0469337 101.952825 26.1921337 101.257312 26.1921337"></polygon>
                            <polygon id="Fill-25" fill="#E2C675" mask="url(#mask-8)" points="111.559249 32.047125 111.559249 26.192325 114.647299 26.192325 114.647299 26.8279125 112.255399 26.8279125 112.255399 28.507725 114.647299 28.507725 114.647299 29.155425 112.255399 29.155425 112.255399 31.399425 114.647299 31.399425 114.647299 32.047125"></polygon>
                        </g>
                    </g>
                </g>
            </g>
        </g>
    </g>
</svg>