<?xml version="1.0" encoding="UTF-8"?>
<svg width="40px" height="37px" viewBox="0 0 40 37" version="1.1" xmlns="http://www.w3.org/2000/svg" xmlns:xlink="http://www.w3.org/1999/xlink">
    <!-- Generator: Sketch 59.1 (86144) - https://sketch.com -->
    <title>logo</title>
    <desc>Created with Sketch.</desc>
    <g id="TELLALL-WEBSITE" stroke="none" stroke-width="1" fill="none" fill-rule="evenodd">
        <g id="Tellall-2" transform="translate(-128.000000, -81.000000)">
            <g id="LANDING" transform="translate(0.000000, -520.000000)">
                <g id="logo" transform="translate(128.000000, 601.000000)">
                    <g>
                        <path d="M10.5975638,10.5477153 C10.6027251,10.5537368 10.6078864,10.5597584 10.6134778,10.5657799 C9.3678864,10.0272852 8.13476812,9.45997341 6.91541328,8.86470459 C6.02164984,8.42857556 5.1334778,7.97653255 4.29476812,7.442339 C3.44444554,6.90083362 2.62853156,6.25567233 2.10724124,5.39287663 C2.09218748,5.3683605 2.07713371,5.34083362 2.08315522,5.31244652 C2.09476812,5.25868308 2.1678864,5.25094115 2.22294016,5.25653255 C2.42121973,5.27588738 2.61820898,5.30728523 2.81304769,5.34943577 C3.00831651,5.39201642 3.20186489,5.44534975 3.39154231,5.50986588 C3.57992941,5.57438201 3.76702618,5.65137126 3.94939178,5.73137126 C4.13562834,5.81309169 4.31799393,5.90169384 4.49777887,5.99588738 C4.67799393,6.09008093 4.85519823,6.19029599 5.02939178,6.29481212 C5.20444554,6.39932824 5.37691866,6.50814545 5.54724124,6.62040351 C5.71756382,6.73266158 5.88616597,6.8479304 6.0534778,6.96491964 C6.20272511,7.07029599 6.3506821,7.17653255 6.49863909,7.28362932 C7.49562834,8.00707018 8.46724124,8.76491964 9.43928425,9.522339 C9.84616597,9.83975835 10.2564886,10.1601885 10.5975638,10.5477153" id="Fill-115" fill="#000000"></path>
                        <path d="M7.97640253,11.4385971 C7.98199393,11.442468 7.98758532,11.4459089 7.99317672,11.4497799 C6.87403694,11.2764465 5.75876812,11.0773067 4.6490907,10.8527906 C3.83532726,10.6880594 3.02328425,10.5091347 2.23360683,10.2540809 C1.43274661,9.9951562 0.638338013,9.64547878 0.0361874752,9.0579519 C0.0189831741,9.04117771 0.000918657975,9.02182287 -1.42108547e-14,8.99816695 C-0.00209209471,8.95214545 0.0555423139,8.93020996 0.101133712,8.92332824 C0.265004679,8.89752179 0.431026185,8.88160781 0.59704769,8.87472609 C0.763929411,8.86784437 0.931241239,8.87042502 1.09769285,8.88289814 C1.26371436,8.89494115 1.43102618,8.91816695 1.59532726,8.94440351 C1.76263909,8.97150029 1.92866059,9.00461857 2.09382188,9.04289814 C2.25898317,9.08160781 2.42285414,9.12504867 2.58586489,9.17279061 C2.74930575,9.22053255 2.91145629,9.27214545 3.07231651,9.32719921 C3.23360683,9.38182287 3.39403694,9.43988738 3.55360683,9.49924222 C3.69597242,9.55257556 3.83833801,9.60719921 3.97984339,9.66311319 C4.93769285,10.038167 5.88134877,10.4459089 6.82543479,10.8536508 C7.22113371,11.0248336 7.61941328,11.1968766 7.97640253,11.4385971" id="Fill-116" fill="#000000"></path>
                        <path d="M32.2825101,10.1335648 C32.2764886,10.1331347 32.2708972,10.1327046 32.2653058,10.1318444 C33.1835853,9.79377986 34.1096068,9.47722072 35.0425101,9.18216695 C35.7259509,8.96582287 36.4145531,8.76066158 37.118209,8.62259706 C37.8313273,8.48238201 38.578424,8.4135648 39.2799294,8.60539276 C39.2997144,8.61055405 39.3212197,8.61786588 39.3319724,8.63550029 C39.3526176,8.66947878 39.318209,8.70990889 39.2868111,8.73442502 C39.1736929,8.82259706 39.0554133,8.90431749 38.9324025,8.97872609 C38.8093918,9.05399491 38.6816498,9.1219519 38.5508972,9.18259706 C38.4205746,9.24281212 38.2842305,9.29528523 38.1491767,9.34431749 C38.0115423,9.39420996 37.8721875,9.43894115 37.7311122,9.47894115 C37.5900369,9.51894115 37.4481015,9.55464007 37.3048756,9.58689814 C37.1616498,9.61958631 37.0171337,9.64797341 36.8726176,9.67420996 C36.7276713,9.70044652 36.5827251,9.72367233 36.4369187,9.74560781 C36.3065961,9.76539276 36.1767036,9.78345728 36.0459509,9.80066158 C35.1655208,9.91851104 34.2812197,10.0058229 33.3973488,10.0931347 C33.0265961,10.1296938 32.6532627,10.166253 32.2825101,10.1335648" id="Fill-117" fill="#000000"></path>
                        <path d="M33.9225101,11.054468 L33.910467,11.046296 C34.7255208,11.1710272 35.5379939,11.314253 36.3465961,11.4759734 C36.9392842,11.5946831 37.5306821,11.7237153 38.106166,11.9086616 C38.6893918,12.0957584 39.2687466,12.3490917 39.7083165,12.7761885 C39.7207896,12.7882315 39.7336929,12.8019949 39.7346041,12.8196293 C39.7362735,12.8531777 39.694123,12.8690917 39.6610047,12.874253 C39.5414348,12.8931777 39.4210047,12.9052207 39.2997144,12.910382 C39.178424,12.9155433 39.0567036,12.9138229 38.9354133,12.9052207 C38.8145531,12.8966186 38.6928326,12.8802745 38.5728326,12.8613497 C38.4511122,12.8419949 38.330252,12.8179089 38.2098219,12.790382 C38.0893918,12.762425 37.9698219,12.7310272 37.8511122,12.6966186 C37.7319724,12.6617799 37.614123,12.6243605 37.4967036,12.5847906 C37.3792842,12.5452207 37.262295,12.5035003 37.146166,12.4600594 C37.0420799,12.4213497 36.938424,12.3817799 36.8351982,12.3417799 C36.1375638,12.0699519 35.4493918,11.7740379 34.7616498,11.4785541 C34.4730477,11.3546831 34.1827251,11.2299519 33.9225101,11.054468" id="Fill-118" fill="#000000"></path>
                        <path d="M24.8602305,11.6259089 L32.254209,5.67408093 C32.6198004,5.37988738 32.7776498,4.86977986 32.5767896,4.44569384 C32.2856068,3.82977986 31.5277574,3.68182287 31.0327036,4.08010244 L23.6013058,10.0620379 C22.926467,9.83408093 22.1385101,9.99451104 21.6025961,10.5876293 C21.0950692,11.1493497 20.9780799,11.9936508 21.322166,12.6676293 C21.8847466,13.7687046 23.2666821,14.0237584 24.1750692,13.2925756 C24.6924886,12.8762315 24.9286176,12.2405325 24.8602305,11.6259089" id="Fill-119" fill="#000000"></path>
                        <path d="M17.5473273,6.32203792 L10.2892627,0.257521793 C9.93012296,-0.0422631534 9.4010907,-0.0968868093 9.02560683,0.181822868 C8.48023049,0.586554051 8.48367135,1.35601642 8.96969285,1.76203792 L16.2647466,7.85709169 C16.166252,8.61752179 16.5357144,9.4179519 17.3391552,9.79902717 C17.9417359,10.0854788 18.6789402,10.0089196 19.2131337,9.60891964 C20.222166,8.85279061 20.2139939,7.42225298 19.3099079,6.66655405 C18.8019509,6.24203792 18.1348541,6.13537126 17.5473273,6.32203792" id="Fill-120" fill="#000000"></path>
                        <path d="M34.9631122,31.1800594 L34.9631122,24.730167 C33.5205316,26.3602745 32.798381,27.1641454 31.3519294,28.7486616 C29.2138649,26.8088766 28.1428972,25.8140379 25.9996713,23.7736078 C23.8560154,26.0153282 22.7833273,27.1108121 20.638381,29.2518874 C18.4934348,27.1108121 17.4203165,26.0153282 15.2766606,23.7736078 C13.1334348,25.8140379 12.062467,26.8088766 9.92440253,28.7486616 C8.47838102,27.1641454 7.75580038,26.3602745 6.31364984,24.730167 L6.31364984,31.1800594 C6.31364984,32.1443605 7.25386489,33.1645756 8.86074661,34.0673713 C11.1175208,32.0398444 12.2482735,30.9981239 14.5114993,28.858339 C16.5218219,30.9809196 18.566123,33.0768336 20.638381,35.1391992 C22.7106391,33.0768336 24.7545101,30.9809196 26.7648326,28.858339 C29.0284886,30.9981239 30.1592412,32.0398444 32.4160154,34.0673713 C34.022467,33.1645756 34.9631122,32.1443605 34.9631122,31.1800594" id="Fill-121" fill="#3366FF"></path>
                        <path d="M21.6820799,36.6160594 C24.7225101,36.358425 27.7173488,36.0805756 30.5805746,34.9274573 C29.0558434,33.534339 28.2924025,32.8255218 26.7650907,31.3812207 C24.7332627,33.5205756 23.7160584,34.5674573 21.6820799,36.6160594" id="Fill-122" fill="#3366FF" opacity="0.5"></path>
                        <path d="M10.6960584,34.9275433 C13.5592842,36.0802315 16.5536929,36.358511 19.5945531,36.6161454 C17.5605746,34.5675433 16.5433703,33.5206616 14.5115423,31.3813067 C12.9842305,32.8251777 12.2207896,33.534425 10.6960584,34.9275433" id="Fill-123" fill="#3366FF" opacity="0.5"></path>
                        <path d="M20.638295,22.7287046 C19.1957144,22.7287046 17.8034563,22.650425 16.4873273,22.5097799 C18.1471122,24.2271992 18.9776498,25.0710702 20.638295,26.7287046 C22.2989402,25.0710702 23.1294778,24.2271992 24.7892627,22.5097799 C23.4731337,22.650425 22.0808756,22.7287046 20.638295,22.7287046" id="Fill-124" fill="#3366FF"></path>
                        <path d="M6.31352081,19.046511 L6.31352081,22.2069411 C7.75610145,23.8374788 8.47825199,24.6409196 9.9247036,26.2254358 C11.6610477,24.6499519 12.5311552,23.8456508 14.2713703,22.2035003 C11.6055638,21.7738229 8.29631651,21.0508121 6.31352081,19.046511" id="Fill-125" fill="#3366FF" opacity="0.5"></path>
                        <path d="M27.0053058,22.2036723 C28.7455208,23.8453928 29.6151982,24.6496938 31.3519724,26.2256078 C32.798424,24.6410917 33.5205746,23.8372207 34.9631552,22.2071132 L34.9631552,19.0466831 C32.9803595,21.0509842 29.6711122,21.7735648 27.0053058,22.2036723" id="Fill-126" fill="#3366FF" opacity="0.5"></path>
                        <path d="M32.0046606,14.6307691 C32.3048756,14.9473282 32.4751982,15.2806616 32.4751982,15.626468 C32.4751982,17.6118444 27.1754133,19.2213067 20.638209,19.2213067 C14.1010047,19.2213067 8.80164984,17.6118444 8.80164984,15.626468 C8.80164984,15.2806616 8.97154231,14.9473282 9.27175737,14.6307691 C7.70014446,15.3133497 6.77111221,16.1430272 6.77111221,17.0393713 C6.77111221,19.3649627 12.9797144,21.2505541 20.638209,21.2505541 C28.2967036,21.2505541 34.5053058,19.3649627 34.5053058,17.0393713 C34.5053058,16.1430272 33.5762735,15.3133497 32.0046606,14.6307691" id="Fill-127" fill="#000000"></path>
                    </g>
                </g>
            </g>
        </g>
    </g>
</svg>