<?xml version="1.0" encoding="UTF-8"?>
<svg width="105px" height="30px" viewBox="0 0 105 30" version="1.1" xmlns="http://www.w3.org/2000/svg" xmlns:xlink="http://www.w3.org/1999/xlink">
    <!-- Generator: Sketch 59.1 (86144) - https://sketch.com -->
    <title>lufian</title>
    <desc>Created with Sketch.</desc>
    <defs>
        <polygon id="path-1" points="0 0.53709375 17.8790381 0.53709375 17.8790381 29.0233404 0 29.0233404"></polygon>
        <polygon id="path-3" points="0.341946518 0.521326624 17.779875 0.521326624 17.779875 20.09349 0.341946518 20.09349"></polygon>
    </defs>
    <g id="TELLALL-WEBSITE" stroke="none" stroke-width="1" fill="none" fill-rule="evenodd" opacity="0.600000024">
        <g id="Tellall-2" transform="translate(-751.000000, -1247.000000)">
            <g id="KLIENTET" transform="translate(0.000000, 768.000000)">
                <g id="clients" transform="translate(202.000000, 193.000000)">
                    <g transform="translate(23.000000, 36.000000)" id="lufian">
                        <g transform="translate(526.000000, 250.000000)">
                            <g id="Group-3" transform="translate(0.000000, 0.100470)">
                                <mask id="mask-2" fill="white">
                                    <use xlink:href="#path-1"></use>
                                </mask>
                                <g id="Clip-2"></g>
                                <path d="M4.63417875,0.53709375 C4.63927875,0.66714375 4.64884125,0.79655625 4.64884125,0.92660625 C4.65011625,7.66306875 4.65521625,14.3988937 4.64437875,21.1353562 C4.64246625,22.1865938 4.98161625,23.0822812 5.67011625,23.8581187 C6.09851625,24.3413438 6.57026625,24.7735687 7.15039125,25.0725562 C7.68015375,25.3460437 8.23796625,25.4907562 8.83785375,25.4901188 C11.6760038,25.4856562 14.5135163,25.4882062 17.3516663,25.4882062 C17.4256163,25.4882062 17.5002038,25.4875687 17.5747913,25.4882062 C17.8654913,25.4926687 17.8769662,25.5003187 17.8776038,25.7846437 C17.8795163,26.7619312 17.8795163,27.7385812 17.8776038,28.7152312 C17.8769662,29.0040188 17.8654913,29.0174063 17.5805288,29.0174063 C14.4453038,29.0186812 11.3094413,29.0339812 8.17421625,29.0097562 C6.80359125,28.9989187 5.47886625,28.7209687 4.24912875,28.0777312 C2.27861625,27.0475312 1.00744125,25.4499562 0.38396625,23.3258062 C0.20865375,22.7271937 0.09709125,22.1158312 0.03971625,21.4936312 C0.03525375,21.4496437 0.01357875,21.4062937 -0.00044625,21.3629437 L-0.00044625,0.53709375 L4.63417875,0.53709375 Z" id="Fill-1" fill="#171716" mask="url(#mask-2)"></path>
                            </g>
                            <path d="M54.1581113,0.63756375 C54.1612988,1.82841375 54.1651237,3.01862625 54.1676737,4.21011375 C54.1676737,4.25537625 54.1644863,4.30318875 54.1204988,4.34845125 C54.0452737,4.40518875 53.9528362,4.37140125 53.8623113,4.36375125 C53.1087863,4.29681375 52.3571738,4.29171375 51.6176738,4.48041375 C50.0628112,4.87630125 49.1352488,5.90267625 48.7049363,7.41482625 C48.5570363,7.93566375 48.4958362,8.47116375 48.4798988,9.01176375 C48.4786237,9.06658875 48.4888238,9.12141375 48.4932863,9.17177625 C48.5965613,9.26102625 48.7132238,9.22723875 48.8209613,9.22787625 C49.8071737,9.23042625 50.7933862,9.22851375 51.7802363,9.22978875 C52.1040863,9.23042625 52.1072738,9.23361375 52.1079113,9.55555125 C52.1085487,10.3836638 52.1085487,11.2117763 52.1072738,12.0398888 C52.1072738,12.1323263 52.1200238,12.2266763 52.0594612,12.3631013 C51.4920862,12.3892388 50.9011238,12.3701138 50.3107988,12.3733013 C49.7166488,12.3771263 49.1224987,12.3745763 48.5347238,12.3745763 C48.4461112,12.5154638 48.4805363,12.6493388 48.4805363,12.7749263 C48.4786237,18.0693638 48.4792613,23.3631638 48.4779863,28.6576013 C48.4779863,29.1446513 48.5340863,29.1193804 48.0062363,29.1193804 C46.7688487,29.1193804 45.5308238,29.1193804 44.2934362,29.1185138 C43.9300613,29.1185138 43.9287863,29.1172388 43.9287863,28.7436638 C43.9287863,23.4307388 43.9287863,18.1178138 43.9275113,12.8042513 C43.9275113,12.6761138 43.9504613,12.5447888 43.8860738,12.3784013 L41.2525612,12.3784013 C41.1779737,12.1361513 41.1626737,9.60272625 41.2213237,9.28397625 C41.3163112,9.20365125 41.4329738,9.23106375 41.5407113,9.23042625 C42.2202863,9.22851375 42.8998613,9.23042625 43.5787988,9.22915125 C43.9058363,9.22851375 43.9198613,9.21512625 43.9249613,8.87788875 C43.9428112,7.79350125 44.0862487,6.72505125 44.4375113,5.69803875 C45.3427613,3.05050125 47.2125488,1.47842625 49.9117238,0.84793875 C50.3184488,0.75295125 50.7347362,0.72043875 51.1433738,0.63756375 L54.1581113,0.63756375 Z" id="Fill-4" fill="#171716"></path>
                            <path d="M59.8529625,0.63756375 C60.0187125,0.69621375 60.1908375,0.74147625 60.3483,0.81670125 C61.180875,1.21705125 61.604175,1.91511375 61.7590875,2.79805125 C61.85025,3.31952625 61.803075,3.83398875 61.6519875,4.33952625 C61.351725,5.34422625 60.3789,6.15385125 59.22885,6.12962625 C58.623225,6.11751375 58.062225,6.00403875 57.5994,5.59540125 C57.1831125,5.22756375 56.927475,4.75453875 56.810175,4.21457625 C56.59725,3.23792625 56.687775,2.31355125 57.3169875,1.48926375 C57.6096,1.10676375 57.9787125,0.84283875 58.44345,0.71470125 C58.523775,0.69238875 58.60155,0.66370125 58.6806,0.63756375 L59.8529625,0.63756375 Z" id="Fill-6" fill="#171716"></path>
                            <path d="M73.7468925,25.3580925 C74.0057175,25.35108 74.29323,25.3249425 74.5756425,25.270755 C76.5110925,24.8978175 77.81478,23.72163 78.6530925,21.99528 C79.2740175,20.7145425 79.442955,19.35348 79.2217425,17.94588 C78.953355,16.23483 78.1800675,14.8049175 76.7826675,13.7683425 C75.2462925,12.6284925 73.552455,12.3977175 71.7731925,13.12383 C70.40193,13.683555 69.444405,14.706105 68.8100925,16.02573 C68.1674925,17.363205 67.97943,18.7727175 68.23698,20.2376925 C68.513655,21.80658 69.220005,23.133855 70.456755,24.1557675 C71.4008925,24.936705 72.494205,25.326855 73.7468925,25.3580925 M78.853905,27.7130175 C78.5689425,27.879405 78.2922675,28.047705 78.009855,28.2038925 C77.01408,28.7546925 75.954555,29.11488 74.822355,29.2379175 C71.49078,29.6012925 68.7680175,28.4257425 66.60753,25.9139925 C65.26878,24.357855 64.515255,22.52823 64.2443175,20.4952425 C63.9395925,18.204705 64.2978675,16.0212675 65.3828925,13.98573 C66.766905,11.3904675 68.863005,9.6462675 71.7591675,8.9858175 C74.17593,8.4350175 76.454355,8.869155 78.5472675,10.192605 C80.46168,11.403855 81.7666425,13.117455 82.5635175,15.2256675 C82.926255,16.187655 83.135355,17.18343 83.2124925,18.2104425 C83.275605,19.056405 83.25393,19.9010925 83.25393,20.7476925 C83.2532925,23.35188 83.2532925,25.9560675 83.2532925,28.5608925 C83.2532925,28.6259175 83.25393,28.69158 83.2532925,28.7559675 C83.2520175,29.1167925 83.2520175,29.1180675 82.9026675,29.1180675 C81.69333,29.118705 80.4839925,29.118705 79.274655,29.1180675 C78.9029925,29.1180675 78.8953425,29.1104175 78.89343,28.7495925 C78.892155,28.47993 78.894705,28.2102675 78.8927925,27.940605 C78.892155,27.869205 78.9080925,27.79398 78.853905,27.7130175" id="Fill-8" fill="#171716"></path>
                            <path d="M20.8695825,16.561995 L20.8695825,9.694845 C20.8695825,9.6202575 20.86767,9.54567 20.87022,9.4710825 C20.879145,9.256245 20.8963575,9.2313825 21.116295,9.2313825 C22.391295,9.228195 23.666295,9.228195 24.9406575,9.230745 C25.1765325,9.2313825 25.1892825,9.2505075 25.1956575,9.4889325 C25.1982075,9.572445 25.196295,9.6559575 25.196295,9.7401075 C25.196295,13.79652 25.193745,17.85357 25.1994825,21.9112575 C25.20012,22.70877 25.3218825,23.487795 25.729245,24.194145 C26.3559075,25.2798075 27.305145,25.9402575 28.5144825,26.2080075 C29.5013325,26.4273075 30.495195,26.3801325 31.4661075,26.09772 C32.769795,25.71777 33.4755075,24.7927575 33.7636575,23.5050075 C33.863745,23.0574825 33.8937075,22.6048575 33.89307,22.1484075 C33.8911575,17.9982825 33.891795,13.84752 33.891795,9.6980325 C33.891795,9.22947 33.8924325,9.22947 34.36992,9.22947 C35.56077,9.22947 36.75162,9.22890553 37.94247,9.22947 C38.305845,9.2301075 38.3077575,9.230745 38.3077575,9.577545 C38.3077575,14.15607 38.318595,18.7339575 38.3013825,23.311845 C38.295645,24.8144325 37.68492,26.07222 36.5559075,27.0648075 C35.09922,28.3449075 33.374145,29.0193825 31.4724825,29.2998825 C30.5366325,29.43822 29.5956825,29.45352 28.6611075,29.3878575 C26.44452,29.23167 24.4204575,28.5183075 22.699845,27.08202 C21.5096325,26.088795 20.8683075,24.8080575 20.8695825,23.2334325 C20.87022,21.0098325 20.8695825,18.785595 20.8695825,16.561995" id="Fill-10" fill="#171716"></path>
                            <g id="Group-14" transform="translate(86.700000, 9.025470)">
                                <mask id="mask-4" fill="white">
                                    <use xlink:href="#path-3"></use>
                                </mask>
                                <g id="Clip-13"></g>
                                <path d="M17.7795563,13.0561275 C17.7795563,15.26124 17.7795563,17.465715 17.7795563,19.6708275 C17.7795563,19.7549775 17.7770063,19.83849 17.7776438,19.92264 C17.7776438,20.0393025 17.7138938,20.0890275 17.6029688,20.0903025 C17.5379438,20.0915775 17.4729188,20.0928525 17.4078938,20.0928525 C16.2170438,20.09349 15.0261938,20.09349 13.8353437,20.0928525 C13.4496563,20.0928525 13.4490188,20.092215 13.4490188,19.71354 C13.4490188,15.77889 13.4522062,11.842965 13.4464688,7.9076775 C13.4451938,7.077015 13.2896437,6.2782275 12.8217188,5.569965 C12.1395937,4.5365775 11.1693188,3.9194775 9.96508125,3.6950775 C9.10700625,3.53634 8.24510625,3.5892525 7.39213125,3.7868775 C5.97114375,4.1158275 5.18000625,5.0338275 4.88038125,6.4274025 C4.77646875,6.9119025 4.75224375,7.40214 4.75224375,7.8962025 C4.75351875,11.80344 4.75288125,15.711315 4.75288125,19.6185525 C4.75288125,20.0928525 4.75288125,20.09349 4.28176875,20.09349 C3.09091875,20.09349 1.90006875,20.09349 0.70921875,20.0928525 C0.35859375,20.0928525 0.34584375,20.0813775 0.34584375,19.735215 C0.34456875,15.3715275 0.33500625,11.00784 0.35158125,6.6441525 C0.35604375,5.3933775 0.77998125,4.2777525 1.63104375,3.3393525 C2.43493125,2.45259 3.42751875,1.844415 4.51190625,1.3733025 C5.55230625,0.9206775 6.64689375,0.6886275 7.77463125,0.5789775 C8.46249375,0.5126775 9.15099375,0.50694 9.83694375,0.5445525 C11.9846813,0.6618525 13.9647562,1.28469 15.6911062,2.60304 C16.7244938,3.392265 17.4321188,4.3988775 17.6890313,5.694915 C17.7623438,6.062115 17.7801938,6.4312275 17.7801938,6.804165 C17.7789188,8.8881525 17.7795563,10.97214 17.7795563,13.0561275" id="Fill-12" fill="#171716" mask="url(#mask-4)"></path>
                            </g>
                            <path d="M61.414965,19.1872837 L61.414965,28.5910462 C61.414965,28.6649963 61.41624,28.7395838 61.414965,28.8141713 C61.407315,29.0908462 61.38564,29.1169838 61.108965,29.1176212 C59.844165,29.1195338 58.5787275,29.1195338 57.3139275,29.1176212 C57.0359775,29.1169838 57.0143025,29.0914838 57.00729,28.8154463 C57.006015,28.7593463 57.0066525,28.7032462 57.0066525,28.6477838 L57.0066525,9.70128375 C57.0066525,9.22953375 57.00729,9.22953375 57.480315,9.22953375 C58.6616025,9.22905562 59.84289,9.22905562 61.0241775,9.22953375 C61.4092275,9.22953375 61.414965,9.23463375 61.414965,9.61713375 C61.414965,12.8071837 61.414965,15.9972337 61.414965,19.1872837" id="Fill-15" fill="#171716"></path>
                        </g>
                    </g>
                </g>
            </g>
        </g>
    </g>
</svg>