<?xml version="1.0" encoding="UTF-8"?>
<svg width="99px" height="50px" viewBox="0 0 99 50" version="1.1" xmlns="http://www.w3.org/2000/svg" xmlns:xlink="http://www.w3.org/1999/xlink">
    <!-- Generator: Sketch 59.1 (86144) - https://sketch.com -->
    <title>mabelle</title>
    <desc>Created with Sketch.</desc>
    <defs>
        <polygon id="path-1" points="0.1623075 0.63361125 3.8301 0.63361125 3.8301 4.35469875 0.1623075 4.35469875"></polygon>
        <polygon id="path-3" points="0 0.126225 41.9154293 0.126225 41.9154293 41.6628696 0 41.6628696"></polygon>
        <polygon id="path-5" points="0.004845 0.21362625 3.60917017 0.21362625 3.60917017 4.4625 0.004845 4.4625"></polygon>
    </defs>
    <g id="TELLALL-WEBSITE" stroke="none" stroke-width="1" fill="none" fill-rule="evenodd" opacity="0.600000024">
        <g id="Tellall-2" transform="translate(-754.000000, -1008.000000)">
            <g id="KLIENTET" transform="translate(0.000000, 768.000000)">
                <g id="clients" transform="translate(202.000000, 193.000000)">
                    <g transform="translate(23.000000, 36.000000)" id="mabelle">
                        <g transform="translate(529.000000, 11.000000)">
                            <g id="Group-3" transform="translate(94.987500, 23.461339)">
                                <mask id="mask-2" fill="white">
                                    <use xlink:href="#path-1"></use>
                                </mask>
                                <g id="Clip-2"></g>
                                <path d="M1.996395,3.86127375 C1.251795,3.86127375 0.64872,3.24863625 0.64872,2.49447375 C0.64872,1.73967375 1.251795,1.12831125 1.996395,1.12831125 C2.7416325,1.12831125 3.34407,1.73967375 3.34407,2.49447375 C3.34407,3.24863625 2.7416325,3.86127375 1.996395,3.86127375 M1.996395,0.63361125 C0.984045,0.63361125 0.1623075,1.46618625 0.1623075,2.49447375 C0.1623075,3.52148625 0.984045,4.35469875 1.996395,4.35469875 C3.0093825,4.35469875 3.8304825,3.52148625 3.8304825,2.49447375 C3.8304825,1.46618625 3.0093825,0.63361125 1.996395,0.63361125" id="Fill-1" fill="#812B22" mask="url(#mask-2)"></path>
                            </g>
                            <path d="M96.9384412,25.9280812 L96.7236038,25.9280812 L96.7236038,25.4429437 L96.9518287,25.4429437 C97.0417162,25.4429437 97.1112037,25.4646187 97.1602913,25.5079687 C97.2093787,25.5513187 97.2336037,25.6099687 97.2336037,25.6832812 C97.2336037,25.7597812 97.2074662,25.8184312 97.1571037,25.8630562 C97.1054662,25.9064062 97.0334287,25.9280812 96.9384412,25.9280812 M97.5510788,25.6902937 C97.5510788,25.5321937 97.5064537,25.4040562 97.4146537,25.3077937 C97.3247662,25.2134437 97.1889787,25.1643562 97.0085663,25.1643562 L96.4182412,25.1643562 L96.4182412,26.7466312 L96.7236038,26.7466312 L96.7236038,26.2053937 L96.9021038,26.2053937 L97.2533662,26.7466312 L97.6167412,26.7466312 L97.2316912,26.1671437 C97.4446162,26.0963812 97.5510788,25.9363687 97.5510788,25.6902937" id="Fill-4" fill="#812B22"></path>
                            <path d="M84.6242363,35.8255238 C84.4074863,34.6576237 84.9748613,31.4478113 87.7199363,28.7250487 L87.7212113,28.7237738 C87.7224863,28.7231362 87.7224863,28.7231362 87.7237613,28.7218613 C88.2847613,28.1328112 89.1880988,27.6336488 89.8434488,27.6272738 C89.9919862,27.6272738 90.1315988,27.6546862 90.2501738,27.7222612 C90.3693863,27.7885613 90.4650113,27.8994862 90.5160113,28.0448362 C90.5931488,28.2647738 90.6262988,28.4955488 90.6205613,28.7326988 C90.6052613,29.4900488 90.2233988,30.3111488 89.6738738,31.1296988 C89.1237113,31.9476113 88.3995113,32.7616988 87.6772237,33.4865363 C86.4717113,34.6977863 85.1654738,35.5896488 84.7804238,35.8899113 C84.7198613,35.9358113 84.6382612,35.9020238 84.6242363,35.8255238 L84.6242363,35.8255238 Z M55.1838487,31.2852488 C55.0882238,31.4452613 54.9282113,31.5345113 54.7694738,31.5351488 L54.7611863,31.5351488 C54.6266738,31.5351488 54.4915238,31.4752238 54.3965363,31.3572863 C54.2926238,31.2285113 54.1632113,31.0493738 54.0554738,30.8300738 C53.9502863,30.6120488 53.8642238,30.3474863 53.8610363,30.0523238 L53.8623113,30.0204488 C53.8648613,29.8757363 53.8890863,29.7246488 53.9419988,29.5754738 C54.0325238,29.3153738 54.1644863,29.1151988 54.3276863,28.9794113 C54.4896112,28.8429863 54.6757613,28.7830613 54.8491613,28.7798738 L54.8593613,28.7798738 C55.0174613,28.7798738 55.1628113,28.8244988 55.2852113,28.8965363 L55.2858488,28.8971738 C55.4088863,28.9704863 55.5172613,29.0756738 55.5841988,29.2229363 C55.6600613,29.3944238 55.6893862,29.5761113 55.6893862,29.7520613 L55.6893862,29.7832988 C55.5650738,30.8147738 55.1838487,31.2852488 55.1838487,31.2852488 L55.1838487,31.2852488 Z M49.3443064,26.3860612 C49.3468988,26.2203112 49.5081863,25.3666987 49.7427863,24.6654487 C50.0264738,23.7703987 50.4848363,22.5106987 51.1848113,20.7766987 C52.0473488,18.6378862 53.2267238,16.2447112 54.3142988,14.2047112 C55.4082488,12.1532362 56.4008363,10.4734237 56.8917113,9.76834875 C57.2289488,9.28831125 57.5037113,8.97147375 57.7631738,8.80381125 L57.7638113,8.80253625 C57.8511488,8.74834875 57.9518738,8.69989875 58.0710863,8.69671125 L58.0825613,8.69543625 C58.1456738,8.69671125 58.2138863,8.71073625 58.2769988,8.74643625 C58.2782738,8.74643625 58.2782738,8.74834875 58.2782738,8.74834875 L58.2795488,8.74834875 C58.3477613,8.78723625 58.3993988,8.84652375 58.4344613,8.90836125 L58.4357363,8.90963625 C58.5026738,9.03076125 58.5160613,9.15826125 58.5166988,9.27811125 L58.5166988,9.28066125 L58.5166988,9.29723625 C58.5096863,9.59686125 58.4166113,9.97999875 58.2361988,10.5065737 L58.2342863,10.5116737 L58.2330113,10.5148612 L58.2317363,10.5174112 C58.2024113,10.5977362 55.1946863,18.6716737 50.8475738,25.6758862 C50.5428488,26.1622987 50.3063363,26.4995362 50.1138113,26.7035362 C50.0487863,26.7711112 49.9863113,26.8297612 49.9072613,26.8743862 L49.9053488,26.8750237 C49.8626363,26.8992487 49.8001613,26.9272987 49.7211113,26.9298487 L49.6943363,26.9266612 L49.5904238,26.9024362 L49.5916988,26.8960612 C49.5827738,26.8941487 49.5751238,26.8979737 49.5668363,26.8941487 L49.5636488,26.8922362 C49.5636488,26.8915987 49.5636488,26.8915987 49.5623738,26.8903237 L49.5623738,26.8915987 L49.5579113,26.8877737 C49.4539988,26.8297612 49.4004488,26.7322237 49.3762238,26.6525362 C49.3500863,26.5741237 49.3437113,26.4988987 49.3443064,26.4223987 L49.3443064,26.3860612 Z M61.0099612,30.0733612 C61.1852737,29.7769237 61.3414612,29.5416862 61.4549362,29.3778487 C61.5123112,29.2968862 61.5562987,29.2344112 61.5881737,29.1923362 L61.6353487,29.1304987 L61.6359862,29.1279487 C61.9534612,28.7231362 62.2906987,28.3431862 62.6202862,28.0614112 C62.9530612,27.7777237 63.2718112,27.5928487 63.5593237,27.5749987 L63.6039487,27.5724487 C63.6517612,27.5724487 63.6982987,27.5775487 63.7441987,27.5877487 L63.7473862,27.5890237 L63.7486612,27.5890237 L63.7505737,27.5902987 C63.9271612,27.6240862 64.0425487,27.6961237 64.1075738,27.7770862 L64.1171362,27.7898362 L64.1177737,27.7911112 L64.1171362,27.7917487 C64.1757862,27.8676112 64.2274237,27.9887362 64.2337987,28.1697862 L64.2344362,28.1729737 L64.2337987,28.2239737 L64.2337987,28.2271612 C64.2248738,28.6791487 64.1298862,29.0329612 64.0374487,29.2726612 C63.9909112,29.3931487 63.9456487,29.4849487 63.9112237,29.5467862 L63.9099487,29.5499737 L63.8723362,29.6137237 L63.8685112,29.6188237 L63.8614987,29.6322112 L63.8570362,29.6373112 L63.8570362,29.6385862 L63.8557612,29.6404987 C63.5784487,30.0943987 63.2118862,30.5157862 62.8198237,30.8912737 C62.4264862,31.2667612 61.9993612,31.5988987 61.5543862,31.8844987 C61.2018487,32.1082612 60.6994987,32.3466862 60.2596237,32.5296487 C60.1646362,32.5698113 60.0683737,32.4773737 60.0945112,32.3721862 C60.3571612,31.3681237 60.6854737,30.6190612 61.0099612,30.0733612 L61.0099612,30.0733612 Z M69.5881613,27.0522487 L69.5887988,27.0528862 L69.5894363,27.0496987 L69.5913488,27.0445987 L69.5989988,27.0216487 L69.6283238,26.9311237 C69.6557363,26.8520737 69.6958988,26.7347737 69.7488113,26.5836862 C70.4876738,24.4544362 73.7510363,15.4363612 78.0343988,9.19013625 L78.0369488,9.18694875 L78.0375863,9.18567375 C78.0503363,9.16718625 78.0936863,9.10789875 78.1599863,9.04606125 L78.1612613,9.04606125 L78.1612613,9.04542375 L78.1625363,9.04542375 C78.2358488,8.97848625 78.3129863,8.92493625 78.4105238,8.91392446 L78.4302863,8.91392446 C78.4825613,8.91154875 78.5501363,8.93704875 78.6055988,8.98613625 L78.6342863,9.02502375 L78.6508613,9.07857375 L78.6591488,9.15379875 L78.6585113,9.15698625 L78.6597863,9.22647375 C78.6559613,9.42728625 78.6036863,9.72691125 78.5297363,10.0380112 C78.4494113,10.3873612 78.3448613,10.7520112 78.2613488,11.0140237 C76.1276363,17.7441112 70.1874113,28.4553862 68.4374738,31.5453487 C68.4087863,31.5950737 68.3501363,31.6167487 68.2984988,31.5950737 C68.2481363,31.5733987 68.2207238,31.5147487 68.2341113,31.4580112 C68.6070488,29.9834737 69.0807113,28.5140362 69.5881613,27.0522487 L69.5881613,27.0522487 Z M77.7048113,31.9329488 C78.0267487,30.6834488 78.4264613,29.4377738 78.8548612,28.2003863 L78.8567738,28.1978363 L78.8574113,28.1933738 L78.8644238,28.1729738 L78.8911988,28.0932863 C78.9154238,28.0231613 78.9498488,27.9205238 78.9957488,27.7879238 C79.6434488,25.9136738 82.4975362,17.9927363 86.2058738,12.5153363 L86.2071488,12.5146988 L86.2077863,12.5134238 C86.2179863,12.4987613 86.2581488,12.4445738 86.3180738,12.3878363 L86.3180738,12.3865612 C86.3193488,12.3865612 86.3193488,12.3865612 86.3193488,12.3852863 C86.3850113,12.3266363 86.4513113,12.2775488 86.5431113,12.2658869 L86.5596863,12.2658869 C86.6055863,12.2635238 86.6731613,12.2871113 86.7216112,12.3342863 L86.7458363,12.3648863 L86.7598613,12.3967613 L86.7655988,12.4228988 L86.7726113,12.4911113 L86.7726113,12.4936613 L86.7726113,12.5478487 C86.7694238,12.7250738 86.7228863,12.9915488 86.6572238,13.2675863 C86.5877363,13.5742238 86.4952988,13.8936113 86.4232613,14.1231113 C84.5579363,20.0250863 79.3935488,29.4435113 77.8686488,32.1656363 C77.8386862,32.2172738 77.7806738,32.2395863 77.7296738,32.2172738 C77.6831363,32.1975113 77.6608238,32.1465113 77.6665613,32.0948738 C77.6793113,32.0374988 77.6920613,31.9852238 77.7048113,31.9329488 L77.7048113,31.9329488 Z M94.1918363,33.1907363 C93.8960363,33.5451862 93.4077113,34.1654738 92.9142863,34.6773862 C90.2163862,37.4632612 88.2924113,38.1804487 87.0212363,38.1817237 C85.9451363,38.1817237 85.3834988,37.6519612 85.2030863,37.4638987 C85.1731238,37.4345737 85.1820488,37.3842112 85.2177488,37.3625363 C90.7920488,33.9366112 92.4329738,30.3034987 92.2780613,27.9237112 C92.2780613,27.9237112 92.2474613,26.0564737 90.2348738,25.7326237 C88.2847613,25.4183362 86.3340113,27.3767362 86.3340113,27.3767362 C82.2195863,31.4694862 83.1184613,36.8818613 83.1184613,36.8818613 C83.1063488,36.9239363 83.0967863,36.9577237 83.0846738,36.9997987 C81.6579488,38.4552112 79.4317988,38.5323487 78.4506863,37.8604237 C77.6200238,37.2904987 77.3930738,36.1971863 77.3484488,35.1096112 C78.4404863,33.6452738 79.3833488,32.2077112 80.2796738,30.5833612 C81.3621488,28.6179487 83.4238237,25.0645237 85.2285863,21.3542737 C87.0333488,17.6452987 88.5741863,13.7712113 88.6207238,11.2135612 L88.6213613,11.0962612 C88.6194488,10.7826112 88.5811988,10.4377237 88.4658113,10.1476612 C88.3523363,9.85823625 88.1559863,9.62427375 87.8423363,9.53821125 C87.7722113,9.51844875 87.6995363,9.51016125 87.6262238,9.51016125 L87.5592863,9.51207375 C87.2826113,9.53311125 86.9848988,9.67336125 86.6948363,9.87226125 C86.0490488,10.3140487 85.4402363,11.0465362 85.1718488,11.3914237 C85.0832363,11.5074487 85.0354238,11.5737487 85.0252238,11.5858612 C84.2876363,12.5688862 83.6418488,13.5812362 83.0196488,14.6063362 C80.5486988,18.6703987 78.8918363,23.1341737 77.4249488,27.6106987 C76.3679738,30.8377237 75.9797363,33.9971738 75.9376613,34.3497112 L75.9051488,34.4185612 C75.1280363,35.6451112 74.4452738,36.3763237 73.6203488,37.0386862 C72.7947863,37.7023237 71.8653113,38.1931988 70.7987738,38.2078613 L70.7617988,38.2078613 C70.1402363,38.2078613 69.6563738,38.0057737 69.2942738,37.6914862 C68.9321738,37.3759237 68.6905613,36.9538988 68.5279988,36.5159362 C68.2022363,35.6393737 68.1894863,34.6945987 68.1952238,34.3516237 C68.1964988,34.2693862 68.1990488,34.2222113 68.1990488,34.2196612 L68.2232738,34.1539987 C69.4568363,32.4901238 70.3308488,31.1762362 71.4381863,29.3886862 C72.7010738,27.3531487 74.8991738,23.6798737 76.7957363,19.7783737 C76.7957363,19.7783737 82.6358738,8.54562375 79.6045613,6.57829875 C77.4810488,5.19874875 73.9849988,11.9275612 73.9849988,11.9275612 C66.8449988,25.7281612 66.5453738,34.1112862 66.5453738,34.1112862 C65.9027738,35.0579737 65.1116363,35.8478363 64.2503738,36.5758612 C63.3871988,37.3038862 62.5794863,37.8419362 62.1185738,38.0363737 C61.6990988,38.2123238 61.3420988,38.2894612 61.0437488,38.3079488 C60.9965738,38.3098612 60.9513113,38.3111362 60.9073238,38.3111362 C60.5305613,38.3124112 60.2545238,38.2142362 60.0715613,38.1135112 C59.9682863,38.0561363 59.8936988,37.9981237 59.8452488,37.9547738 L59.8395113,37.9509487 L59.7929738,37.9044112 L59.7872363,37.8986737 L59.7751238,37.8865612 L59.7732113,37.8801863 L59.7732113,37.8814613 C59.4130238,37.4460488 59.2887113,36.8314987 59.2663988,36.2577487 C59.2619363,36.1538362 59.2619363,36.0524737 59.2638488,35.9530237 C59.2702238,35.6604112 59.2963613,35.3920237 59.3263238,35.1803738 C59.3460863,35.0375737 59.3671238,34.9209112 59.3830613,34.8399487 L59.3843363,34.8386737 L59.3881613,34.8138112 C59.3996363,34.7634487 59.4385238,34.7251987 59.4863363,34.7194613 C59.8669238,34.6716487 61.4479238,34.3490737 63.6256238,32.1528862 L63.6262613,32.1522487 C63.6262613,32.1522487 65.9843738,29.6258362 65.3417738,27.2001487 C65.3417738,27.2001487 65.1039863,25.9111237 63.4923863,25.9283362 C62.8402238,25.9347112 62.0809613,26.3369737 61.5964613,26.6984362 C61.1094113,27.0598987 60.7122488,27.5004112 60.4056113,27.8682487 C59.0439113,29.5002487 58.0659863,32.1834862 57.8562488,32.7973987 C57.7988738,32.7999487 57.6190988,32.8024987 57.5668238,32.8024987 C57.1275863,32.8024987 56.7629363,32.6756362 56.4276113,32.4939488 C56.4072113,32.4773737 56.3791613,32.4614362 56.3428238,32.4467737 C56.2835363,32.4123487 56.2248863,32.3772862 56.1668738,32.3403112 C55.8385613,32.0151862 56.6290613,31.3732237 56.8725863,30.0561487 C57.1766738,28.4031112 56.3453738,27.0503362 54.8988863,27.0503362 C53.5716113,27.0503362 52.5675488,28.5197737 52.6446863,30.2416612 C52.6555238,30.4839112 52.7179988,30.7331737 52.8097988,30.9830737 C52.8716363,31.1877112 52.9653488,31.4025487 53.1004988,31.6345987 C53.5161488,32.4518737 54.2065613,32.9580487 53.9719613,33.3749737 C53.8023863,33.6306112 53.3835488,34.2285862 53.0934863,34.6212862 C52.5127238,35.4060487 51.7426238,36.3482737 50.9495738,36.9985237 C50.4229988,37.4275612 49.8811238,37.7456738 49.3277738,37.7584237 L49.3080113,37.7584237 C49.1403488,37.7584237 48.9726863,37.7259112 48.8152238,37.6570612 C48.4237988,37.4855738 48.1496738,37.1623612 47.9909363,36.7779488 C47.8296488,36.3928988 47.7684488,35.9498362 47.7633488,35.4793612 C47.7633488,35.4226237 47.7639863,35.3646113 47.7646238,35.3072362 C47.7843863,34.2572737 48.0642488,33.0785362 48.3421988,32.1299362 C55.9035863,22.7389237 60.3176363,11.9638987 60.6676238,6.30863625 C60.6676238,6.30863625 60.7479488,5.16432375 60.2679113,4.78118625 C60.1831238,4.71361125 60.0843113,4.68109875 59.9376863,4.67982375 L59.9179238,4.67982375 C59.6712113,4.68492375 59.2785113,4.82581125 58.7430113,5.22552375 C58.2081488,5.62268625 57.5336738,6.26974875 56.7042863,7.24512375 C54.5061863,9.83209875 51.6495488,15.0136987 49.3978988,20.6466487 C47.2699238,25.9653112 45.6768113,31.6964362 45.5932988,36.0945487 C45.5901331,36.2921737 45.5894738,36.4878862 45.5907488,36.6810487 L45.5907488,36.6867862 L45.5913863,36.6874238 C45.6079613,37.9458487 45.8827238,38.7949988 46.2919988,39.3145612 C46.6993613,39.8258363 47.2405988,40.0585237 47.9259113,40.0610737 L47.9533238,40.0610737 C49.0192238,40.0515112 50.3955863,39.4165612 51.7356113,38.2881862 C52.9341113,37.2822112 54.1530113,35.7923737 55.0914113,34.1335987 C55.1506988,34.0290487 55.2832988,34.0009988 55.3833863,34.0679362 C56.0298113,34.5039862 56.7527363,34.7596237 57.2589113,34.8501487 C57.3162863,34.8603487 57.3526238,34.9081612 57.3443363,34.9661737 C57.3226613,35.1242737 57.2875988,35.4334613 57.2805863,35.8287112 C57.2773988,35.9804362 57.2786738,36.1417237 57.2856863,36.3132112 C57.2856863,36.3132112 57.2882363,36.3699487 57.2990738,36.4744988 C57.3105488,36.5784112 57.3296738,36.7288613 57.3621863,36.9092737 C57.4291238,37.2694612 57.5502488,37.7494988 57.7695488,38.2276237 C58.2113363,39.1838737 59.0203238,40.1171737 60.5872988,40.1209987 L60.6115238,40.1209987 L60.6663488,40.1216362 C61.0819988,40.1197237 63.6096863,40.1515987 66.5020238,36.2469112 C66.5326238,36.2073862 66.5817113,36.1895362 66.6263363,36.2048362 C66.6709613,36.2201362 66.7009238,36.2628487 66.7028363,36.3119362 C66.8545613,37.2732862 67.2529988,38.1880988 67.2529988,38.1880988 C67.7604488,39.2386987 68.5152488,40.1700862 70.0694738,40.2070612 C70.1140988,40.2083362 70.1593613,40.2089737 70.2046238,40.2089737 C71.7837113,40.2051487 73.6171613,39.5829487 75.7228238,36.5975362 C75.7476863,36.5618362 75.7916738,36.5433487 75.8331113,36.5509987 C75.8745488,36.5599237 75.9096113,36.5924362 75.9198113,36.6357863 C75.9198113,36.6357863 76.5037613,39.4924238 79.2787988,39.8079862 C81.3232613,40.0393988 83.1618112,38.8530112 83.6112488,38.5062112 C83.6705363,38.4603112 83.7527738,38.4692363 83.8024988,38.5246987 C83.9357363,38.6751487 84.1333613,38.8785112 84.3328988,39.0346987 C84.8333363,39.4273988 85.5894113,39.8194613 86.6266238,39.8207362 C87.5943488,39.8194613 88.8132488,39.4777613 90.3030863,38.4577612 C90.8691863,38.0701612 91.8279863,37.2057113 92.3418113,36.6357863 C93.3802988,35.4927487 94.2256238,34.1399737 94.5188738,33.3360862 C94.5794363,33.0766237 94.3359113,33.0147862 94.1918363,33.1907363 L94.1918363,33.1907363 Z" id="Fill-6" fill="#812B22"></path>
                            <g id="Group-10" transform="translate(0.000000, 0.511339)">
                                <mask id="mask-4" fill="white">
                                    <use xlink:href="#path-3"></use>
                                </mask>
                                <g id="Clip-9"></g>
                                <path d="M41.57928,34.2990937 C41.6959425,34.0861687 41.8043175,33.8687812 41.89293,33.6450187 C41.89293,33.6450187 41.975805,33.4442062 41.8234425,33.3791812 C41.67363,33.3160687 41.54358,33.4869187 41.54358,33.4869187 L40.9283925,34.2219562 C40.866555,34.2939937 40.80153,34.3545562 40.7486175,34.4144812 C40.68423,34.4852437 40.6147425,34.5572812 40.5471675,34.6293187 C40.2513675,34.9378687 39.9466425,35.2349437 39.645105,35.5313812 L39.64383,35.5339312 C39.36843,35.7953062 39.08793,36.0490312 38.798505,36.2931937 C38.663355,36.4073062 38.5288425,36.5150437 38.3949675,36.6151312 C38.352255,36.6457312 38.3069925,36.6897187 38.2483425,36.7311562 L38.2470675,36.7324312 C38.066655,36.8567437 37.8760425,36.9670312 37.6796925,37.0607437 L37.676505,37.0613812 L37.559205,37.1149312 L37.5560175,37.1162062 C37.523505,37.1283187 37.4807925,37.1557312 37.4195925,37.1780437 C37.27743,37.2258562 37.12188,37.2570937 36.9618675,37.2570937 C36.7833675,37.2570937 36.59913,37.2162937 36.4391175,37.1053687 L36.437205,37.1034562 C36.17073,36.9083812 36.10698,36.5858062 36.10698,36.3091312 C36.10698,36.2587687 36.1088925,36.2090437 36.11208,36.1618687 C36.13503,35.8399312 36.2134425,35.5326562 36.3001425,35.2368562 L36.3014175,35.2323937 C36.3230925,35.1699187 36.3460425,35.1144562 36.36453,35.0621812 L36.370905,35.0424187 L36.37218,35.0405062 C36.4939425,34.6605562 36.6571425,34.2531937 36.829905,33.8426437 C36.8726175,33.7317187 36.91788,33.6227062 36.95868,33.5143312 L36.9605925,33.5098687 C37.197105,32.9424937 37.4591175,32.3897812 37.707105,31.8326062 C37.8314175,31.5546562 37.95318,31.2760687 38.066655,30.9949312 C38.1705675,30.7112437 38.2967925,30.4345687 38.2993425,30.1744687 C38.2763925,30.0227437 38.1565425,29.8977937 38.0239425,29.9009812 L38.0048175,29.9009812 L37.997805,29.9022562 C37.821855,29.9048062 37.64208,29.9883187 37.469955,30.0954187 C37.128255,30.3140812 36.8381925,30.6181687 36.572355,30.9420187 C36.30588,31.2626812 36.0795675,31.6222312 35.8411425,31.9798687 L35.4063675,32.6320312 C35.223405,32.9099812 35.021955,33.2140687 34.8032925,33.5353687 L34.8045675,33.5340937 C34.4386425,34.0848937 34.070805,34.6369687 33.6672675,35.1654562 C33.4109925,35.5097062 33.1470675,35.8501312 32.8665675,36.1784437 L32.8640175,36.1797187 C32.584155,36.4952812 32.2966425,36.8369812 31.910955,37.0773187 C31.5137925,37.2864187 31.1733675,37.1378812 31.1733675,37.1378812 C30.9170925,37.0046437 30.8227425,36.7286062 30.7946925,36.5003812 L30.7946925,36.4997437 C30.78513,36.4136812 30.781305,36.3288937 30.781305,36.2453812 C30.781305,35.8769062 30.8609925,35.5192687 30.9451425,35.1782062 L30.9451425,35.1769312 C31.1682675,34.3335187 31.5023175,33.5309062 31.8644175,32.7493312 C32.594355,31.1900062 33.2516175,29.9698312 34.3646925,28.6495687 L34.36533,28.6495687 C34.92633,27.9986812 35.537055,27.3732937 36.261255,26.8881562 L36.2631675,26.8875187 C36.6214425,26.6586562 37.02753,26.4234187 37.500555,26.4074812 L37.5037425,26.4074812 L37.61148,26.4042937 C37.80273,26.4042937 38.00418,26.4361687 38.18778,26.5311562 L38.189055,26.5311562 L38.189055,26.5317937 C38.421105,26.6490937 38.5785675,26.8741312 38.6308425,27.1227562 L38.6308425,27.1240312 L38.6308425,27.1246687 C38.65188,27.2209312 38.6601675,27.3178312 38.6601675,27.4134562 C38.6601675,27.5530687 38.6435925,27.6888562 38.6180925,27.8189062 C38.59833,27.9291937 38.5709175,28.0337437 38.54733,28.1357437 C38.515455,28.4302687 38.7710925,28.4398312 38.9444925,28.1803687 C39.196305,27.8048812 39.415605,27.1488937 39.415605,26.7734062 L39.41433,26.7083812 C39.4047675,26.3169562 39.237105,25.9268062 38.9457675,25.6749937 L38.9444925,25.6737187 C37.1339925,24.0321562 33.8610675,26.0549437 31.43793,29.7020812 C29.29338,32.9297437 26.0096175,35.7200812 26.0096175,35.7200812 L26.0083425,35.7200812 C25.653255,35.9610562 25.2739425,36.1924687 24.8429925,36.3269812 L24.842355,36.3282562 C24.676605,36.3779812 24.49938,36.4136812 24.3176925,36.4136812 C24.2641425,36.4136812 24.20868,36.4104937 24.1544925,36.4034812 C23.911605,36.3728812 23.6789175,36.2600437 23.506155,36.0770812 C23.3231925,35.8826437 23.26008,35.6276437 23.23458,35.4013312 C23.2250175,35.3088937 23.22183,35.2170937 23.22183,35.1259312 C23.22183,34.9907812 23.22948,34.8569062 23.2428675,34.7255812 C23.28813,34.2863437 23.3805675,33.8592187 23.4863925,33.4391062 C23.7005925,32.5995187 23.9696175,31.7790562 24.25458,30.9668812 C24.82578,29.3425312 25.47348,27.7506937 26.125005,26.1639562 L28.7253675,19.8488812 C29.366055,18.2557687 31.32573,13.9207687 31.5341925,11.9776687 C31.732455,10.1321062 30.72393,10.0473187 30.442155,10.0473187 C30.345255,10.0473187 30.248355,10.0581562 30.15528,10.0791937 L30.154005,10.0791937 C29.7734175,10.1614312 29.419605,10.3749937 29.09958,10.6287187 C28.4576175,11.1514687 27.9323175,11.8214812 27.4886175,12.5342062 C24.71868,17.0515313 21.374355,23.1702562 18.79248,27.8010562 C17.493255,30.1088062 15.80133,33.3492187 14.471505,35.6499562 L14.4708675,35.6505937 C14.3000175,35.9368312 14.1253425,36.2224312 13.93218,36.5016562 C13.83528,36.6393562 13.734555,36.7783312 13.6166175,36.9102937 L13.6140675,36.9134812 C13.502505,37.0326937 13.36098,37.1895187 13.1321175,37.2456187 L13.130205,37.2468937 L13.1282925,37.2468937 L13.025655,37.2602812 C12.90963,37.2596437 12.8018925,37.2143812 12.7177425,37.1429812 C12.6399675,37.0760437 12.5825925,36.9829687 12.56538,36.8739562 L12.5634675,36.8745937 C12.561555,36.8682187 12.5621925,36.8624812 12.56028,36.8567437 C12.56028,36.8535562 12.559005,36.8529187 12.559005,36.8497312 L12.5596425,36.8497312 C12.5392425,36.7719562 12.528405,36.6967312 12.528405,36.6266062 C12.528405,36.5080312 12.5481675,36.4009312 12.56028,36.3040312 L12.561555,36.2976562 C12.6221175,35.9559562 12.7177425,35.6289187 12.82548,35.3108062 L12.8261175,35.3069812 L13.98318,32.5446937 L13.9850925,32.5389562 C14.2464675,31.9256812 14.52633,31.3238812 14.7959925,30.7182562 L16.43118,27.0851437 L16.432455,27.0819562 C17.0081175,25.8840937 18.2703675,23.1530437 18.8581425,21.9641062 L22.4090175,14.8387687 L22.4090175,14.8381312 C23.014005,13.6632187 23.5832925,12.4691812 24.059505,11.2394437 C24.296655,10.6242562 24.510855,10.0026937 24.67788,9.36965625 C24.829605,8.78188125 24.9539175,8.18518125 24.9539175,7.59549375 C24.9539175,7.59549375 25.00173,6.89679375 24.7333425,6.59589375 C23.7503175,5.49429375 22.12533,6.68068125 22.12533,6.68068125 C21.10023,7.45843125 20.2772175,8.48034375 19.5746925,9.58895625 C18.1747425,11.7985312 16.929705,14.0999062 15.6400425,16.4153062 L15.64068,16.4140312 L10.9595175,24.6773062 L3.794655,36.8618437 C3.39558,37.4355937 3.1297425,37.2080062 3.30633,36.6151312 C6.9177675,24.4611937 18.62418,8.98141875 17.27013,2.62299375 C16.70658,-0.37708125 13.089405,-0.06279375 11.2476675,0.47908125 C5.49168,2.17164375 1.67433,7.26845625 1.67433,7.26845625 C1.05978,8.10039375 0.5708175,9.03178125 0.283305,10.0243687 C0.1067175,10.6414687 -0.0003825,11.2923562 -0.0003825,11.9330437 C-0.0003825,12.3161812 0.038505,12.6942187 0.12138,13.0588687 L0.1232925,13.0684312 L0.1258425,13.0748062 C0.27693,13.8927187 0.6065175,14.6883187 1.191105,15.2474062 L1.191105,15.2486812 C1.7642175,15.8160562 2.563005,16.1258812 3.37263,16.1883563 L3.37518,16.1883563 C3.46698,16.1966437 3.560055,16.2011062 3.654405,16.2011062 C3.76278,16.2011062 3.8730675,16.1960062 3.98208,16.1883563 L3.98718,16.1870812 C4.1918175,16.1819812 4.383705,16.1571187 4.5628425,16.0965562 L4.5641175,16.0965562 C4.743255,16.0385437 4.909005,15.9480187 5.01993,15.8268937 L5.021205,15.8268937 C5.0894175,15.7554937 5.12448,15.6700687 5.123205,15.6095062 L5.09388,15.5202562 L5.0906925,15.5177062 C5.016105,15.4157062 4.840155,15.3436687 4.65528,15.3073312 C4.47933,15.2760937 4.23453,15.2697187 4.001205,15.1849312 C4.0005675,15.1849312 4.0005675,15.1849312 3.9992925,15.1842937 L3.9967425,15.1842937 L3.9967425,15.1830187 C3.5377425,15.0325687 3.15843,14.7093562 2.89323,14.3274937 C2.6286675,13.9462687 2.4501675,13.5178687 2.35008,13.0658812 L2.34753,13.0588687 C2.3073675,12.8006812 2.28378,12.5393062 2.28378,12.2792062 C2.28378,12.0847687 2.297805,11.8916062 2.32458,11.6990812 L2.32458,11.6978062 C2.4412425,10.7970187 2.7893175,9.95998125 3.20943,9.18924375 L3.210705,9.18860625 C4.0745175,7.64968125 5.2551675,6.33260625 6.541005,5.17044375 L6.54228,5.17044375 C6.54228,5.17044375 12.7547175,0.10869375 14.95218,2.94811875 C15.55143,3.72331875 15.239055,5.38464375 14.331255,7.84284375 C13.7288175,9.47484375 12.4410675,11.7927937 11.6531175,13.3425562 C10.2875925,15.8166937 8.8442925,18.5209687 7.5756675,21.0665062 C6.303855,23.6209687 4.27788,27.6168187 3.157155,30.2369437 C2.050455,32.8615312 1.3103175,34.6688437 0.50388,37.5662812 C-0.4479075,40.9896562 0.8232675,41.4747937 1.053405,41.5959187 C1.053405,41.5959187 3.47718,42.6497062 6.9368925,36.3958312 C7.6228425,35.1552562 7.9696425,34.6631062 8.65368,33.4085062 L12.734955,25.8809062 L17.51748,16.8271312 C18.2027925,15.5757187 18.890655,14.3236687 19.609755,13.0888312 C19.9686675,12.4717312 20.60808,11.2203187 20.9988675,10.6172437 C21.1926675,10.3169812 21.39603,10.0173562 21.619155,9.73048125 L21.619155,9.72984375 C21.7332675,9.58895625 21.8531175,9.44360625 22.0010175,9.31483125 L22.0010175,9.31419375 C22.07433,9.25108125 22.16103,9.18414375 22.2738675,9.14270625 C22.3261425,9.12230625 22.381605,9.11338125 22.4383425,9.11338125 C22.5059175,9.11338125 22.57668,9.13123125 22.64298,9.16629375 L22.64298,9.16565625 L22.6474425,9.16629375 L22.6474425,9.16756875 L22.6563675,9.16948125 C22.6576425,9.16948125 22.6576425,9.17075625 22.65828,9.17075625 L22.659555,9.17075625 L22.6627425,9.17394375 L22.664655,9.17458125 L22.674855,9.18031875 L22.6754925,9.18031875 L22.679955,9.18541875 C22.83678,9.29315625 22.8782175,9.47165625 22.8782175,9.60935625 L22.87503,9.67629375 C22.8603675,9.83120625 22.8131925,9.96380625 22.7685675,10.0862062 L22.7672925,10.0862062 C22.6869675,10.3488562 22.562655,10.5764437 22.45938,10.8021187 C22.2458175,11.2757812 21.73263,12.3639937 21.4961175,12.8166187 C21.025005,13.7218687 20.5551675,14.6258437 20.1191175,15.5476687 L20.1191175,15.5483062 L17.442255,21.0633187 C16.5478425,22.8999562 14.9974425,26.2863562 14.13363,28.1382937 C13.2723675,29.9908687 12.4015425,31.8396187 11.6263425,33.7234312 C11.2476675,34.6631062 10.95123,35.6372062 10.75743,36.6323437 C10.6254675,37.3335937 10.5298425,38.0475937 10.5298425,38.7558562 C10.5298425,39.0510187 10.5464175,39.3449062 10.5833925,39.6362437 C10.6190925,39.8816812 10.6713675,40.1220187 10.7618925,40.3406812 L10.76253,40.3419562 C10.8473175,40.5548812 10.9875675,40.7346562 11.1737175,40.7984062 C11.26743,40.8277312 11.36433,40.8423937 11.462505,40.8423937 C11.7997425,40.8436687 13.17738,41.1828187 16.4279925,35.9808187 C16.9609425,35.1195562 17.426955,34.2123937 17.9248425,33.3173437 C18.9142425,31.5285187 19.951455,29.7690187 20.9555175,27.9929437 C22.968105,24.4414312 25.5914175,19.3114687 27.550455,15.7287187 L28.5213675,13.7824312 C28.6450425,13.5586687 28.77318,13.3278937 28.9408425,13.1162437 L28.942755,13.1136937 C29.024355,13.0180687 29.1244425,12.8937562 29.289555,12.8344687 L29.289555,12.8331937 L29.292105,12.8331937 L29.29338,12.8331937 L29.404305,12.8134312 C29.57388,12.8166187 29.7185925,12.9313687 29.761305,13.0977562 C29.7785175,13.1697938 29.7861675,13.2418312 29.7861675,13.3119562 C29.7861675,13.5376312 29.7134925,13.7435437 29.6446425,13.9265062 L29.64273,13.9296937 L29.3462925,14.6385937 L28.5149925,16.6524562 L28.514355,16.6537312 L27.300555,19.4695687 L27.2999175,19.4702062 L26.0440425,22.2681937 C25.20573,24.1335187 23.7005925,27.5415937 22.9649175,29.4438937 C22.2330675,31.3474687 21.5420175,33.2797312 21.2309175,35.2910437 C21.175455,35.6907562 21.137205,36.0917437 21.137205,36.4901812 C21.137205,36.5934562 21.1391175,36.6948187 21.1442175,36.7961812 C21.1735425,37.2940687 21.26853,37.7951437 21.5381925,38.1897562 L21.53883,38.1916687 C21.795105,38.5856437 22.2700425,38.7883687 22.7430675,38.8533937 C22.866105,38.8699687 22.9891425,38.8782562 23.11218,38.8782562 C23.473005,38.8782562 23.83638,38.8106812 24.18573,38.7016687 C25.13178,38.4020437 25.989855,37.8563437 26.78418,37.2405187 C27.5753175,36.6195937 28.312905,35.9215312 28.981005,35.1686437 L28.98228,35.1680062 C29.513955,34.5483562 29.575155,35.0016187 29.501205,35.1833062 C29.442555,35.3286562 29.2825425,35.7729937 29.2825425,35.7729937 C29.2506675,35.8584187 29.2238925,35.9444812 29.197755,36.0311812 L29.167155,36.1503937 C29.12763,36.3008437 29.098305,36.4544812 29.075355,36.6093937 C29.0683425,36.6603937 29.0606925,36.7075687 29.05623,36.7521937 C29.047305,36.8369812 29.04093,36.9236812 29.0377425,37.0091062 L29.03583,37.1200312 L29.03583,37.1652937 L29.03583,37.1672062 L29.03583,37.1684812 C29.03583,37.4496187 29.0657925,37.7307562 29.1397425,37.9972312 L29.1397425,37.9991437 L29.156955,38.0673562 C29.18118,38.1438562 29.21178,38.2197187 29.243655,38.2981312 L29.28573,38.3924812 C29.3156925,38.4562312 29.35203,38.5180687 29.394105,38.5824562 L29.46168,38.6838187 C29.50503,38.7405562 29.552205,38.7947437 29.60193,38.8457437 L29.684805,38.9254312 C29.7351675,38.9706937 29.789355,39.0114937 29.8460925,39.0497437 C29.8830675,39.0752437 29.9264175,39.0988312 29.9697675,39.1230562 C30.029055,39.1542937 30.08643,39.1836187 30.1418925,39.2052937 L30.1431675,39.2052937 C30.189705,39.2231437 30.2464425,39.2390812 30.3063675,39.2556562 C30.37458,39.2754187 30.43578,39.2951812 30.4912425,39.3047437 C30.6021675,39.3238687 30.722655,39.3359812 30.852705,39.3385312 L30.91008,39.3391687 C30.9808425,39.3391687 31.051605,39.3359812 31.1223675,39.3302437 L31.1210925,39.3302437 L31.18038,39.3238687 C31.26708,39.3155812 31.35378,39.3009187 31.4385675,39.2830687 L31.513155,39.2664937 C31.59348,39.2460937 31.673805,39.2225062 31.7522175,39.1950937 L31.8210675,39.1702312 C31.9026675,39.1383562 31.9842675,39.1032937 32.0645925,39.0644062 L32.1117675,39.0420937 C32.1997425,38.9974687 32.2851675,38.9496562 32.3693175,38.8973812 L32.369955,38.8961062 L32.38908,38.8833562 C32.48088,38.8259812 32.5694925,38.7641437 32.6561925,38.6984812 C33.00873,38.4269062 33.321105,38.1049687 33.59523,37.7498812 L33.611805,37.7288437 C33.88338,37.3724812 34.116705,36.9823312 34.30668,36.5749687 C34.3264425,36.5341687 34.366605,36.5086687 34.4105925,36.5086687 L34.41123,36.5086687 C34.46988,36.5086687 34.5202425,36.5558437 34.524705,36.6176812 C34.5215175,36.9415312 34.621605,37.4725687 34.621605,37.4725687 C34.64838,37.5783937 34.6706925,37.6772062 34.703205,37.7683687 L34.73763,37.8582562 C34.76823,37.9322062 34.8045675,38.0055187 34.84218,38.0769187 L34.886805,38.1572437 C34.93398,38.2343812 34.9868925,38.3096062 35.0455425,38.3797312 L35.04873,38.3829187 L35.07933,38.4224437 C35.1526425,38.5065937 35.2342425,38.5792687 35.322855,38.6417437 L35.32668,38.6442937 C35.4127425,38.7029437 35.5058175,38.7494812 35.6039925,38.7896437 L35.6422425,38.8049437 C35.7455175,38.8419187 35.84943,38.8712437 35.95398,38.8878187 L35.955255,38.8878187 C35.99988,38.8948312 36.04578,38.8948312 36.0910425,38.8980187 C36.1369425,38.9024812 36.1828425,38.9069437 36.2261925,38.9075812 L36.296955,38.9056687 L36.3014175,38.9056687 C36.383655,38.9056687 36.470355,38.8941937 36.5615175,38.8814437 C36.623355,38.8731562 36.68583,38.8629562 36.7476675,38.8489312 C36.8114175,38.8355437 36.8726175,38.8221562 36.9312675,38.8043062 L36.9325425,38.8043062 C36.995655,38.7864562 37.06068,38.7635062 37.128255,38.7392812 L37.12953,38.7380062 C37.194555,38.7150562 37.2576675,38.6946562 37.3150425,38.6704312 L37.3150425,38.6691562 C37.41003,38.6296312 37.5062925,38.5824562 37.602555,38.5327312 L37.6070175,38.5301812 L37.6439925,38.5123312 C37.84863,38.4039562 38.0456175,38.2809187 38.2368675,38.1470437 L38.293605,38.1062437 L38.29488,38.1062437 C38.472105,37.9793812 38.64423,37.8455062 38.8106175,37.7046187 L38.8118925,37.7046187 L38.8412175,37.6797562 C39.5743425,37.0499062 40.2207675,36.3174187 40.792605,35.5326562 C41.0788425,35.1361312 41.3465925,34.7268562 41.57928,34.2990937" id="Fill-8" fill="#812B22" mask="url(#mask-4)"></path>
                            </g>
                            <path d="M17.46444,46.2399787 C17.7506775,46.2399787 18.0350025,46.3470787 18.2504775,46.5415162 C18.29064,46.5829537 18.3550275,46.5829537 18.396465,46.5415162 L18.850365,46.0633912 C18.896265,46.0155787 18.896265,45.9448162 18.84399,45.8976412 C18.4481025,45.5317162 18.0171525,45.3493912 17.4357525,45.3493912 C16.2716775,45.3493912 15.3345525,46.2986287 15.3345525,47.4805537 C15.3345525,48.6605662 16.2716775,49.5983287 17.4357525,49.5983287 C17.9534025,49.5983287 18.4544775,49.4160037 18.850365,49.0264912 C18.88989,48.9844162 18.896265,48.9072787 18.855465,48.8664787 L18.4009275,48.3768787 C18.3665025,48.3367162 18.29064,48.3367162 18.2504775,48.3711412 C18.04074,48.5534662 17.7443025,48.6535537 17.470815,48.6535537 C16.8135525,48.6535537 16.3239525,48.1110412 16.3239525,47.4556912 C16.3239525,46.7958787 16.807815,46.2399787 17.46444,46.2399787" id="Fill-11" fill="#812B22"></path>
                            <path d="M21.4438425,48.6536812 C20.8101675,48.6536812 20.285505,48.1239187 20.285505,47.4800437 C20.285505,46.8310687 20.8101675,46.2942937 21.4438425,46.2942937 C22.0838925,46.2942937 22.6066425,46.8310687 22.6066425,47.4800437 C22.6066425,48.1239187 22.0838925,48.6536812 21.4438425,48.6536812 M21.4438425,45.3495187 C20.2797675,45.3495187 19.354755,46.2993937 19.354755,47.4800437 C19.354755,48.6594187 20.2797675,49.5978187 21.4438425,49.5978187 C22.6066425,49.5978187 23.53803,48.6594187 23.53803,47.4800437 C23.53803,46.2993937 22.6066425,45.3495187 21.4438425,45.3495187" id="Fill-13" fill="#812B22"></path>
                            <path d="M26.8837575,45.4079775 L24.4752825,45.4079775 C24.410895,45.4079775 24.36372,45.4615275 24.36372,45.5201775 L24.36372,49.4280525 C24.36372,49.486065 24.410895,49.539615 24.4752825,49.539615 L25.1612325,49.539615 C25.2211575,49.539615 25.2721575,49.486065 25.2721575,49.4280525 L25.2721575,47.9936775 L26.5994325,47.9936775 C26.6568075,47.9936775 26.7103575,47.940765 26.7103575,47.8814775 L26.7103575,47.23824 C26.7103575,47.178315 26.6568075,47.1266775 26.5994325,47.1266775 L25.2721575,47.1266775 L25.2721575,46.2749775 L26.8837575,46.2749775 C26.9487825,46.2749775 26.99532,46.2227025 26.99532,46.163415 L26.99532,45.5201775 C26.99532,45.4615275 26.9487825,45.4079775 26.8837575,45.4079775" id="Fill-15" fill="#812B22"></path>
                            <path d="M30.2810587,45.4079775 L27.8719463,45.4079775 C27.8081963,45.4079775 27.7610212,45.4615275 27.7610212,45.5201775 L27.7610212,49.4280525 C27.7610212,49.486065 27.8081963,49.539615 27.8719463,49.539615 L28.5578962,49.539615 C28.6171838,49.539615 28.6694588,49.486065 28.6694588,49.4280525 L28.6694588,47.9936775 L29.9960963,47.9936775 C30.0541088,47.9936775 30.1063837,47.940765 30.1063837,47.8814775 L30.1063837,47.23824 C30.1063837,47.178315 30.0541088,47.1266775 29.9960963,47.1266775 L28.6694588,47.1266775 L28.6694588,46.2749775 L30.2810587,46.2749775 C30.3448088,46.2749775 30.3919838,46.2227025 30.3919838,46.163415 L30.3919838,45.5201775 C30.3919838,45.4615275 30.3448088,45.4079775 30.2810587,45.4079775" id="Fill-17" fill="#812B22"></path>
                            <path d="M33.6765113,45.4079775 L31.2686738,45.4079775 C31.2042863,45.4079775 31.1571113,45.4615275 31.1571113,45.5201775 L31.1571113,49.4280525 C31.1571113,49.486065 31.2042863,49.539615 31.2686738,49.539615 L33.6765113,49.539615 C33.7415363,49.539615 33.7887113,49.486065 33.7887113,49.4280525 L33.7887113,48.78354 C33.7887113,48.7255275 33.7415363,48.6719775 33.6765113,48.6719775 L32.0655488,48.6719775 L32.0655488,47.87574 L33.3921863,47.87574 C33.4501988,47.87574 33.5024738,47.8279275 33.5024738,47.76354 L33.5024738,47.119665 C33.5024738,47.061015 33.4501988,47.007465 33.3921863,47.007465 L32.0655488,47.007465 L32.0655488,46.2749775 L33.6765113,46.2749775 C33.7415363,46.2749775 33.7887113,46.2227025 33.7887113,46.163415 L33.7887113,45.5201775 C33.7887113,45.4615275 33.7415363,45.4079775 33.6765113,45.4079775" id="Fill-19" fill="#812B22"></path>
                            <path d="M37.20705,45.4079775 L34.7979375,45.4079775 C34.7341875,45.4079775 34.6882875,45.4615275 34.6882875,45.5201775 L34.6882875,49.4280525 C34.6882875,49.486065 34.7341875,49.539615 34.7979375,49.539615 L37.20705,49.539615 C37.272075,49.539615 37.31925,49.486065 37.31925,49.4280525 L37.31925,48.78354 C37.31925,48.7255275 37.272075,48.6719775 37.20705,48.6719775 L35.596725,48.6719775 L35.596725,47.87574 L36.9220875,47.87574 C36.9807375,47.87574 37.03365,47.8279275 37.03365,47.76354 L37.03365,47.119665 C37.03365,47.061015 36.9807375,47.007465 36.9220875,47.007465 L35.596725,47.007465 L35.596725,46.2749775 L37.20705,46.2749775 C37.272075,46.2749775 37.31925,46.2227025 37.31925,46.163415 L37.31925,45.5201775 C37.31925,45.4615275 37.272075,45.4079775 37.20705,45.4079775" id="Fill-21" fill="#812B22"></path>
                            <g id="Group-25" transform="translate(39.525000, 45.136339)">
                                <mask id="mask-6" fill="white">
                                    <use xlink:href="#path-5"></use>
                                </mask>
                                <g id="Clip-24"></g>
                                <path d="M1.3837575,3.72497625 C1.075845,3.72497625 0.8367825,3.50567625 0.8367825,3.22326375 C0.8367825,2.74577625 1.2498825,2.60297625 1.2498825,2.60297625 L2.0123325,3.42343875 C2.0123325,3.42343875 1.8376575,3.72497625 1.3837575,3.72497625 L1.3837575,3.72497625 Z M1.41882,0.87343875 C1.66872,0.87343875 1.848495,1.05066375 1.848495,1.25083875 C1.848495,1.58233875 1.4717325,1.75318875 1.4717325,1.75318875 L1.3429575,1.62377625 C1.1912325,1.45228875 1.075845,1.33945125 1.075845,1.16286375 C1.075845,1.01050125 1.2027075,0.87343875 1.41882,0.87343875 L1.41882,0.87343875 Z M3.0361575,3.33482625 C3.0361575,3.32398875 3.26247,3.01097625 3.40272,2.59660125 C3.42567,2.52647625 3.490695,2.38431375 3.3268575,2.32630125 L2.9022825,2.17266375 C2.7454575,2.11337625 2.7097575,2.20772625 2.6753325,2.33203875 C2.6358075,2.47356375 2.55867,2.66226375 2.483445,2.78593875 L1.9587825,2.24342625 C1.9587825,2.19561375 2.59437,1.84753875 2.59437,1.19856375 C2.59437,0.64967625 2.093295,0.21362625 1.4296575,0.21362625 C0.6850575,0.21362625 0.30192,0.72171375 0.30192,1.16923875 C0.30192,1.51157625 0.4530075,1.76530125 0.6850575,2.01328875 L0.80172,2.13696375 L0.80172,2.15545125 C0.80172,2.15545125 0.004845,2.49141375 0.004845,3.33992625 C0.004845,3.95511375 0.540345,4.46256375 1.2843075,4.46256375 C2.1576825,4.46256375 2.55357,4.00802625 2.55357,4.00802625 L2.932245,4.39116375 C3.02532,4.48487625 3.123495,4.47340125 3.1942575,4.41028875 L3.5193825,4.07241375 C3.66537,3.92578875 3.60672,3.87160125 3.53022,3.80083875 L3.0361575,3.33482625 Z" id="Fill-23" fill="#812B22" mask="url(#mask-6)"></path>
                            </g>
                            <path d="M47.0478187,46.2399787 C47.3334187,46.2399787 47.6190188,46.3470787 47.8332188,46.5415162 C47.8746563,46.5829537 47.9390437,46.5829537 47.9798438,46.5415162 L48.4331063,46.0633912 C48.4796438,46.0155787 48.4796438,45.9448162 48.4273687,45.8976412 C48.0321188,45.5317162 47.6011687,45.3493912 47.0191313,45.3493912 C45.8544188,45.3493912 44.9185687,46.2986287 44.9185687,47.4805537 C44.9185687,48.6605662 45.8544188,49.5983287 47.0191313,49.5983287 C47.5374188,49.5983287 48.0372188,49.4160037 48.4331063,49.0264912 C48.4732688,48.9844162 48.4796438,48.9072787 48.4394813,48.8664787 L47.9849437,48.3768787 C47.9498813,48.3367162 47.8746563,48.3367162 47.8332188,48.3711412 C47.6247563,48.5534662 47.3270438,48.6535537 47.0541938,48.6535537 C46.3969313,48.6535537 45.9079688,48.1110412 45.9079688,47.4556912 C45.9079688,46.7958787 46.3918313,46.2399787 47.0478187,46.2399787" id="Fill-26" fill="#812B22"></path>
                            <path d="M50.2365937,48.123855 L50.6732812,47.149755 L50.6777437,47.149755 L51.1208062,48.123855 L50.2365937,48.123855 Z M50.7077063,45.349455 L50.6490563,45.349455 C50.6088938,45.349455 50.5680937,45.3781425 50.5502437,45.41448 L48.7301812,49.3854675 C48.6951187,49.4632425 48.7410187,49.539105 48.8277188,49.539105 L49.4696812,49.539105 C49.5850687,49.539105 49.6481812,49.46898 49.6781437,49.3969425 L49.8872437,48.92583 L51.4701562,48.92583 L51.6792562,49.3918425 C51.7321687,49.5040425 51.7793437,49.539105 51.8832562,49.539105 L52.5296812,49.539105 C52.6157437,49.539105 52.6635562,49.4632425 52.6284937,49.3854675 L50.8065187,45.41448 C50.7893062,45.3781425 50.7491437,45.349455 50.7077063,45.349455 L50.7077063,45.349455 Z" id="Fill-28" fill="#812B22"></path>
                            <path d="M55.0651462,47.3553487 L56.4255712,45.6277237 C56.4905963,45.5378362 56.4319463,45.4084237 56.3222962,45.4084237 L55.5885337,45.4084237 C55.5534713,45.4084237 55.5011962,45.4383862 55.4769712,45.4670737 L54.1866712,47.1022612 L54.1866712,45.5499487 C54.1866712,45.4728112 54.1216462,45.4084237 54.0464213,45.4084237 L53.3655713,45.4084237 C53.2846087,45.4084237 53.2253213,45.4728112 53.2253213,45.5499487 L53.2253213,49.3972612 C53.2253213,49.4743987 53.2846087,49.5394237 53.3655713,49.5394237 L54.0464213,49.5394237 C54.1216462,49.5394237 54.1866712,49.4743987 54.1866712,49.3972612 L54.1866712,47.6390362 L55.5298837,49.4928862 C55.5419963,49.5094612 55.5942712,49.5330487 55.6350713,49.5330487 L56.4376838,49.5330487 C56.5479712,49.5330487 56.6129962,49.4042737 56.5479712,49.3162987 L55.0651462,47.3553487 Z" id="Fill-30" fill="#812B22"></path>
                            <path d="M59.7829013,45.4079775 L57.3737888,45.4079775 C57.3100387,45.4079775 57.2628638,45.4615275 57.2628638,45.5201775 L57.2628638,49.4280525 C57.2628638,49.486065 57.3100387,49.539615 57.3737888,49.539615 L59.7829013,49.539615 C59.8479263,49.539615 59.8938263,49.486065 59.8938263,49.4280525 L59.8938263,48.78354 C59.8938263,48.7255275 59.8479263,48.6719775 59.7829013,48.6719775 L58.1713012,48.6719775 L58.1713012,47.87574 L59.4979388,47.87574 C59.5559513,47.87574 59.6095013,47.8279275 59.6095013,47.76354 L59.6095013,47.119665 C59.6095013,47.061015 59.5559513,47.007465 59.4979388,47.007465 L58.1713012,47.007465 L58.1713012,46.2749775 L59.7829013,46.2749775 C59.8479263,46.2749775 59.8938263,46.2227025 59.8938263,46.163415 L59.8938263,45.5201775 C59.8938263,45.4615275 59.8479263,45.4079775 59.7829013,45.4079775" id="Fill-32" fill="#812B22"></path>
                            <path d="M64.1744475,45.4079775 L63.481485,45.4079775 C63.4183725,45.4079775 63.371835,45.4615275 63.371835,45.5201775 L63.371835,47.007465 L61.70796,47.007465 L61.70796,45.5201775 C61.70796,45.4615275 61.66206,45.4079775 61.597035,45.4079775 L60.90471,45.4079775 C60.84606,45.4079775 60.7931475,45.4615275 60.7931475,45.5201775 L60.7931475,49.4280525 C60.7931475,49.486065 60.84606,49.539615 60.90471,49.539615 L61.597035,49.539615 C61.66206,49.539615 61.70796,49.486065 61.70796,49.4280525 L61.70796,47.87574 L63.371835,47.87574 L63.371835,49.4280525 C63.371835,49.486065 63.4183725,49.539615 63.481485,49.539615 L64.1744475,49.539615 C64.2330975,49.539615 64.28601,49.486065 64.28601,49.4280525 L64.28601,45.5201775 C64.28601,45.4615275 64.2330975,45.4079775 64.1744475,45.4079775" id="Fill-34" fill="#812B22"></path>
                            <path d="M67.2000225,48.6536812 C66.5663475,48.6536812 66.0423225,48.1239187 66.0423225,47.4800437 C66.0423225,46.8310687 66.5663475,46.2942937 67.2000225,46.2942937 C67.84071,46.2942937 68.364735,46.8310687 68.364735,47.4800437 C68.364735,48.1239187 67.84071,48.6536812 67.2000225,48.6536812 M67.2000225,45.3495187 C66.0359475,45.3495187 65.110935,46.2993937 65.110935,47.4800437 C65.110935,48.6594187 66.0359475,49.5978187 67.2000225,49.5978187 C68.364735,49.5978187 69.295485,48.6594187 69.295485,47.4800437 C69.295485,46.2993937 68.364735,45.3495187 67.2000225,45.3495187" id="Fill-36" fill="#812B22"></path>
                            <path d="M73.2687675,45.4079775 L72.55413,45.4079775 C72.489105,45.4079775 72.44193,45.4615275 72.44193,45.5201775 L72.44193,47.9108025 C72.44193,48.3239025 72.134655,48.65349 71.7145425,48.65349 C71.30208,48.65349 70.999905,48.3239025 70.999905,47.9108025 L70.999905,45.5201775 C70.999905,45.4615275 70.95273,45.4079775 70.890255,45.4079775 L70.1730675,45.4079775 C70.1156925,45.4079775 70.06278,45.4615275 70.06278,45.5201775 L70.06278,47.958615 C70.06278,48.85494 70.80228,49.598265 71.7145425,49.598265 C72.634455,49.598265 73.38033,48.85494 73.38033,47.958615 L73.38033,45.5201775 C73.38033,45.4615275 73.328055,45.4079775 73.2687675,45.4079775" id="Fill-38" fill="#812B22"></path>
                            <path d="M75.7409288,47.0303513 C75.2812913,46.8422888 75.1078913,46.6765387 75.1078913,46.4591513 C75.1078913,46.2991388 75.2640787,46.1582512 75.4738163,46.1582512 C75.8289038,46.1582512 76.2534787,46.4821012 76.3057538,46.5120638 C76.3586662,46.5528638 76.4625788,46.4993137 76.5033787,46.4355638 L76.8004538,45.9810262 C76.8240413,45.9389513 76.8355162,45.8324888 76.7653913,45.7923263 C76.5907162,45.6622763 76.1253413,45.3499013 75.5197163,45.3499013 C74.6240288,45.3499013 74.1765038,45.9389513 74.1765038,46.5241763 C74.1765038,47.2318013 74.8038038,47.6276888 75.3048788,47.8272263 C75.7014038,47.9866012 75.9034913,48.1759388 75.9034913,48.4245638 C75.9034913,48.6311138 75.7345538,48.7777388 75.5037788,48.7777388 C75.1193663,48.7777388 74.6992538,48.4653638 74.6763038,48.4526138 C74.6355038,48.4245638 74.5252163,48.4124513 74.4793163,48.4876762 L74.2058288,48.9798263 C74.1586537,49.0620638 74.1765038,49.0856513 74.2345162,49.1430263 C74.3683913,49.2800888 74.7865913,49.5988387 75.5433038,49.5988387 C76.3994663,49.5988387 76.9171163,48.9849263 76.9171163,48.3767513 C76.9171163,47.5747762 76.1961038,47.2145888 75.7409288,47.0303513" id="Fill-40" fill="#812B22"></path>
                            <path d="M80.2662863,45.4079775 L77.8578113,45.4079775 C77.7934238,45.4079775 77.7462488,45.4615275 77.7462488,45.5201775 L77.7462488,49.4280525 C77.7462488,49.486065 77.7934238,49.539615 77.8578113,49.539615 L80.2662863,49.539615 C80.3313113,49.539615 80.3772113,49.486065 80.3772113,49.4280525 L80.3772113,48.78354 C80.3772113,48.7255275 80.3313113,48.6719775 80.2662863,48.6719775 L78.6546863,48.6719775 L78.6546863,47.87574 L79.9813238,47.87574 C80.0393363,47.87574 80.0928863,47.8279275 80.0928863,47.76354 L80.0928863,47.119665 C80.0928863,47.061015 80.0393363,47.007465 79.9813238,47.007465 L78.6546863,47.007465 L78.6546863,46.2749775 L80.2662863,46.2749775 C80.3313113,46.2749775 80.3772113,46.2227025 80.3772113,46.163415 L80.3772113,45.5201775 C80.3772113,45.4615275 80.3313113,45.4079775 80.2662863,45.4079775" id="Fill-42" fill="#812B22"></path>
                        </g>
                    </g>
                </g>
            </g>
        </g>
    </g>
</svg>