<?xml version="1.0" encoding="UTF-8"?>
<svg width="108px" height="56px" viewBox="0 0 108 56" version="1.1" xmlns="http://www.w3.org/2000/svg" xmlns:xlink="http://www.w3.org/1999/xlink">
    <!-- Generator: Sketch 59.1 (86144) - https://sketch.com -->
    <title>pitpower</title>
    <desc>Created with Sketch.</desc>
    <defs>
        <polygon id="path-1" points="0 55.8654 107.9568 55.8654 107.9568 0 0 0"></polygon>
    </defs>
    <g id="TELLALL-WEBSITE" stroke="none" stroke-width="1" fill="none" fill-rule="evenodd" opacity="0.600000024">
        <g id="Tellall-2" transform="translate(-501.000000, -1005.000000)">
            <g id="KLIENTET" transform="translate(0.000000, 768.000000)">
                <g id="clients" transform="translate(202.000000, 193.000000)">
                    <g transform="translate(23.000000, 36.000000)" id="pitpower">
                        <g transform="translate(276.000000, 8.000000)">
                            <path d="M79.0867837,12.2523038 L88.0889212,12.2523038 L90.6516712,0.36866625 L47.9876213,0.36739125 L47.9876213,2.41185375 C46.2160088,0.82894125 43.9637213,0.00019125 41.3945963,0.00019125 L15.7855838,0.00019125 L20.6350463,12.0253538 L22.4206838,12.0234413 L22.1306213,30.3451912 L35.7119213,24.9710662 L35.7119213,20.2261538 L41.3945963,20.2261538 C43.9439587,20.2261538 46.2415088,19.3757288 47.9876213,17.8189537 L47.9876213,26.0280413 L60.9658463,26.0280413 L60.9658463,12.2523038 L66.1085588,12.2523038 L66.1085588,24.9041288 L77.7021338,29.9869163 L79.0772213,30.6448162 L79.0867837,12.2523038 Z" id="Fill-1" fill="#ED1D24"></path>
                            <path d="M97.0781175,31.84797 C99.29088,31.84797 101.212305,32.80932 102.48858,34.554795 C103.51623,35.9349825 104.039618,37.5937575 104.039618,39.478845 C104.039618,41.36967 103.512405,43.0341825 102.472643,44.42712 C102.076118,44.96772 101.44053,45.3852825 100.829805,45.73017 L107.956418,55.5342825 L93.7006425,51.3357075 L92.9279925,49.94022 L92.9279925,51.6697575 L65.24328,51.6697575 L65.24328,43.145745 L62.212605,51.6697575 L55.06878,51.6697575 L54.0621675,48.8239575 L53.05428,51.6697575 L45.8868675,51.6697575 L43.70343,45.5293575 C43.4592675,47.0733825 42.740805,48.4478325 41.58948,49.553895 C40.12323,50.9583075 38.3273925,51.6697575 36.2504175,51.6697575 L28.15863,51.6697575 C26.0797425,51.6697575 24.2832675,50.9583075 22.820205,49.553895 C21.835905,48.610395 21.167805,47.46927 20.8420425,46.19427 C19.8271425,46.81137 18.65223,47.13777 17.38998,47.13777 L13.8588675,47.13777 L13.8588675,50.680995 L4.17843,55.865145 L4.4340675,40.98207 L3.279555,40.98462 L0.000255,31.84797 L17.38998,31.84797 C19.4318925,31.84797 21.24048,32.7028575 22.52313,34.264095 C22.6181175,34.162095 22.71693,34.0620075 22.8182925,33.9638325 C24.283905,32.55942 26.08038,31.84797 28.15863,31.84797 L36.2504175,31.84797 C37.2347175,31.84797 38.155905,32.0079825 39.0095175,32.326095 L38.84058,31.85052 L48.7224675,31.85052 L49.429455,33.8643825 L50.12178,31.85052 L66.87783,31.85052 L67.514055,31.85052 L97.0781175,31.84797 Z" id="Fill-3" fill="#ED1D24"></path>
                            <path d="M105.260749,53.6833013 L94.5118612,50.5168388 L91.7922862,45.6087263 L91.7922862,50.6660138 L66.3789862,50.6660138 L66.3789862,36.6034013 L61.3797112,50.6660138 L55.9035862,50.6660138 L54.0631238,45.4621013 L52.2201112,50.6660138 L46.7203988,50.6660138 L42.6620738,39.2522138 L42.6620738,44.3184263 C42.6620738,46.1008763 42.0009862,47.6767763 40.7533988,48.8746388 C39.5128237,50.0635763 37.9974863,50.6660138 36.2500988,50.6660138 L28.1589488,50.6660138 C26.4109237,50.6660138 24.8949487,50.0635763 23.6556487,48.8746388 C22.4067862,47.6767763 21.7463362,46.1008763 21.7463362,44.3184263 L21.7463362,43.9556888 C20.6651362,45.3798638 19.1599988,46.1340263 17.3902987,46.1340263 L12.7237988,46.1340263 L12.7237988,50.1164888 L5.34537375,54.0677138 L5.53088625,43.3443263 L5.57997375,40.3697513 L5.59336125,39.9764138 L4.11053625,39.9796013 L1.55161125,32.8510763 L17.3902987,32.8510763 C19.1931487,32.8510763 20.7225112,33.6364763 21.8145487,35.1244013 C22.0689112,35.4641888 22.2901237,35.8205513 22.4730863,36.1973138 C22.7758987,35.6299388 23.1717863,35.1071888 23.6556487,34.6424513 C24.8949487,33.4541513 26.4077363,32.8510763 28.1589488,32.8510763 L36.2500988,32.8510763 C37.9974863,32.8510763 39.5096362,33.4541513 40.7508487,34.6399013 C40.9032112,34.7865263 41.0472862,34.9414388 41.1843487,35.0995388 L40.3874737,32.8542638 L47.8863863,32.8542638 L49.4399738,37.2829763 L50.9635988,32.8542638 L58.8858113,32.8542638 L57.8237362,35.0243138 L58.6378237,37.3633013 L60.2487862,32.8542638 L82.7314987,32.8542638 L82.7314987,32.8510763 L97.0784362,32.8510763 C98.9163487,32.8510763 100.459736,33.6281888 101.535199,35.0995388 C102.438536,36.3133388 102.903911,37.7897888 102.903911,39.4785263 C102.903911,41.1717263 102.438536,42.6507263 101.524999,43.8753638 C101.046874,44.5249763 99.8980987,45.0419888 99.2491237,45.4130138 L105.260749,53.6833013 Z" id="Fill-5" fill="#231F20"></path>
                            <path d="M88.5637313,1.76593875 L59.5192313,1.76593875 L59.5192313,1.76530125 L49.4352563,1.76530125 L49.4352563,7.02531375 C49.0903688,6.06587625 48.5759063,5.17528875 47.8937813,4.36247625 C46.2879188,2.42256375 44.0400938,1.39746375 41.3944688,1.39746375 L17.9013188,1.39746375 L21.6236813,10.6265513 L23.8899938,10.6246388 L23.6107688,28.2496012 L34.2653063,24.0338137 L34.2653063,18.8286262 L41.3944688,18.8286262 C44.0477438,18.8286262 46.2930188,17.8041637 47.8650938,15.8954888 C48.5618813,15.0877763 49.0859063,14.1971887 49.4352563,13.2307387 L49.4352563,24.6311512 L59.5192313,24.6311512 L59.5192313,10.8547763 L67.5561938,10.8547763 L67.5561938,23.9962012 L77.6395313,28.3267387 L77.6395313,10.8547763 L86.6410313,10.8547763 L88.5637313,1.76593875 Z" id="Fill-7" fill="#231F20"></path>
                            <path d="M20.71977,35.9484337 C19.8840075,34.8124087 18.76137,34.2341962 17.390745,34.2341962 L3.5015325,34.2341962 L5.066595,38.5946962 L12.6012075,38.5864087 C12.6012075,38.5864087 12.6037575,38.5895962 12.60567,38.5915087 L12.734445,38.5915087 L17.003145,38.5864087 L17.37927,38.5864087 C17.3824575,38.5895962 17.5380075,38.7502462 17.5380075,39.5075962 C17.5380075,40.2311587 17.390745,40.3918087 17.390745,40.3918087 L11.3580825,40.3918087 L11.3580825,39.0097087 L6.97017,39.6185213 L6.9453075,40.3918087 L6.8968575,43.3695712 L6.8713575,44.7523087 L6.7515075,51.7514212 L11.3580825,49.2842962 L11.3580825,44.7523087 L17.390745,44.7523087 C18.76137,44.7523087 19.8840075,44.1766462 20.7140325,43.0463587 C21.465645,42.0677962 21.8449575,40.8756712 21.8449575,39.5075962 C21.8449575,38.1439837 21.465645,36.9435712 20.71977,35.9484337" id="Fill-9" fill="#CCCECF"></path>
                            <path d="M36.990045,44.3128163 C36.990045,44.6589788 36.9358575,44.9209913 36.250545,44.9209913 L28.15812,44.9209913 C27.4728075,44.9209913 27.41862,44.6589788 27.41862,44.3128163 L27.41862,39.2051663 C27.41862,38.8602788 27.4728075,38.5950788 28.15812,38.5950788 L36.250545,38.5950788 C36.9358575,38.5950788 36.990045,38.8602788 36.990045,39.2051663 L36.990045,44.3128163 Z M39.8109825,35.6440913 C38.836245,34.7101538 37.6371075,34.2339413 36.250545,34.2339413 L28.15812,34.2339413 C26.76837,34.2339413 25.5692325,34.7101538 24.5951325,35.6440913 C23.61147,36.5901413 23.11167,37.7867288 23.11167,39.2000663 L23.11167,44.3179163 C23.11167,45.7312538 23.61147,46.9291163 24.5951325,47.8719788 C25.5717825,48.8091038 26.7715575,49.2840413 28.15812,49.2840413 L36.250545,49.2840413 C37.6371075,49.2840413 38.836245,48.8091038 39.8135325,47.8719788 C40.7965575,46.9291163 41.296995,45.7312538 41.296995,44.3179163 L41.296995,39.2000663 C41.296995,37.7867288 40.7965575,36.5901413 39.8109825,35.6440913 L39.8109825,35.6440913 Z" id="Fill-11" fill="#CCCECF"></path>
                            <polygon id="Fill-13" fill="#CCCECF" points="56.8658287 49.2827025 54.0633787 41.364315 51.2602912 49.2827025 47.6788162 49.2827025 42.3301912 34.2351525 46.9208288 34.2351525 49.4517038 41.4491025 51.9334913 34.2351525 56.6847787 34.2351525 56.3430788 34.9338525 58.6234163 41.4720525 61.2072037 34.2351525 65.7697912 34.2351525 60.4205287 49.2827025"></polygon>
                            <polygon id="Fill-15" fill="#CCCECF" points="67.7441288 49.2827025 67.7441288 34.2351525 83.2704413 34.2351525 82.7241038 38.59629 72.0510788 38.59629 72.0510788 44.921565 83.5158787 44.921565 83.5158787 49.2827025"></polygon>
                            <path d="M97.0734638,44.7246413 L97.0785638,44.7246413 C98.4887137,44.7246413 99.6177263,44.1572663 100.434364,43.0403663 C101.166851,42.0618038 101.538514,40.8613913 101.538514,39.4792913 C101.538514,38.0971913 101.166851,36.8993288 100.437551,35.9239538 C99.6177263,34.8032288 98.4887137,34.2339413 97.0785638,34.2339413 L83.9358637,34.2339413 L83.3895262,38.5950788 L96.8930512,38.5950788 C96.9746512,38.5950788 97.2322012,38.5950788 97.2322012,39.4792913 C97.2322012,40.3641413 96.9746512,40.3641413 96.8930512,40.3641413 L90.4268888,40.3641413 L90.4268888,38.9654663 L86.1205762,39.5181788 L86.1205762,49.2846788 L90.4268888,49.2846788 L90.4268888,40.4527538 L90.6755137,40.7345288 L95.2540387,49.2846788 L101.433964,51.0467288 L97.0734638,44.7246413 Z" id="Fill-17" fill="#CCCECF"></path>
                            <mask id="mask-2" fill="white">
                                <use xlink:href="#path-1"></use>
                            </mask>
                            <g id="Clip-20"></g>
                            <polygon id="Fill-19" fill="#CCCECF" mask="url(#mask-2)" points="72.93 43.36275 80.7578625 43.36275 80.7578625 40.1554875 72.93 40.1554875"></polygon>
                            <polygon id="Fill-21" fill="#CCCECF" mask="url(#mask-2)" points="51.3334125 22.920675 57.6217125 22.920675 57.6217125 3.4750125 51.3334125 3.4750125"></polygon>
                            <polygon id="Fill-22" fill="#CCCECF" mask="url(#mask-2)" points="75.7418213 9.147615 75.7418213 25.6174275 69.4535212 22.9169775 69.4535212 9.892215"></polygon>
                            <polygon id="Fill-23" fill="#CCCECF" mask="url(#mask-2)" points="84.7440225 9.14512875 60.4565475 9.14512875 60.4565475 3.47584125 86.026035 3.47584125"></polygon>
                            <path d="M46.3769775,5.390445 C45.12684,3.87702 43.44639,3.10692 41.394915,3.10692 L20.609865,3.10692 L22.9514025,8.9151825 L34.2275025,8.904345 C34.2275025,8.904345 34.2300525,8.9088075 34.234515,8.9126325 L34.42704,8.9126325 L40.813515,8.904345 L41.3777025,8.904345 C41.3828025,8.9088075 41.61549,9.12237 41.61549,10.1315325 C41.61549,11.0967075 41.394915,11.3109075 41.394915,11.3109075 L32.3672775,11.3109075 L32.3672775,9.467895 L25.80039,10.2781575 L25.763415,11.3109075 L25.69074,15.2774325 L25.65249,17.1185325 L25.54284,25.6176825 L32.3672775,22.9172325 L32.3672775,17.1185325 L41.394915,17.1185325 C43.44639,17.1185325 45.12684,16.352895 46.3680525,14.8464825 C47.491965,13.5421575 48.060615,11.954145 48.060615,10.1315325 C48.060615,8.315295 47.491965,6.716445 46.3769775,5.390445" id="Fill-24" fill="#CCCECF" mask="url(#mask-2)"></path>
                        </g>
                    </g>
                </g>
            </g>
        </g>
    </g>
</svg>