<?xml version="1.0" encoding="UTF-8"?>
<svg width="165px" height="20px" viewBox="0 0 165 20" version="1.1" xmlns="http://www.w3.org/2000/svg" xmlns:xlink="http://www.w3.org/1999/xlink">
    <!-- Generator: Sketch 59.1 (86144) - https://sketch.com -->
    <title>provacenter</title>
    <desc>Created with Sketch.</desc>
    <defs>
        <polygon id="path-1" points="0 0.0898875 18.39672 0.0898875 18.39672 18.4875 0 18.4875"></polygon>
    </defs>
    <g id="TELLALL-WEBSITE" stroke="none" stroke-width="1" fill="none" fill-rule="evenodd" opacity="0.600000024">
        <g id="Tellall-2" transform="translate(-980.000000, -1252.000000)">
            <g id="KLIENTET" transform="translate(0.000000, 768.000000)">
                <g id="clients" transform="translate(202.000000, 193.000000)">
                    <g transform="translate(23.000000, 36.000000)" id="provacenter">
                        <g transform="translate(755.000000, 255.000000)">
                            <path d="M12.02121,9.836625 C12.02121,11.394675 10.75641,12.6601125 9.1977225,12.6601125 C7.6383975,12.6601125 6.37551,11.394675 6.37551,9.836625 C6.37551,8.2779375 7.6383975,7.0144125 9.19836,7.0144125 C10.75641,7.0144125 12.02121,8.2779375 12.02121,9.836625" id="Fill-1" fill="#419DD7"></path>
                            <g id="Group-5" transform="translate(0.000000, 0.547804)">
                                <mask id="mask-2" fill="white">
                                    <use xlink:href="#path-1"></use>
                                </mask>
                                <g id="Clip-4"></g>
                                <path d="M16.2222075,12.6624712 L16.2183825,12.6637463 L16.2183825,12.6707587 C16.2183825,14.6833462 14.5863825,16.3159838 12.5731575,16.3159838 C12.5451075,16.3159838 12.5196075,16.3127962 12.4915575,16.3121587 L5.8947075,16.3121587 C5.86857,16.3127962 5.841795,16.3159838 5.81502,16.3159838 C3.8011575,16.3159838 2.1678825,14.6833462 2.1678825,12.6707587 C2.1678825,12.6299587 2.1729825,12.5917087 2.1729825,12.5528213 L2.1729825,6.03438375 C2.1729825,5.99358375 2.16852,5.95597125 2.16852,5.91517125 C2.16852,5.87628375 2.1729825,5.83739625 2.1729825,5.79787125 L2.1729825,5.77874625 L2.174895,5.77874625 C2.248845,3.83883375 3.832395,2.28652125 5.78697,2.27058375 L5.7876075,2.26357125 L12.5731575,2.26357125 L12.5731575,2.26930875 C14.5863825,2.26930875 16.2183825,3.90258375 16.2183825,5.91517125 L16.2222075,5.91517125 L16.2222075,12.6624712 Z M18.39672,0.08969625 L12.7529325,0.08969625 L12.754845,0.09288375 C12.7427325,0.09288375 12.7312575,0.08969625 12.719145,0.08969625 L5.67732,0.08969625 C2.5478325,0.08969625 -0.000255,2.63842125 -0.000255,5.76790875 L-0.000255,12.8097338 C-0.000255,15.9404963 2.5478325,18.4879463 5.67732,18.4879463 L12.719145,18.4879463 C15.84927,18.4879463 18.39672,15.9404963 18.39672,12.8097338 L18.39672,5.76790875 C18.39672,5.75515875 18.395445,5.74432125 18.39417,5.73157125 L18.39672,5.73348375 L18.39672,0.08969625 Z" id="Fill-3" fill="#419DD7" mask="url(#mask-2)"></path>
                            </g>
                            <path d="M32.3321512,8.04990375 C32.3321512,8.34697875 32.2881637,8.61281625 32.2001887,8.84486625 C32.1109387,9.07946625 31.9859887,9.28027875 31.8266137,9.44539125 C31.6666012,9.61050375 31.4740762,9.73991625 31.2503137,9.84000375 C31.0259137,9.93754125 30.7753762,9.99810375 30.4993387,10.0223288 L24.7580137,10.0223288 L24.7580137,5.96336625 C24.7580137,5.66246625 24.8338762,5.43041625 24.9836887,5.27167875 C25.1322262,5.11230375 25.3521637,5.03325375 25.6390387,5.03325375 L30.4993387,5.03325375 C30.7804762,5.03325375 31.0297387,5.08106625 31.2464887,5.17924125 C31.4619637,5.27677875 31.6455638,5.41192875 31.7979262,5.58341625 C31.9496512,5.75490375 32.0695013,5.96081625 32.1581137,6.20434125 C32.2460887,6.44722875 32.3047387,6.71306625 32.3321512,7.00312875 L32.3321512,8.04990375 Z M34.1031262,5.13397875 C33.9673387,4.81777875 33.7964887,4.51432875 33.5899388,4.22426625 C33.3814762,3.93420375 33.1303013,3.67792875 32.8345012,3.45671625 C32.5374262,3.23486625 32.1963637,3.05700375 31.8094013,2.92376625 C31.4218013,2.79052875 30.9863887,2.72486625 30.4993387,2.72486625 L25.6224638,2.72486625 C25.3234762,2.72486625 24.9983512,2.78224125 24.6432637,2.89699125 C24.2894512,3.01301625 23.9617762,3.19661625 23.6602387,3.45225375 C23.3599762,3.70725375 23.1062512,4.04130375 22.9060762,4.45504125 C22.7027137,4.86877875 22.6019888,5.37240375 22.6019888,5.96336625 L22.6019888,15.4551037 L24.7580137,15.4551037 L24.7580137,12.3300788 L30.4993387,12.3307163 C30.7651762,12.3307163 31.0475887,12.2975662 31.3497638,12.2319038 C31.6506637,12.1668787 31.9496512,12.0636037 32.2448137,11.9214412 C32.5406137,11.7805538 32.8243012,11.5963162 33.0952388,11.3700038 C33.3655387,11.1456037 33.6052387,10.8759413 33.8130637,10.5584663 C34.0189763,10.2422663 34.1847262,9.87697875 34.3064887,9.46260375 C34.4288887,9.04759125 34.4888137,8.57711625 34.4888137,8.04990375 L34.4888137,7.00312875 C34.4888137,6.71944125 34.4594887,6.41535375 34.3982887,6.09277875 C34.3370887,5.77084125 34.2382762,5.45081625 34.1031262,5.13397875 L34.1031262,5.13397875 Z" id="Fill-6" fill="#419DD7"></path>
                            <path d="M38.2184438,8.9825025 L38.2184438,5.031915 L45.3354938,5.031915 C45.3782062,5.031915 45.4285688,5.03574 45.4782938,5.04084 C45.5318438,5.047215 45.5828437,5.0657025 45.6293813,5.098215 C45.6759188,5.131365 45.7148063,5.182365 45.7447687,5.24994 C45.7753687,5.3168775 45.7913063,5.4163275 45.7913063,5.547015 L45.7913063,7.003065 C45.7913063,7.3046025 45.7460437,7.57299 45.6580688,7.806315 C45.5694563,8.0402775 45.4438688,8.2404525 45.2806688,8.40684 C45.1181063,8.5706775 44.9249437,8.7032775 44.6999063,8.800815 C44.4755063,8.897715 44.2294313,8.9595525 43.9584938,8.9825025 L38.2184438,8.9825025 Z M44.8076437,11.1933525 C45.1104563,11.12769 45.4088062,11.02314 45.7026937,10.879065 C45.9984938,10.7330775 46.2828188,10.54884 46.5531187,10.3238025 C46.8253313,10.098765 47.0631188,9.8278275 47.2715812,9.51099 C47.4787688,9.1954275 47.6438812,8.8295025 47.7650062,8.41449 C47.8861313,8.00139 47.9479688,7.5302775 47.9479688,7.003065 L47.9479688,5.529165 C47.9479688,5.24484 47.9027063,4.9407525 47.8109063,4.61499 C47.7184687,4.289865 47.5699312,3.9870525 47.3627437,3.7052775 C47.1549188,3.422865 46.8858938,3.18954 46.5531187,3.00339 C46.2228937,2.8166025 45.8161688,2.7235275 45.3354937,2.7235275 L37.1480812,2.7235275 C36.9931688,2.7235275 36.8497313,2.7541275 36.7177688,2.81214 C36.5845312,2.8714275 36.4685063,2.9543025 36.3722438,3.06204 C36.2759813,3.1672275 36.2001188,3.2921775 36.1446563,3.43434 C36.0891937,3.57714 36.0605063,3.7269525 36.0605063,3.8876025 L36.0605063,15.4556775 L38.2184437,15.4556775 L38.2184437,11.2915275 L40.6326562,11.2915275 L45.1276687,15.4556775 L48.4611563,15.4556775 L43.9584938,11.2915275 C44.2236938,11.2915275 44.5061063,11.25774 44.8076437,11.1933525 L44.8076437,11.1933525 Z" id="Fill-8" fill="#419DD7"></path>
                            <path d="M60.2004,10.30608 C60.2004,10.7618925 60.132825,11.17308 59.9970375,11.5434675 C59.8618875,11.9144925 59.6693625,12.2306925 59.4207375,12.49398 C59.17275,12.7559925 58.8744,12.9612675 58.53015,13.107255 C58.1839875,13.25133 57.80085,13.3233675 57.3801,13.3233675 L54.476925,13.3233675 C54.05745,13.3233675 53.6755875,13.25133 53.32815,13.107255 C52.9839,12.9612675 52.6861875,12.7559925 52.436925,12.49398 C52.1876625,12.2306925 51.995775,11.9144925 51.8612625,11.5434675 C51.7248375,11.17308 51.6579,10.7618925 51.6579,10.30608 L51.6579,7.8727425 C51.6579,7.41693 51.7248375,7.0044675 51.8612625,6.6347175 C51.995775,6.2649675 52.1876625,5.9474925 52.436925,5.68548 C52.6861875,5.4209175 52.9839,5.2169175 53.32815,5.0728425 C53.6755875,4.926855 54.05745,4.85418 54.476925,4.85418 L57.39795,4.85418 C57.8116875,4.85418 58.192275,4.926855 58.5384375,5.0728425 C58.883325,5.2169175 59.179125,5.4209175 59.4258375,5.68548 C59.671275,5.9474925 59.8618875,6.2649675 59.9970375,6.6347175 C60.132825,7.0044675 60.2004,7.41693 60.2004,7.8727425 L60.2004,10.30608 Z M60.9469125,4.05093 C60.505125,3.580455 59.9811,3.2126175 59.375475,2.94678 C58.7692125,2.67903 58.110675,2.54643 57.39795,2.54643 L54.476925,2.54643 C53.7635625,2.54643 53.1031125,2.67903 52.4949375,2.94678 C51.8867625,3.2126175 51.3601875,3.580455 50.9190375,4.05093 C50.475975,4.5220425 50.129175,5.08368 49.878,5.7371175 C49.6261875,6.39183 49.5006,7.10328 49.5006,7.8727425 L49.5006,10.30608 C49.5006,11.0806425 49.6261875,11.794005 49.878,12.44553 C50.129175,13.0951425 50.475975,13.65933 50.9190375,14.13108 C51.3601875,14.6047425 51.8867625,14.9732175 52.4949375,15.2371425 C53.1031125,15.499155 53.7635625,15.631755 54.476925,15.631755 L57.39795,15.631755 C58.110675,15.631755 58.7692125,15.499155 59.375475,15.2371425 C59.9811,14.9732175 60.505125,14.6047425 60.9469125,14.13108 C61.3893375,13.65933 61.7355,13.0951425 61.9834875,12.44553 C62.23275,11.794005 62.3570625,11.0806425 62.3570625,10.30608 L62.3570625,7.8727425 C62.3570625,7.10328 62.23275,6.39183 61.9834875,5.7371175 C61.7355,5.08368 61.3893375,4.5220425 60.9469125,4.05093 L60.9469125,4.05093 Z" id="Fill-10" fill="#419DD7"></path>
                            <path d="M68.8614113,11.8954312 L64.6813238,2.72499375 L62.2671113,2.72499375 L67.8917738,15.0019687 C67.9854863,15.1919437 68.1187238,15.3436687 68.2927613,15.4603312 C68.4667988,15.5750813 68.6567738,15.6318187 68.8614113,15.6318187 C69.0705113,15.6318187 69.2636738,15.5750813 69.4370738,15.4603312 C69.6123863,15.3436687 69.7437113,15.1919437 69.8316863,15.0019687 L75.4639988,2.72499375 L73.0587113,2.72499375 L68.8614113,11.8954312 Z" id="Fill-12" fill="#419DD7"></path>
                            <path d="M84.9040988,10.0222013 L77.3229488,10.0222013 L77.3229488,9.08953875 C77.3229488,8.44438875 77.4070988,7.89550125 77.5760363,7.44223875 C77.7449738,6.98897625 77.9585363,6.61157625 78.2186363,6.31067625 C78.4787363,6.00977625 78.7636988,5.77198875 79.0735238,5.59986375 C79.3833488,5.42773875 79.6778738,5.30151375 79.9558238,5.21927625 C80.2363238,5.13640125 80.4823988,5.08348875 80.6940488,5.06245125 C80.9069738,5.04396375 81.0472238,5.03312625 81.1141613,5.03312625 L84.9040988,5.03312625 L84.9040988,10.0222013 Z M86.7451988,3.06197625 C86.6451112,2.95487625 86.5303612,2.87136375 86.3971238,2.81207625 C86.2638863,2.75406375 86.1236363,2.72473875 85.9744613,2.72473875 L81.1141613,2.72473875 C80.2567238,2.72473875 79.4662238,2.88156375 78.7420238,3.19457625 C78.0165488,3.50758875 77.3892488,3.94618875 76.8582113,4.50782625 C76.3271738,5.07073875 75.9121613,5.74266375 75.6144488,6.52360125 C75.3160988,7.30453875 75.1669238,8.16006375 75.1669238,9.08953875 L75.1669238,15.4556138 L77.3229488,15.4556138 L77.3229488,12.3305888 L84.9040988,12.3305888 L84.9040988,15.4556138 L87.0601238,15.4556138 L87.0601238,3.88753875 C87.0601238,3.72688875 87.0339863,3.57707625 86.9785237,3.43491375 C86.9236988,3.29211375 86.8452863,3.16780125 86.7451988,3.06197625 L86.7451988,3.06197625 Z" id="Fill-14" fill="#419DD7"></path>
                            <path d="M91.10793,2.87582625 C90.81468,2.97527625 90.55713,3.10978875 90.33273,3.28000125 C90.10833,3.44893875 89.915805,3.64146375 89.7557925,3.86140125 C89.59578,4.08070125 89.46573,4.30956375 89.3656425,4.54862625 C89.26683,4.78832625 89.1922425,5.03185125 89.1450675,5.27665125 C89.1004425,5.52208875 89.07558,5.75031375 89.07558,5.96578875 L89.07558,12.2145637 C89.07558,12.6117262 89.1233925,12.9668138 89.217105,13.2849262 C89.3120925,13.6011263 89.4357675,13.8803512 89.594505,14.1181387 C89.7519675,14.3578387 89.9330175,14.5624762 90.137655,14.7314137 C90.341655,14.8997138 90.55713,15.0380512 90.7808925,15.1445137 C91.0040175,15.2503387 91.23033,15.3287512 91.461105,15.3791137 C91.6899675,15.4288387 91.9041675,15.4556137 92.103705,15.4556137 L99.72948,15.4556137 L99.72948,13.1459512 L92.103705,13.1459512 C91.82703,13.1459512 91.6134675,13.0656262 91.461105,12.9030637 C91.3087425,12.7405012 91.231605,12.5110012 91.231605,12.2145637 L91.231605,5.98300125 C91.231605,5.66807625 91.30683,5.43028875 91.4566425,5.27155125 C91.60518,5.11217625 91.8212925,5.03312625 92.103705,5.03312625 L99.72948,5.03312625 L99.72948,2.72346375 L92.103705,2.72346375 C91.73268,2.72346375 91.4005425,2.77510125 91.10793,2.87582625" id="Fill-16" fill="#419DD7"></path>
                            <path d="M101.850187,2.81233125 C101.718225,2.87161875 101.601562,2.95449375 101.5053,3.06223125 C101.409675,3.16741875 101.332537,3.29236875 101.27835,3.43453125 C101.223525,3.57669375 101.1942,3.72714375 101.1942,3.88779375 L101.1942,12.2141813 C101.1942,12.8127938 101.295562,13.3164187 101.495737,13.7282437 C101.6991,14.1387937 101.949637,14.4741187 102.253087,14.7310313 C102.553988,14.9892187 102.881025,15.1740938 103.2342,15.2862938 C103.58865,15.3991312 103.91505,15.4558688 104.214037,15.4558688 L111.994087,15.4558688 L111.994087,13.1462063 L104.228062,13.1462063 C103.942463,13.1462063 103.723162,13.0671563 103.575262,12.9065062 C103.426087,12.7471312 103.350863,12.5169937 103.350863,12.2141813 L103.350863,10.2525937 L111.023813,10.2525937 L111.023813,7.92635625 L103.350863,7.92635625 L103.350863,5.03338125 L111.994087,5.03338125 L111.994087,2.72308125 L102.281137,2.72308125 C102.126225,2.72308125 101.981512,2.75431875 101.850187,2.81233125" id="Fill-18" fill="#419DD7"></path>
                            <path d="M123.693232,11.69124 L115.81437,2.89119 C115.65882,2.7209775 115.473945,2.6138775 115.259107,2.5679775 C115.042358,2.52399 114.83262,2.5463025 114.626707,2.634915 C114.434182,2.7299025 114.276083,2.87334 114.150495,3.06714 C114.026183,3.2577525 113.963707,3.4732275 113.963707,3.70974 L113.963707,15.45504 L116.12037,15.45504 L116.12037,6.4873275 L124.000507,15.29439 C124.105695,15.4136025 124.225545,15.4990275 124.361333,15.5525775 C124.49712,15.60549 124.631632,15.632265 124.763595,15.632265 C124.913407,15.632265 125.053657,15.6035775 125.184983,15.5436525 C125.319495,15.484365 125.433607,15.4034025 125.531145,15.3001275 C125.62677,15.1955775 125.705183,15.073815 125.763195,14.9303775 C125.82057,14.788215 125.850532,14.6358525 125.850532,14.469465 L125.850532,2.7248025 L123.693232,2.7248025 L123.693232,11.69124 Z" id="Fill-20" fill="#419DD7"></path>
                            <polygon id="Fill-22" fill="#419DD7" points="127.295362 5.0333175 132.056212 5.0333175 132.056212 15.455805 134.213513 15.455805 134.213513 5.0333175 138.966712 5.0333175 138.966712 2.7230175 127.295362 2.7230175"></polygon>
                            <path d="M140.72583,2.81233125 C140.59323,2.87161875 140.47848,2.95449375 140.38158,3.06223125 C140.285317,3.16741875 140.208817,3.29236875 140.15463,3.43453125 C140.09853,3.57669375 140.069842,3.72714375 140.069842,3.88779375 L140.069842,12.2141813 C140.069842,12.8127938 140.171205,13.3164187 140.373292,13.7282437 C140.574742,14.1387937 140.826555,14.4741187 141.128092,14.7310313 C141.42963,14.9892187 141.75603,15.1740938 142.11048,15.2862938 C142.464292,15.3991312 142.790693,15.4558688 143.08968,15.4558688 L150.86973,15.4558688 L150.86973,13.1462063 L143.106255,13.1462063 C142.818742,13.1462063 142.598805,13.0671563 142.450905,12.9065062 C142.30173,12.7471312 142.227142,12.5169937 142.227142,12.2141813 L142.227142,10.2525937 L149.899455,10.2525937 L149.899455,7.92635625 L142.227142,7.92635625 L142.227142,5.03338125 L150.86973,5.03338125 L150.86973,2.72308125 L141.15678,2.72308125 C141.002505,2.72308125 140.85843,2.75431875 140.72583,2.81233125" id="Fill-24" fill="#419DD7"></path>
                            <path d="M154.429594,8.9825025 L154.429594,5.03319 L161.546006,5.03319 C161.589356,5.03319 161.638444,5.03574 161.691356,5.04084 C161.744269,5.047215 161.793356,5.0657025 161.839894,5.098215 C161.886431,5.131365 161.925956,5.182365 161.955919,5.24994 C161.986519,5.3168775 162.002456,5.4163275 162.002456,5.547015 L162.002456,7.003065 C162.002456,7.3046025 161.958469,7.57299 161.869856,7.806315 C161.780606,8.0402775 161.654381,8.2404525 161.492456,8.40684 C161.327981,8.5706775 161.135456,8.703915 160.911056,8.800815 C160.686656,8.897715 160.439944,8.9595525 160.169644,8.9825025 L154.429594,8.9825025 Z M160.169644,11.2915275 C160.435481,11.2915275 160.718531,11.2583775 161.021344,11.1933525 C161.320331,11.12769 161.619319,11.0237775 161.915119,10.879065 C162.210281,10.7330775 162.494606,10.54884 162.764906,10.32444 C163.035844,10.098765 163.275544,9.8278275 163.482731,9.51099 C163.689281,9.1954275 163.855031,8.83014 163.976156,8.41449 C164.097919,8.00139 164.158481,7.5302775 164.158481,7.003065 L164.158481,5.529165 C164.158481,5.24484 164.112581,4.9407525 164.022694,4.61499 C163.930256,4.289865 163.780444,3.9870525 163.573894,3.7052775 C163.366069,3.422865 163.097044,3.18954 162.764906,3.00339 C162.434681,2.8166025 162.026681,2.7235275 161.546006,2.7235275 L153.359231,2.7235275 C153.204319,2.7235275 153.060881,2.7541275 152.928281,2.81214 C152.795681,2.8714275 152.680294,2.9543025 152.584031,3.06204 C152.486494,3.1672275 152.410631,3.2921775 152.355169,3.43434 C152.299706,3.57714 152.272931,3.7269525 152.272931,3.8876025 L152.272931,15.4556775 L154.429594,15.4556775 L154.429594,11.2915275 L156.842531,11.2915275 L161.339456,15.4556775 L164.672306,15.4556775 L160.169644,11.2915275 Z" id="Fill-26" fill="#419DD7"></path>
                        </g>
                    </g>
                </g>
            </g>
        </g>
    </g>
</svg>