<?xml version="1.0" encoding="UTF-8"?>
<svg width="102px" height="68px" viewBox="0 0 102 68" version="1.1" xmlns="http://www.w3.org/2000/svg" xmlns:xlink="http://www.w3.org/1999/xlink">
    <!-- Generator: Sketch 59.1 (86144) - https://sketch.com -->
    <title>solen</title>
    <desc>Created with Sketch.</desc>
    <defs>
        <polygon id="path-1" points="0 0.52498125 18.6821797 0.52498125 18.6821797 20.4659812 0 20.4659812"></polygon>
        <polygon id="path-3" points="0.086955 0 3.845655 0 3.845655 3.757935 0.086955 3.757935"></polygon>
        <polygon id="path-5" points="0.48481875 0.57457875 4.37293125 0.57457875 4.37293125 4.4625 0.48481875 4.4625"></polygon>
    </defs>
    <g id="TELLALL-WEBSITE" stroke="none" stroke-width="1" fill="none" fill-rule="evenodd" opacity="0.600000024">
        <g id="Tellall-2" transform="translate(-504.000000, -1228.000000)">
            <g id="KLIENTET" transform="translate(0.000000, 768.000000)">
                <g id="clients" transform="translate(202.000000, 193.000000)">
                    <g transform="translate(23.000000, 36.000000)" id="solen">
                        <g transform="translate(279.000000, 231.000000)">
                            <path d="M35.598,21.2510625 C37.1031375,21.2510625 38.3335125,20.105475 38.3335125,18.697875 C38.3335125,17.290275 37.1031375,16.1415 35.598,16.1415 C34.087125,16.1415 32.8624875,17.290275 32.8624875,18.697875 C32.8624875,20.105475 34.087125,21.2510625 35.598,21.2510625" id="Fill-1" fill="#D7172F"></path>
                            <path d="M27.915615,21.2510625 C29.417565,21.2510625 30.64794,20.105475 30.64794,18.697875 C30.64794,17.290275 29.417565,16.1415 27.915615,16.1415 C26.4041025,16.1415 25.1775525,17.290275 25.1775525,18.697875 C25.1775525,20.105475 26.4041025,21.2510625 27.915615,21.2510625" id="Fill-3" fill="#D7172F"></path>
                            <path d="M8.94877875,45.595275 C7.51695375,45.595275 6.35925375,46.6783875 6.35925375,48.01395 C6.35925375,49.3469625 7.51695375,50.430075 8.94877875,50.430075 C10.3704037,50.430075 11.5351163,49.3469625 11.5351163,48.01395 C11.5351163,46.6783875 10.3704037,45.595275 8.94877875,45.595275" id="Fill-5" fill="#D7172F"></path>
                            <g id="Group-9" transform="translate(0.000000, 22.950000)">
                                <mask id="mask-2" fill="white">
                                    <use xlink:href="#path-1"></use>
                                </mask>
                                <g id="Clip-8"></g>
                                <path d="M9.23386875,8.19729375 C6.84005625,8.08509375 5.76523125,7.73128125 5.28519375,7.45205625 C4.97664375,7.26526875 4.84978125,7.13458125 4.87336875,6.61438125 C4.91353125,5.88508125 5.63071875,5.36296875 6.22614375,5.04995625 C7.13840625,4.57119375 8.33818125,4.29515625 9.51691875,4.29515625 C9.63358125,4.29515625 9.74896875,4.29834375 9.86244375,4.30216875 C12.7949438,4.44241875 13.5701437,5.60266875 13.5803438,5.61669375 C13.6287937,5.69383125 13.7135813,5.74036875 13.8041063,5.74036875 C13.8347063,5.74036875 13.8678563,5.73526875 13.9010063,5.72188125 L17.1069937,4.44624375 C17.1726562,4.42010625 17.2268438,4.36719375 17.2536188,4.29834375 C17.2810313,4.22630625 17.2784812,4.15426875 17.2491562,4.08860625 C17.0897813,3.75455625 15.5693437,0.79464375 10.0619813,0.53518125 C9.88475625,0.52880625 9.71199375,0.52498125 9.53030625,0.52498125 C7.65223125,0.52498125 5.77861875,0.96103125 4.26328125,1.75471875 C2.17419375,2.84930625 0.95975625,4.50808125 0.86094375,6.42313125 C0.76021875,8.25020625 1.55836875,9.71135625 3.16104375,10.6510312 C4.48449375,11.4236812 6.34790625,11.8444312 9.03369375,11.9674688 C14.3121938,12.2154562 14.5436062,13.3438312 14.6398687,13.8251437 C14.7488813,14.3580938 14.4301313,14.8368562 14.1464437,15.1396688 C13.2316313,16.1131312 11.4561937,16.6919812 9.38750625,16.6919812 C9.20135625,16.6919812 9.01456875,16.6887937 8.82841875,16.6798688 C5.62051875,16.5281437 4.05928125,15.1575187 3.41158125,14.3555438 C3.36185625,14.2905187 3.28025625,14.2535438 3.20949375,14.2535438 C3.16486875,14.2535438 3.11514375,14.2694812 3.07498125,14.2905187 L0.13228125,16.0283437 C0.06406875,16.0653187 0.01880625,16.1284312 0.00733125,16.2030187 C-0.01243125,16.2782437 0.00860625,16.3566562 0.05259375,16.4165813 C1.10956875,17.8209937 3.63024375,20.2090687 8.62888125,20.4487687 C8.89599375,20.4615187 9.14398125,20.4659812 9.38750625,20.4659812 C12.6891187,20.4659812 15.4514062,19.4612812 17.1630937,17.6373937 C18.4023938,16.3069312 18.9111187,14.7055312 18.5866312,13.1162438 C17.7750937,9.12931875 13.4005688,8.39555625 9.23386875,8.19729375" id="Fill-7" fill="#D7172F" mask="url(#mask-2)"></path>
                            </g>
                            <path d="M31.8751275,39.921015 C28.05204,39.921015 24.9429525,37.029315 24.9429525,33.4714275 C24.9429525,29.914815 28.05204,27.020565 31.8751275,27.020565 C35.69694,27.020565 38.80539,29.914815 38.80539,33.4714275 C38.80539,37.029315 35.69694,39.921015 31.8751275,39.921015 M31.8751275,23.588265 C26.0203275,23.588265 21.2582025,28.0208025 21.2582025,33.4688775 C21.2582025,38.918865 26.0203275,43.3526775 31.8751275,43.3526775 C37.72929,43.3526775 42.4907775,38.918865 42.4907775,33.4688775 C42.4907775,28.0208025 37.72929,23.588265 31.8751275,23.588265" id="Fill-10" fill="#D7172F"></path>
                            <path d="M56.9791763,44.3439262 C53.3173763,44.3598638 50.3364263,41.5873762 50.3364263,38.1933262 L50.3383388,17.7595387 C50.3383388,17.6906887 50.3083763,17.6256637 50.2612013,17.5778512 C50.2082888,17.5249387 50.1445388,17.4994387 50.0756888,17.4994387 L46.6255388,17.4994387 C46.4814638,17.4994387 46.3654388,17.6192887 46.3654388,17.7595387 L46.3654388,38.1933262 C46.3654388,43.6439513 51.0931388,48.0713887 56.8115138,48.0713887 C57.2023013,48.0713887 57.2743388,47.6799637 57.2743388,47.6799637 L57.2743388,44.7857137 C57.2743388,44.5511137 57.3686888,44.3439262 56.9791763,44.3439262" id="Fill-12" fill="#D7172F"></path>
                            <path d="M90.6857137,23.4128888 C84.8290012,23.4128888 80.0681512,27.8467012 80.0681512,33.2966888 L80.0681512,42.9146513 C80.0681512,43.0580888 80.1835387,43.1766638 80.3276137,43.1766638 L83.7815887,43.1766638 C83.9282137,43.1766638 84.0423263,43.0580888 84.0423263,42.9146513 L84.0423263,33.2966888 C84.0423263,29.9051888 87.0239137,27.1454513 90.6857137,27.1454513 C94.3487887,27.1454513 97.3291012,29.9051888 97.3291012,33.2966888 L97.3291012,42.9210263 C97.3291012,43.0612763 97.4419388,43.1766638 97.5866512,43.1766638 L101.043176,43.1766638 C101.182789,43.1766638 101.302001,43.0612763 101.302001,42.9210263 L101.302001,33.2966888 C101.302001,27.8467012 96.5379638,23.4128888 90.6857137,23.4128888" id="Fill-14" fill="#D7172F"></path>
                            <path d="M60.5065913,30.8938875 C61.3538287,28.4254875 63.5659538,26.9668875 66.4786912,26.9668875 C69.8880413,26.9668875 71.3262412,29.2861125 71.9121037,30.8938875 L60.5065913,30.8938875 Z M66.4786912,23.412825 C60.3988538,23.412825 56.1537413,27.47625 56.1537413,33.296625 C56.1537413,38.743425 60.9171413,43.1766 66.7687538,43.1766 C69.9607163,43.1766 72.9550538,41.8537875 74.9861288,39.5447625 C75.0352163,39.4886625 75.0581663,39.4128 75.0492413,39.33885 C75.0390413,39.261075 74.9988788,39.194775 74.9364038,39.1533375 L72.1479788,37.25805 C72.1001663,37.228725 72.0517162,37.2140625 72.0019913,37.2140625 C71.9318662,37.2140625 71.8623788,37.244025 71.8101038,37.3007625 C70.5408412,38.6631 68.7042038,39.444675 66.7687538,39.444675 C63.6277913,39.444675 60.9534788,37.44165 60.2815538,34.62645 L74.2899788,34.62645 C75.3832912,34.62645 76.2745163,33.791325 76.2745163,32.7624 C76.2745163,29.711325 73.8813413,23.412825 66.4786912,23.412825 L66.4786912,23.412825 Z" id="Fill-16" fill="#D7172F"></path>
                            <path d="M11.9407575,7.3487175 C11.9407575,8.13603 11.30262,8.7741675 10.5153075,8.7741675 C9.727995,8.7741675 9.08922,8.13603 9.08922,7.3487175 C9.08922,6.561405 9.727995,5.9219925 10.5153075,5.9219925 C11.30262,5.9219925 11.9407575,6.561405 11.9407575,7.3487175" id="Fill-18" fill="#F26522"></path>
                            <g id="Group-22" transform="translate(38.887500, 0.000000)">
                                <mask id="mask-4" fill="white">
                                    <use xlink:href="#path-3"></use>
                                </mask>
                                <g id="Clip-21"></g>
                                <path d="M3.845655,1.878585 C3.845655,2.916435 3.004155,3.757935 1.9656675,3.757935 C0.928455,3.757935 0.086955,2.916435 0.086955,1.878585 C0.086955,0.840735 0.928455,-0.0001275 1.9656675,-0.0001275 C3.004155,-0.0001275 3.845655,0.840735 3.845655,1.878585" id="Fill-20" fill="#FAA73F" mask="url(#mask-4)"></path>
                            </g>
                            <path d="M19.0516238,13.0880662 C19.0516238,14.2680787 18.0960113,15.2230537 16.9159987,15.2230537 C15.7378988,15.2230537 14.7816488,14.2680787 14.7816488,13.0880662 C14.7816488,11.9086912 15.7378988,10.9530787 16.9159987,10.9530787 C18.0960113,10.9530787 19.0516238,11.9086912 19.0516238,13.0880662" id="Fill-23" fill="#F26522"></path>
                            <path d="M40.002615,9.785115 C40.002615,11.22459 38.83599,12.3918525 37.3958775,12.3918525 C35.9564025,12.3918525 34.78914,11.22459 34.78914,9.785115 C34.78914,8.34564 35.9564025,7.179015 37.3958775,7.179015 C38.83599,7.179015 40.002615,8.34564 40.002615,9.785115" id="Fill-25" fill="#F68B1F"></path>
                            <path d="M27.5240625,52.72482 C27.5240625,54.5831325 26.018925,56.08827 24.16125,56.08827 C22.30485,56.08827 20.799075,54.5831325 20.799075,52.72482 C20.799075,50.8677825 22.30485,49.3632825 24.16125,49.3632825 C26.018925,49.3632825 27.5240625,50.8677825 27.5240625,52.72482" id="Fill-27" fill="#EC008C"></path>
                            <path d="M44.9208,49.5320288 C44.9208,51.3897038 43.4163,52.8948412 41.5579875,52.8948412 C39.7015875,52.8948412 38.195175,51.3897038 38.195175,49.5320288 C38.195175,47.6756288 39.7015875,46.1698538 41.5579875,46.1698538 C43.4163,46.1698538 44.9208,47.6756288 44.9208,49.5320288" id="Fill-29" fill="#F04E53"></path>
                            <g id="Group-33" transform="translate(52.275000, 63.112500)">
                                <mask id="mask-6" fill="white">
                                    <use xlink:href="#path-5"></use>
                                </mask>
                                <g id="Clip-32"></g>
                                <path d="M4.37293125,2.51831625 C4.37293125,3.59122875 3.50274375,4.46269125 2.42855625,4.46269125 C1.35564375,4.46269125 0.48481875,3.59122875 0.48481875,2.51831625 C0.48481875,1.44476625 1.35564375,0.57457875 2.42855625,0.57457875 C3.50274375,0.57457875 4.37293125,1.44476625 4.37293125,2.51831625" id="Fill-31" fill="#F04E53" mask="url(#mask-6)"></path>
                            </g>
                            <path d="M48.8124187,56.528655 C48.8124187,57.551205 47.9830312,58.38123 46.9592063,58.38123 C45.9366563,58.38123 45.1072688,57.551205 45.1072688,56.528655 C45.1072688,55.50483 45.9366563,54.6754425 46.9592063,54.6754425 C47.9830312,54.6754425 48.8124187,55.50483 48.8124187,56.528655" id="Fill-34" fill="#940026"></path>
                            <path d="M21.120375,61.9604737 C21.120375,63.0340237 20.250825,63.9042112 19.176,63.9042112 C18.103725,63.9042112 17.2322625,63.0340237 17.2322625,61.9604737 C17.2322625,60.8869237 18.103725,60.0167362 19.176,60.0167362 C20.250825,60.0167362 21.120375,60.8869237 21.120375,61.9604737" id="Fill-36" fill="#EF5BA1"></path>
                        </g>
                    </g>
                </g>
            </g>
        </g>
    </g>
</svg>