<?xml version="1.0" encoding="UTF-8"?>
<svg width="114px" height="58px" viewBox="0 0 114 58" version="1.1" xmlns="http://www.w3.org/2000/svg" xmlns:xlink="http://www.w3.org/1999/xlink">
    <!-- Generator: Sketch 59.1 (86144) - https://sketch.com -->
    <title>unicorn</title>
    <desc>Created with Sketch.</desc>
    <defs>
        <polygon id="path-1" points="0 57.2081662 113.193225 57.2081662 113.193225 0.00019125 0 0.00019125"></polygon>
    </defs>
    <g id="TELLALL-WEBSITE" stroke="none" stroke-width="1" fill="none" fill-rule="evenodd" opacity="0.600000024">
        <g id="Tellall-2" transform="translate(-230.000000, -1351.000000)">
            <g id="KLIENTET" transform="translate(0.000000, 768.000000)">
                <g id="clients" transform="translate(202.000000, 193.000000)">
                    <g transform="translate(23.000000, 36.000000)" id="unicorn">
                        <g transform="translate(5.000000, 354.000000)">
                            <path d="M98.7467738,52.5046275 C98.6173613,53.09559 98.4318488,53.6610525 98.1991613,54.19719 C97.9664738,54.739065 97.6910738,55.2484275 97.3455488,55.764165 L96.2503238,57.0844275 C96.1298363,57.22914 95.9156363,57.24954 95.7696488,57.130965 L94.5322613,56.126265 L94.4971988,56.0975775 L94.4398238,56.0542275 L94.3263488,55.968165 L94.0758113,55.787115 C93.9100613,55.6666275 93.7264613,55.54614 93.5530613,55.4256525 C93.1935113,55.187865 92.8301363,54.9500775 92.4527363,54.72249 C91.7074988,54.2603025 90.9303863,53.8280775 90.1494488,53.4047775 C88.5767363,52.566465 86.9472863,51.8072025 85.2897863,51.1008525 C81.9715988,49.700265 78.5354738,48.517065 75.0304988,47.550615 L72.3931613,46.8551025 L69.7322363,46.22844 L67.0547363,45.6744525 C66.6065738,45.576915 66.1577738,45.5061525 65.7064238,45.4245525 L64.3581113,45.1848525 C63.4611488,45.01209 62.5552613,44.890965 61.6519238,44.75199 L60.2953238,44.549265 C59.8426988,44.48169 59.3868863,44.4364275 58.9336238,44.37714 C58.0245488,44.268765 57.1167488,44.14764 56.2063988,44.0501025 L53.4708863,43.7912775 L52.7855738,43.725615 C52.5573488,43.7045775 52.3284863,43.6918275 52.1002613,43.6765275 L50.7277238,43.5834525 L49.3545488,43.4903775 L48.6673238,43.442565 L47.9800988,43.414515 L45.2299238,43.302315 L44.5401488,43.271715 L43.8510113,43.2608775 L42.4740113,43.24239 L41.0950988,43.220715 C40.6360988,43.2162525 40.1764613,43.2009525 39.7168238,43.2111525 L36.9583613,43.24239 L35.5762613,43.256415 L34.1998988,43.30359 L31.4401613,43.406865 C24.1108238,43.7300775 16.7961488,44.4899775 9.51844875,45.556515 C9.51143625,45.556515 9.50442375,45.559065 9.49677375,45.5597025 C9.45916125,45.5597025 9.42792375,45.5316525 9.42027375,45.49914 C9.41772375,45.492765 9.41644875,45.4857525 9.41644875,45.480015 C9.41644875,45.44559 9.43748625,45.418815 9.46553625,45.406065 L9.46808625,45.406065 C9.47828625,45.4016025 9.48784875,45.4003275 9.49677375,45.3990525 C16.7215613,44.01504 24.0158363,42.9344775 31.3642988,42.29124 L34.1355113,42.068115 L35.5207988,41.958465 L36.9067238,41.8838775 L39.6836738,41.7334275 C40.1484113,41.70219 40.6105988,41.69709 41.0753363,41.680515 L43.8554738,41.6033775 L44.5509863,41.5842525 L45.2477738,41.583615 L48.0317363,41.5766025 L48.7272488,41.5753275 L49.4253113,41.591265 L50.8188863,41.6263275 L52.2130988,41.6594775 C52.4445113,41.6671275 52.6752863,41.6696775 52.9079738,41.6798775 L53.6034863,41.713665 L56.3919113,41.859015 C57.3201113,41.91639 58.2470363,41.999265 59.1771488,42.0700275 C59.6412488,42.1095525 60.1059863,42.134415 60.5694488,42.1847775 L61.9579238,42.3326775 C62.8854863,42.4334025 63.8136863,42.5175525 64.7374238,42.6514275 L66.1252613,42.83694 C66.5861738,42.90069 67.0521863,42.952965 67.5105488,43.0352025 L70.2772988,43.48209 L73.0351238,44.0080275 L75.7827488,44.6034525 C79.4375363,45.4424025 83.0508863,46.512765 86.5966613,47.828565 C88.3682738,48.49539 90.1213988,49.22214 91.8445613,50.0477025 C92.7070988,50.4671775 93.5638988,50.8955775 94.4092238,51.3698775 C94.6272488,51.4871775 94.8459113,51.612765 95.0620238,51.7383525 C95.1232238,51.775965 95.2054613,51.74919 95.2360613,51.681615 C95.2519988,51.6389025 95.2711238,51.5955525 95.2883363,51.55284 C95.4075488,51.23664 95.4948863,50.92044 95.5324988,50.61444 C95.5675613,50.3103525 95.5630988,50.0132775 95.5063613,49.7225775 C95.3979863,49.144365 95.0639363,48.56169 94.5297113,48.03129 L94.3218863,47.8355775 C94.2504863,47.7705525 94.1720738,47.7106275 94.0949363,47.64879 C94.0324613,47.588865 93.9228113,47.50854 93.8297363,47.43204 L93.5377613,47.20509 C93.1463363,46.910565 92.7721238,46.584165 92.3966363,46.26924 C91.6507613,45.6170775 90.9354863,44.9247525 90.2782238,44.171865 C89.6235113,43.417065 89.0159738,42.59979 88.5384863,41.6990025 C88.3000613,41.247015 88.0954238,40.7746275 87.9322238,40.283115 C87.7741238,39.793515 87.6670238,39.2803275 87.6262238,38.7601275 C87.5835113,38.24184 87.6166613,37.7133525 87.7314113,37.2059025 C87.7875113,36.9521775 87.8614613,36.70164 87.9634613,36.46194 C88.0074488,36.363765 88.0514363,36.26304 88.1017988,36.1667775 C88.1119988,36.14574 88.1209238,36.12789 88.1323988,36.10749 C88.1457863,36.0864525 88.1547113,36.06414 88.1674613,36.0443775 C88.1674613,36.042465 88.1674613,36.042465 88.1687363,36.04119 C88.2382238,35.9602275 88.3395863,35.9066775 88.4568863,35.9066775 C88.5346613,35.9066775 88.6035113,35.930265 88.6627988,35.971065 C88.7609738,36.0354525 88.8253613,36.1502025 88.8253613,36.2751525 C88.8253613,36.307665 88.8208988,36.340815 88.8126113,36.3695025 C88.8075113,36.384165 88.8024113,36.3975525 88.7979488,36.4128525 C88.7947613,36.42114 88.7915738,36.42879 88.7896613,36.4383525 C88.7571488,36.5288775 88.7310113,36.6206775 88.7061488,36.7137525 C88.6532363,36.9203025 88.6232738,37.1319525 88.6079738,37.342965 C88.5754613,37.7656275 88.6143488,38.1902025 88.7106113,38.60394 C88.8980363,39.4333275 89.3117738,40.2034275 89.8224113,40.9034025 C90.3375113,41.601465 90.9641738,42.2306775 91.6392863,42.80889 C92.3182238,43.3845525 93.0449738,43.911765 93.8042363,44.3981775 C94.1905613,44.6340525 94.5679613,44.878215 94.9663988,45.09624 L95.2621988,45.2651775 C95.3629238,45.32064 95.4502613,45.367815 95.5783988,45.44814 C95.6976113,45.5176275 95.8149113,45.58839 95.9328488,45.6642525 L96.2828363,45.9026775 C96.7418363,46.239915 97.1861738,46.6409025 97.5775988,47.1190275 C97.9671113,47.5958775 98.3005238,48.1517775 98.5319363,48.759315 C98.7588863,49.368765 98.8819238,50.0145525 98.9125238,50.6533275 C98.9380238,51.29019 98.8723613,51.911115 98.7467738,52.5046275" id="Fill-1" fill="#1E75BB"></path>
                            <polygon id="Fill-3" fill="#748995" points="4.9527375 16.9428375 4.9527375 24.471075 2.8744875 24.471075 2.8744875 16.9428375 0 16.9428375 0 15.0277875 7.8253125 15.0277875 7.8253125 16.9428375"></polygon>
                            <polygon id="Fill-5" fill="#748995" points="15.3264562 24.47082 15.3264562 20.680245 11.4950812 20.680245 11.4950812 24.47082 9.41619375 24.47082 9.41619375 15.0275325 11.4950812 15.0275325 11.4950812 18.76392 15.3264562 18.76392 15.3264562 15.0275325 17.4040688 15.0275325 17.4040688 24.47082"></polygon>
                            <polygon id="Fill-7" fill="#748995" points="19.669425 24.47082 19.669425 15.0275325 26.7794625 15.0275325 26.7794625 16.8762825 21.7202625 16.8762825 21.7202625 18.7900575 26.171925 18.7900575 26.171925 20.63817 21.7202625 20.63817 21.7202625 22.62207 26.847675 22.62207 26.847675 24.47082"></polygon>
                            <polygon id="Fill-9" fill="#748995" points="39.3786938 24.47082 34.8052688 18.466845 34.8052688 24.47082 32.7563438 24.47082 32.7563438 15.0275325 34.6701188 15.0275325 39.0956438 20.8415325 39.0956438 15.0275325 41.1464813 15.0275325 41.1464813 24.47082"></polygon>
                            <path d="M50.8598775,19.7480925 C50.8598775,19.34328 50.79039,18.962055 50.6507775,18.602505 C50.5105275,18.2423175 50.31354,17.92803 50.0553525,17.6583675 C49.7990775,17.38743 49.49754,17.17323 49.1462775,17.016405 C48.7956525,16.8602175 48.4118775,16.78053 48.0000525,16.78053 C47.5767525,16.78053 47.1917025,16.8589425 46.8461775,17.008755 C46.4993775,17.1623925 46.20294,17.3753175 45.956865,17.64498 C45.70824,17.9146425 45.51444,18.22638 45.375465,18.58083 C45.23649,18.93783 45.16509,19.31778 45.16509,19.7225925 L45.16509,19.7480925 C45.16509,20.1535425 45.23649,20.535405 45.375465,20.89623 C45.51444,21.254505 45.7127025,21.5700675 45.9689775,21.83973 C46.224615,22.11003 46.5261525,22.3235925 46.874865,22.47978 C47.22039,22.63788 47.60289,22.71693 48.02619,22.71693 C48.4399275,22.71693 48.8211525,22.64043 49.17369,22.488705 C49.524315,22.335705 49.822665,22.12278 50.06874,21.853755 C50.317365,21.5828175 50.5105275,21.2717175 50.6507775,20.915355 C50.79039,20.5602675 50.8598775,20.1815925 50.8598775,19.7761425 L50.8598775,19.7480925 Z M52.6538025,21.6440175 C52.400715,22.23243 52.053915,22.7507175 51.6070275,23.195055 C51.16269,23.6406675 50.6316525,23.9900175 50.016465,24.248205 C49.4012775,24.50448 48.72744,24.6326175 48.0000525,24.6326175 C47.2707525,24.6326175 46.60074,24.50448 45.990015,24.248205 C45.3761025,23.9900175 44.8495275,23.6457675 44.403915,23.2097175 C43.9583025,22.7736675 43.6127775,22.26048 43.36479,21.6720675 C43.11744,21.0830175 42.9944025,20.4506175 42.9944025,19.7761425 L42.9944025,19.7480925 C42.9944025,19.07298 43.121265,18.44313 43.371165,17.85408 C43.623615,17.26503 43.97169,16.7467425 44.4185775,16.3030425 C44.8635525,15.8567925 45.3939525,15.50553 46.0097775,15.2498925 C46.6256025,14.99298 47.298165,14.8661175 48.02619,14.8661175 C48.754215,14.8661175 49.424865,14.99298 50.0362275,15.2498925 C50.64759,15.50553 51.17799,15.8529675 51.6223275,16.2877425 C52.066665,16.7237925 52.4128275,17.2376175 52.66209,17.82603 C52.908165,18.416355 53.03184,19.04748 53.03184,19.7225925 L53.03184,19.7480925 C53.03184,20.42448 52.9049775,21.055605 52.6538025,21.6440175 L52.6538025,21.6440175 Z" id="Fill-11" fill="#748995"></path>
                            <path d="M60.653025,18.2514975 C60.653025,17.803335 60.50895,17.46546 60.22335,17.2391475 C59.9332875,17.01411 59.533575,16.903185 59.021025,16.903185 L56.9568,16.903185 L56.9568,19.6144725 L59.06055,19.6144725 C59.5731,19.6144725 59.96835,19.4933475 60.242475,19.2498225 C60.5172375,19.006935 60.653025,18.6824475 60.653025,18.277635 L60.653025,18.2514975 Z M60.6141375,24.4709475 L58.5888,21.449835 L56.9568,21.449835 L56.9568,24.4709475 L54.879825,24.4709475 L54.879825,15.0270225 L59.1957,15.0270225 C60.3196125,15.0270225 61.196175,15.3024225 61.820925,15.8493975 C62.4450375,16.3989225 62.75805,17.1626475 62.75805,18.14376 L62.75805,18.170535 C62.75805,18.9361725 62.5712625,19.557735 62.198325,20.0390475 C61.8253875,20.5209975 61.3370625,20.873535 60.7352625,21.0985725 L63.0411,24.4709475 L60.6141375,24.4709475 Z" id="Fill-13" fill="#748995"></path>
                            <polygon id="Fill-15" fill="#748995" points="68.909415 16.9428375 68.909415 24.471075 66.8318025 24.471075 66.8318025 16.9428375 63.95859 16.9428375 63.95859 15.0277875 71.7826275 15.0277875 71.7826275 16.9428375"></polygon>
                            <polygon id="Fill-17" fill="#748995" points="79.2840262 24.47082 79.2840262 20.680245 75.4513762 20.680245 75.4513762 24.47082 73.3744013 24.47082 73.3744013 15.0275325 75.4513762 15.0275325 75.4513762 18.76392 79.2840262 18.76392 79.2840262 15.0275325 81.3603638 15.0275325 81.3603638 24.47082"></polygon>
                            <path d="M10.60494,36.590205 C10.3646025,37.2474675 10.0203525,37.7982675 9.576015,38.237505 C9.1291275,38.6767425 8.5885275,39.007605 7.9548525,39.224355 C7.31799,39.44238 6.6097275,39.550755 5.8294275,39.550755 C4.2573525,39.550755 3.0206025,39.114705 2.1179025,38.2470675 C1.21329,37.3762425 0.7638525,36.0770175 0.7638525,34.3493925 L0.7638525,27.660105 L3.3380775,27.660105 L3.3380775,34.28373 C3.3380775,35.241255 3.5612025,35.96418 4.0061775,36.44868 C4.4537025,36.93318 5.07144,37.1760675 5.8638525,37.1760675 C6.653715,37.1760675 7.2740025,36.9414675 7.7189775,36.47163 C8.165865,36.003705 8.3870775,35.3018175 8.3870775,34.3672425 L8.3870775,27.660105 L10.9638525,27.660105 L10.9638525,34.26588 C10.9638525,35.1577425 10.84464,35.9329425 10.60494,36.590205" id="Fill-19" fill="#748995"></path>
                            <polygon id="Fill-21" fill="#748995" points="21.7995037 39.3667725 16.1308537 31.925235 16.1308537 39.3667725 13.5885037 39.3667725 13.5885037 27.6609975 15.9625538 27.6609975 21.4495162 34.8672975 21.4495162 27.6609975 23.9912287 27.6609975 23.9912287 39.3667725"></polygon>
                            <mask id="mask-2" fill="white">
                                <use xlink:href="#path-1"></use>
                            </mask>
                            <g id="Clip-24"></g>
                            <polygon id="Fill-23" fill="#748995" mask="url(#mask-2)" points="26.9171625 39.3658162 29.4913875 39.3658162 29.4913875 27.6600412 26.9171625 27.6600412"></polygon>
                            <path d="M41.7674062,38.3464538 C41.4416437,38.6027288 41.0884687,38.8213913 40.7046937,39.0069037 C40.3202812,39.1917787 39.8995312,39.3307537 39.4430812,39.4238287 C38.9859937,39.5200913 38.4708937,39.5659913 37.9028812,39.5659913 C37.0435312,39.5659913 36.2492062,39.4098038 35.5122562,39.0993413 C34.7759437,38.7869662 34.1409937,38.3604787 33.6061312,37.8186038 C33.0719062,37.2780038 32.6530687,36.6411413 32.3508937,35.9035538 C32.0493562,35.1691538 31.9008187,34.3824788 31.9008187,33.5473537 L31.9008187,33.5148413 C31.9008187,32.6771662 32.0493562,31.8949537 32.3508937,31.1643788 C32.6530687,30.4344413 33.0719062,29.7912038 33.6061312,29.2404037 C34.1409937,28.6889663 34.7816812,28.2541913 35.5294687,27.9360788 C36.2759812,27.6186038 37.1009062,27.4598663 38.0042437,27.4598663 C38.5512187,27.4598663 39.0478312,27.5038538 39.4998187,27.5937413 C39.9518062,27.6823538 40.3629937,27.8053913 40.7295562,27.9622162 C41.0973937,28.1171288 41.4371812,28.3064663 41.7514687,28.5302288 C42.0600187,28.7539913 42.3519937,28.9981538 42.6203812,29.2659037 L40.9807312,31.1554538 C40.5242812,30.7429913 40.0589062,30.4204163 39.5852437,30.1851788 C39.1109437,29.9518538 38.5779937,29.8351913 37.9870312,29.8351913 C37.4961562,29.8351913 37.0422562,29.9289038 36.6253312,30.1176038 C36.2058562,30.3088538 35.8469437,30.5695913 35.5460437,30.9049163 C35.2445062,31.2389662 35.0105437,31.6272037 34.8441562,32.0677163 C34.6758562,32.5088663 34.5929812,32.9780663 34.5929812,33.4791412 L34.5929812,33.5148413 C34.5929812,34.0146413 34.6758562,34.4883038 34.8441562,34.9345537 C35.0105437,35.3801663 35.2419562,35.7709538 35.5364812,36.1043662 C35.8316437,36.4396912 36.1899187,36.7029787 36.6081187,36.8999662 C37.0269562,37.0950413 37.4853187,37.1919412 37.9870312,37.1919412 C38.6544937,37.1919412 39.2218687,37.0701788 39.6834187,36.8241037 C40.1462437,36.5799413 40.6065187,36.2439788 41.0648812,35.8206787 L42.7032562,37.4769038 C42.4029937,37.8007537 42.0893437,38.0895413 41.7674062,38.3464538" id="Fill-25" fill="#748995" mask="url(#mask-2)"></path>
                            <path d="M53.9894925,33.5147775 C53.9894925,33.013065 53.9040675,32.5381275 53.73258,32.0918775 C53.557905,31.6469025 53.313105,31.2554775 52.9949925,30.922065 C52.678155,30.5873775 52.3013925,30.3209025 51.8666175,30.12774 C51.431205,29.932665 50.9575425,29.8351275 50.444355,29.8351275 C49.9222425,29.8351275 49.444755,29.92884 49.0157175,30.1181775 C48.58668,30.30879 48.2188425,30.5695275 47.9115675,30.9048525 C47.6042925,31.2389025 47.3658675,31.6277775 47.19183,32.067015 C47.02098,32.508165 46.9336425,32.9780025 46.9336425,33.4790775 L46.9336425,33.5147775 C46.9336425,34.01394 47.02098,34.48824 47.19183,34.9351275 C47.3658675,35.3801025 47.611305,35.7702525 47.9294175,36.1043025 C48.2468925,36.4396275 48.6204675,36.702915 49.0488675,36.90054 C49.4785425,37.0949775 49.9541175,37.192515 50.47878,37.192515 C50.990055,37.192515 51.4649925,37.098165 51.900405,36.90819 C52.336455,36.7188525 52.7055675,36.45684 53.012205,36.1221525 C53.318205,35.787465 53.557905,35.40114 53.73258,34.95999 C53.9040675,34.5182025 53.9894925,34.048365 53.9894925,33.5466525 L53.9894925,33.5147775 Z M56.2130925,35.863965 C55.90263,36.593265 55.470405,37.2339525 54.9189675,37.7873025 C54.36753,38.337465 53.7089925,38.7716025 52.9452675,39.089715 C52.1815425,39.408465 51.34833,39.5659275 50.444355,39.5659275 C49.5422925,39.5659275 48.7122675,39.408465 47.9536425,39.089715 C47.195655,38.7716025 46.540305,38.342565 45.9901425,37.801965 C45.4367925,37.26264 45.0071175,36.626415 44.7011175,35.897115 C44.39448,35.16654 44.24148,34.382415 44.24148,33.5466525 L44.24148,33.5147775 C44.24148,32.67774 44.39703,31.8942525 44.709405,31.164315 C45.0211425,30.4343775 45.45273,29.79114 46.0054425,29.24034 C46.5562425,28.6889025 47.216055,28.2541275 47.978505,27.9366525 C48.74223,27.61854 49.57608,27.46044 50.47878,27.46044 C51.382755,27.46044 52.211505,27.61854 52.971405,27.9366525 C53.72748,28.2541275 54.3821925,28.6838025 54.93618,29.2244025 C55.48698,29.7637275 55.91538,30.3999525 56.222655,31.12989 C56.5305675,31.85919 56.684205,32.6439525 56.684205,33.4790775 L56.684205,33.5147775 C56.684205,34.3499025 56.5267425,35.1327525 56.2130925,35.863965 L56.2130925,35.863965 Z" id="Fill-26" fill="#748995" mask="url(#mask-2)"></path>
                            <path d="M66.1318912,31.6570387 C66.1318912,31.0998637 65.9527537,30.6803887 65.5951163,30.4030762 C65.2387538,30.1244887 64.7415038,29.9848762 64.1084662,29.9848762 L61.5501788,29.9848762 L61.5501788,33.3464137 L64.1569163,33.3464137 C64.7925038,33.3464137 65.2801913,33.1966012 65.6206162,32.8944262 C65.9610413,32.5935262 66.1318912,32.1925387 66.1318912,31.6908262 L66.1318912,31.6570387 Z M66.0802537,39.3663262 L63.5716913,35.6216512 L61.5501788,35.6216512 L61.5501788,39.3663262 L58.9734038,39.3663262 L58.9734038,27.6599137 L64.3252162,27.6599137 C65.7187913,27.6599137 66.8025413,28.0003387 67.5771038,28.6805512 C68.3529413,29.3607637 68.7386288,30.3080887 68.7386288,31.5225262 L68.7386288,31.5569512 C68.7386288,32.5042762 68.5084913,33.2756512 68.0456662,33.8723512 C67.5822038,34.4684137 66.9784913,34.9082887 66.2319787,35.1856012 L69.0911663,39.3663262 L66.0802537,39.3663262 Z" id="Fill-27" fill="#748995" mask="url(#mask-2)"></path>
                            <polygon id="Fill-28" fill="#748995" mask="url(#mask-2)" points="79.275675 39.3667725 73.60575 31.925235 73.60575 39.3667725 71.0640375 39.3667725 71.0640375 27.6609975 73.44 27.6609975 78.92505 34.8672975 78.92505 27.6609975 81.4674 27.6609975 81.4674 39.3667725"></polygon>
                            <path d="M106.70373,32.500005 C106.705005,32.4866175 106.707555,32.4776925 106.712655,32.46558 L106.738155,32.41203 L106.70373,32.500005 Z M102.660067,34.30413 C102.52938,34.1734425 102.38913,34.04148 102.264817,33.92163 L101.768205,33.4683675 L101.243542,33.0259425 C100.891642,32.7339675 100.553767,32.428605 100.172542,32.16723 L99.6204675,31.76943 C99.434955,31.63683 99.25008,31.5061425 99.05373,31.3837425 C98.6693175,31.128105 98.2651425,30.8877675 97.8698925,30.6582675 L97.2757425,30.3446175 C97.01373,30.2056425 96.8243925,30.1278675 96.635055,30.03543 C96.6229425,30.0309675 96.6101925,30.0233175 96.5974425,30.0194925 C96.408105,29.93088 96.137805,29.8040175 95.97588,29.74728 C95.8745175,29.7071175 95.77698,29.6675925 95.68008,29.6255175 C95.5723425,29.5847175 95.5251675,29.55348 95.303955,29.475705 L95.14203,29.424705 L95.0138925,29.38263 L94.6747425,29.2672425 L94.5255675,29.2238925 L94.3674675,29.1665175 C94.283955,29.136555 94.17813,29.1065925 94.08633,29.08173 L94.0652925,29.0696175 L94.0181175,29.0479425 L93.980505,29.0339175 C93.3716925,28.8324675 92.8285425,28.5800175 92.3121675,28.2625425 C92.1566175,28.1656425 92.042505,28.0980675 91.91883,28.012005 C91.80153,27.927855 91.6823175,27.8417925 91.56693,27.7538175 C91.33998,27.568305 91.119405,27.366855 90.923055,27.1571175 C90.7260675,26.9429175 90.5411925,26.71788 90.3805425,26.4800925 C90.2160675,26.23848 90.07518,25.9981425 89.94768,25.7278425 C89.8220925,25.467105 89.7137175,25.1885175 89.6219175,24.903555 C89.5301175,24.623055 89.45808,24.329805 89.405805,24.036555 C89.377755,23.88738 89.3541675,23.7375675 89.3337675,23.5883925 L89.311455,23.3588925 L89.2891425,23.113455 C89.2649175,22.8144675 89.2572675,22.501455 89.2610925,22.1871675 C89.2623675,22.027155 89.26683,21.87033 89.2763925,21.70713 C89.28213,21.5509425 89.29488,21.394755 89.311455,21.23793 C89.34078,20.92428 89.38158,20.599155 89.431305,20.267655 C89.4383175,20.2121925 89.456805,20.1293175 89.4689175,20.0477175 L89.5160925,19.80738 L89.56008,19.5695925 L89.6117175,19.3184175 L89.7137175,18.816705 C89.7468675,18.6541425 89.7927675,18.5011425 89.8322925,18.3481425 C89.875005,18.1900425 89.9087925,18.038955 89.9546925,17.8776675 L90.0197175,17.664105 C90.0719925,17.483055 90.2606925,17.3791425 90.43983,17.43078 C90.5054925,17.452455 90.5705175,17.4734925 90.6368175,17.4938925 C90.83253,17.567205 91.019955,17.6481675 91.2156675,17.72148 C91.4426175,17.8113675 91.6644675,17.93313 91.8888675,18.038955 C92.0023425,18.0905925 92.11263,18.1568925 92.2241925,18.225105 L92.5595175,18.413805 C92.99748,18.6847425 93.42333,18.98628 93.835155,19.2967425 C94.24698,19.6129425 94.648605,19.95783 95.0342925,20.3192925 L95.056605,20.3396925 C95.428905,20.69478 95.78973,21.0638925 96.14673,21.4514925 C96.3309675,21.6478425 96.50118,21.8556675 96.6777675,22.0583925 C96.851805,22.26048 97.01373,22.45428 97.1750175,22.672305 L97.6556925,23.317455 C97.8061425,23.5373925 97.9514925,23.7554175 98.1032175,23.9759925 C98.1771675,24.087555 98.24793,24.21123 98.3174175,24.32598 L98.5175925,24.661305 C98.5226925,24.6670425 98.5239675,24.67278 98.5277925,24.679155 L98.7598425,25.1285925 C98.8299675,25.2611925 98.99253,25.326855 99.136605,25.2701175 C99.2545425,25.2229425 99.330405,25.1069175 99.330405,24.9870675 C99.330405,24.952005 99.3259425,24.9169425 99.3106425,24.883155 C99.2481675,24.70848 99.1805925,24.5369925 99.1130175,24.36423 L98.9408925,23.9823675 C98.88543,23.8586925 98.8299675,23.7362925 98.7687675,23.6100675 C98.6412675,23.3639925 98.5137675,23.1115425 98.3773425,22.866105 C98.24028,22.6244925 98.1070425,22.386705 97.9667925,22.144455 C97.9667925,22.144455 97.96488,22.14063 97.96233,22.14063 C97.8239925,21.9002925 97.66398,21.6542175 97.507155,21.420255 C97.35288,21.1926675 97.1992425,20.958705 97.0347675,20.734305 C96.8651925,20.51118 96.70773,20.28168 96.5336925,20.0604675 C96.3526425,19.8411675 96.1830675,19.6129425 95.9981925,19.4025675 C95.63418,18.9690675 95.24913,18.5495925 94.842405,18.15243 C94.424205,17.75208 93.9989925,17.368305 93.544455,17.01258 L93.2288925,16.776705 L93.1944675,16.751205 C93.0797175,16.6651425 92.963055,16.5771675 92.8387425,16.49748 C92.588205,16.338105 92.34723,16.1678925 92.0813925,16.021905 C91.8149175,15.8822925 91.5433425,15.726105 91.27113,15.596055 L90.861855,15.4245675 L90.4570425,15.2690175 L90.3639675,15.241605 L89.5951425,15.0191175 C89.584305,15.0165675 89.574105,15.0152925 89.5632675,15.0127425 L88.79508,14.859105 C88.6962675,14.8418925 88.5968175,14.8979925 88.564305,14.99298 L88.286355,15.769455 C88.283805,15.77838 88.28253,15.7841175 88.2793425,15.7904925 L87.9924675,16.7773425 L87.847755,17.27778 C87.7999425,17.44863 87.75213,17.63223 87.7055925,17.809455 C87.6584175,17.9885925 87.60678,18.17028 87.57363,18.3455925 L87.4684425,18.857505 L87.4161675,19.1169675 L87.36453,19.3872675 L87.3128925,19.6550175 C87.29568,19.74618 87.2784675,19.8296925 87.263805,19.9444425 C87.21153,20.29953 87.161805,20.660355 87.12738,21.0345675 C87.1101675,21.218805 87.0961425,21.410055 87.08658,21.598755 C87.07893,21.779805 87.07128,21.9678675 87.0693675,22.1540175 C87.0617175,22.52823 87.07128,22.9100925 87.105705,23.29578 L87.12738,23.569905 L87.1598925,23.8561425 C87.184755,24.046755 87.2134425,24.2399175 87.2491425,24.4324425 C87.319905,24.814305 87.4123425,25.199355 87.534105,25.574205 C87.6545925,25.94523 87.7999425,26.31498 87.9682425,26.6726175 C88.138455,27.02898 88.34373,27.38853 88.5713175,27.71748 C88.7982675,28.0496175 89.051355,28.3619925 89.32293,28.6552425 C89.5989675,28.950405 89.8909425,29.218155 90.20268,29.465505 C90.3575925,29.5885425 90.5182425,29.710305 90.6827175,29.822505 C90.8446425,29.9327925 91.02633,30.04308 91.1646675,30.1278675 C91.8110925,30.528855 92.519355,30.852705 93.2110425,31.0892175 L93.2607675,31.1108925 L93.3347175,31.14468 L93.41568,31.166355 C93.5183175,31.196955 93.587805,31.2154425 93.687255,31.250505 L93.8396175,31.30278 L93.9989925,31.3544175 L94.28268,31.4474925 L94.4630925,31.510605 L94.61163,31.55778 C94.61163,31.55778 94.7525175,31.617705 94.8455925,31.653405 C94.9514175,31.69803 95.0546925,31.73628 95.1566925,31.7789925 C95.393205,31.87143 95.4894675,31.9256175 95.6947425,32.018055 C95.8974675,32.11368 96.11103,32.206755 96.234705,32.2711425 L96.79953,32.57268 C97.1584425,32.77923 97.502055,32.984505 97.84503,33.21273 C98.0203425,33.32238 98.190555,33.4428675 98.3620425,33.565905 L98.8682175,33.9311925 C99.213105,34.1632425 99.5222925,34.4450175 99.840405,34.7089425 L100.316617,35.11248 L100.786455,35.54088 C100.936905,35.68368 101.061217,35.8016175 101.197005,35.9405925 C101.262667,36.019005 101.340442,36.09933 101.41758,36.18093 L101.485155,36.2491425 L101.651542,36.4225425 L101.816017,36.592755 C101.98113,36.76233 102.222105,36.8343675 102.451605,36.7846425 L102.671543,36.735555 C102.916342,36.6839175 103.15158,36.636105 103.420605,36.5742675 C103.60548,36.5283675 103.79418,36.4824675 103.980967,36.4301925 C104.048542,36.414255 104.117392,36.393855 104.184967,36.373455 L104.95698,36.1114425 C105.008617,36.09423 105.053242,36.0770175 105.099142,36.0629925 C105.175005,36.0323925 105.24768,36.0068925 105.32928,35.973105 C105.453592,35.92338 105.583642,35.87238 105.708592,35.817555 C106.218592,35.5988925 106.724767,35.33943 107.210542,34.9868925 C107.44833,34.81923 107.682292,34.6273425 107.90478,34.4144175 C108.011242,34.3175175 108.118342,34.188105 108.22608,34.063155 C108.283455,33.996855 108.318517,33.9452175 108.35868,33.8942175 L108.477255,33.7322925 L108.528892,33.6596175 L108.56013,33.61053 L108.67233,33.420555 L108.76923,33.2146425 C108.773055,33.2044425 108.780705,33.1929675 108.78453,33.1802175 L108.78453,33.1789425 L108.848917,33.04443 L108.861667,33.0182925 L108.879517,32.97048 L108.900555,32.910555 L108.908205,32.89398 L108.918405,32.8742175 L108.931155,32.8372425 L108.959205,32.755005 L109.018492,32.58033 L109.018492,32.5439925 L109.038893,32.4815175 L109.038893,32.413305 L109.049093,32.3591175 C109.063117,32.28198 109.073955,32.199105 109.079055,32.1219675 L109.083517,32.0199675 C109.091167,31.9294425 109.091167,31.8363675 109.091167,31.7483925 L109.091167,31.65723 L109.086705,31.6272675 L109.007655,31.051605 L109.000005,30.985305 L108.989167,30.9298425 L108.963667,30.78768 C108.943267,30.6939675 108.921593,30.60153 108.900555,30.51228 C108.856567,30.33123 108.81003,30.15528 108.767317,29.9990925 C108.724605,29.845455 108.67233,29.6675925 108.624517,29.506305 C108.419242,28.83948 108.20058,28.213455 107.951955,27.5957175 L107.59368,26.6649675 C107.511442,26.4520425 107.418367,26.2429425 107.329755,26.033205 C107.288317,25.941405 107.24943,25.8451425 107.210542,25.74888 L106.77768,24.72888 L106.43598,23.92563 C106.18353,23.31363 105.909405,22.715655 105.635917,22.1183175 C105.358605,21.5203425 105.08193,20.92683 104.795055,20.3333175 C104.228317,19.1462925 103.646918,17.96883 103.033005,16.80093 L102.343867,15.5265675 C102.17748,15.2192925 102.212542,14.841255 102.433755,14.56713 L105.217717,11.12463 L111.520042,3.32163 L112.968442,1.530255 C112.992667,1.5015675 113.014342,1.47288 113.036655,1.441005 C113.13483,1.2937425 113.19348,1.1165175 113.19348,0.9252675 C113.19348,0.415905 112.778467,0.000255 112.266555,0.000255 C112.144792,0.000255 112.02813,0.025755 111.920392,0.0684675 L111.756555,0.155805 L111.751455,0.15708 L109.84023,1.1585925 L101.699355,5.416455 L95.9599425,8.4209925 C95.893005,8.45478 95.80758,8.45733 95.7393675,8.4209925 C95.46078,8.2858425 95.1809175,8.1519675 94.89978,8.0308425 C94.15008,7.7120925 93.3767925,7.4392425 92.583105,7.211655 C91.698255,6.9572925 90.785355,6.757755 89.8539675,6.622605 C88.9193925,6.4855425 87.9656925,6.410955 87.0017925,6.410955 C85.0714425,6.410955 83.1895425,6.706755 81.4211175,7.211655 C81.27003,7.2556425 81.1176675,7.30218 80.9672175,7.34808 C80.9557425,7.351905 80.9455425,7.35318 80.932155,7.35828 C77.8676925,8.3508675 75.1302675,10.07148 72.9232425,12.3173925 L72.91878,12.324405 C72.680355,12.564105 72.84993,12.969555 73.187805,12.969555 L75.28008,12.969555 C75.370605,12.969555 75.4592175,12.93768 75.52743,12.8771175 C75.7486425,12.6845925 75.9768675,12.497805 76.2101925,12.3173925 C77.701305,11.1494925 79.3874925,10.2161925 81.205005,9.58188 C82.44813,9.14583 83.75118,8.8430175 85.0969425,8.698305 C85.3034925,8.6734425 85.5151425,8.65368 85.72488,8.639655 C85.7484675,8.63583 85.77588,8.634555 85.800105,8.634555 C86.20683,8.6045925 86.6141925,8.5918425 87.0260175,8.5918425 C87.11718,8.5918425 87.21153,8.5918425 87.304605,8.593755 C89.245155,8.6249925 91.1085675,8.968605 92.848305,9.58188 C93.740805,9.8923425 94.6033425,10.2799425 95.42508,10.7261925 L95.428905,10.72938 C95.7036675,10.8753675 96.02943,10.878555 96.30483,10.7351175 L98.1032175,9.794805 L105.832905,5.388405 C106.432792,5.046705 107.053717,5.8008675 106.603005,6.3236175 L100.908855,12.936405 L99.748605,14.372055 C99.557355,14.609205 99.5273925,14.9324175 99.672105,15.198255 L100.169355,16.10988 L101.08863,17.8139175 C101.329605,18.2767425 101.571855,18.7421175 101.80518,19.211955 C102.150705,19.8972675 102.487305,20.5870425 102.818805,21.280005 C103.099942,21.8620425 103.37343,22.447905 103.64373,23.03568 C103.912755,23.6240925 104.181142,24.21123 104.427217,24.8060175 L104.61273,25.23888 L105.180742,26.58273 C105.304417,26.877255 105.437655,27.1724175 105.553042,27.4707675 L105.89793,28.3619925 C106.098105,28.853505 106.277242,29.3552175 106.431517,29.845455 C106.445542,29.88753 106.460205,29.9276925 106.473592,29.9672175 C106.491442,30.0271425 106.508017,30.0857925 106.525867,30.1418925 C106.572405,30.289155 106.610017,30.424305 106.654005,30.584955 C106.69863,30.7449675 106.734967,30.883305 106.77003,31.0229175 C106.784693,31.0892175 106.799993,31.1555175 106.812105,31.2192675 L106.832505,31.31808 L106.843342,31.3837425 C106.84653,31.408605 106.84653,31.421355 106.85163,31.4385675 L106.90008,31.7930175 C106.90008,31.8452925 106.89753,31.8988425 106.89498,31.95558 L106.89498,31.9625925 L106.893067,31.9664175 C106.89498,31.98363 106.893067,32.0008425 106.890517,32.0161425 C106.890517,32.010405 106.89498,32.00658 106.89498,32.002755 L106.890517,32.0339925 L106.890517,32.05758 C106.890517,32.066505 106.890517,32.0939175 106.886055,32.066505 L106.870755,32.145555 L106.87713,32.092005 L106.883505,32.05758 L106.886055,32.0531175 L106.890517,32.0339925 L106.890517,32.0161425 C106.88733,32.018055 106.88733,32.02188 106.886055,32.025705 C106.886055,32.010405 106.88733,31.992555 106.890517,31.979805 C106.88733,31.9880925 106.886055,32.0008425 106.883505,32.00913 L106.86693,32.092005 L106.863105,32.1015675 L106.842067,32.16468 L106.799993,32.2532925 L106.764292,32.33808 L106.70118,32.4521925 L106.65273,32.51658 C106.618305,32.5605675 106.58133,32.6128425 106.557742,32.637705 C106.51758,32.6855175 106.483155,32.7352425 106.43598,32.7875175 C106.418767,32.8053675 106.404742,32.8206675 106.384342,32.8372425 C106.233255,32.98323 106.067505,33.1139175 105.88008,33.2477925 C105.815692,33.2911425 105.753217,33.3332175 105.686917,33.3727425 C105.626993,33.407805 105.564517,33.4428675 105.505867,33.479205 C105.47973,33.4938675 105.453592,33.504705 105.431917,33.5206425 C105.42873,33.522555 105.42363,33.5244675 105.420442,33.52638 C105.236842,33.6264675 105.04368,33.716355 104.846055,33.803055 C104.745967,33.846405 104.64333,33.8891175 104.53878,33.92928 C104.436142,33.96753 104.317567,34.0140675 104.215567,34.04913 L103.583805,34.2665175 C103.367692,34.328355 103.140105,34.38828 102.916342,34.4411925 L102.913792,34.4424675 C102.852592,34.4564925 102.788842,34.4373675 102.74613,34.3914675 L102.660067,34.30413 Z" id="Fill-29" fill="#1E75BB" mask="url(#mask-2)"></path>
                        </g>
                    </g>
                </g>
            </g>
        </g>
    </g>
</svg>