<?xml version="1.0" encoding="UTF-8"?>
<svg width="84px" height="47px" viewBox="0 0 84 47" version="1.1" xmlns="http://www.w3.org/2000/svg" xmlns:xlink="http://www.w3.org/1999/xlink">
    <!-- Generator: Sketch 59.1 (86144) - https://sketch.com -->
    <title>union</title>
    <desc>Created with Sketch.</desc>
    <defs>
        <polygon id="path-1" points="0.000125786829 0.600459315 83.062425 0.600459315 83.062425 28.0499363 0.000125786829 28.0499363"></polygon>
    </defs>
    <g id="TELLALL-WEBSITE" stroke="none" stroke-width="1" fill="none" fill-rule="evenodd" opacity="0.600000024">
        <g id="Tellall-2" transform="translate(-513.000000, -1125.000000)">
            <g id="KLIENTET" transform="translate(0.000000, 768.000000)">
                <g id="clients" transform="translate(202.000000, 193.000000)">
                    <g transform="translate(23.000000, 36.000000)" id="union">
                        <g transform="translate(288.000000, 128.000000)">
                            <g id="Group-3" transform="translate(0.000000, 18.352222)">
                                <mask id="mask-2" fill="white">
                                    <use xlink:href="#path-1"></use>
                                </mask>
                                <g id="Clip-2"></g>
                                <path d="M39.1375275,7.09658625 C39.125415,8.46083625 40.147965,9.50633625 41.4822525,9.53821125 C42.810165,9.56944875 43.90539,8.50482375 43.9277025,7.16479875 C43.9506525,5.73679875 42.8044275,4.70532375 41.550465,4.69639875 C40.23339,4.68683625 39.1120275,5.75847375 39.1375275,7.09658625 M38.9858025,17.2870237 C38.9858025,18.6359737 38.985165,19.9836487 38.9870775,21.3319612 C38.9870775,21.5525362 38.99154,21.7737487 39.00939,21.9930487 C39.0929025,23.0245237 39.7151025,23.7614738 40.7185275,24.0126487 C41.28399,24.1541737 41.85519,24.1541737 42.4142775,23.9935237 C43.2519525,23.7531862 43.8002025,23.2144987 43.983165,22.3487737 C44.0399025,22.0791112 44.067315,21.7986112 44.0679525,21.5225737 C44.0743275,18.6958987 44.0730525,15.8685862 44.069865,13.0412737 C44.0692275,12.8219737 44.0552025,12.5994862 44.0195025,12.3827362 C43.868415,11.4787612 43.358415,10.8744112 42.4793025,10.5964612 C41.971215,10.4351737 41.4516525,10.4249737 40.928265,10.5072112 C39.9815775,10.6557487 39.2752275,11.2830487 39.0776025,12.1965862 C39.0074775,12.5204362 38.9921775,12.8608612 38.990265,13.1936362 C38.9807025,14.5585237 38.9858025,15.9227737 38.9858025,17.2870237 M54.03654,24.1050862 C54.6351525,24.1050862 55.5327525,23.9858737 56.409315,23.7047362 C58.5366525,23.0219737 59.953815,21.6366862 60.5307525,19.4564362 C60.8660775,18.1897237 60.8877525,16.8994237 60.6442275,15.6154987 C60.2362275,13.4664862 59.0402775,11.9332987 57.00729,11.0822362 C56.1396525,10.7194987 55.228665,10.5492862 54.2934525,10.4848987 C53.0490525,10.4001112 51.8250525,10.5059362 50.63994,10.8999112 C48.575715,11.5871362 47.2031775,12.9603112 46.63134,15.0774487 C46.28454,16.3600987 46.26924,17.6650612 46.51404,18.9661987 C46.91184,21.0788737 48.083565,22.5961237 50.0668275,23.4548362 C51.1862775,23.9393362 52.3694775,24.1108237 54.03654,24.1050862 M15.2988525,21.7176487 C15.326265,21.7609987 15.339015,21.7737487 15.3422025,21.7884112 C15.351765,21.8362237 15.3575025,21.8853112 15.3651525,21.9331237 C15.4365525,22.3710862 15.5500275,22.7956612 15.7693275,23.1858112 C16.0103025,23.6135737 16.364115,23.8953487 16.8428775,24.0151987 C17.4013275,24.1554487 17.96169,24.1407862 18.5156775,24.0005362 C19.27239,23.8086487 19.7575275,23.3286112 19.9373025,22.5687112 C20.0023275,22.2926737 20.0393025,22.0038862 20.03994,21.7208362 C20.0469525,18.8023612 20.0456775,15.8838862 20.0418525,12.9660487 C20.0418525,12.7543987 20.0240025,12.5401987 19.98639,12.3323737 C19.82829,11.4577237 19.3214775,10.8769612 18.4761525,10.6015612 C17.9610525,10.4345362 17.4332025,10.4217862 16.90089,10.5084862 C15.940815,10.6633987 15.249765,11.2926112 15.045765,12.2259112 C14.989665,12.4866487 14.97054,12.7601362 14.969265,13.0285237 C14.9622525,14.4998737 14.96799,15.9712237 14.9635275,17.4425737 C14.96289,17.6950237 14.9482275,17.9493862 14.91699,18.1999237 C14.86344,18.6264112 14.73594,19.0299487 14.48604,19.3863112 C14.2457025,19.7292862 13.9256775,19.9594237 13.5074775,20.0225362 C13.291365,20.0550487 13.066965,20.0735362 12.850215,20.0563237 C12.041865,19.9906612 11.536965,19.5648112 11.35209,18.7749487 C11.2838775,18.4836112 11.256465,18.1769737 11.2545525,17.8773487 C11.24499,16.3243987 11.251365,14.7714487 11.24754,13.2178612 C11.24754,12.9730612 11.2392525,12.7269862 11.2073775,12.4847362 C11.08179,11.5246612 10.5686025,10.8763237 9.6327525,10.5913612 C9.0156525,10.4032987 8.3909025,10.4039362 7.773165,10.5907237 C6.9335775,10.8444487 6.4095525,11.4009862 6.23679,12.2660737 C6.1889775,12.5051362 6.16029,12.7524862 6.1596525,12.9960112 C6.1532775,15.0557737 6.151365,17.1155362 6.159015,19.1759362 C6.1609275,19.8650737 6.2540025,20.5452862 6.4898775,21.1980862 C6.9858525,22.5731737 7.9000275,23.5134862 9.3356775,23.8959862 C10.1657025,24.1165612 11.011665,24.1599112 11.8640025,24.0604612 C13.32834,23.8908862 14.42994,23.1622237 15.18474,21.9006112 C15.21789,21.8457862 15.252315,21.7915987 15.2988525,21.7176487 M27.265365,12.8812612 C27.237315,12.7110487 27.2188275,12.5994862 27.1997025,12.4891987 C27.142965,12.1576987 27.0543525,11.8363987 26.908365,11.5316737 C26.65464,11.0057362 26.2523775,10.6691362 25.67799,10.5378112 C25.1750025,10.4230612 24.6739275,10.4358112 24.172215,10.5448237 C23.31669,10.7309737 22.7920275,11.2537237 22.62054,12.1105237 C22.5650775,12.3891112 22.53639,12.6772612 22.5357525,12.9615862 C22.530015,15.8131237 22.5320026,18.6652987 22.5344775,21.5181112 C22.535115,21.7297612 22.5485025,21.9433237 22.581015,22.1524237 C22.7219025,23.0563987 23.2153275,23.6779612 24.09444,23.9622862 C24.7338525,24.1681987 25.3853775,24.1707487 26.02479,23.9743987 C26.862465,23.7174862 27.3833025,23.1532987 27.54714,22.2862987 C27.59814,22.0153612 27.6204525,21.7348612 27.622365,21.4588237 C27.6293775,20.0454862 27.624915,18.6315112 27.62619,17.2175362 C27.62619,17.0046112 27.6281025,16.7916862 27.6421275,16.5800362 C27.665715,16.2364237 27.7364775,15.9017362 27.87099,15.5823487 C28.1419275,14.9378362 28.61049,14.5508737 29.31939,14.5087987 C30.33174,14.4475987 31.0642275,14.8600612 31.261215,15.9151237 C31.314765,16.2026362 31.3383525,16.4990737 31.3396275,16.7916862 C31.3472775,18.3280612 31.342815,19.8644362 31.34409,21.4008112 C31.34409,21.5882362 31.3447275,21.7769362 31.3587525,21.9643612 C31.43589,22.9728862 32.03004,23.7244987 32.972265,23.9896987 C33.574065,24.1579987 34.1867025,24.1643737 34.7872275,23.9884237 C35.603865,23.7487237 36.14319,23.2202362 36.3299775,22.3755487 C36.3873525,22.1148112 36.414765,21.8425987 36.41859,21.5754862 C36.4307025,20.7907237 36.42369,20.0059612 36.42369,19.2218362 C36.4230525,17.9551237 36.42369,16.6884112 36.4230525,15.4216987 C36.422415,14.6968612 36.32424,13.9866862 36.0698775,13.3058362 C35.5611525,11.9447737 34.6329525,11.0261362 33.2049525,10.6633987 C32.4310275,10.4670487 31.6443525,10.4141362 30.84684,10.4931862 C29.3544525,10.6417237 28.211415,11.3397862 27.4279275,12.6217987 C27.3858525,12.6906487 27.3425025,12.7588612 27.265365,12.8812612 M67.7332275,12.8748862 C67.7192025,12.7798987 67.71474,12.7480237 67.70964,12.7155112 C67.647165,12.2941237 67.557915,11.8797487 67.3634775,11.4953362 C67.109115,10.9910737 66.713865,10.6678612 66.15924,10.5397237 C65.655615,10.4236987 65.15454,10.4351737 64.6528275,10.5435487 C63.7858275,10.7296987 63.2579775,11.2594612 63.0896775,12.1277362 C63.034215,12.4146112 63.0080775,12.7116862 63.00744,13.0036612 C63.0017025,15.8239612 63.003615,18.6448987 63.0055275,21.4651987 C63.006165,21.6851362 63.021465,21.9063487 63.0488775,22.1250112 C63.1687275,23.0748862 63.77754,23.7646612 64.7051025,24.0043612 C65.2699275,24.1497112 65.8398525,24.1548112 66.4021275,24.0018112 C67.2755025,23.7640237 67.83459,23.2093987 68.014365,22.3111612 C68.06919,22.0408612 68.0927775,21.7603612 68.0953275,21.4843237 C68.103615,20.2826362 68.0978775,19.0809487 68.0991525,17.8792612 C68.09979,17.4789112 68.0966025,17.0779237 68.108715,16.6775737 C68.12019,16.3078237 68.1935025,15.9476362 68.33439,15.6040237 C68.603415,14.9493112 69.072615,14.5515112 69.7936275,14.5081612 C70.79514,14.4488737 71.5352775,14.8524112 71.734815,15.9170362 C71.78454,16.1809612 71.81004,16.4525362 71.811315,16.7202862 C71.8183275,18.2904487 71.8145025,19.8599737 71.81514,21.4288612 C71.8157775,21.5926987 71.81514,21.7565362 71.826615,21.9190987 C71.89929,22.9614112 72.4915275,23.7232237 73.44969,23.9909737 C74.0024025,24.1458862 74.565315,24.1548112 75.1231275,24.0234862 C76.10169,23.7933487 76.6977525,23.1481987 76.8456525,22.1536987 C76.8864525,21.8808487 76.8915525,21.6003487 76.89219,21.3236737 C76.896015,19.3697362 76.8928275,17.4157987 76.8947433,15.4618612 C76.8953775,14.7287362 76.80294,14.0102737 76.546665,13.3204987 C76.02264,11.9097112 75.05874,10.9834237 73.57209,10.6398112 C72.8332275,10.4689612 72.0886275,10.4192362 71.3325525,10.4925487 C69.819765,10.6378987 68.6665275,11.3493487 67.8811275,12.6536737 C67.8454275,12.7135987 67.8033525,12.7703362 67.7332275,12.8748862 M83.0625525,5.21086125 L83.0625525,23.4573862 C83.04534,23.5447237 83.023665,23.6314237 83.0128275,23.7193987 C82.99944,23.8328737 83.00709,23.9495362 82.9847775,24.0610987 C82.653915,25.7358112 81.7097775,26.9323987 80.16129,27.6463987 C79.4810775,27.9600487 78.7556025,28.0499362 78.01164,28.0499362 C56.307315,28.0480237 34.6023525,28.0486612 12.89739,28.0486612 C10.2651525,28.0486612 7.632915,28.0499362 5.00004,28.0467487 C4.7227275,28.0461112 4.4422275,28.0429237 4.16874,28.0014862 C2.609415,27.7643362 1.4230275,26.9629987 0.625515,25.6019362 C0.176715,24.8362987 0.000125786829,23.9992612 0.000125786829,23.1131362 C0.00459,17.2519612 0.00204,11.3901487 0.00204,5.52897375 C0.00204,5.46331125 0.0014025,5.39764875 0.0039525,5.33262375 C0.077265,3.47048625 0.9347025,2.08137375 2.54949,1.16719875 C3.274965,0.75664875 4.06929,0.59982375 4.9037775,0.600459315 C15.711315,0.60364875 26.5188525,0.60237375 37.32639,0.60237375 C50.9376525,0.60237375 64.5495525,0.60364875 78.160815,0.600459315 C79.3803525,0.59982375 80.463465,0.96574875 81.38019,1.76708625 C82.3485525,2.61368625 82.931865,3.67002375 83.0153775,4.97498625 C83.0204775,5.05403625 83.0459775,5.13181125 83.0625525,5.21086125" id="Fill-1" fill="#E82829" mask="url(#mask-2)"></path>
                            </g>
                            <path d="M42.2316975,8.925e-05 C37.8342225,8.925e-05 33.4367475,-0.00044625 29.0392725,0.00146625 C28.80276,0.00146625 28.559235,-0.00745875 28.33101,0.04226625 C27.2274975,0.27941625 26.50266,0.94751625 26.187735,2.03126625 C26.1093225,2.30092875 26.090835,2.59609125 26.0901975,2.87977875 C26.08446,7.12999125 26.0860665,11.3802037 26.0860665,15.6310537 C26.0860665,15.6795037 26.085735,15.7285912 26.08701,15.7776787 C26.1195225,17.0004037 26.8692225,18.0210412 28.00206,18.3837787 C28.316985,18.4851412 28.63956,18.5106412 28.9691475,18.5100037 C37.79661,18.5080912 46.62471,18.5087287 55.4521725,18.5087287 C55.5261225,18.5087287 55.6000725,18.5151037 55.6727475,18.5068162 C55.874835,18.4832287 56.081385,18.4723912 56.2770975,18.4220287 C57.49281,18.1109287 58.32921,17.0399287 58.335585,15.7866037 C58.3413225,14.6588662 58.3374975,13.5304912 58.3374975,12.4027537 C58.3374975,9.18210375 58.33941,5.96145375 58.3362225,2.74080375 C58.33431,1.49767875 57.5329725,0.44261625 56.346585,0.09709125 C56.0361225,0.00656625 55.71801,0.00082875 55.3998975,8.925e-05 C51.01071,8.925e-05 46.620885,8.925e-05 42.2316975,8.925e-05" id="Fill-4" fill="#FFFFFF"></path>
                            <path d="M67.7335462,31.2271088 C67.8036712,31.1225588 67.8451087,31.0658213 67.8814462,31.0058963 C68.6662087,29.7015713 69.8194462,28.9901213 71.3328712,28.8447713 C72.0889462,28.7714588 72.8335462,28.8211838 73.5717712,28.9920338 C75.0590587,29.3356463 76.0229588,30.2619338 76.5469837,31.6727213 C76.8032587,32.3624963 76.8950587,33.0809588 76.8944245,33.8140838 C76.8931463,35.7680213 76.8956963,37.7219588 76.8918712,39.6758963 C76.8918712,39.9525713 76.8861337,40.2330713 76.8459712,40.5059213 C76.6980712,41.5004213 76.1013712,42.1455713 75.1234463,42.3757088 C74.5649962,42.5070338 74.0020837,42.4981088 73.4500087,42.3431963 C72.4918462,42.0754463 71.8996087,41.3136338 71.8262962,40.2719588 C71.8154588,40.1087588 71.8154588,39.9449213 71.8154588,39.7810838 C71.8148212,38.2121963 71.8186463,36.6426713 71.8109963,35.0725088 C71.8103587,34.8047588 71.7842213,34.5331838 71.7351338,34.2692588 C71.5349587,33.2046338 70.7954587,32.8010963 69.7939462,32.8610213 C69.0729337,32.9037338 68.6037337,33.3015338 68.3347087,33.9562463 C68.1931838,34.2998588 68.1198712,34.6600463 68.1090337,35.0297963 C68.0969212,35.4301463 68.0994712,35.8311338 68.0994712,36.2314838 C68.0981963,37.4331713 68.1039337,38.6348588 68.0950087,39.8365463 C68.0930963,40.1125838 68.0688712,40.3930838 68.0146837,40.6633838 C67.8342713,41.5616213 67.2751837,42.1162463 66.4018088,42.3540338 C65.8395337,42.5070338 65.2702462,42.5019338 64.7054212,42.3565838 C63.7778587,42.1175213 63.1684087,41.4271088 63.0485587,40.4772338 C63.0211462,40.2585713 63.0058462,40.0373588 63.0058462,39.8174213 C63.0032962,36.9971213 63.0020212,34.1761838 63.0077587,31.3558838 C63.0083962,31.0639088 63.0345337,30.7668338 63.0899962,30.4799588 C63.2582962,29.6116838 63.7855087,29.0819213 64.6525087,28.8957713 C65.1548587,28.7873963 65.6559337,28.7759213 66.1589212,28.8919463 C66.7135462,29.0200838 67.1094337,29.3432963 67.3637962,29.8475588 C67.5575963,30.2319713 67.6474837,30.6463463 67.7093213,31.0677338 C67.7144212,31.1002463 67.7195212,31.1321213 67.7335462,31.2271088" id="Fill-6" fill="#FFFFFF"></path>
                            <path d="M27.2656838,31.2332925 C27.3428213,31.1108925 27.3861713,31.0433175 27.4282463,30.9744675 C28.2110962,29.692455 29.3547713,28.993755 30.8471588,28.8452175 C31.6446713,28.7661675 32.4313463,28.81908 33.2046337,29.01543 C34.6332713,29.3781675 35.5608338,30.296805 36.0701963,31.658505 C36.3245588,32.3387175 36.4220963,33.04953 36.4227338,33.77373 C36.4240087,35.0404425 36.4233713,36.307155 36.4233713,37.5738675 C36.4233713,38.35863 36.4303837,39.1433925 36.4189087,39.9275175 C36.4150838,40.1952675 36.3876712,40.4668425 36.3296588,40.7282175 C36.1435088,41.5722675 35.6035463,42.100755 34.7869088,42.340455 C34.1870213,42.516405 33.5743838,42.51003 32.9725837,42.34173 C32.0297213,42.0771675 31.4362088,41.325555 31.3590712,40.3163925 C31.3444088,40.129605 31.3437712,39.940905 31.3437712,39.7528425 C31.3431337,38.2164675 31.3469587,36.6800925 31.3399462,35.1437175 C31.3380338,34.851105 31.3150838,34.5546675 31.2608963,34.267155 C31.0639087,33.2120925 30.3320588,32.8002675 29.3197088,32.86083 C28.6101713,32.9035425 28.1422462,33.290505 27.8713088,33.93438 C27.7361588,34.2537675 27.6653963,34.588455 27.6424463,34.932705 C27.6277837,35.144355 27.6265088,35.35728 27.6258712,35.5695675 C27.6245963,36.9835425 27.6290587,38.3975175 27.6220462,39.810855 C27.6207713,40.08753 27.5978213,40.3673925 27.5468213,40.63833 C27.3836213,41.50533 26.8621462,42.070155 26.0251088,42.32643 C25.3850587,42.52278 24.7335337,42.5208675 24.0947587,42.3143175 C23.2156462,42.0299925 22.7222212,41.40843 22.5806962,40.504455 C22.5481837,40.295355 22.5347962,40.0817925 22.5347962,39.8701425 C22.5316088,37.0179675 22.5303338,34.1657925 22.5360713,31.3136175 C22.5367087,31.02993 22.5647587,30.7411425 22.6208588,30.4631925 C22.7923462,29.605755 23.3163712,29.083005 24.1725337,28.896855 C24.6736087,28.78848 25.1746837,28.7750925 25.6783087,28.8898425 C26.2520587,29.0211675 26.6549588,29.3577675 26.9080462,29.883705 C27.0546712,30.18843 27.1426463,30.50973 27.1993838,30.84123 C27.2185088,30.952155 27.2369962,31.06308 27.2656838,31.2332925" id="Fill-8" fill="#FFFFFF"></path>
                            <path d="M15.2988525,40.0696163 C15.252315,40.1442038 15.21789,40.1977538 15.18474,40.2525788 C14.42994,41.5148288 13.32834,42.2428538 11.8640025,42.4130663 C11.011665,42.5118788 10.1657025,42.4685288 9.3356775,42.2479538 C7.9000275,41.8660913 6.9858525,40.9251413 6.4898775,39.5506913 C6.2540025,38.8972538 6.1609275,38.2176788 6.159015,37.5279038 C6.151365,35.4681413 6.1532775,33.4077413 6.1596525,31.3479788 C6.16029,31.1044538 6.1889775,30.8577413 6.23679,30.6186788 C6.4095525,29.7535913 6.9335775,29.1970538 7.773165,28.9426913 C8.3909025,28.7559038 9.01629,28.7552663 9.6327525,28.9433288 C10.5686025,29.2289288 11.08179,29.8772663 11.208015,30.8367038 C11.2392525,31.0789538 11.24754,31.3256663 11.2481775,31.5698288 C11.251365,33.1234163 11.24499,34.6763663 11.2545525,36.2299538 C11.256465,36.5295788 11.2838775,36.8362163 11.35209,37.1269163 C11.536965,37.9174163 12.041865,38.3432663 12.850215,38.4089288 C13.0676025,38.4261413 13.291365,38.4076538 13.5074775,38.3745038 C13.9256775,38.3113913 14.2457025,38.0812538 14.48604,37.7382788 C14.73594,37.3819163 14.86344,36.9783788 14.91699,36.5525288 C14.9482275,36.3019913 14.96289,36.0476288 14.9635275,35.7945413 C14.96799,34.3231913 14.9622525,32.8518413 14.969265,31.3804913 C14.97054,31.1127413 14.989665,30.8392538 15.0464025,30.5778788 C15.249765,29.6445788 15.940815,29.0153663 16.90089,28.8604538 C17.4332025,28.7743913 17.9610525,28.7865038 18.4761525,28.9535288 C19.3214775,29.2289288 19.82829,29.8096913 19.9870275,30.6843413 C20.0240025,30.8921663 20.0418525,31.1063663 20.0418525,31.3180163 C20.0456775,34.2364913 20.0469525,37.1543288 20.03994,40.0728038 C20.0393025,40.3558538 20.0023275,40.6452788 19.9373025,40.9206788 C19.7575275,41.6812163 19.27239,42.1606163 18.5156775,42.3525038 C17.96169,42.4933913 17.4013275,42.5080538 16.8428775,42.3671663 C16.364115,42.2473163 16.0103025,41.9655413 15.7693275,41.5377788 C15.5500275,41.1476288 15.4365525,40.7236913 15.3651525,40.2857288 C15.3575025,40.2372788 15.351765,40.1888288 15.3422025,40.1403788 C15.339015,40.1257163 15.326265,40.1129663 15.2988525,40.0696163" id="Fill-10" fill="#FFFFFF"></path>
                            <path d="M51.4364963,35.8872338 C51.4600838,36.1403212 51.4830337,36.5483213 51.5378588,36.9518587 C51.5920463,37.3496587 51.7061588,37.7334337 51.9076088,38.0859713 C52.1817337,38.5672838 52.5801712,38.8815712 53.1335213,38.9701837 C53.3336963,39.0026962 53.5402462,39.0154462 53.7423338,39.0065212 C54.3626213,38.9791087 54.8528587,38.7094462 55.1900963,38.1803212 C55.3583962,37.9163962 55.4718712,37.6269712 55.5394462,37.3228838 C55.7721338,36.2710088 55.7555588,35.2165837 55.5515587,34.1627962 C55.4686838,33.7337587 55.3099463,33.3353212 55.0536713,32.9757712 C54.3689962,32.0144212 52.7790713,32.0093212 52.0918463,32.9866087 C51.9018713,33.2569087 51.7673588,33.5507962 51.6742838,33.8669962 C51.4932338,34.4758087 51.4632713,35.1037463 51.4364963,35.8872338 M54.0362213,42.4573087 C52.3697963,42.4630462 51.1859587,42.2915587 50.0671463,41.8070587 C48.0832462,40.9483463 46.9121588,39.4310962 46.5143587,37.3184213 C46.2689213,36.0172837 46.2848587,34.7123212 46.6310213,33.4296712 C47.2034963,31.3125338 48.5753963,29.9393587 50.6402588,29.2521337 C51.8253713,28.8581587 53.0493713,28.7523337 54.2931337,28.8371212 C55.2289837,28.9015087 56.1393337,29.0717212 57.0076088,29.4344587 C59.0405963,30.2855212 60.2359088,31.8187087 60.6439087,33.9677212 C60.8880713,35.2516462 60.8663963,36.5419462 60.5310713,37.8086587 C59.9534963,39.9889087 58.5369713,41.3741962 56.4089963,42.0569587 C55.5324337,42.3380962 54.6354713,42.4573087 54.0362213,42.4573087" id="Fill-12" fill="#FFFFFF"></path>
                            <path d="M38.98593,35.6395012 C38.98593,34.2752512 38.98083,32.9103637 38.989755,31.5461137 C38.992305,31.2127012 39.007605,30.8722762 39.07773,30.5484262 C39.275355,29.6355262 39.981705,29.0082262 40.9283925,28.8596887 C41.45178,28.7774512 41.9713425,28.7876512 42.47943,28.9483012 C43.3585425,29.2268887 43.8685425,29.8306012 44.01963,30.7352137 C44.05533,30.9513262 44.069355,31.1744512 44.0699925,31.3937512 C44.0725425,34.2210637 44.0738175,37.0477387 44.06808,39.8750512 C44.0674425,40.1510887 44.04003,40.4315887 43.9832925,40.7006137 C43.80033,41.5663387 43.25208,42.1056637 42.414405,42.3460012 C41.8553175,42.5066512 41.2841175,42.5060137 40.718655,42.3644887 C39.71523,42.1133137 39.0923925,41.3770012 39.0095175,40.3455262 C38.9916675,40.1262262 38.987205,39.9043762 38.9865675,39.6844387 C38.9852925,38.3361262 38.98593,36.9878137 38.98593,35.6395012" id="Fill-14" fill="#FFFFFF"></path>
                            <path d="M39.1375275,25.4488088 C39.1120275,24.1106962 40.23339,23.0390587 41.550465,23.0486213 C42.8044275,23.0575463 43.9506525,24.0890212 43.9277025,25.5170212 C43.90539,26.8570462 42.810165,27.9216713 41.4822525,27.8904337 C40.147965,27.8585588 39.125415,26.8130588 39.1375275,25.4488088" id="Fill-16" fill="#FFFFFF"></path>
                            <path d="M55.789155,8.543265 C55.789155,7.653315 55.7910675,6.7627275 55.7872425,5.87214 C55.786605,5.6930025 55.7719425,5.51259 55.743255,5.3360025 C55.641255,4.6997775 55.21413,4.2331275 54.6014925,4.108815 C54.404505,4.0686525 54.1947675,4.0686525 53.99268,4.080765 C53.3787675,4.11774 52.8866175,4.496415 52.711305,5.0873775 C52.6405425,5.32644 52.606755,5.58399 52.6048425,5.83389 C52.59528,7.2395775 52.60038,8.6446275 52.5997425,10.0496775 C52.5997425,10.343565 52.6112175,10.639365 52.5882675,10.9319775 C52.56978,11.1653025 52.530255,11.40309 52.4569425,11.62494 C52.3562175,11.93094 52.10568,12.07629 51.7926675,12.0603525 C51.461805,12.0437775 51.2227425,11.8716525 51.1411425,11.56374 C51.102255,11.4164775 51.092055,11.2583775 51.08568,11.10474 C51.058905,10.4729775 50.7140175,10.045215 50.0930925,9.90879 C49.9362675,9.8737275 49.7692425,9.8699025 49.6073175,9.874365 C48.9124425,9.8928525 48.4292175,10.2842775 48.292155,10.9664025 C48.1028175,11.91309 48.33168,12.7475775 49.0169925,13.4424525 C49.266255,13.6949025 49.55313,13.8989025 49.8750675,14.0442525 C51.2928675,14.68239 52.71258,14.66454 54.108705,13.99134 C54.904305,13.6082025 55.4455425,12.97644 55.6686675,12.1100775 C55.7451675,11.8130025 55.7783175,11.4980775 55.7834175,11.190165 C55.7987175,10.3085025 55.789155,9.425565 55.789155,8.543265 L55.789155,8.543265 Z M44.770605,12.92799 C44.8477425,13.1836275 44.921055,13.4169525 44.9892675,13.6515525 C45.0746925,13.94544 45.26148,14.14944 45.5362425,14.2750275 C45.8970675,14.438865 46.270005,14.48859 46.65888,14.3923275 C47.374155,14.2151025 47.7942675,13.63179 47.70438,12.9031275 C47.67378,12.653865 47.6106675,12.4046025 47.5277925,12.1674525 C46.7207175,9.864165 45.9085425,7.5621525 45.0887175,5.2633275 C45.0071175,5.03574 44.880255,4.81899 44.74383,4.61754 C44.510505,4.2726525 44.171355,4.085865 43.7512425,4.0763025 C43.3266675,4.06674 42.901455,4.06674 42.47688,4.075665 C42.0567675,4.08459 41.7125175,4.266915 41.4842925,4.6156275 C41.3249175,4.8591525 41.1846675,5.1243525 41.0864925,5.3972025 C40.34508,7.45569 39.6138675,9.5180025 38.8871175,11.58159 C38.7545175,11.957715 38.6333925,12.3408525 38.543505,12.7297275 C38.3936925,13.3748775 38.594505,13.852365 39.1166175,14.1934275 C39.30468,14.316465 39.5105925,14.387865 39.73053,14.4254775 C40.4757675,14.5517025 41.0737425,14.183865 41.2892175,13.467315 C41.3427675,13.288815 41.4001425,13.11159 41.4575175,12.92799 L44.770605,12.92799 Z M33.53403,14.91444 C33.56208,14.8538775 33.57993,14.811165 33.6009675,14.7697275 C33.7016925,14.5721025 33.843855,14.492415 34.0841925,14.484765 C35.1182175,14.451615 36.0795675,14.15454 36.931905,13.5610275 C37.189455,13.38189 37.4144925,13.1466525 37.6248675,12.91014 C37.8862425,12.61689 38.0213925,12.2579775 38.06793,11.8652775 C38.194155,10.7891775 37.268505,10.088565 36.2937675,10.2932025 C35.939955,10.36779 35.687505,10.59474 35.4701175,10.87269 C35.274405,11.1232275 35.07423,11.3718525 34.863855,11.6102775 C34.70958,11.78559 34.5087675,11.8907775 34.27608,11.9405025 C33.51618,12.1011525 32.7989925,11.7938775 32.418405,11.118765 C32.30748,10.92114 32.2201425,10.7050275 32.1563925,10.48764 C31.9791675,9.88329 31.969605,9.2630025 32.03463,8.6408025 C32.0849925,8.16459 32.20293,7.706865 32.47323,7.303965 C32.9953425,6.5243025 33.545505,6.46374 34.246755,6.56829 C34.6872675,6.6339525 34.9996425,6.901065 35.2418925,7.26189 C35.373855,7.45824 35.50518,7.6552275 35.6435175,7.8477525 C35.81883,8.09064 36.0693675,8.19519 36.3600675,8.211765 C36.4748175,8.2187775 36.5895675,8.2200525 36.70368,8.2124025 C37.45338,8.1626775 38.09088,7.5978525 38.046255,6.7614525 C38.01693,6.20109 37.770855,5.743365 37.401105,5.3423775 C37.023705,4.9331025 36.56598,4.6385775 36.054705,4.4243775 C34.9728675,3.9692025 33.85023,3.8850525 32.7161175,4.1413275 C30.837405,4.5659025 29.58408,5.694915 29.039655,7.5596025 C28.7381175,8.5910775 28.7291925,9.6455025 28.9650675,10.6884525 C29.3947425,12.590115 30.5549925,13.8083775 32.4521925,14.3056275 C32.60583,14.34579 32.76138,14.3783025 32.93988,14.41974 C32.8385175,14.55489 32.74353,14.6664525 32.6663925,14.7888525 C32.58798,14.9125275 32.507655,15.03939 32.46303,15.1764525 C32.3680425,15.4646025 32.4929925,15.6405525 32.793255,15.66159 C32.93988,15.6724275 33.08778,15.6609525 33.234405,15.667965 C33.397605,15.675615 33.48813,15.7540275 33.5308425,15.9095775 C33.591405,16.13079 33.481755,16.333515 33.257355,16.3749525 C33.140055,16.397265 33.012555,16.3902525 32.892705,16.37304 C32.6995425,16.34499 32.5095675,16.28889 32.316405,16.2602025 C31.98108,16.20984 31.76433,16.4425275 31.8605925,16.7625525 C31.890555,16.86264 31.972155,16.9691025 32.0594925,17.0264775 C32.1793425,17.1042525 32.324055,17.1590775 32.46558,17.185215 C32.96793,17.27829 33.4747425,17.26554 33.9770925,17.1782025 C34.3455675,17.1144525 34.6834425,16.97994 34.9384425,16.6847775 C35.509005,16.0256025 35.2074675,15.0948525 34.3557675,14.91954 C34.1594175,14.8793775 33.950955,14.8972275 33.74823,14.892765 C33.68448,14.89149 33.6200925,14.905515 33.53403,14.91444 L33.53403,14.91444 Z M42.2314425,5.66666667e-05 C46.6212675,5.66666667e-05 51.010455,5.66666667e-05 55.3996425,0.000765 C55.7183925,0.000765 56.036505,0.0065025 56.3469675,0.0970275 C57.5327175,0.4425525 58.3346925,1.497615 58.3359675,2.74074 C58.339155,5.96139 58.3372425,9.18204 58.3372425,12.40269 C58.3372425,13.5304275 58.3410675,14.6588025 58.3359675,15.78654 C58.3295925,17.039865 57.4931925,18.110865 56.2768425,18.421965 C56.08113,18.4723275 55.87458,18.483165 55.6724925,18.5067525 C55.600455,18.51504 55.5258675,18.508665 55.4519175,18.508665 C46.624455,18.508665 37.796355,18.5080275 28.9688925,18.50994 C28.6399425,18.5105775 28.31673,18.4850775 28.0024425,18.3843525 C26.869605,18.0209775 26.1192675,17.0009775 26.086755,15.777615 C26.08548,15.7285275 26.0858486,15.67944 26.0858486,15.63099 C26.0858486,11.38014 26.084205,7.1299275 26.09058,2.879715 C26.09058,2.5960275 26.1090675,2.300865 26.18748,2.0312025 C26.502405,0.9474525 27.22788,0.27999 28.330755,0.0422025 C28.5596175,-0.0075225 28.802505,0.00204 29.0390175,0.00204 C33.4364925,-0.00051 37.8339675,5.66666667e-05 42.2314425,5.66666667e-05 L42.2314425,5.66666667e-05 Z" id="Fill-18" fill="#E82829"></path>
                            <path d="M51.4364962,35.8872338 C51.4632712,35.1037463 51.4932337,34.4758088 51.6742838,33.8669963 C51.7673587,33.5507963 51.9018712,33.2569088 52.0918463,32.9866088 C52.7790712,32.0093213 54.3689962,32.0144213 55.0536713,32.9757713 C55.3099463,33.3353213 55.4686837,33.7337588 55.5515587,34.1627963 C55.7555588,35.2165838 55.7721338,36.2710088 55.5394462,37.3228838 C55.4718712,37.6269713 55.3583962,37.9163963 55.1900963,38.1803213 C54.8528587,38.7094463 54.3626213,38.9791088 53.7423338,39.0065213 C53.5402462,39.0154463 53.3336962,39.0026963 53.1335213,38.9701838 C52.5801712,38.8815713 52.1817337,38.5672838 51.9076088,38.0859713 C51.7061588,37.7334338 51.5920462,37.3496588 51.5378587,36.9518588 C51.4830337,36.5483213 51.4600838,36.1403213 51.4364962,35.8872338" id="Fill-20" fill="#E82829"></path>
                            <path d="M33.5342213,14.9145038 C33.6202838,14.9055788 33.6840338,14.8915538 33.7477838,14.8928288 C33.9511463,14.8972913 34.1596088,14.8794413 34.3559588,14.9196038 C35.2076588,15.0949163 35.5085588,16.0256663 34.9386338,16.6848413 C34.6836338,16.9800038 34.3451213,17.1145163 33.9772838,17.1782663 C33.4749338,17.2656038 32.9681213,17.2783538 32.4651338,17.1852788 C32.3242463,17.1591413 32.1795338,17.1043163 32.0596838,17.0265413 C31.9717088,16.9691663 31.8907463,16.8627038 31.8607838,16.7619788 C31.7645213,16.4425912 31.9806338,16.2099038 32.3165963,16.2602663 C32.5097588,16.2889538 32.6990963,16.3450538 32.8928963,16.3731038 C33.0127463,16.3903163 33.1396088,16.3973288 33.2575463,16.3750163 C33.4813088,16.3335788 33.5915963,16.1308538 33.5310338,15.9096413 C33.4876838,15.7534538 33.3977963,15.6756788 33.2345963,15.6680288 C33.0879713,15.6610163 32.9400713,15.6718538 32.7934463,15.6616538 C32.4925463,15.6406163 32.3675963,15.4646663 32.4625838,15.1765163 C32.5078463,15.0394538 32.5881713,14.9125913 32.6659463,14.7889163 C32.7437213,14.6665163 32.8380713,14.5549538 32.9394338,14.4198038 C32.7615713,14.3783663 32.6053838,14.3458538 32.4517463,14.3050538 C30.5545463,13.8084413 29.3942963,12.5901788 28.9652588,10.6885163 C28.7293838,9.64492875 28.7383088,8.59114125 29.0398463,7.55902875 C29.5842713,5.69497875 30.8375963,4.56596625 32.7156713,4.14139125 C33.8504213,3.88511625 34.9724213,3.96926625 36.0548963,4.42380375 C36.5661713,4.63864125 37.0238963,4.93316625 37.4006588,5.34244125 C37.7710463,5.74342875 38.0171213,6.20115375 38.0464463,6.76087875 C38.0904338,7.59791625 37.4529338,8.16274125 36.7032338,8.21246625 C36.5891213,8.22011625 36.4743713,8.21884125 36.3602588,8.21182875 C36.0695588,8.19525375 35.8183838,8.09006625 35.6437088,7.84781625 C35.5047338,7.65529125 35.3740463,7.45830375 35.2414463,7.26195375 C34.9991963,6.90112875 34.6874588,6.63401625 34.2463088,6.56835375 C33.5456963,6.46380375 32.9948963,6.52436625 32.4734213,7.30402875 C32.2031213,7.70692875 32.0851838,8.16465375 32.0348213,8.64086625 C31.9691588,9.26306625 31.9793588,9.88271625 32.1565838,10.4877037 C32.2203338,10.7050913 32.3076713,10.9212038 32.4185963,11.1181913 C32.7991838,11.7933037 33.5157338,12.1012163 34.2762713,11.9399287 C34.5083213,11.8908413 34.7091338,11.7856538 34.8634088,11.6103413 C35.0744213,11.3712788 35.2739588,11.1232913 35.4703088,10.8727538 C35.6870588,10.5948037 35.9401463,10.3678538 36.2939588,10.2932662 C37.2686963,10.0886288 38.1943463,10.7892413 38.0674838,11.8653413 C38.0215838,12.2580412 37.8857963,12.6169538 37.6250588,12.9102038 C37.4146838,13.1467163 37.1896463,13.3819538 36.9320963,13.5610913 C36.0797588,14.1546038 35.1184088,14.4516788 34.0837463,14.4848288 C33.8434088,14.4918413 33.7018838,14.5721663 33.6011588,14.7691538 C33.5801213,14.8112288 33.5616338,14.8539413 33.5342213,14.9145038" id="Fill-22" fill="#FFFFFF"></path>
                            <path d="M43.1387325,7.33207875 C43.122795,7.33016625 43.10622,7.32761625 43.089645,7.32570375 C42.9143325,7.91921625 42.7332825,8.51145375 42.564345,9.10751625 C42.39732,9.69656625 42.199695,10.2792412 42.05817,10.8874162 L44.1816825,10.8874162 C43.83042,9.68955375 43.4842575,8.51081625 43.1387325,7.33207875 M44.7707325,12.9280538 L41.457645,12.9280538 C41.40027,13.1116538 41.342895,13.2888788 41.289345,13.4673788 C41.07387,14.1839288 40.475895,14.5517663 39.73002,14.4255413 C39.51072,14.3879287 39.30417,14.3165288 39.1161075,14.1934912 C38.5946325,13.8524288 38.39382,13.3749413 38.5436325,12.7297912 C38.63352,12.3409162 38.754645,11.9577787 38.887245,11.5816537 C39.613995,9.51806625 40.3452075,7.45575375 41.0859825,5.39726625 C41.184795,5.12441625 41.325045,4.85921625 41.48442,4.61569125 C41.712645,4.26634125 42.056895,4.08465375 42.4770075,4.07572875 C42.9015825,4.06680375 43.326795,4.06680375 43.75137,4.07636625 C44.1714825,4.08592875 44.509995,4.27271625 44.7439575,4.61760375 C44.8803825,4.81905375 45.007245,5.03580375 45.088845,5.26339125 C45.90867,7.56221625 46.720845,9.86422875 47.52792,12.1668788 C47.610795,12.4046663 47.6739075,12.6539288 47.7045075,12.9031913 C47.794395,13.6318537 47.3742825,14.2151662 46.6590075,14.3923913 C46.2701325,14.4886537 45.897195,14.4389287 45.53637,14.2750912 C45.2616075,14.1495038 45.07482,13.9455038 44.989395,13.6516162 C44.9211825,13.4170163 44.84787,13.1836913 44.7707325,12.9280538" id="Fill-24" fill="#FFFFFF"></path>
                            <path d="M55.7888362,8.543265 C55.7888362,9.425565 55.7983987,10.3085025 55.7837362,11.190165 C55.7786362,11.4980775 55.7454862,11.8130025 55.6689862,12.1100775 C55.4458613,12.97644 54.9046237,13.6082025 54.1090237,13.99134 C52.7128987,14.66454 51.2931862,14.68239 49.8753862,14.0442525 C49.5528112,13.8989025 49.2659362,13.6949025 49.0166737,13.4424525 C48.3313612,12.7475775 48.1024987,11.91309 48.2924737,10.9664025 C48.4288987,10.2842775 48.9121237,9.8928525 49.6069987,9.874365 C49.7689237,9.8699025 49.9359487,9.8737275 50.0934112,9.90879 C50.7136987,10.045215 51.0592238,10.4729775 51.0859988,11.10474 C51.0923737,11.2583775 51.1019362,11.4164775 51.1414612,11.56374 C51.2230612,11.8716525 51.4621237,12.0437775 51.7929862,12.0603525 C52.1053612,12.07629 52.3558987,11.93094 52.4572612,11.62494 C52.5305737,11.40309 52.5694612,11.1653025 52.5879487,10.9319775 C52.6115363,10.639365 52.6000612,10.343565 52.6000612,10.0496775 C52.6006987,8.6446275 52.5949612,7.2395775 52.6051612,5.83389 C52.6064362,5.58399 52.6408612,5.32644 52.7109862,5.0873775 C52.8862987,4.496415 53.3784487,4.11774 53.9929987,4.080765 C54.1950862,4.0686525 54.4048237,4.0686525 54.6018112,4.108815 C55.2138112,4.2331275 55.6409362,4.6997775 55.7435737,5.3360025 C55.7722612,5.51259 55.7862862,5.6930025 55.7869237,5.87214 C55.7913863,6.7627275 55.7888362,7.653315 55.7888362,8.543265" id="Fill-26" fill="#FFFFFF"></path>
                            <path d="M43.1387325,7.33207875 C43.4842575,8.51081625 43.83042,9.68955375 44.1816825,10.8874162 L42.05817,10.8874162 C42.199695,10.2792412 42.39732,9.69656625 42.564345,9.10751625 C42.7332825,8.51145375 42.9143325,7.91921625 43.089645,7.32570375 C43.10622,7.32761625 43.122795,7.33016625 43.1387325,7.33207875" id="Fill-28" fill="#E82829"></path>
                        </g>
                    </g>
                </g>
            </g>
        </g>
    </g>
</svg>