<?xml version="1.0" encoding="UTF-8"?>
<svg width="62px" height="57px" viewBox="0 0 62 57" version="1.1" xmlns="http://www.w3.org/2000/svg" xmlns:xlink="http://www.w3.org/1999/xlink">
    <!-- Generator: Sketch 59.1 (86144) - https://sketch.com -->
    <title>logo-footer</title>
    <desc>Created with Sketch.</desc>
    <g id="TELLALL-WEBSITE" stroke="none" stroke-width="1" fill="none" fill-rule="evenodd">
        <g id="Tellall-2" transform="translate(-653.000000, -2404.000000)" fill="#3366FF">
            <g id="FOOTER" transform="translate(-37.000000, 2304.000000)">
                <g id="logo-footer" transform="translate(690.000000, 100.000000)">
                    <path d="M15.9757514,15.9727882 C15.9836158,15.9818588 15.9914802,15.9909294 16,16 C14.1020521,15.1888283 12.2231099,14.3342472 10.3651394,13.4375525 C9.00328317,12.7805811 7.6499467,12.0996374 6.37197762,11.2949447 C5.0763136,10.4792377 3.83307907,9.50738652 3.03877214,8.20769761 C3.01583423,8.17076726 2.99289633,8.12930162 3.00207149,8.08654017 C3.01976644,8.00555257 3.13117913,7.99389036 3.21506633,8.00231307 C3.51719133,8.0314686 3.81735022,8.07876536 4.11423226,8.14225963 C4.41176968,8.20640181 4.70668562,8.2867415 4.99570324,8.38392661 C5.28275475,8.48111173 5.56784016,8.59708596 5.84571651,8.7175955 C6.12949119,8.84069665 6.40736754,8.9741642 6.68131168,9.11605447 C6.95591119,9.25794473 7.22592311,9.40890561 7.49134746,9.56634549 C7.75808254,9.72378538 8.02088541,9.88770427 8.28041144,10.0568064 C8.53993747,10.2259085 8.79684202,10.3995459 9.05178046,10.5757749 C9.27919342,10.7345106 9.50464027,10.894542 9.73008712,11.0558693 C11.2492319,12.1456384 12.7297099,13.2872395 14.2108433,14.4281928 C14.8308221,14.9063435 15.4560439,15.3890296 15.9757514,15.9727882" id="Fill-115"></path>
                    <path d="M11.9748172,16.9826542 C11.9832115,16.9886585 11.9916057,16.9939957 12,17 C10.3198573,16.7311397 8.64552603,16.4222507 6.97958901,16.0739999 C5.75790186,15.8184826 4.53879756,15.5409494 3.35327028,15.1453312 C2.15095449,14.7437087 0.958324383,14.2013182 0.0543275493,13.2899953 C0.0284990683,13.2639766 0.00137916326,13.233955 0,13.1972619 C-0.00314082091,13.1258772 0.0833845904,13.0918527 0.151830065,13.0811783 C0.397846346,13.0411495 0.647091188,13.016465 0.896336029,13.0057907 C1.14687229,12.9951163 1.39805427,12.9991192 1.64794483,13.0184665 C1.89718967,13.0371466 2.14837164,13.0731725 2.39503364,13.1138685 C2.64621562,13.1558988 2.89546046,13.2072691 3.14341387,13.2666452 C3.39136729,13.3266884 3.63738357,13.3940703 3.88210843,13.4681236 C4.127479,13.5421769 4.37091243,13.6222345 4.61240873,13.7076294 C4.85455074,13.792357 5.09540132,13.8824219 5.33496048,13.9744882 C5.54869116,14.0572144 5.76242184,14.1419421 5.9748611,14.2286712 C7.41286178,14.8104234 8.82955396,15.4428788 10.2468919,16.0753342 C10.8409469,16.3408587 11.4388763,16.6077175 11.9748172,16.9826542" id="Fill-116"></path>
                    <path d="M51.0267566,14.9846906 C51.0173918,14.9841721 51.0086959,14.9836535 51,14.9826164 C52.4281322,14.575021 53.8683048,14.1933542 55.3191801,13.8376157 C56.3820851,13.5767755 57.453017,13.329418 58.5473609,13.1629573 C59.6564209,12.9939038 60.8183252,12.9109327 61.9093246,13.1422145 C61.9400946,13.1484374 61.9735403,13.157253 61.9902632,13.1785144 C62.0223711,13.2194813 61.9688579,13.2682268 61.9200272,13.2977853 C61.7441027,13.404092 61.5601513,13.5026201 61.3688417,13.5923325 C61.1775322,13.6830821 60.9788647,13.7650161 60.7755147,13.8381343 C60.5728336,13.910734 60.3607878,13.9739994 60.1507487,14.0331163 C59.9366961,14.0932703 59.7199678,14.1472015 59.5005639,14.1954284 C59.28116,14.2436554 59.0604182,14.2866966 58.8376697,14.3255893 C58.6149213,14.3650005 58.390166,14.3992261 58.1654108,14.4308588 C57.9399867,14.4624915 57.7145625,14.4904943 57.4878005,14.5169413 C57.2851195,14.5407955 57.0831073,14.5625754 56.8797574,14.5833181 C55.5104896,14.7254061 54.1352017,14.8306756 52.7605826,14.9359451 C52.1839784,14.9800235 51.6033608,15.0241019 51.0267566,14.9846906" id="Fill-117"></path>
                    <path d="M53.01861,17.0131314 L53,17 C54.2594971,17.2004262 55.5150064,17.4305708 56.7645339,17.6904337 C57.680411,17.8811841 58.5942941,18.0885216 59.4835855,18.3857052 C60.3848404,18.6863445 61.2801136,19.093417 61.959378,19.779704 C61.9786526,19.7990555 61.9985919,19.8211715 62,19.8495076 C62.0025797,19.9034153 61.9374448,19.9289869 61.8862673,19.9372804 C61.7014968,19.9676899 61.515397,19.9870414 61.3279678,19.9953349 C61.1405387,20.0036284 60.9524449,20.0008639 60.7650158,19.9870414 C60.5782513,19.9732189 60.3901576,19.9469562 60.2047224,19.9165467 C60.0166286,19.8854461 59.8298641,19.8467431 59.6437643,19.8025111 C59.4576644,19.757588 59.2728939,19.7071359 59.0894526,19.6518459 C58.9053467,19.5958648 58.7232347,19.5357369 58.5417874,19.4721534 C58.36034,19.4085699 58.1795573,19.3415308 58.0001039,19.2717272 C57.8392605,19.209526 57.6790817,19.1459425 57.5195675,19.0816679 C56.4415178,18.644877 55.3780901,18.1693832 54.3153271,17.6945804 C53.8693521,17.4955365 53.4207186,17.2951103 53.01861,17.0131314" id="Fill-118"></path>
                    <path d="M39.5018594,17.8308912 L50.395108,8.76556459 C50.9337189,8.31747358 51.1662721,7.54052046 50.8703529,6.8945881 C50.4413651,5.95647944 49.3248563,5.73112372 48.5955136,6.33774986 L37.6471366,15.4489337 C36.6529241,15.1017287 35.492059,15.3460824 34.7025187,16.2494706 C33.9547999,17.1050362 33.7824444,18.3910049 34.2893724,19.4175526 C35.1181997,21.0946184 37.1541491,21.4830949 38.492439,20.3694185 C39.254732,19.735278 39.6026113,18.7670345 39.5018594,17.8308912" id="Fill-119"></path>
                    <path d="M28.3633517,9.5105723 L17.5101232,0.387403502 C16.9730894,-0.0635786721 16.1820097,-0.145751895 15.620536,0.27352565 C14.8050163,0.882383937 14.8101616,2.03992642 15.5369259,2.65072581 L26.4454657,11.819834 C26.2981833,12.9637888 26.8506529,14.1679176 28.0520651,14.7411891 C28.9531242,15.1721132 30.0554907,15.0569413 30.8542883,14.4552004 C32.3631282,13.3177159 32.3509083,11.1656834 30.998998,10.0288459 C30.2394328,9.39022412 29.2419005,9.22975987 28.3633517,9.5105723" id="Fill-120"></path>
                    <path d="M55,49.0781457 L55,39.4307663 C52.8348296,41.8689877 51.7509533,43.0713718 49.579973,45.4414002 C46.3709503,42.5399811 44.763534,41.0519584 41.5467648,38 C38.3293499,41.3530369 36.7193514,42.9915989 33.5,46.1940965 C30.2806486,42.9915989 28.6700045,41.3530369 25.4525897,38 C22.2358204,41.0519584 20.6284041,42.5399811 17.4193815,45.4414002 C15.2490467,43.0713718 14.1645248,41.8689877 12,39.4307663 L12,49.0781457 C12,50.520492 13.4111695,52.0464711 15.8229395,53.3968212 C19.2101336,50.3641627 20.9072812,48.806017 24.3041585,45.6054494 C27.3214532,48.7802838 30.3897463,51.9152318 33.5,55 C36.6102537,51.9152318 39.6779012,48.7802838 42.6951959,45.6054494 C46.0927188,48.806017 47.7898664,50.3641627 51.1770605,53.3968212 C53.588185,52.0464711 55,50.520492 55,49.0781457" id="Fill-121"></path>
                    <path d="M35,57 C39.441829,56.6062772 43.8170525,56.1816613 48,54.4194397 C45.7724878,52.2904445 44.6571608,51.2072139 42.4258785,49 C39.4575378,52.2694109 37.9714824,53.8692794 35,57" id="Fill-122" opacity="0.5"></path>
                    <path d="M18,54.4194397 C22.1829475,56.181004 26.5575427,56.6062772 31,57 C28.0285176,53.8692794 26.5424622,52.2694109 23.5741215,49 C21.3428392,51.2065566 20.2275122,52.2904445 18,54.4194397" id="Fill-123" opacity="0.5"></path>
                    <path d="M33,36.3113467 C30.9148275,36.3113467 28.9023935,36.2000204 27,36 C29.3991296,38.4424508 30.599627,39.6425731 33,42 C35.400373,39.6425731 36.6008704,38.4424508 39,36 C37.0976065,36.2000204 35.0851725,36.3113467 33,36.3113467" id="Fill-124"></path>
                    <path d="M12,31 L12,35.8426098 C14.1753324,38.3410221 15.2642958,39.5721047 17.4454654,42 C20.0637769,39.5859445 21.3758513,38.3535438 24,35.8373375 C19.9801103,35.1789587 14.989947,34.0711162 12,31" id="Fill-125" opacity="0.5"></path>
                    <path d="M43,35.8373375 C45.6241487,38.3528848 46.9355745,39.5852855 49.5545346,42 C51.7357042,39.5721047 52.8246676,38.3403631 55,35.8426098 L55,31 C52.010053,34.0711162 47.0198897,35.1782997 43,35.8373375" id="Fill-126" opacity="0.5"></path>
                    <path d="M51.2130827,24 C51.6677212,24.4782015 51.9256537,24.9817426 51.9256537,25.5041258 C51.9256537,28.5032811 43.899786,30.9345722 34,30.9345722 C24.100214,30.9345722 16.0749977,28.5032811 16.0749977,25.5041258 C16.0749977,24.9817426 16.3322788,24.4782015 16.7869173,24 C14.4069043,25.0311221 13,26.284452 13,27.63849 C13,31.1515821 22.4021587,34 34,34 C45.5978413,34 55,31.1515821 55,27.63849 C55,26.284452 53.5930957,25.0311221 51.2130827,24" id="Fill-127"></path>
                </g>
            </g>
        </g>
    </g>
</svg>