<?xml version="1.0" encoding="UTF-8"?>
<svg width="446px" height="306px" viewBox="0 0 446 306" version="1.1" xmlns="http://www.w3.org/2000/svg" xmlns:xlink="http://www.w3.org/1999/xlink">
    <!-- Generator: Sketch 59.1 (86144) - https://sketch.com -->
    <title>logo-fundfooter</title>
    <desc>Created with Sketch.</desc>
    <g id="TELLALL-WEBSITE" stroke="none" stroke-width="1" fill="none" fill-rule="evenodd">
        <g id="Tellall-2" transform="translate(-461.000000, -3073.000000)" stroke="#3366FF">
            <g id="FOOTER" transform="translate(-37.000000, 2304.000000)">
                <g id="logo-fundfooter" transform="translate(499.000000, 770.000000)">
                    <path d="M118.291726,117.735309 C118.349337,117.802522 118.406948,117.869735 118.46936,117.936948 C104.565867,111.926184 90.8016009,105.593757 77.1909645,98.9492701 C67.214632,94.0811272 57.3007116,89.0353498 47.9388982,83.0725948 C38.4474597,77.0282239 29.3400955,69.826829 23.5213684,60.1961635 C23.3533359,59.9225105 23.1853033,59.615251 23.2525163,59.2983896 C23.3821415,58.6982733 24.1982995,58.6118566 24.8128186,58.6742687 C27.0260473,58.8903105 29.2248732,59.2407784 31.3996945,59.7112696 C33.5793167,60.1865616 35.7397352,60.7818769 37.8569453,61.5020164 C39.9597526,62.2221559 42.0481571,63.0815224 44.0837514,63.9744954 C46.1625541,64.8866721 48.1981484,65.8756636 50.2049372,66.9270673 C52.2165268,67.978471 54.1945099,69.0970876 56.1388866,70.2637136 C58.0928651,71.4303396 60.018038,72.6449749 61.9192063,73.8980176 C63.8203745,75.1510603 65.7023391,76.4377095 67.5699008,77.7435625 C69.2358235,78.9197903 70.8873434,80.10562 72.5388633,81.3010516 C83.667419,89.3762158 94.5127198,97.8354544 105.362821,106.289892 C109.904501,109.832978 114.484588,113.409671 118.291726,117.735309" id="Fill-115"></path>
                    <path d="M89.0338985,127.679475 C89.0963106,127.722684 89.1587227,127.761091 89.2211348,127.804299 C76.729115,125.869525 64.2803036,123.646694 51.8939043,121.140609 C42.8105448,119.301853 33.7463891,117.304666 24.9318816,114.457714 C15.9925501,111.567554 7.12523241,107.664398 0.403930466,101.106328 C0.211893268,100.919092 0.0102542093,100.70305 -1.42108547e-14,100.438999 C-0.0233523004,99.9252992 0.619972314,99.6804518 1.12887089,99.6036369 C2.95802521,99.3155811 4.81118417,99.1379467 6.66434314,99.0611318 C8.52710396,98.9843169 10.3946657,99.0131225 12.2526256,99.1523495 C14.1057846,99.2867755 15.9733463,99.5460257 17.8073016,99.8388825 C19.6748633,100.141341 21.5280223,100.511013 23.3715794,100.938295 C25.2151365,101.370379 27.0442908,101.855273 28.8638433,102.388176 C30.6881967,102.921079 32.4981473,103.497191 34.2936951,104.11171 C36.0940438,104.721428 37.8847907,105.369554 39.6659357,106.032082 C41.2550435,106.627397 42.8441513,107.237116 44.4236573,107.861236 C55.1153283,112.047647 65.6485687,116.598929 76.1866099,121.150211 C80.6034655,123.060981 85.0491266,124.981353 89.0338985,127.679475" id="Fill-116"></path>
                    <path d="M360.342612,113.112494 C360.275399,113.107693 360.212987,113.102892 360.150575,113.09329 C370.400561,109.319759 380.736963,105.786274 391.15018,102.492837 C398.778858,100.077969 406.465146,97.7879252 414.319468,96.2468267 C422.27941,94.6817235 430.618625,93.9135747 438.448942,96.0547895 C438.669785,96.1124006 438.909831,96.1940164 439.029854,96.3908546 C439.260299,96.770128 438.876225,97.2214154 438.525757,97.4950685 C437.263112,98.4792591 435.942856,99.3914358 434.56979,100.221997 C433.196724,101.062159 431.770848,101.820706 430.311366,102.497637 C428.856684,103.169768 427.334789,103.755481 425.827297,104.302787 C424.290999,104.859695 422.735498,105.358992 421.160793,105.805478 C419.586088,106.251965 418.001781,106.650442 416.403071,107.010512 C414.804362,107.375382 413.191249,107.692244 411.578137,107.9851 C409.960223,108.277957 408.34231,108.537207 406.714795,108.782055 C405.260113,109.002898 403.810232,109.204537 402.350749,109.396574 C392.523246,110.712029 382.652534,111.686617 372.786623,112.661206 C368.648221,113.069285 364.481014,113.477364 360.342612,113.112494" id="Fill-117"></path>
                    <path d="M378.648558,123.391765 L378.514132,123.300547 C387.611894,124.692817 396.680851,126.291526 405.706599,128.096676 C412.322281,129.421733 418.92356,130.862012 425.347204,132.926412 C431.857265,135.014816 438.324118,137.842564 443.230668,142.609887 C443.369895,142.744313 443.513923,142.897943 443.524094,143.094781 C443.542728,143.469254 443.072237,143.646888 442.702566,143.704499 C441.367907,143.91574 440.023647,144.050166 438.669785,144.107778 C437.315922,144.165389 435.957259,144.146185 434.603397,144.050166 C433.254336,143.954148 431.895672,143.771712 430.556213,143.560472 C429.19755,143.34443 427.848488,143.075578 426.504228,142.768318 C425.159968,142.456258 423.825309,142.10579 422.500252,141.721715 C421.170395,141.33284 419.85494,140.915159 418.544286,140.473474 C417.233632,140.031788 415.927779,139.566098 414.631528,139.081204 C413.469703,138.64912 412.312679,138.207435 411.160456,137.760948 C403.373347,134.72676 395.69186,131.423721 388.015173,128.125482 C384.793749,126.742814 381.553121,125.350544 378.648558,123.391765" id="Fill-118"></path>
                    <path d="M277.493924,129.77028 L360.026711,63.3350115 C364.107502,60.0511754 365.869443,54.3572725 363.627409,49.6235555 C360.377179,42.7486238 351.91794,41.0971039 346.39207,45.5427651 L263.441602,112.314099 C255.908943,109.769606 247.113639,111.560353 241.131681,118.180835 C235.466583,124.45085 234.16073,133.875075 238.001474,141.398133 C244.281091,153.688513 259.706479,156.535465 269.846043,148.373884 C275.621561,143.726584 278.257272,136.630809 277.493924,129.77028" id="Fill-119"></path>
                    <path d="M195.866112,70.5676125 L114.850419,2.87450001 C110.841643,-0.471748171 104.936499,-1.08146628 100.745287,2.02953634 C94.6577079,6.54721143 94.6961153,15.1360751 100.121166,19.668153 L181.549739,87.7021315 C180.450326,96.1901757 184.574325,105.124706 193.542462,109.37833 C200.268565,112.57575 208.497359,111.721184 214.460114,107.256319 C225.723096,98.8162844 225.631878,82.8483913 215.540323,74.4131574 C209.870425,69.6746395 202.424183,68.4840089 195.866112,70.5676125" id="Fill-120"></path>
                    <path d="M390.263928,348.03688 L390.263928,276.042134 C374.161609,294.237658 366.100848,303.210596 349.95532,320.897222 C326.089897,299.245028 314.135582,288.140477 290.212548,265.364866 C266.284713,290.387313 254.311193,302.615281 230.368956,326.514311 C206.426718,302.615281 194.448398,290.387313 170.520563,265.364866 C146.597529,288.140477 134.643213,299.245028 110.77779,320.897222 C94.6370639,303.210596 86.5715015,294.237658 70.4739834,276.042134 L70.4739834,348.03688 C70.4739834,358.800565 80.9688163,370.18837 98.9050906,380.265522 C124.09557,357.633939 136.717215,346.006086 161.979708,322.12146 C184.419255,345.814049 207.238075,369.208981 230.368956,392.22944 C253.499836,369.208981 276.313855,345.814049 298.753402,322.12146 C324.020697,346.006086 336.642341,357.633939 361.832821,380.265522 C379.764294,370.18837 390.263928,358.800565 390.263928,348.03688" id="Fill-121"></path>
                    <path d="M230.367996,253.701486 C214.265676,253.701486 198.725066,252.827717 184.03422,251.257813 C202.561009,270.427926 211.831605,279.847351 230.367996,298.350135 C248.904386,279.847351 258.174982,270.427926 276.701771,251.257813 C262.010925,252.827717 246.470315,253.701486 230.367996,253.701486" id="Fill-124"></path>
                    <path d="M70.4725431,212.600245 L70.4725431,247.877478 C86.5748622,266.077804 94.6356236,275.045941 110.781151,292.732567 C130.162505,275.14676 139.874787,266.169021 159.299349,247.839071 C129.543185,243.042942 92.6048302,234.972578 70.4725431,212.600245" id="Fill-125"></path>
                    <path d="M301.437602,247.840991 C320.862165,266.166141 330.569645,275.14388 349.9558,292.734487 C366.101328,275.047861 374.162089,266.074923 390.264408,247.879399 L390.264408,212.602165 C368.132121,234.974499 331.193766,243.040061 301.437602,247.840991" id="Fill-126"></path>
                    <path d="M357.241211,163.311017 C360.592261,166.844502 362.493429,170.565222 362.493429,174.42517 C362.493429,196.586263 303.33637,214.551343 230.367035,214.551343 C157.397701,214.551343 98.2454428,196.586263 98.2454428,174.42517 C98.2454428,170.565222 100.14181,166.844502 103.492859,163.311017 C85.9502612,170.930093 75.5802525,180.191087 75.5802525,190.196225 C75.5802525,216.154853 144.881676,237.20213 230.367035,237.20213 C315.852394,237.20213 385.153818,216.154853 385.153818,190.196225 C385.153818,180.191087 374.78381,170.930093 357.241211,163.311017" id="Fill-127"></path>
                </g>
            </g>
        </g>
    </g>
</svg>